<svg width="101" height="111" viewBox="0 0 101 111" fill="none" xmlns="http://www.w3.org/2000/svg">
<path d="M56.0524 19.4438L52.8622 19.191L54.3189 1.15714L57.5452 0.976562L56.0645 19.4438H56.0524Z" fill="#F2D8AF"/>
<path d="M71.8953 17.5657C71.2212 19.4557 70.1016 20.7679 68.5365 21.5023C66.9715 22.2366 65.3102 22.2968 63.5646 21.6708C61.8069 21.0448 60.579 19.9734 59.8808 18.4565C59.1705 16.9396 59.1705 15.2181 59.8446 13.2919C60.5188 11.3898 61.6384 10.0656 63.2034 9.33122C64.7564 8.59686 66.4177 8.53667 68.1874 9.17471C69.9451 9.80072 71.161 10.8722 71.8713 12.4011C72.5695 13.93 72.5815 15.6515 71.8953 17.5657ZM67.116 19.0103C67.8865 18.5047 68.4764 17.686 68.8977 16.5183C69.307 15.3626 69.3672 14.3273 69.0783 13.4244C68.7894 12.5215 68.1634 11.8954 67.2123 11.5584C66.2372 11.2092 65.3704 11.2935 64.5879 11.8112C63.8054 12.3288 63.2155 13.1715 62.8061 14.3273C62.3968 15.4709 62.3366 16.4822 62.6376 17.3851C62.9265 18.288 63.5646 18.9019 64.5277 19.2511C65.4787 19.5881 66.3455 19.5159 67.116 19.0103Z" fill="#F2D8AF"/>
<path d="M71.3896 25.451C71.0887 24.9454 70.9201 24.4278 70.884 23.9101C70.8599 23.3924 70.9924 22.947 71.3054 22.5738C71.6665 22.1404 72.1601 21.8756 72.7861 21.7793C73.4121 21.6829 74.0743 21.7552 74.7484 22.02C74.4354 21.2977 74.3391 20.5393 74.4595 19.7568C74.5799 18.9742 74.9049 18.2519 75.4467 17.6018C76.3014 16.5665 77.3969 16.0127 78.7453 15.9405C80.0936 15.8683 81.4178 16.3619 82.718 17.4333C83.6089 18.1677 84.3432 19.1187 84.9331 20.2865L87.714 22.1886L86.0407 24.4278L84.4636 22.5979C84.4877 23.1637 84.2228 23.7777 83.657 24.4639C82.8384 25.451 81.779 25.9687 80.4547 26.0169C79.1425 26.065 77.8905 25.6075 76.7228 24.6444C76.3014 24.2953 75.9162 23.886 75.543 23.3924C74.8808 23.1757 74.3993 23.248 74.0983 23.6091C73.8816 23.874 73.8696 24.187 74.0502 24.5361C74.2428 24.8852 74.7123 25.3788 75.4587 25.9928H75.4828L75.5069 26.0289H75.5309L75.555 26.065H75.5791L75.6032 26.1011L75.6393 26.1372H75.6634L75.6874 26.1734H75.7115L75.7356 26.2095L75.7717 26.2456H75.7958L75.8319 26.2937H75.856L75.8921 26.3419H75.9162L75.9523 26.3901L75.9884 26.4262H76.0125L76.0486 26.4743L76.0847 26.5104L76.1208 26.5466L76.1569 26.5827L76.1931 26.6188L76.2292 26.6549L76.2653 26.691L76.4338 26.8234C79.3111 29.2071 80.0334 31.2777 78.5647 33.0474C77.6497 34.155 76.3375 34.6245 74.6521 34.4559C72.9667 34.2754 71.3415 33.541 69.7765 32.2529C68.4522 31.1574 67.5614 30.0257 67.0798 28.8339C66.6103 27.6421 66.7186 26.6308 67.4049 25.8002C67.8382 25.2705 68.4041 24.9695 69.1023 24.8852C69.8005 24.801 70.5469 24.9936 71.3294 25.4631L71.3896 25.451ZM72.3889 26.8355C71.3415 26.4623 70.5831 26.5586 70.1135 27.1364C69.7403 27.5819 69.6922 28.1597 69.9691 28.858C70.246 29.5562 70.7757 30.2545 71.5943 30.9166C72.4611 31.6269 73.2917 32.0723 74.1104 32.2288C74.917 32.3973 75.5309 32.2288 75.9282 31.7473C76.2894 31.3139 76.3135 30.8444 76.0245 30.3508C75.7356 29.8572 75.1096 29.2071 74.1706 28.4366C73.4723 27.8588 72.8824 27.3291 72.4009 26.8355H72.3889ZM77.8062 19.5762C77.3247 20.1661 77.108 20.768 77.1561 21.394C77.2043 22.02 77.5173 22.5738 78.1072 23.0553C78.6489 23.5008 79.2268 23.6693 79.8287 23.561C80.4307 23.4526 80.9844 23.0915 81.4901 22.4775C81.9837 21.8756 82.2124 21.2736 82.1883 20.6717C82.1642 20.0698 81.8512 19.516 81.2493 19.0224C80.7076 18.577 80.1177 18.3964 79.4916 18.5047C78.8656 18.6131 78.2998 18.9742 77.7942 19.5762H77.8062Z" fill="#F2D8AF"/>
<path d="M91.5665 39.4041C89.8449 40.4273 88.1475 40.7163 86.4741 40.2829C84.8007 39.8495 83.4885 38.8262 82.5375 37.2371C81.5864 35.636 81.3216 34.0228 81.755 32.4096C82.1763 30.7964 83.2718 29.4601 85.0295 28.4248C86.763 27.3895 88.4725 27.0885 90.1459 27.5219C91.8193 27.9433 93.1315 28.9665 94.0825 30.5797C95.0336 32.1809 95.2864 33.794 94.853 35.4072C94.4196 37.0324 93.3241 38.3567 91.5665 39.4041ZM86.9677 37.4658C87.8826 37.5742 88.8698 37.3214 89.9292 36.6833C90.9886 36.0573 91.6868 35.2989 92.048 34.4201C92.4092 33.5412 92.3249 32.6624 91.8072 31.7836C91.2775 30.8927 90.5552 30.4112 89.6282 30.3028C88.7013 30.2065 87.7021 30.4714 86.6427 31.0974C85.6073 31.7114 84.9091 32.4578 84.56 33.3486C84.2108 34.2274 84.2951 35.1063 84.8248 35.9971C85.3425 36.8639 86.0528 37.3575 86.9677 37.4658Z" fill="#F2D8AF"/>
<path d="M95.9124 51.8761C95.5633 52.3215 95.0937 52.5744 94.5039 52.6466C93.914 52.7188 93.3963 52.5864 92.9388 52.2373C92.4814 51.8882 92.2286 51.4186 92.1563 50.8047C92.0841 50.1787 92.2165 49.6369 92.5777 49.1915C92.9268 48.734 93.4083 48.4812 93.9982 48.409C94.5881 48.3368 95.1058 48.4812 95.5512 48.8303C95.9966 49.1795 96.2495 49.673 96.3337 50.2991C96.406 50.913 96.2735 51.4307 95.9244 51.8761H95.9124Z" fill="#F2D8AF"/>
<path d="M86.6426 65.7806L87.7261 62.8552L100.776 63.722L99.6203 66.8521L90.6395 65.8408L97.983 71.21L96.8755 74.2077L87.7863 73.7141L95.3225 78.4814L94.1547 81.6596L83.657 73.8826L84.7405 70.9332L93.9381 71.3545L86.6426 65.7686V65.7806Z" fill="#F2D8AF"/>
<path d="M83.8256 82.8394L83.7654 82.7792C82.9709 82.1171 82.1161 81.8162 81.2132 81.8643C80.3103 81.9125 79.4797 82.3338 78.7092 83.1284C77.7581 84.1155 77.1442 85.3194 76.8432 86.74L74.6401 85.199C75.0133 83.8146 75.8079 82.4783 77.0118 81.2142C78.3962 79.7576 79.9371 79.0112 81.6346 78.9389C83.332 78.8667 84.8971 79.5288 86.3417 80.8892C87.8104 82.2857 88.5688 83.8507 88.6411 85.5843C88.7133 87.3178 88.0993 88.8708 86.7992 90.2312C85.6796 91.411 84.4757 92.0009 83.1876 92.037C81.8994 92.0731 80.6956 91.5313 79.576 90.4719C78.9981 89.9182 78.5647 89.3764 78.2517 88.8347L83.8136 82.8394H83.8256ZM85.1258 84.1878L81.442 88.0883L81.5985 88.2328C82.9227 89.4968 84.1266 89.545 85.2221 88.4013C85.8 87.7994 86.0528 87.1011 86.0046 86.3186C85.9565 85.5361 85.6555 84.8258 85.1258 84.1878Z" fill="#F2D8AF"/>
<path d="M64.8768 96.9368C63.998 95.1792 63.8174 93.4577 64.3351 91.7843C64.8527 90.1109 65.9121 88.8709 67.5133 88.0764C68.4041 87.631 69.295 87.342 70.1979 87.2217L72.726 85.4399L81.0086 101.981L78.3481 103.799L75.1097 97.3341C74.604 98.7788 73.7975 99.778 72.7019 100.332C71.2332 101.066 69.7765 101.114 68.344 100.488C66.9114 99.8502 65.7556 98.6704 64.8889 96.9489L64.8768 96.9368ZM67.7179 95.3598C68.2717 96.4553 68.9459 97.2017 69.7765 97.5869C70.5952 97.9722 71.4379 97.9481 72.3167 97.5147C73.1594 97.0934 73.7734 96.4071 74.1586 95.4441V95.42L74.1345 95.3959V95.3718L74.1105 95.3477V95.3237L74.0864 95.2996V95.2755L74.0623 95.2514V95.2274L74.0382 95.2033V95.1792L74.0142 95.1551V95.131L73.9901 95.107V95.0829L73.966 95.0588V95.0347L73.9419 95.0107V94.9866L73.9178 94.9625V94.9384L73.8938 94.9144V94.8903L73.8697 94.8662V94.8421L73.8456 94.818V94.794L73.8215 94.7699V94.7458L73.7975 94.7217V94.6977L73.7734 94.6736V94.6495L73.7493 94.6254V94.6013L73.7252 94.5773V94.5532L73.7011 94.5291V94.505L73.6771 94.481V94.4569L73.653 94.4328V94.4087L73.6289 94.3846V94.3606L73.6048 94.3365V94.3124L73.5808 94.2883L73.5567 94.2402V94.2161L73.5326 94.192V94.168L73.5085 94.1439V94.1198L73.4845 94.0957L73.4604 94.0476V94.0235L73.4363 93.9994V93.9753L73.4122 93.9513L73.3881 93.9031V93.879L73.3641 93.855V93.8309L73.3279 93.7827V93.7586L73.3039 93.7346V93.7105L73.2678 93.6623V93.6383L73.2437 93.6142L73.2196 93.566V93.5419L73.1955 93.5179L73.1714 93.4697V93.4456L73.1474 93.4216L73.1233 93.3734V93.3493L73.0992 93.3253L73.0751 93.2771V93.253L73.0511 93.2289L73.027 93.1808V93.1567L72.9909 93.1086V93.0845L72.9668 93.0604L72.9427 93.0122V92.9882L72.9066 92.94V92.9159L72.8705 92.8678V92.8437L72.8344 92.7955V92.7715L72.8103 92.7474L72.7862 92.6992V92.6752L72.7501 92.627V92.6029L72.714 92.5548V92.5307L72.6779 92.4825L72.6538 92.4344V92.4103L72.6177 92.3622V92.3381L72.5816 92.2899V92.2659L72.5454 92.2177V92.1936L72.5093 92.1455L72.4852 92.0973V92.0732L72.4491 92.0251V92.001L72.413 91.9528L72.3889 91.9047V91.8806L72.3528 91.8325V91.8084L72.3167 91.7602L72.2926 91.7121V91.688L72.2565 91.6398L72.2324 91.5917V91.5676L72.1963 91.5195L72.1722 91.4713V91.4472L72.1361 91.3991L72.112 91.3509V91.3268L72.0759 91.2787L72.0519 91.2305L72.0278 91.1824V91.1583L71.9917 91.1101L71.9676 91.062V91.0379L71.9315 90.9897L71.9074 90.9416L71.8833 90.8934V90.8694L71.8472 90.8212L71.8231 90.7731L71.799 90.7249L71.775 90.6768V90.6527L71.7388 90.6045L71.7148 90.5564L71.6907 90.5082L71.6666 90.4601V90.436L71.6305 90.3878L71.6064 90.3397L71.5823 90.2915L71.5583 90.2434V90.2193L71.5222 90.1711L71.4981 90.123L71.474 90.0748L71.4499 90.0267L71.3536 89.834C70.5952 89.6896 69.7886 89.834 68.9338 90.2554C67.9948 90.7249 67.429 91.4352 67.2364 92.3742C67.0438 93.3132 67.2123 94.3245 67.742 95.3839L67.7179 95.3598Z" fill="#F2D8AF"/>
<path d="M52.1881 96.1061C52.0195 94.9263 52.3566 93.891 53.1873 93.0121C54.0179 92.1333 55.2218 91.5795 56.7748 91.3629C58.6167 91.11 60.266 91.2665 61.7347 91.8444L61.3856 94.4086C59.9169 93.8308 58.4722 93.6382 57.0396 93.8428C56.4136 93.9271 55.9321 94.1197 55.607 94.4086C55.27 94.6976 55.1375 95.0587 55.1977 95.4921C55.2579 95.9375 55.5107 96.2505 55.9562 96.4311C56.4016 96.5997 57.0517 96.7321 57.9185 96.8164C59.2788 96.9367 60.3743 97.2377 61.193 97.7193C62.0116 98.2008 62.4931 98.9833 62.6376 100.079C62.7941 101.247 62.4811 102.234 61.6745 103.076C60.8679 103.919 59.7243 104.425 58.2435 104.629C56.522 104.87 54.981 104.75 53.5966 104.268L53.9457 101.704C55.3663 102.198 56.7026 102.354 57.9787 102.186C59.2186 102.017 59.7724 101.511 59.6641 100.693C59.6039 100.259 59.3631 99.9705 58.9297 99.814C58.4963 99.6575 57.8342 99.5251 56.9433 99.4287C55.5589 99.2963 54.4513 98.9833 53.6447 98.5138C52.8261 98.0323 52.3446 97.2377 52.1881 96.1302V96.1061Z" fill="#F2D8AF"/>
<path d="M45.0371 108.506C45.0853 107.916 45.302 107.458 45.6752 107.145C46.0484 106.832 46.5419 106.7 47.18 106.76C47.794 106.808 48.2514 107.025 48.5644 107.398C48.8774 107.771 49.0099 108.253 48.9497 108.843C48.9015 109.421 48.6848 109.866 48.3116 110.191C47.9384 110.516 47.4448 110.649 46.8309 110.588C46.2049 110.54 45.7354 110.312 45.4223 109.938C45.1093 109.553 44.9769 109.084 45.0251 108.506H45.0371ZM46.8549 91.9165L50.0452 92.1934L48.9737 104.557L45.7474 104.738L46.8549 91.9165Z" fill="#F2D8AF"/>
<path d="M37.2481 89.6413C38.2593 89.5932 39.2344 89.7136 40.1614 89.9784C41.5338 90.3757 42.4608 91.0017 42.9303 91.8444C43.4119 92.6871 43.4119 93.8067 42.9544 95.1912L41.1245 100.777L42.9423 101.523L42.2923 103.45L40.2457 103.498L39.415 106.134L36.4535 105.267L37.3203 102.475L33.9374 101.487L34.7561 98.9833L38.2352 99.9946L40.0049 94.505C40.342 93.4215 39.9688 92.7232 38.8974 92.3982C38.3797 92.2537 37.7176 92.1815 36.923 92.2176L37.236 89.6052L37.2481 89.6413Z" fill="#F2D8AF"/>
<path d="M31.1926 92.6991L31.2408 92.6268C31.7343 91.7239 31.8668 90.821 31.638 89.9422C31.4213 89.0634 30.8435 88.329 29.9045 87.7391C28.7488 87.0048 27.4486 86.6316 26.004 86.6075L27.0874 84.1516C28.52 84.2479 29.9767 84.7656 31.4575 85.7046C33.1549 86.776 34.1902 88.1484 34.5875 89.7977C34.9848 91.447 34.6477 93.1084 33.5763 94.7938C32.4928 96.5033 31.1083 97.5506 29.4109 97.9599C27.7255 98.3572 26.0882 98.0563 24.4991 97.057C23.1267 96.1903 22.3081 95.1188 22.0312 93.8668C21.7543 92.6148 22.0312 91.3266 22.8739 90.0144C23.2953 89.3403 23.7527 88.8106 24.2222 88.4013L31.1806 92.6991H31.1926ZM30.1212 94.228L25.5826 91.3748L25.4622 91.5554C24.4871 93.0963 24.6677 94.2882 26.004 95.1429C26.7022 95.5883 27.4366 95.7087 28.195 95.5041C28.9534 95.2994 29.5915 94.8781 30.1212 94.228Z" fill="#F2D8AF"/>
<path d="M7.4765 77.3016L2.57677 80.0344L0.63855 77.4581L16.8305 68.4412L18.3835 71.2341L17.3241 71.824C18.8169 72.2815 19.8643 73.0399 20.4542 74.1114C21.2487 75.544 21.3691 76.9886 20.7912 78.4453C20.2134 79.902 19.0818 81.1058 17.3723 82.0569C15.6507 83.0079 13.9413 83.2728 12.2558 82.8273C10.5584 82.3819 9.2823 81.3827 8.41552 79.8177C7.98213 79.0231 7.66912 78.1925 7.4765 77.3016ZM9.98054 75.9051C9.88423 76.7238 10.0528 77.5303 10.4862 78.3249C10.9918 79.2398 11.7261 79.7695 12.6772 79.926C13.6283 80.0825 14.6275 79.8658 15.6628 79.288C16.7222 78.6981 17.4204 77.9758 17.7816 77.1331C18.1307 76.2783 18.0826 75.4477 17.613 74.6049C17.1435 73.7502 16.4212 73.1723 15.4581 72.8593H15.434L15.41 72.8834H15.3859L15.3618 72.9075H15.3377L15.3137 72.9316H15.2896L15.2655 72.9557H15.2414L15.2174 72.9797H15.1933L15.1692 73.0038H15.1451L15.121 73.0279H15.097L15.0729 73.052H15.0488L15.0247 73.076H15.0007L14.9766 73.1001H14.9525L14.9284 73.1242H14.9043L14.8803 73.1483H14.8562L14.8321 73.1724H14.808L14.784 73.1964H14.7599L14.7358 73.2205H14.7117L14.6877 73.2446H14.6636L14.6395 73.2687H14.6154L14.5913 73.2927H14.5673L14.5432 73.3168L14.495 73.3409H14.471L14.4469 73.365H14.4228L14.3987 73.389H14.3746L14.3506 73.4131H14.3265L14.3024 73.4372H14.2783L14.2543 73.4613H14.2302L14.182 73.4974H14.158L14.1339 73.5215H14.1098L14.0857 73.5455H14.0616L14.0135 73.5817H13.9894L13.9653 73.6057H13.9413L13.9172 73.6298L13.869 73.6539H13.8449L13.8209 73.678H13.7968L13.7486 73.7141H13.7246L13.7005 73.7382L13.6523 73.7622H13.6283L13.6042 73.7863H13.5801L13.5319 73.8224H13.5079L13.4838 73.8465L13.4356 73.8706H13.4116L13.3875 73.8947L13.3393 73.9187H13.3152L13.2671 73.9549H13.243L13.2189 73.9789L13.1708 74.003H13.1467L13.0986 74.0391H13.0745L13.0504 74.0632L13.0022 74.0873H12.9782L12.93 74.1234H12.9059L12.8578 74.1595H12.8337L12.7855 74.1956H12.7615L12.7133 74.2317H12.6892L12.6411 74.2679H12.617L12.5689 74.304H12.5448L12.4966 74.3401H12.4725L12.4244 74.3762H12.4003L12.3522 74.4123H12.3281L12.2799 74.4484H12.2558L12.2077 74.4846L12.1595 74.5086H12.1355L12.0873 74.5448H12.0632L12.0151 74.5809H11.991L11.9428 74.617L11.8947 74.6411H11.8706L11.8225 74.6772L11.7743 74.7013H11.7502L11.7021 74.7374L11.6539 74.7615H11.6298L11.5817 74.7976L11.5335 74.8216H11.5095L11.4613 74.8578L11.4131 74.8818H11.3891L11.3409 74.918L11.2928 74.942H11.2687L11.2205 74.9781L11.1724 75.0022L11.1242 75.0263H11.1001L11.052 75.0624L11.0038 75.0865L10.9557 75.1106H10.9316L10.8834 75.1467L10.8353 75.1708L10.7871 75.1948H10.7631L10.7149 75.231L10.6667 75.255L10.6186 75.2791L10.5704 75.3032H10.5464L10.4982 75.3393L10.45 75.3634L10.4019 75.3875L10.3537 75.4115H10.3297L10.2815 75.4477L10.2334 75.4717L10.1852 75.4958L10.137 75.5199L10.0889 75.544L9.87219 75.6644L9.98054 75.9051Z" fill="#F2D8AF"/>
<path d="M10.3297 64.9981H10.414C11.4132 64.7453 12.1716 64.2638 12.6893 63.5053C13.1949 62.7589 13.3634 61.844 13.1949 60.7485C12.9782 59.3881 12.4003 58.1722 11.4493 57.0767L14.0015 56.2581C14.8803 57.4017 15.4581 58.8343 15.735 60.5679C16.048 62.5422 15.735 64.2276 14.7479 65.6241C13.7727 67.0206 12.304 67.8633 10.3417 68.1763C8.34331 68.5014 6.63382 68.1643 5.21326 67.1651C3.7927 66.1659 2.92591 64.7453 2.63699 62.8914C2.38417 61.2902 2.63699 59.966 3.38338 58.9306C4.14182 57.8953 5.28549 57.2573 6.8144 57.0045C7.59691 56.8841 8.29515 56.86 8.92116 56.9443L10.3176 65.0102L10.3297 64.9981ZM8.47573 65.2148L7.59691 59.9178L7.38021 59.9539C5.57442 60.2429 4.80394 61.1698 5.05675 62.7469C5.18918 63.5655 5.58645 64.1915 6.23654 64.6249C6.88663 65.0583 7.63302 65.2509 8.47573 65.2148Z" fill="#F2D8AF"/>
<path d="M12.5448 44.8814C13.7246 45.062 14.6154 45.6639 15.2294 46.7233C15.8434 47.7707 16.036 49.0709 15.7952 50.6238C15.5183 52.4657 14.9044 54.0067 13.9292 55.2467L11.5697 54.1873C12.5448 52.9473 13.1347 51.611 13.3393 50.1784C13.4356 49.5524 13.3875 49.0347 13.1949 48.6375C13.0023 48.2402 12.7013 47.9994 12.2679 47.9392C11.8225 47.879 11.4493 48.0235 11.1603 48.4087C10.8714 48.794 10.5584 49.3839 10.2334 50.1904C9.72774 51.4665 9.13784 52.4296 8.45164 53.0797C7.76544 53.7298 6.87458 53.9706 5.77906 53.802C4.62335 53.6335 3.75657 53.0436 3.17871 52.0324C2.6129 51.0211 2.43232 49.7811 2.64901 48.3004C2.90183 46.5909 3.4556 45.1342 4.31035 43.9424L6.66992 45.0018C5.7911 46.2177 5.2614 47.4697 5.06878 48.7338C4.8882 49.9617 5.20121 50.6479 6.03187 50.7683C6.46527 50.8285 6.81439 50.684 7.09127 50.3108C7.36816 49.9376 7.66913 49.3477 8.01825 48.5171C8.53591 47.2289 9.14988 46.2538 9.83609 45.6158C10.5223 44.9657 11.4252 44.7249 12.5327 44.8934L12.5448 44.8814Z" fill="#F2D8AF"/>
<path d="M2.68512 34.5041C3.2389 34.7208 3.6121 35.0579 3.80471 35.4913C3.99733 35.9247 3.98529 36.4544 3.75656 37.0443C3.52783 37.6101 3.20278 37.9953 2.75735 38.2C2.31192 38.3926 1.81834 38.3805 1.25252 38.1638C0.710782 37.9592 0.349622 37.6221 0.144965 37.1767C-0.0596916 36.7312 -0.047653 36.2136 0.181081 35.6478C0.409816 35.0579 0.746898 34.6726 1.20437 34.48C1.66183 34.2874 2.15542 34.2994 2.68512 34.5041ZM18.0946 40.9207L16.9268 43.8942L5.36974 39.3798L6.1041 36.2377L18.0826 40.9207H18.0946Z" fill="#F2D8AF"/>
<path d="M19.9485 37.9713C19.467 38.3084 18.9614 38.5131 18.4437 38.5853C17.9261 38.6575 17.4806 38.5372 17.0833 38.2603C16.6259 37.9352 16.3249 37.4537 16.1804 36.8397C16.036 36.2257 16.0721 35.5516 16.2768 34.8654C15.5785 35.2265 14.8321 35.383 14.0376 35.3108C13.2551 35.2506 12.5087 34.9737 11.8225 34.4801C10.739 33.6976 10.1009 32.6382 9.93239 31.3019C9.76385 29.9536 10.1611 28.6053 11.1363 27.2329C11.8104 26.2939 12.7013 25.4873 13.8209 24.8251L15.5304 21.9238L17.8779 23.4407L16.1564 25.1502C16.7101 25.078 17.3602 25.3067 18.0705 25.8243C19.1179 26.5707 19.7078 27.594 19.8522 28.9062C19.9967 30.2185 19.6235 31.4825 18.7447 32.7225C18.4317 33.1679 18.0464 33.5893 17.5769 33.9866C17.4084 34.6607 17.5047 35.1423 17.8899 35.4071C18.1668 35.6118 18.4798 35.5997 18.8169 35.383C19.154 35.1663 19.6115 34.6728 20.1773 33.8782V33.8541L20.2134 33.8301V33.806L20.2495 33.7819V33.7578L20.2856 33.7337L20.3217 33.6856V33.6615L20.3579 33.6374V33.6134L20.394 33.5893L20.4301 33.5411V33.517L20.4782 33.4689V33.4448L20.5264 33.3967V33.3726L20.5746 33.3244L20.6107 33.2763V33.2522L20.6588 33.204L20.6949 33.1559L20.7311 33.1077L20.7672 33.0596L20.8033 33.0114L20.8394 32.9633L20.8755 32.9151L20.9959 32.7345C23.1749 29.6888 25.1854 28.834 27.0513 30.1703C28.2311 31.013 28.7849 32.2771 28.7247 33.9745C28.6645 35.672 28.0506 37.3453 26.8708 38.9946C25.8716 40.3911 24.8001 41.3662 23.6444 41.92C22.4887 42.4738 21.4775 42.4377 20.5986 41.8117C20.0449 41.4144 19.6957 40.8727 19.5753 40.1744C19.4429 39.4882 19.5753 38.7298 19.9967 37.9112L19.9485 37.9713ZM13.6523 31.9761C14.2663 32.4215 14.8923 32.5901 15.5063 32.5058C16.1203 32.4215 16.662 32.0604 17.0954 31.4464C17.5047 30.8685 17.6371 30.2907 17.4806 29.6888C17.3241 29.0868 16.9268 28.5692 16.2888 28.0997C15.6628 27.6422 15.0368 27.4616 14.4348 27.5218C13.8329 27.594 13.3032 27.9432 12.8578 28.5692C12.4485 29.147 12.316 29.7369 12.4605 30.3509C12.605 30.9649 13.0022 31.5066 13.6523 31.9641V31.9761ZM21.2608 36.8758C20.9598 37.9473 21.1163 38.6937 21.7182 39.1271C22.1877 39.4641 22.7656 39.4762 23.4518 39.1511C24.138 38.8261 24.7881 38.2482 25.39 37.3935C26.0401 36.4786 26.4253 35.6118 26.5337 34.7931C26.642 33.9745 26.4374 33.3726 25.9318 33.0114C25.4743 32.6864 25.0048 32.6864 24.5353 33.0114C24.0537 33.3365 23.4638 33.9986 22.7535 34.9978C22.2238 35.7322 21.7423 36.3582 21.2848 36.8758H21.2608Z" fill="#F2D8AF"/>
<path d="M35.4302 22.4294L32.8058 24.2473L28.4719 17.9872C27.9542 17.2408 27.4486 16.8194 26.955 16.7231C26.4494 16.6148 25.8956 16.7713 25.2937 17.2047C24.4509 17.7946 23.9092 18.6373 23.6805 19.7328L28.7487 27.0643L26.1243 28.8821L19.0456 18.6613L21.4292 16.4823L22.5609 18.1076C22.7896 16.3258 23.548 14.9895 24.8001 14.1107C25.8354 13.3884 26.8707 13.1476 27.882 13.3764C28.8932 13.6051 29.7841 14.2672 30.5425 15.3748L35.4302 22.4294Z" fill="#F2D8AF"/>
<path d="M44.5435 11.667C45.013 11.98 45.3019 12.4254 45.4103 13.0153C45.5186 13.6052 45.4223 14.1349 45.1093 14.6044C44.7963 15.0739 44.3388 15.3749 43.7369 15.4953C43.1109 15.6157 42.5692 15.5193 42.0876 15.1943C41.6061 14.8693 41.3171 14.4238 41.2088 13.8339C41.1004 13.244 41.2088 12.7264 41.5218 12.2569C41.8468 11.7874 42.3163 11.4984 42.9424 11.378C43.5443 11.2577 44.074 11.366 44.5435 11.679V11.667Z" fill="#F2D8AF"/>
</svg>
