<svg width="121" height="133" viewBox="0 0 121 133" fill="none" xmlns="http://www.w3.org/2000/svg">
<path d="M67.3012 23.1504L63.4707 22.8468L65.2197 1.19387L69.0935 0.977051L67.3156 23.1504H67.3012Z" fill="#A9D014"/>
<path d="M86.3235 20.8955C85.514 23.1648 84.1697 24.7404 82.2906 25.6221C80.4115 26.5038 78.4168 26.5761 76.3209 25.8245C74.2105 25.0728 72.7361 23.7864 71.8978 21.9651C71.0449 20.1438 71.0449 18.0768 71.8544 15.7641C72.6639 13.4803 74.0081 11.8903 75.8872 11.0085C77.7519 10.1268 79.7466 10.0545 81.8714 10.8206C83.9818 11.5723 85.4417 12.8587 86.2945 14.6944C87.1329 16.5302 87.1474 18.5972 86.3235 20.8955ZM80.585 22.63C81.5101 22.0229 82.2183 21.04 82.7243 19.6379C83.2157 18.2503 83.288 17.0072 82.9411 15.9231C82.5942 14.839 81.8425 14.0874 80.7006 13.6826C79.5298 13.2634 78.4891 13.3646 77.5495 13.9862C76.61 14.6077 75.9017 15.6195 75.4102 17.0072C74.9188 18.3804 74.8465 19.5946 75.2079 20.6786C75.5548 21.7627 76.3209 22.4999 77.4772 22.9191C78.6192 23.3238 79.6599 23.2371 80.585 22.63Z" fill="#A9D014"/>
<path d="M85.7163 30.3632C85.355 29.7562 85.1526 29.1346 85.1092 28.5131C85.0803 27.8915 85.2393 27.3567 85.6151 26.9086C86.0488 26.3882 86.6414 26.0702 87.3931 25.9546C88.1447 25.839 88.9397 25.9257 89.7492 26.2437C89.3733 25.3764 89.2577 24.4658 89.4022 23.5262C89.5468 22.5867 89.9371 21.7194 90.5875 20.9389C91.6138 19.6958 92.9292 19.0308 94.5481 18.9441C96.167 18.8574 97.757 19.45 99.3181 20.7365C100.388 21.6182 101.269 22.7601 101.978 24.1622L105.317 26.4461L103.308 29.1346L101.414 26.9375C101.443 27.6169 101.125 28.3541 100.446 29.178C99.4626 30.3632 98.1906 30.9848 96.6006 31.0426C95.0251 31.1004 93.5218 30.5512 92.1197 29.3948C91.6138 28.9756 91.1513 28.4842 90.7032 27.8915C89.9082 27.6313 89.33 27.7181 88.9686 28.1517C88.7084 28.4697 88.694 28.8455 88.9108 29.2647C89.1421 29.6839 89.7058 30.2765 90.602 31.0137H90.6309L90.6598 31.0571H90.6887L90.7176 31.1004H90.7465L90.7754 31.1438L90.8188 31.1872H90.8477L90.8766 31.2305H90.9055L90.9344 31.2739L90.9778 31.3173H91.0067L91.0501 31.3751H91.079L91.1223 31.4329H91.1513L91.1946 31.4907L91.238 31.5341H91.2669L91.3102 31.5919L91.3536 31.6353L91.397 31.6786L91.4403 31.722L91.4837 31.7653L91.5271 31.8087L91.5704 31.8521L91.7728 32.0111C95.2274 34.8731 96.0947 37.3593 94.3313 39.4841C93.2327 40.8139 91.6572 41.3776 89.6335 41.1753C87.6099 40.9585 85.6585 40.0767 83.7794 38.5301C82.1894 37.2147 81.1198 35.856 80.5416 34.425C79.9779 32.994 80.1079 31.7798 80.9319 30.7824C81.4522 30.1464 82.1316 29.7851 82.97 29.6839C83.8083 29.5827 84.7045 29.814 85.6441 30.3777L85.7163 30.3632ZM86.9161 32.0255C85.6585 31.5774 84.7479 31.6931 84.1841 32.3869C83.736 32.9217 83.6782 33.6155 84.0107 34.4539C84.3431 35.2923 84.9791 36.1306 85.9621 36.9256C87.0028 37.7785 88.0002 38.3133 88.9831 38.5012C89.9515 38.7035 90.6887 38.5012 91.1657 37.923C91.5993 37.4026 91.6283 36.8389 91.2813 36.2463C90.9344 35.6536 90.1828 34.8731 89.0553 33.948C88.217 33.2542 87.5087 32.6182 86.9305 32.0255H86.9161ZM93.4206 23.3094C92.8424 24.0177 92.5822 24.7404 92.6401 25.4921C92.6979 26.2437 93.0737 26.9086 93.782 27.4868C94.4324 28.0216 95.1263 28.224 95.849 28.0939C96.5717 27.9638 97.2366 27.5301 97.8437 26.793C98.4364 26.0702 98.711 25.3475 98.6821 24.6248C98.6532 23.902 98.2774 23.2371 97.5546 22.6445C96.9042 22.1097 96.1959 21.8929 95.4443 22.0229C94.6926 22.153 94.0133 22.5867 93.4062 23.3094H93.4206Z" fill="#A9D014"/>
<path d="M109.942 47.1161C107.875 48.3447 105.837 48.6916 103.828 48.1712C101.819 47.6509 100.243 46.4222 99.1013 44.5142C97.9594 42.5918 97.6414 40.6549 98.1618 38.7179C98.6677 36.781 99.983 35.1766 102.093 33.9335C104.175 32.6904 106.227 32.329 108.237 32.8494C110.246 33.3553 111.821 34.5839 112.963 36.5208C114.105 38.4433 114.409 40.3802 113.888 42.3171C113.368 44.2685 112.053 45.8585 109.942 47.1161ZM104.421 44.7889C105.519 44.919 106.704 44.6154 107.976 43.8493C109.248 43.0977 110.087 42.187 110.52 41.1319C110.954 40.0767 110.853 39.0215 110.231 37.9663C109.595 36.8967 108.728 36.3185 107.615 36.1884C106.502 36.0728 105.302 36.3908 104.03 37.1424C102.787 37.8796 101.949 38.7758 101.53 39.8454C101.111 40.9006 101.212 41.9558 101.848 43.0254C102.469 44.0661 103.322 44.6588 104.421 44.7889Z" fill="#A9D014"/>
<path d="M115.16 62.0911C114.741 62.6259 114.177 62.9294 113.469 63.0162C112.761 63.1029 112.139 62.9439 111.59 62.5247C111.041 62.1055 110.737 61.5418 110.65 60.8046C110.564 60.053 110.723 59.4025 111.156 58.8677C111.576 58.3184 112.154 58.0149 112.862 57.9282C113.57 57.8414 114.192 58.0149 114.727 58.4341C115.262 58.8532 115.565 59.4459 115.666 60.1975C115.753 60.9347 115.594 61.5563 115.175 62.0911H115.16Z" fill="#A9D014"/>
<path d="M104.03 78.7862L105.331 75.2737L121 76.3144L119.612 80.0726L108.829 78.8585L117.647 85.3052L116.317 88.9044L105.403 88.3117L114.452 94.0358L113.05 97.8518L100.446 88.5141L101.746 84.9727L112.79 85.4787L104.03 78.7717V78.7862Z" fill="#A9D014"/>
<path d="M100.648 99.2683L100.576 99.196C99.6217 98.401 98.5954 98.0396 97.5113 98.0975C96.4272 98.1553 95.4299 98.6612 94.5048 99.6152C93.3628 100.8 92.6257 102.246 92.2643 103.952L89.6191 102.101C90.0672 100.439 91.0212 98.8346 92.4667 97.3169C94.1289 95.5679 95.9791 94.6717 98.0172 94.585C100.055 94.4983 101.934 95.2933 103.669 96.9266C105.432 98.6034 106.343 100.482 106.43 102.564C106.517 104.645 105.779 106.51 104.218 108.143C102.874 109.56 101.429 110.268 99.8819 110.312C98.3352 110.355 96.8898 109.704 95.5455 108.432C94.8517 107.768 94.3313 107.117 93.9555 106.467L100.634 99.2683H100.648ZM102.209 100.887L97.786 105.57L97.9739 105.744C99.5639 107.262 101.009 107.319 102.325 105.946C103.019 105.224 103.322 104.385 103.264 103.446C103.206 102.506 102.845 101.653 102.209 100.887Z" fill="#A9D014"/>
<path d="M77.8964 116.195C76.8412 114.084 76.6244 112.017 77.246 110.008C77.8675 107.999 79.1395 106.51 81.062 105.556C82.1316 105.021 83.2013 104.674 84.2854 104.53L87.3208 102.391L97.2656 122.251L94.0711 124.434L90.1828 116.672C89.5757 118.406 88.6073 119.606 87.2919 120.271C85.5284 121.153 83.7794 121.21 82.0593 120.459C80.3392 119.693 78.9516 118.276 77.9109 116.209L77.8964 116.195ZM81.3077 114.301C81.9726 115.616 82.7821 116.513 83.7794 116.975C84.7624 117.438 85.7742 117.409 86.8294 116.888C87.8412 116.383 88.5784 115.559 89.0409 114.402V114.373L89.012 114.344V114.316L88.9831 114.287V114.258L88.9542 114.229V114.2L88.9253 114.171V114.142L88.8964 114.113V114.084L88.8675 114.055V114.026L88.8385 113.998V113.969L88.8096 113.94V113.911L88.7807 113.882V113.853L88.7518 113.824V113.795L88.7229 113.766V113.737L88.694 113.708V113.68L88.6651 113.651V113.622L88.6362 113.593V113.564L88.6073 113.535V113.506L88.5784 113.477V113.448L88.5495 113.419V113.39L88.5205 113.362V113.333L88.4916 113.304V113.275L88.4627 113.246V113.217L88.4338 113.188V113.159L88.4049 113.13V113.101L88.376 113.072V113.044L88.3471 113.015L88.3182 112.957V112.928L88.2893 112.899V112.87L88.2604 112.841V112.812L88.2315 112.783L88.2025 112.726V112.697L88.1736 112.668V112.639L88.1447 112.61L88.1158 112.552V112.523L88.0869 112.494V112.465L88.0435 112.408V112.379L88.0146 112.35V112.321L87.9713 112.263V112.234L87.9424 112.205L87.9135 112.147V112.118L87.8845 112.09L87.8556 112.032V112.003L87.8267 111.974L87.7978 111.916V111.887L87.7689 111.858L87.74 111.8V111.772L87.7111 111.743L87.6822 111.685V111.656L87.6388 111.598V111.569L87.6099 111.54L87.581 111.482V111.454L87.5376 111.396V111.367L87.4943 111.309V111.28L87.4509 111.222V111.193L87.422 111.164L87.3931 111.107V111.078L87.3497 111.02V110.991L87.3064 110.933V110.904L87.263 110.846L87.2341 110.789V110.76L87.1907 110.702V110.673L87.1474 110.615V110.586L87.104 110.528V110.5L87.0606 110.442L87.0317 110.384V110.355L86.9884 110.297V110.268L86.945 110.21L86.9161 110.153V110.124L86.8727 110.066V110.037L86.8294 109.979L86.8004 109.921V109.892L86.7571 109.835L86.7282 109.777V109.748L86.6848 109.69L86.6559 109.632V109.603L86.6125 109.546L86.5836 109.488V109.459L86.5403 109.401L86.5114 109.343L86.4825 109.285V109.256L86.4391 109.199L86.4102 109.141V109.112L86.3668 109.054L86.3379 108.996L86.309 108.938V108.91L86.2656 108.852L86.2367 108.794L86.2078 108.736L86.1789 108.678V108.649L86.1355 108.592L86.1066 108.534L86.0777 108.476L86.0488 108.418V108.389L86.0054 108.331L85.9765 108.274L85.9476 108.216L85.9187 108.158V108.129L85.8754 108.071L85.8464 108.013L85.8175 107.956L85.7886 107.898L85.673 107.666C84.7624 107.493 83.7939 107.666 82.7676 108.172C81.6402 108.736 80.9608 109.589 80.7295 110.716C80.4982 111.844 80.7006 113.058 81.3366 114.33L81.3077 114.301Z" fill="#A9D014"/>
<path d="M62.6613 115.197C62.4589 113.781 62.8636 112.538 63.861 111.482C64.8584 110.427 66.3038 109.762 68.1685 109.502C70.38 109.199 72.3603 109.387 74.1237 110.08L73.7046 113.159C71.9411 112.465 70.2066 112.234 68.4865 112.48C67.7348 112.581 67.1566 112.812 66.7664 113.159C66.3616 113.506 66.2026 113.94 66.2749 114.46C66.3472 114.995 66.6507 115.371 67.1855 115.588C67.7204 115.79 68.5009 115.949 69.5416 116.05C71.175 116.195 72.4904 116.556 73.4733 117.134C74.4562 117.712 75.0344 118.652 75.2078 119.967C75.3958 121.369 75.0199 122.555 74.0515 123.566C73.083 124.578 71.7098 125.185 69.9319 125.431C67.8649 125.72 66.0147 125.576 64.3524 124.997L64.7716 121.919C66.4773 122.511 68.0817 122.699 69.6139 122.497C71.1027 122.294 71.7677 121.687 71.6376 120.704C71.5653 120.184 71.2762 119.837 70.7558 119.649C70.2355 119.461 69.4405 119.302 68.3708 119.187C66.7085 119.028 65.3787 118.652 64.4103 118.088C63.4274 117.51 62.8492 116.556 62.6613 115.226V115.197Z" fill="#A9D014"/>
<path d="M54.0752 130.085C54.1331 129.377 54.3932 128.828 54.8413 128.452C55.2894 128.076 55.8821 127.917 56.6482 127.99C57.3853 128.047 57.9346 128.308 58.3104 128.756C58.6863 129.204 58.8453 129.782 58.773 130.49C58.7152 131.184 58.455 131.719 58.0069 132.109C57.5588 132.499 56.9662 132.658 56.229 132.586C55.4773 132.528 54.9136 132.254 54.5378 131.806C54.162 131.343 54.003 130.779 54.0608 130.085H54.0752ZM56.2579 110.167L60.0884 110.499L58.8019 125.344L54.9281 125.561L56.2579 110.167Z" fill="#A9D014"/>
<path d="M44.7231 107.435C45.9373 107.377 47.1081 107.522 48.2211 107.84C49.869 108.317 50.982 109.068 51.5457 110.08C52.1239 111.092 52.1239 112.436 51.5746 114.099L49.3775 120.806L51.5601 121.702L50.7796 124.015L48.3223 124.072L47.3249 127.238L43.7691 126.197L44.8098 122.844L40.7481 121.658L41.731 118.652L45.9084 119.866L48.0332 113.275C48.4379 111.974 47.9899 111.135 46.7034 110.745C46.0819 110.572 45.2868 110.485 44.3328 110.528L44.7087 107.392L44.7231 107.435Z" fill="#A9D014"/>
<path d="M37.4525 111.107L37.5103 111.02C38.1029 109.936 38.2619 108.852 37.9873 107.796C37.7271 106.741 37.0333 105.86 35.9058 105.151C34.5182 104.27 32.9571 103.821 31.2225 103.793L32.5234 100.844C34.2435 100.959 35.9925 101.581 37.7705 102.708C39.8086 103.995 41.0516 105.643 41.5286 107.623C42.0057 109.603 41.6009 111.598 40.3145 113.622C39.0136 115.674 37.3513 116.932 35.3132 117.423C33.2895 117.9 31.3237 117.539 29.4157 116.339C27.7679 115.298 26.785 114.012 26.4525 112.509C26.1201 111.005 26.4525 109.459 27.4643 107.883C27.9702 107.074 28.5195 106.438 29.0832 105.946L37.438 111.107H37.4525ZM36.166 112.942L30.7166 109.517L30.5721 109.733C29.4012 111.584 29.6181 113.015 31.2225 114.041C32.0609 114.576 32.9426 114.72 33.8533 114.474C34.7639 114.229 35.53 113.723 36.166 112.942Z" fill="#A9D014"/>
<path d="M8.9769 92.6191L3.09388 95.9003L0.766693 92.807L20.2081 81.9806L22.0728 85.334L20.8008 86.0423C22.5931 86.5916 23.8507 87.5022 24.559 88.7887C25.513 90.5088 25.6575 92.2433 24.9637 93.9923C24.2699 95.7413 22.9111 97.1868 20.8586 98.3287C18.7916 99.4706 16.739 99.7886 14.7154 99.2538C12.6773 98.719 11.1451 97.5192 10.1044 95.6401C9.58399 94.6861 9.20818 93.6888 8.9769 92.6191ZM11.9835 90.9424C11.8678 91.9253 12.0702 92.8938 12.5906 93.8478C13.1976 94.9463 14.0794 95.5823 15.2213 95.7702C16.3632 95.9582 17.5629 95.698 18.806 95.0042C20.078 94.2959 20.9164 93.4286 21.35 92.4168C21.7692 91.3905 21.7114 90.3931 21.1477 89.3813C20.5839 88.355 19.7167 87.6612 18.5603 87.2854H18.5314L18.5025 87.3143H18.4736L18.4447 87.3432H18.4158L18.3868 87.3721H18.3579L18.329 87.401H18.3001L18.2712 87.4299H18.2423L18.2134 87.4589H18.1845L18.1556 87.4878H18.1267L18.0978 87.5167H18.0688L18.0399 87.5456H18.011L17.9821 87.5745H17.9532L17.9243 87.6034H17.8954L17.8665 87.6323H17.8376L17.8087 87.6612H17.7798L17.7508 87.6901H17.7219L17.693 87.719H17.6641L17.6352 87.7479H17.6063L17.5774 87.7768H17.5485L17.5196 87.8058H17.4907L17.4617 87.8347L17.4039 87.8636H17.375L17.3461 87.8925H17.3172L17.2883 87.9214H17.2594L17.2305 87.9503H17.2016L17.1727 87.9792H17.1437L17.1148 88.0081H17.0859L17.0281 88.0515H16.9992L16.9703 88.0804H16.9414L16.9125 88.1093H16.8836L16.8257 88.1527H16.7968L16.7679 88.1816H16.739L16.7101 88.2105L16.6523 88.2394H16.6234L16.5945 88.2683H16.5656L16.5077 88.3117H16.4788L16.4499 88.3406L16.3921 88.3695H16.3632L16.3343 88.3984H16.3054L16.2476 88.4418H16.2187L16.1897 88.4707L16.1319 88.4996H16.103L16.0741 88.5285L16.0163 88.5574H15.9874L15.9296 88.6008H15.9007L15.8717 88.6297L15.8139 88.6586H15.785L15.7272 88.7019H15.6983L15.6694 88.7309L15.6116 88.7598H15.5827L15.5248 88.8031H15.4959L15.4381 88.8465H15.4092L15.3514 88.8899H15.3225L15.2647 88.9332H15.2357L15.1779 88.9766H15.149L15.0912 89.0199H15.0623L15.0045 89.0633H14.9756L14.9177 89.1067H14.8888L14.831 89.15H14.8021L14.7443 89.1934H14.7154L14.6576 89.2368L14.5997 89.2657H14.5708L14.513 89.309H14.4841L14.4263 89.3524H14.3974L14.3396 89.3958L14.2817 89.4247H14.2528L14.195 89.468L14.1372 89.4969H14.1083L14.0505 89.5403L13.9926 89.5692H13.9637L13.9059 89.6126L13.8481 89.6415H13.8192L13.7614 89.6849L13.7036 89.7138H13.6746L13.6168 89.7571L13.559 89.786H13.5301L13.4723 89.8294L13.4145 89.8583L13.3566 89.8872H13.3277L13.2699 89.9306L13.2121 89.9595L13.1543 89.9884H13.1254L13.0676 90.0318L13.0097 90.0607L12.9519 90.0896H12.923L12.8652 90.1329L12.8074 90.1619L12.7496 90.1908L12.6917 90.2197H12.6628L12.605 90.263L12.5472 90.292L12.4894 90.3209L12.4316 90.3498H12.4026L12.3448 90.3931L12.287 90.422L12.2292 90.451L12.1714 90.4799L12.1135 90.5088L11.8534 90.6533L11.9835 90.9424Z" fill="#A9D014"/>
<path d="M12.4027 77.8466H12.5038C13.7036 77.543 14.6142 76.9648 15.2358 76.0542C15.8429 75.158 16.0452 74.0595 15.8429 72.7441C15.5827 71.1107 14.8889 69.6508 13.7469 68.3354L16.8113 67.3525C17.8665 68.7257 18.5603 70.4458 18.8928 72.5273C19.2686 74.8978 18.8928 76.9215 17.7075 78.5982C16.5367 80.2749 14.7732 81.2868 12.4171 81.6626C10.0177 82.0528 7.96511 81.6481 6.25946 80.4484C4.55382 79.2487 3.51309 77.543 3.16618 75.317C2.86263 73.3945 3.16618 71.8045 4.06237 70.5614C4.973 69.3184 6.34619 68.5523 8.18192 68.2487C9.12147 68.1042 9.95984 68.0753 10.7115 68.1764L12.3882 77.861L12.4027 77.8466ZM10.1767 78.1067L9.12147 71.7467L8.86129 71.7901C6.6931 72.137 5.76801 73.25 6.07155 75.1436C6.23055 76.1265 6.70756 76.8781 7.4881 77.3985C8.26865 77.9188 9.16484 78.1501 10.1767 78.1067Z" fill="#A9D014"/>
<path d="M15.0623 53.6929C16.4788 53.9097 17.5485 54.6325 18.2857 55.9045C19.0228 57.162 19.2541 58.7231 18.965 60.5878C18.6326 62.7993 17.8954 64.6495 16.7246 66.1383L13.8915 64.8663C15.0623 63.3775 15.7706 61.773 16.0163 60.0529C16.1319 59.3013 16.0741 58.6798 15.8428 58.2028C15.6116 57.7258 15.2502 57.4367 14.7298 57.3644C14.195 57.2921 13.7469 57.4656 13.4 57.9281C13.0531 58.3907 12.6773 59.0989 12.287 60.0674C11.6799 61.5996 10.9716 62.7559 10.1477 63.5365C9.32382 64.317 8.25418 64.6061 6.93881 64.4038C5.55117 64.2014 4.51044 63.4931 3.81662 62.2789C3.13725 61.0648 2.92043 59.5759 3.18062 57.798C3.48416 55.7455 4.14907 53.9965 5.17535 52.5655L8.00845 53.8375C6.95326 55.2974 6.31726 56.8007 6.08599 58.3184C5.86917 59.7928 6.24499 60.6167 7.24236 60.7612C7.76272 60.8335 8.1819 60.66 8.51436 60.2119C8.84682 59.7638 9.20818 59.0556 9.62736 58.0582C10.2489 56.5116 10.9861 55.3407 11.81 54.5747C12.6339 53.7941 13.718 53.505 15.0478 53.7074L15.0623 53.6929Z" fill="#A9D014"/>
<path d="M3.22398 41.2331C3.88889 41.4933 4.33698 41.898 4.56825 42.4183C4.79953 42.9387 4.78507 43.5747 4.51044 44.283C4.2358 44.9624 3.84552 45.4249 3.3107 45.6706C2.77588 45.9019 2.18325 45.8874 1.50388 45.6273C0.853423 45.3815 0.419785 44.9768 0.174057 44.442C-0.0716707 43.9072 -0.0572161 43.2856 0.217421 42.6063C0.492058 41.898 0.896787 41.4354 1.44606 41.2042C1.99534 40.9729 2.58797 40.9873 3.22398 41.2331ZM21.7259 48.9374L20.3238 52.5077L6.44735 47.0872L7.32908 43.3145L21.7114 48.9374H21.7259Z" fill="#A9D014"/>
<path d="M23.9519 45.3961C23.3737 45.8008 22.7666 46.0465 22.1451 46.1333C21.5235 46.22 20.9887 46.0754 20.5117 45.743C19.9624 45.3527 19.601 44.7745 19.4276 44.0373C19.2541 43.3002 19.2975 42.4907 19.5432 41.6668C18.7049 42.1004 17.8087 42.2883 16.8547 42.2016C15.9151 42.1293 15.0189 41.7969 14.195 41.2042C12.8941 40.2647 12.128 38.9927 11.9257 37.3882C11.7233 35.7693 12.2003 34.1504 13.3711 32.5026C14.1806 31.3751 15.2502 30.4067 16.5945 29.6117L18.647 26.1281L21.4657 27.9494L19.3987 30.0019C20.0636 29.9152 20.8441 30.1898 21.697 30.8114C22.9545 31.7076 23.6628 32.9362 23.8362 34.5118C24.0097 36.0873 23.5616 37.605 22.5064 39.0939C22.1306 39.6287 21.6681 40.1346 21.1043 40.6116C20.902 41.4211 21.0176 41.9992 21.4801 42.3172C21.8126 42.563 22.1884 42.5485 22.5931 42.2883C22.9979 42.0281 23.5471 41.4355 24.2265 40.4815V40.4526L24.2699 40.4237V40.3948L24.3132 40.3659V40.337L24.3566 40.3081L24.4 40.2502V40.2213L24.4433 40.1924V40.1635L24.4867 40.1346L24.5301 40.0768V40.0479L24.5879 39.9901V39.9611L24.6457 39.9033V39.8744L24.7035 39.8166L24.7469 39.7588V39.7299L24.8047 39.6721L24.8481 39.6142L24.8914 39.5564L24.9348 39.4986L24.9782 39.4408L25.0215 39.383L25.0649 39.3251L25.2094 39.1083C27.8257 35.4513 30.2396 34.425 32.4801 36.0295C33.8966 37.0413 34.5615 38.559 34.4893 40.5971C34.417 42.6352 33.6798 44.6444 32.2633 46.6247C31.0635 48.3014 29.7771 49.4723 28.3894 50.1372C27.0018 50.8021 25.7876 50.7587 24.7324 50.0071C24.0675 49.5301 23.6483 48.8796 23.5038 48.0413C23.3448 47.2174 23.5038 46.3067 24.0097 45.3238L23.9519 45.3961ZM16.3921 38.1977C17.1293 38.7325 17.8809 38.9349 18.6181 38.8337C19.3553 38.7325 20.0058 38.2989 20.5261 37.5617C21.0176 36.8679 21.1766 36.174 20.9887 35.4513C20.8008 34.7286 20.3238 34.107 19.5577 33.5433C18.806 32.994 18.0544 32.7772 17.3317 32.8495C16.6089 32.9362 15.9729 33.3554 15.4381 34.107C14.9467 34.8009 14.7877 35.5091 14.9611 36.2463C15.1346 36.9835 15.6116 37.634 16.3921 38.1832V38.1977ZM25.5274 44.0807C25.1661 45.3672 25.354 46.2633 26.0767 46.7837C26.6404 47.1884 27.3342 47.2029 28.1582 46.8126C28.9821 46.4223 29.7626 45.7285 30.4854 44.7022C31.2659 43.6037 31.7284 42.563 31.8585 41.5801C31.9886 40.5971 31.7429 39.8744 31.1358 39.4408C30.5865 39.0505 30.0228 39.0505 29.4591 39.4408C28.8809 39.8311 28.1726 40.6261 27.3198 41.8258C26.6838 42.7075 26.1056 43.4592 25.5563 44.0807H25.5274Z" fill="#A9D014"/>
<path d="M42.5404 26.7351L39.3893 28.9178L34.1857 21.4014C33.5641 20.5052 32.957 19.9993 32.3644 19.8836C31.7573 19.7535 31.0924 19.9415 30.3697 20.4618C29.3578 21.1701 28.7074 22.1819 28.4328 23.4973L34.5181 32.3001L31.367 34.4828L22.8677 22.2108L25.7297 19.5945L27.0885 21.5459C27.3631 19.4066 28.2738 17.8022 29.777 16.747C31.0201 15.8797 32.2632 15.5906 33.4774 15.8653C34.6916 16.1399 35.7612 16.9349 36.6719 18.2647L42.5404 26.7351Z" fill="#A9D014"/>
<path d="M53.4826 13.8127C54.0463 14.1885 54.3932 14.7234 54.5233 15.4316C54.6534 16.1399 54.5378 16.7759 54.162 17.3396C53.7861 17.9034 53.2369 18.2647 52.5141 18.4093C51.7625 18.5538 51.112 18.4382 50.5339 18.0479C49.9557 17.6576 49.6088 17.1228 49.4787 16.4146C49.3486 15.7063 49.4787 15.0847 49.8545 14.521C50.2448 13.9573 50.8085 13.6104 51.5601 13.4658C52.2829 13.3213 52.9189 13.4514 53.4826 13.8272V13.8127Z" fill="#A9D014"/>
</svg>
