<svg width="144" height="158" viewBox="0 0 144 158" fill="none" xmlns="http://www.w3.org/2000/svg">
<path d="M79.8787 27.2942L75.3324 26.9339L77.4083 1.23427L82.0061 0.976929L79.8959 27.2942H79.8787Z" fill="#0E74FF"/>
<path d="M102.456 24.6178C101.495 27.3113 99.8998 29.1813 97.6696 30.2278C95.4393 31.2743 93.0718 31.3601 90.5842 30.468C88.0794 29.5759 86.3295 28.049 85.3344 25.8873C84.3222 23.7257 84.3222 21.2724 85.283 18.5274C86.2437 15.8168 87.8392 13.9296 90.0695 12.8831C92.2826 11.8366 94.6501 11.7508 97.172 12.6601C99.6768 13.5522 101.41 15.0791 102.422 17.2579C103.417 19.4367 103.434 21.89 102.456 24.6178ZM95.6452 26.6765C96.7431 25.956 97.5838 24.7894 98.1842 23.1252C98.7675 21.4783 98.8533 20.0029 98.4416 18.7162C98.0298 17.4295 97.1377 16.5373 95.7824 16.057C94.3928 15.5595 93.1576 15.6796 92.0424 16.4173C90.9273 17.155 90.0866 18.3559 89.5033 20.0029C88.92 21.6327 88.8342 23.0738 89.2631 24.3605C89.6749 25.6472 90.5842 26.5221 91.9566 27.0196C93.312 27.5 94.5472 27.3971 95.6452 26.6765Z" fill="#0E74FF"/>
<path d="M101.736 35.855C101.307 35.1344 101.067 34.3967 101.015 33.659C100.981 32.9213 101.169 32.2865 101.615 31.7547C102.13 31.1371 102.834 30.7596 103.726 30.6224C104.618 30.4851 105.561 30.5881 106.522 30.9655C106.076 29.9362 105.939 28.8553 106.11 27.7402C106.282 26.6251 106.745 25.5957 107.517 24.6693C108.735 23.1939 110.296 22.4047 112.218 22.3018C114.139 22.1988 116.026 22.9022 117.879 24.4291C119.149 25.4756 120.195 26.8309 121.036 28.4951L124.999 31.2057L122.614 34.3967L120.367 31.789C120.401 32.5953 120.024 33.4703 119.218 34.4482C118.051 35.855 116.541 36.5927 114.654 36.6613C112.784 36.7299 111 36.078 109.336 34.7055C108.735 34.208 108.186 33.6247 107.654 32.9213C106.711 32.6125 106.025 32.7154 105.596 33.2301C105.287 33.6075 105.27 34.0536 105.527 34.5511C105.802 35.0486 106.471 35.752 107.534 36.627H107.569L107.603 36.6784H107.637L107.672 36.7299H107.706L107.74 36.7814L107.792 36.8328H107.826L107.86 36.8843H107.895L107.929 36.9358L107.98 36.9872H108.015L108.066 37.0559H108.1L108.152 37.1245H108.186L108.238 37.1931L108.289 37.2446H108.323L108.375 37.3132L108.426 37.3647L108.478 37.4161L108.529 37.4676L108.581 37.5191L108.632 37.5706L108.684 37.622L108.924 37.8107C113.024 41.2076 114.054 44.1584 111.961 46.6804C110.657 48.2587 108.787 48.9278 106.385 48.6876C103.983 48.4303 101.667 47.3838 99.4367 45.5481C97.5495 43.9869 96.28 42.3742 95.5938 40.6758C94.9247 38.9773 95.0791 37.5362 96.057 36.3525C96.6746 35.5976 97.4809 35.1687 98.476 35.0486C99.471 34.9285 100.535 35.203 101.65 35.8721L101.736 35.855ZM103.16 37.8279C101.667 37.2961 100.586 37.4333 99.9171 38.2568C99.3852 38.8916 99.3166 39.715 99.7112 40.7101C100.106 41.7051 100.861 42.7002 102.027 43.6438C103.262 44.656 104.446 45.2907 105.613 45.5138C106.762 45.7539 107.637 45.5138 108.203 44.8275C108.718 44.2099 108.752 43.5408 108.341 42.8374C107.929 42.134 107.037 41.2076 105.699 40.1096C104.704 39.2861 103.863 38.5313 103.177 37.8279H103.16ZM110.88 27.4828C110.193 28.3235 109.885 29.1813 109.953 30.0734C110.022 30.9655 110.468 31.7547 111.309 32.4409C112.081 33.0757 112.904 33.3159 113.762 33.1615C114.62 33.0071 115.409 32.4924 116.129 31.6174C116.833 30.7596 117.159 29.9018 117.124 29.044C117.09 28.1862 116.644 27.3971 115.786 26.6937C115.014 26.0589 114.174 25.8016 113.282 25.956C112.389 26.1104 111.583 26.6251 110.863 27.4828H110.88Z" fill="#0E74FF"/>
<path d="M130.489 55.7387C128.036 57.1969 125.617 57.6087 123.232 56.9911C120.847 56.3735 118.977 54.9152 117.622 52.6506C116.267 50.3689 115.889 48.07 116.507 45.7711C117.107 43.4722 118.668 41.5679 121.173 40.0924C123.644 38.617 126.08 38.1881 128.464 38.8057C130.849 39.4062 132.719 40.8645 134.074 43.1634C135.43 45.4451 135.79 47.744 135.172 50.0429C134.555 52.359 132.994 54.2461 130.489 55.7387ZM123.935 52.9766C125.239 53.131 126.646 52.7707 128.156 51.8614C129.665 50.9693 130.66 49.8885 131.175 48.6361C131.69 47.3837 131.57 46.1313 130.832 44.879C130.077 43.6094 129.048 42.9232 127.727 42.7688C126.406 42.6315 124.982 43.009 123.472 43.9011C121.997 44.776 121.002 45.8397 120.504 47.1092C120.007 48.3616 120.127 49.614 120.882 50.8835C121.619 52.1188 122.631 52.8222 123.935 52.9766Z" fill="#0E74FF"/>
<path d="M136.682 73.5123C136.185 74.147 135.516 74.5073 134.675 74.6102C133.834 74.7132 133.097 74.5245 132.445 74.0269C131.793 73.5294 131.433 72.8603 131.33 71.9854C131.227 71.0933 131.415 70.3212 131.93 69.6865C132.428 69.0346 133.114 68.6743 133.954 68.5713C134.795 68.4684 135.533 68.6743 136.168 69.1718C136.802 69.6693 137.163 70.3727 137.283 71.2648C137.386 72.1398 137.197 72.8775 136.699 73.5123H136.682Z" fill="#0E74FF"/>
<path d="M123.472 93.3275L125.016 89.1586L143.613 90.3938L141.966 94.8543L129.168 93.4132L139.633 101.065L138.055 105.337L125.102 104.633L135.842 111.427L134.177 115.956L119.217 104.873L120.762 100.67L133.869 101.271L123.472 93.3103V93.3275Z" fill="#0E74FF"/>
<path d="M119.458 117.637L119.372 117.552C118.24 116.608 117.021 116.179 115.735 116.248C114.448 116.316 113.264 116.917 112.166 118.049C110.811 119.456 109.936 121.171 109.507 123.196L106.368 121C106.899 119.027 108.032 117.123 109.747 115.321C111.72 113.245 113.916 112.182 116.335 112.079C118.754 111.976 120.984 112.919 123.043 114.858C125.136 116.848 126.217 119.078 126.32 121.549C126.423 124.019 125.548 126.232 123.695 128.171C122.1 129.852 120.384 130.693 118.548 130.745C116.713 130.796 114.997 130.024 113.402 128.514C112.578 127.725 111.96 126.953 111.514 126.181L119.44 117.637H119.458ZM121.31 119.559L116.061 125.117L116.284 125.323C118.171 127.125 119.887 127.193 121.448 125.563C122.271 124.706 122.631 123.711 122.563 122.595C122.494 121.48 122.065 120.468 121.31 119.559Z" fill="#0E74FF"/>
<path d="M92.4541 137.727C91.2017 135.222 90.9443 132.769 91.682 130.384C92.4197 128 93.9295 126.233 96.2112 125.1C97.4808 124.466 98.7503 124.054 100.037 123.882L103.64 121.343L115.443 144.915L111.652 147.506L107.037 138.293C106.316 140.352 105.167 141.776 103.605 142.565C101.512 143.612 99.4365 143.68 97.395 142.788C95.3534 141.879 93.7064 140.198 92.4712 137.744L92.4541 137.727ZM96.5029 135.48C97.292 137.041 98.2528 138.105 99.4365 138.653C100.603 139.202 101.804 139.168 103.056 138.551C104.257 137.95 105.132 136.972 105.681 135.6V135.565L105.647 135.531V135.497L105.613 135.462V135.428L105.578 135.394V135.36L105.544 135.325V135.291L105.51 135.257V135.222L105.475 135.188V135.154L105.441 135.119V135.085L105.407 135.051V135.016L105.372 134.982V134.948L105.338 134.913V134.879L105.304 134.845V134.811L105.27 134.776V134.742L105.235 134.708V134.673L105.201 134.639V134.605L105.167 134.57V134.536L105.132 134.502V134.467L105.098 134.433V134.399L105.064 134.365V134.33L105.029 134.296V134.262L104.995 134.227V134.193L104.961 134.159V134.124L104.926 134.09V134.056L104.892 134.021V133.987L104.858 133.953L104.824 133.884V133.85L104.789 133.816V133.781L104.755 133.747V133.713L104.721 133.678L104.686 133.61V133.575L104.652 133.541V133.507L104.618 133.472L104.583 133.404V133.369L104.549 133.335V133.301L104.498 133.232V133.198L104.463 133.164V133.129L104.412 133.061V133.026L104.377 132.992L104.343 132.923V132.889L104.309 132.855L104.275 132.786V132.752L104.24 132.718L104.206 132.649V132.615L104.172 132.58L104.137 132.512V132.477L104.103 132.443L104.069 132.374V132.34L104.017 132.271V132.237L103.983 132.203L103.949 132.134V132.1L103.897 132.031V131.997L103.846 131.928V131.894L103.794 131.825V131.791L103.76 131.757L103.726 131.688V131.654L103.674 131.585V131.551L103.623 131.482V131.448L103.571 131.379L103.537 131.311V131.276L103.485 131.208V131.173L103.434 131.105V131.071L103.382 131.002V130.968L103.331 130.899L103.297 130.83V130.796L103.245 130.727V130.693L103.194 130.625L103.159 130.556V130.522L103.108 130.453V130.419L103.056 130.35L103.022 130.281V130.247L102.971 130.178L102.936 130.11V130.076L102.885 130.007L102.851 129.938V129.904L102.799 129.835L102.765 129.767V129.732L102.713 129.664L102.679 129.595L102.645 129.527V129.492L102.593 129.424L102.559 129.355V129.321L102.507 129.252L102.473 129.183L102.439 129.115V129.08L102.387 129.012L102.353 128.943L102.319 128.875L102.284 128.806V128.772L102.233 128.703L102.199 128.634L102.164 128.566L102.13 128.497V128.463L102.079 128.394L102.044 128.326L102.01 128.257L101.976 128.188V128.154L101.924 128.085L101.89 128.017L101.856 127.948L101.821 127.88L101.684 127.605C100.603 127.399 99.4537 127.605 98.2356 128.206C96.8975 128.875 96.0911 129.887 95.8166 131.225C95.5421 132.563 95.7823 134.004 96.5372 135.514L96.5029 135.48Z" fill="#0E74FF"/>
<path d="M74.3718 136.543C74.1316 134.862 74.612 133.387 75.7957 132.134C76.9795 130.882 78.6951 130.093 80.9082 129.784C83.5331 129.424 85.8834 129.647 87.9764 130.47L87.4789 134.124C85.3859 133.301 83.3272 133.026 81.2856 133.318C80.3935 133.438 79.7073 133.713 79.2441 134.124C78.7637 134.536 78.575 135.051 78.6608 135.668C78.7465 136.303 79.1068 136.749 79.7416 137.007C80.3764 137.247 81.3028 137.435 82.538 137.556C84.4766 137.727 86.0378 138.156 87.2044 138.842C88.371 139.528 89.0573 140.644 89.2631 142.205C89.4862 143.869 89.0401 145.276 87.8907 146.477C86.7412 147.678 85.1114 148.398 83.0012 148.69C80.5479 149.033 78.352 148.861 76.379 148.175L76.8765 144.521C78.9009 145.224 80.8053 145.447 82.6238 145.207C84.3909 144.967 85.18 144.246 85.0256 143.08C84.9398 142.462 84.5967 142.05 83.9791 141.827C83.3615 141.604 82.4179 141.416 81.1484 141.278C79.1754 141.09 77.5971 140.644 76.4476 139.975C75.281 139.288 74.5948 138.156 74.3718 136.578V136.543Z" fill="#0E74FF"/>
<path d="M64.1811 154.214C64.2497 153.373 64.5585 152.721 65.0903 152.275C65.6222 151.829 66.3256 151.641 67.2348 151.726C68.1098 151.795 68.7617 152.104 69.2078 152.636C69.6538 153.167 69.8426 153.854 69.7568 154.694C69.6881 155.518 69.3793 156.153 68.8475 156.616C68.3157 157.079 67.6123 157.268 66.7373 157.182C65.8452 157.113 65.1761 156.787 64.7301 156.255C64.284 155.706 64.0953 155.037 64.1639 154.214H64.1811ZM66.7716 130.573L71.318 130.968L69.7911 148.587L65.1933 148.844L66.7716 130.573Z" fill="#0E74FF"/>
<path d="M53.0813 127.331C54.5224 127.262 55.912 127.433 57.233 127.811C59.1888 128.377 60.5098 129.269 61.1789 130.47C61.8651 131.671 61.8651 133.266 61.2132 135.239L58.6055 143.2L61.1961 144.263L60.2696 147.008L57.3531 147.077L56.1694 150.834L51.949 149.599L53.1842 145.619L48.3634 144.212L49.53 140.644L54.4881 142.085L57.01 134.262C57.4904 132.717 56.9585 131.722 55.4317 131.259C54.694 131.053 53.7504 130.95 52.6181 131.002L53.0641 127.279L53.0813 127.331Z" fill="#0E74FF"/>
<path d="M44.4517 131.688L44.5204 131.585C45.2238 130.298 45.4125 129.012 45.0865 127.759C44.7777 126.507 43.9542 125.46 42.6161 124.62C40.9691 123.573 39.1162 123.041 37.0575 123.007L38.6016 119.507C40.6431 119.645 42.719 120.382 44.8292 121.72C47.2482 123.247 48.7236 125.203 49.2897 127.553C49.8559 129.904 49.3755 132.271 47.8486 134.673C46.3046 137.109 44.3316 138.602 41.9127 139.185C39.5108 139.751 37.1776 139.322 34.913 137.899C32.9572 136.663 31.7906 135.136 31.3961 133.352C31.0015 131.568 31.3961 129.732 32.597 127.862C33.1974 126.902 33.8494 126.147 34.5184 125.563L44.4346 131.688H44.4517ZM42.9249 133.867L36.4571 129.801L36.2855 130.058C34.8959 132.254 35.1532 133.953 37.0575 135.171C38.0526 135.805 39.0991 135.977 40.1799 135.685C41.2607 135.394 42.17 134.793 42.9249 133.867Z" fill="#0E74FF"/>
<path d="M10.6545 109.746L3.67205 113.64L0.909943 109.969L23.9847 97.1188L26.1978 101.099L24.6881 101.94C26.8154 102.592 28.308 103.672 29.1486 105.199C30.2809 107.241 30.4525 109.3 29.629 111.375C28.8055 113.451 27.1929 115.167 24.7567 116.522C22.3034 117.878 19.8673 118.255 17.4654 117.62C15.0465 116.985 13.2279 115.561 11.9927 113.331C11.3751 112.199 10.929 111.015 10.6545 109.746ZM14.223 107.756C14.0857 108.922 14.3259 110.072 14.9435 111.204C15.6641 112.508 16.7106 113.263 18.0659 113.486C19.4212 113.709 20.8452 113.4 22.3206 112.576C23.8303 111.736 24.8253 110.706 25.34 109.505C25.8375 108.287 25.7689 107.104 25.0998 105.903C24.4308 104.685 23.4014 103.861 22.0289 103.415H21.9946L21.9603 103.449H21.926L21.8917 103.484H21.8574L21.8231 103.518H21.7887L21.7544 103.552H21.7201L21.6858 103.587H21.6515L21.6172 103.621H21.5829L21.5486 103.655H21.5142L21.4799 103.69H21.4456L21.4113 103.724H21.377L21.3427 103.758H21.3084L21.2741 103.793H21.2398L21.2054 103.827H21.1711L21.1368 103.861H21.1025L21.0682 103.895H21.0339L20.9996 103.93H20.9653L20.9309 103.964H20.8966L20.8623 103.998H20.828L20.7937 104.033H20.7594L20.7251 104.067L20.6564 104.101H20.6221L20.5878 104.136H20.5535L20.5192 104.17H20.4849L20.4506 104.204H20.4163L20.382 104.239H20.3476L20.3133 104.273H20.279L20.2104 104.324H20.1761L20.1418 104.359H20.1075L20.0731 104.393H20.0388L19.9702 104.444H19.9359L19.9016 104.479H19.8673L19.833 104.513L19.7643 104.547H19.73L19.6957 104.582H19.6614L19.5928 104.633H19.5585L19.5242 104.667L19.4555 104.702H19.4212L19.3869 104.736H19.3526L19.284 104.788H19.2497L19.2153 104.822L19.1467 104.856H19.1124L19.0781 104.89L19.0095 104.925H18.9752L18.9065 104.976H18.8722L18.8379 105.011L18.7693 105.045H18.735L18.6664 105.096H18.632L18.5977 105.131L18.5291 105.165H18.4948L18.4262 105.216H18.3919L18.3232 105.268H18.2889L18.2203 105.319H18.186L18.1174 105.371H18.0831L18.0144 105.422H17.9801L17.9115 105.474H17.8772L17.8086 105.525H17.7742L17.7056 105.577H17.6713L17.6027 105.628H17.5684L17.4998 105.68H17.4654L17.3968 105.731L17.3282 105.765H17.2939L17.2253 105.817H17.1909L17.1223 105.868H17.088L17.0194 105.92L16.9508 105.954H16.9164L16.8478 106.006L16.7792 106.04H16.7449L16.6763 106.091L16.6076 106.126H16.5733L16.5047 106.177L16.4361 106.211H16.4018L16.3331 106.263L16.2645 106.297H16.2302L16.1616 106.349L16.093 106.383H16.0587L15.99 106.435L15.9214 106.469L15.8528 106.503H15.8185L15.7498 106.555L15.6812 106.589L15.6126 106.623H15.5783L15.5097 106.675L15.441 106.709L15.3724 106.743H15.3381L15.2695 106.795L15.2009 106.829L15.1322 106.863L15.0636 106.898H15.0293L14.9607 106.949L14.892 106.984L14.8234 107.018L14.7548 107.052H14.7205L14.6519 107.104L14.5832 107.138L14.5146 107.172L14.446 107.207L14.3774 107.241L14.0686 107.412L14.223 107.756Z" fill="#0E74FF"/>
<path d="M14.7205 92.2122H14.8406C16.2645 91.852 17.3454 91.1657 18.0831 90.0849C18.8036 89.0212 19.0438 87.7174 18.8036 86.1562C18.4948 84.2176 17.6713 82.4848 16.316 80.9236L19.9531 79.757C21.2054 81.3868 22.0289 83.4284 22.4235 85.8989C22.8696 88.7124 22.4235 91.1143 21.0167 93.1044C19.6271 95.0944 17.5341 96.2954 14.7377 96.7414C11.8898 97.2046 9.45362 96.7243 7.42921 95.3003C5.40481 93.8764 4.16958 91.852 3.75784 89.21C3.39756 86.9282 3.75784 85.0411 4.82151 83.5656C5.90233 82.0902 7.53215 81.181 9.71096 80.8207C10.8261 80.6491 11.8211 80.6148 12.7132 80.7349L14.7033 92.2294L14.7205 92.2122ZM12.0785 92.5211L10.8261 84.9724L10.5173 85.0239C7.94389 85.4356 6.84591 86.7567 7.20619 89.0041C7.3949 90.1707 7.96105 91.0628 8.88747 91.6804C9.81389 92.298 10.8776 92.5725 12.0785 92.5211Z" fill="#0E74FF"/>
<path d="M17.8772 63.5447C19.5584 63.802 20.828 64.6598 21.7029 66.1695C22.5779 67.6621 22.8524 69.515 22.5093 71.7281C22.1147 74.3529 21.2397 76.5489 19.8501 78.316L16.4875 76.8062C17.8772 75.0392 18.7178 73.1349 19.0095 71.0933C19.1467 70.2012 19.0781 69.4635 18.8036 68.8973C18.5291 68.3312 18.1002 67.9881 17.4826 67.9023C16.8478 67.8165 16.316 68.0224 15.9042 68.5714C15.4925 69.1204 15.0464 69.961 14.5832 71.1105C13.8627 72.929 13.022 74.3015 12.0441 75.2279C11.0662 76.1543 9.79671 76.4974 8.23551 76.2572C6.58854 76.0171 5.35331 75.1764 4.52983 73.7353C3.7235 72.2942 3.46616 70.5272 3.77497 68.417C4.13524 65.9808 4.92441 63.905 6.14249 62.2065L9.50505 63.7162C8.25267 65.449 7.49781 67.2332 7.22331 69.0346C6.96597 70.7845 7.41203 71.7624 8.59579 71.9339C9.2134 72.0197 9.71093 71.8138 10.1055 71.282C10.5001 70.7502 10.929 69.9095 11.4265 68.7258C12.1642 66.8901 13.0392 65.5005 14.0171 64.5912C14.995 63.6648 16.2817 63.3217 17.86 63.5618L17.8772 63.5447Z" fill="#0E74FF"/>
<path d="M3.82649 48.7563C4.61567 49.0651 5.1475 49.5454 5.422 50.1631C5.69649 50.7807 5.67934 51.5355 5.35337 52.3762C5.02741 53.1825 4.5642 53.7315 3.92943 54.0231C3.29466 54.2976 2.59126 54.2805 1.78493 53.9717C1.01292 53.68 0.498238 53.1997 0.206586 52.5649C-0.085065 51.9301 -0.067909 51.1924 0.258054 50.3861C0.584017 49.5454 1.06438 48.9964 1.71631 48.722C2.36824 48.4475 3.07163 48.4646 3.82649 48.7563ZM25.7861 57.9004L24.122 62.1379L7.65227 55.7044L8.69878 51.2267L25.769 57.9004H25.7861Z" fill="#0E74FF"/>
<path d="M28.4281 53.6972C27.7419 54.1776 27.0213 54.4692 26.2836 54.5722C25.5459 54.6751 24.9112 54.5036 24.345 54.109C23.6931 53.6458 23.2642 52.9595 23.0583 52.0846C22.8524 51.2096 22.9039 50.2489 23.1956 49.271C22.2005 49.7857 21.1368 50.0087 20.0046 49.9058C18.8894 49.82 17.8257 49.4254 16.8479 48.722C15.3038 47.6069 14.3946 46.0971 14.1544 44.1928C13.9142 42.2714 14.4803 40.3499 15.87 38.3941C16.8307 37.056 18.1002 35.9065 19.6957 34.9629L22.1319 30.8283L25.4773 32.99L23.024 35.4261C23.8132 35.3232 24.7396 35.6492 25.7518 36.3869C27.2444 37.4505 28.085 38.9088 28.2909 40.7788C28.4967 42.6488 27.9649 44.4502 26.7125 46.2172C26.2665 46.852 25.7175 47.4525 25.0484 48.0186C24.8082 48.9793 24.9455 49.6656 25.4945 50.043C25.889 50.3347 26.3351 50.3175 26.8155 50.0087C27.2958 49.6999 27.9478 48.9965 28.7541 47.8642V47.8299L28.8056 47.7956V47.7613L28.857 47.727V47.6926L28.9085 47.6583L28.96 47.5897V47.5554L29.0114 47.5211V47.4868L29.0629 47.4525L29.1144 47.3838V47.3495L29.183 47.2809V47.2466L29.2516 47.178V47.1437L29.3202 47.075L29.3717 47.0064V46.9721L29.4403 46.9035L29.4918 46.8348L29.5433 46.7662L29.5947 46.6976L29.6462 46.629L29.6977 46.5604L29.7491 46.4917L29.9207 46.2344C33.0259 41.8939 35.891 40.6759 38.5501 42.5802C40.2314 43.7811 41.0206 45.5825 40.9348 48.0015C40.849 50.4204 39.9741 52.8051 38.2928 55.1555C36.8689 57.1456 35.342 58.5352 33.695 59.3244C32.048 60.1136 30.6069 60.0621 29.3545 59.17C28.5654 58.6038 28.0679 57.8318 27.8963 56.8368C27.7076 55.8589 27.8963 54.7781 28.4967 53.6115L28.4281 53.6972ZM19.4556 45.1536C20.3305 45.7883 21.2226 46.0285 22.0976 45.9084C22.9725 45.7883 23.7445 45.2737 24.3622 44.3987C24.9455 43.5752 25.1342 42.7517 24.9112 41.8939C24.6881 41.0361 24.122 40.2984 23.2127 39.6293C22.3206 38.9774 21.4285 38.7201 20.5707 38.8059C19.7129 38.9088 18.958 39.4063 18.3233 40.2984C17.74 41.1219 17.5513 41.9626 17.7571 42.8375C17.963 43.7125 18.5291 44.4845 19.4556 45.1364V45.1536ZM30.2981 52.136C29.8692 53.6629 30.0923 54.7266 30.9501 55.3442C31.6191 55.8246 32.4426 55.8417 33.4205 55.3785C34.3984 54.9153 35.3248 54.0918 36.1826 52.8737C37.109 51.5699 37.658 50.3347 37.8124 49.1681C37.9668 48.0015 37.6752 47.1437 36.9546 46.629C36.3027 46.1658 35.6336 46.1658 34.9645 46.629C34.2783 47.0922 33.4377 48.0358 32.4255 49.4597C31.6706 50.5062 30.9844 51.3983 30.3324 52.136H30.2981Z" fill="#0E74FF"/>
<path d="M50.4907 31.5488L46.7507 34.1394L40.5746 25.2183C39.8369 24.1546 39.1163 23.5541 38.4129 23.4169C37.6924 23.2625 36.9032 23.4855 36.0454 24.1031C34.8445 24.9438 34.0725 26.1447 33.7465 27.7059L40.9692 38.1539L37.2292 40.7444L27.1415 26.179L30.5384 23.0738L32.151 25.3898C32.477 22.8507 33.5578 20.9464 35.342 19.6941C36.8174 18.6647 38.2929 18.3216 39.734 18.6475C41.1751 18.9735 42.4446 19.9171 43.5254 21.4954L50.4907 31.5488Z" fill="#0E74FF"/>
<path d="M63.4778 16.2114C64.1469 16.6574 64.5586 17.2922 64.713 18.1329C64.8674 18.9735 64.7302 19.7284 64.2841 20.3974C63.8381 21.0665 63.1861 21.4954 62.3283 21.667C61.4362 21.8385 60.6642 21.7013 59.978 21.2381C59.2917 20.7749 58.88 20.1401 58.7256 19.2995C58.5712 18.4588 58.7256 17.7211 59.1716 17.052C59.6349 16.383 60.3039 15.9712 61.196 15.7997C62.0538 15.6281 62.8087 15.7825 63.4778 16.2286V16.2114Z" fill="#0E74FF"/>
</svg>
