<svg width="130" height="122" viewBox="0 0 130 122" fill="none" xmlns="http://www.w3.org/2000/svg">
<path d="M71.5504 16.1759L68.1182 15.3726L67.2273 0.592285L70.9078 1.43938L71.0538 11.6776L76.0342 2.66621L79.554 3.48409L80.2843 13.7661L84.5781 4.62329L88.3171 5.48499L81.0729 18.3813L77.6115 17.578L76.779 7.17918L71.5504 16.1613V16.1759Z" fill="#EBBF96"/>
<path d="M91.1504 16.7308L91.092 16.8039C90.4932 17.8116 90.2887 18.8048 90.4932 19.8125C90.6976 20.8203 91.3111 21.682 92.3334 22.3976C93.6041 23.2885 95.05 23.7851 96.6857 23.8873L95.3421 26.6185C93.7209 26.4286 92.0997 25.7714 90.4786 24.6322C88.6237 23.3323 87.5137 21.7258 87.1486 19.8417C86.7835 17.9577 87.2509 16.0882 88.5507 14.248C89.8652 12.3785 91.4863 11.2539 93.4288 10.8888C95.3713 10.5237 97.1969 10.9472 98.9349 12.1741C100.439 13.2256 101.316 14.4817 101.564 15.913C101.812 17.3443 101.418 18.7756 100.41 20.2215C99.8989 20.9517 99.3585 21.5359 98.8035 21.9741L91.1504 16.7455V16.7308ZM92.4357 15.0659L97.416 18.5273L97.562 18.3228C98.7451 16.6286 98.599 15.2703 97.1385 14.2334C96.3644 13.693 95.5465 13.5177 94.6848 13.7076C93.8085 13.8975 93.0637 14.3502 92.4503 15.0513L92.4357 15.0659Z" fill="#EBBF96"/>
<path d="M110.327 35.3231C108.53 36.6522 106.646 37.178 104.689 36.9297C102.718 36.6814 101.14 35.7321 99.9427 34.1109C99.2708 33.2054 98.7889 32.2561 98.4675 31.2775L95.9847 28.7947L112.839 16.3657L115.38 18.98L108.793 23.8435C110.502 24.1356 111.773 24.8367 112.591 25.9613C113.701 27.451 114.037 29.0722 113.598 30.7956C113.175 32.519 112.079 34.0379 110.312 35.3377L110.327 35.3231ZM108.019 32.4459C109.144 31.628 109.83 30.7079 110.108 29.7294C110.385 28.7362 110.195 27.8015 109.538 26.9106C108.91 26.0489 108.019 25.5085 106.865 25.2602H106.836L106.807 25.2894H106.778L106.749 25.3186H106.719L106.69 25.3479H106.661L106.632 25.3771H106.603L106.573 25.4209H106.544L106.515 25.4501H106.486L106.457 25.4793H106.427L106.398 25.5085H106.369L106.34 25.5377H106.31L106.281 25.5669H106.252L106.223 25.5961H106.194L106.164 25.6254H106.135L106.106 25.6546H106.077L106.048 25.6838H106.018L105.989 25.713H105.96L105.931 25.7422H105.902L105.872 25.7714H105.843L105.814 25.8006H105.785L105.755 25.8298H105.726L105.697 25.859H105.668L105.639 25.8882H105.609L105.58 25.9175H105.551L105.522 25.9467H105.493L105.463 25.9759L105.42 26.0197H105.39L105.361 26.0489H105.332L105.303 26.0781H105.274L105.244 26.1073L105.2 26.1365H105.171L105.142 26.1657H105.113L105.084 26.195L105.04 26.2242H105.011L104.981 26.2534H104.952L104.908 26.3118H104.879L104.85 26.3556H104.821L104.777 26.414H104.748L104.719 26.4432L104.675 26.4724H104.646L104.616 26.5017L104.572 26.5309H104.543L104.514 26.5601L104.47 26.5893H104.441L104.412 26.6185L104.368 26.6623H104.339L104.31 26.6915L104.266 26.7207H104.237L104.193 26.7792H104.164L104.134 26.8084L104.091 26.8376H104.061L104.017 26.896H103.988L103.944 26.9544H103.915L103.871 27.0128H103.842L103.813 27.042L103.769 27.0713H103.74L103.696 27.1297H103.667L103.623 27.1881H103.594L103.55 27.2465L103.506 27.2757H103.477L103.433 27.3341H103.404L103.36 27.3926H103.331L103.287 27.451H103.258L103.214 27.5094L103.17 27.5386H103.141L103.097 27.597H103.068L103.024 27.6555L102.981 27.6847H102.951L102.907 27.7431H102.878L102.834 27.8015L102.791 27.8307H102.761L102.718 27.8891L102.674 27.9184H102.645L102.601 27.9768L102.557 28.006H102.528L102.484 28.0644L102.44 28.1082H102.411L102.367 28.1666L102.323 28.1958L102.279 28.2251H102.25L102.206 28.2835L102.163 28.3127H102.133L102.09 28.3711L102.046 28.4003L102.002 28.4295H101.973L101.929 28.488L101.885 28.5172L101.841 28.5464L101.798 28.5756H101.768L101.724 28.634L101.681 28.6632L101.637 28.6924L101.593 28.7216H101.564L101.52 28.7801L101.476 28.8093L101.432 28.8385L101.389 28.8677H101.359L101.316 28.9261L101.272 28.9553L101.228 28.9845L101.184 29.0137L100.98 29.1598C100.965 30.0361 101.272 30.9124 101.929 31.7741C102.63 32.7234 103.536 33.22 104.616 33.2492C105.712 33.2784 106.792 32.8987 107.888 32.0954L108.019 32.4459Z" fill="#EBBF96"/>
<path d="M122.683 53.8716L128.963 52.9077L130 56.4129L109.261 59.5822L108.72 56.004L110.079 55.7995C108.677 54.7333 107.873 53.5065 107.654 52.1336C107.377 50.2934 107.829 48.716 109.012 47.4016C110.196 46.0871 111.875 45.2546 114.066 44.9187C116.271 44.5828 118.184 44.9771 119.806 46.1163C121.427 47.2555 122.391 48.8183 122.697 50.8191C122.858 51.8269 122.858 52.8347 122.697 53.857L122.683 53.8716ZM119.47 54.3682C119.908 53.5357 120.039 52.6156 119.879 51.6078C119.703 50.4394 119.134 49.5777 118.184 49.0373C117.235 48.4969 116.096 48.3363 114.752 48.5408C113.394 48.7452 112.372 49.2272 111.656 49.9867C110.94 50.7461 110.677 51.6662 110.838 52.7324C110.999 53.8278 111.539 54.7187 112.43 55.4344H112.459H112.489H112.518H112.547H112.576H112.605H112.635H112.664H112.693H112.722H112.751H112.781H112.81H112.839H112.868H112.897H112.927H112.956H112.985H113.014H113.044H113.073H113.102H113.131H113.16H113.19H113.219H113.248H113.277H113.306H113.336H113.365H113.394H113.423H113.452H113.482H113.511H113.54H113.598H113.628H113.657H113.686H113.715H113.745H113.774H113.803H113.832H113.861H113.891H113.92H113.978H114.007H114.037H114.066H114.095H114.124H114.183H114.212H114.241H114.27H114.3H114.358H114.387H114.416H114.446H114.504H114.533H114.562H114.621H114.65H114.679H114.708H114.767H114.796H114.825H114.884H114.913H114.942H115.001H115.03H115.088H115.117H115.147H115.205H115.234H115.293H115.322H115.351H115.41H115.439H115.497H115.526H115.585H115.614H115.672H115.702H115.76H115.789H115.848H115.877H115.935H115.965H116.023H116.052H116.111H116.14H116.198H116.227H116.286H116.315H116.373L116.432 55.4198H116.461H116.52H116.549H116.607H116.636H116.695H116.753H116.782H116.841L116.899 55.4051H116.928H116.987H117.045H117.075H117.133L117.191 55.3905H117.221H117.279H117.337H117.367H117.425L117.483 55.3759H117.513H117.571H117.63L117.688 55.3613H117.717H117.776H117.834L117.892 55.3467H117.922H117.98H118.038L118.097 55.3321H118.126H118.184H118.243L118.301 55.3175H118.36H118.389H118.447L118.506 55.3029H118.564L118.623 55.2883H118.652H118.71H118.769L118.827 55.2737H118.886L118.944 55.2591L119.221 55.2153L119.47 54.3682Z" fill="#EBBF96"/>
<path d="M114.928 65.7455H114.84C113.672 65.6141 112.678 65.8624 111.861 66.4758C111.043 67.0892 110.517 68.0093 110.298 69.2362C110.035 70.7697 110.196 72.2886 110.809 73.8076L107.771 73.7491C107.245 72.201 107.158 70.463 107.508 68.5059C107.903 66.2713 108.866 64.5917 110.429 63.4525C111.992 62.328 113.876 61.9482 116.081 62.3426C118.331 62.7369 120.039 63.73 121.193 65.322C122.347 66.914 122.741 68.7542 122.376 70.8573C122.055 72.6684 121.31 73.9974 120.112 74.8153C118.915 75.6478 117.454 75.9107 115.731 75.604C114.84 75.4433 114.081 75.2097 113.452 74.9029L114.928 65.7602V65.7455ZM116.987 66.2129L115.979 72.201L116.227 72.2448C118.258 72.5953 119.441 71.8943 119.747 70.1125C119.908 69.1923 119.718 68.3745 119.178 67.6588C118.637 66.9578 117.907 66.4612 117.002 66.1983L116.987 66.2129Z" fill="#EBBF96"/>
<path d="M105.288 86.5721C104.076 85.9733 103.331 84.9948 103.054 83.6511C102.762 82.3075 103.024 80.8323 103.813 79.255C104.762 77.3709 105.975 75.925 107.45 74.9319L109.611 76.9036C108.122 77.8967 107.026 79.1235 106.296 80.5841C105.975 81.2267 105.843 81.7963 105.902 82.2928C105.96 82.7894 106.208 83.1546 106.646 83.3736C107.099 83.6073 107.552 83.5635 108.005 83.2568C108.458 82.9501 108.998 82.4243 109.626 81.6648C110.619 80.4672 111.598 79.6493 112.562 79.1966C113.526 78.7438 114.577 78.8022 115.687 79.3572C116.87 79.956 117.6 80.8908 117.863 82.176C118.126 83.4613 117.863 84.8633 117.118 86.3823C116.242 88.1349 115.132 89.5078 113.803 90.4863L111.641 88.5146C113.014 87.5069 114.022 86.3531 114.679 85.0532C115.307 83.7972 115.205 82.9501 114.358 82.5265C113.92 82.3075 113.482 82.3513 113.058 82.6434C112.635 82.9501 112.094 83.4759 111.437 84.2499C110.415 85.4622 109.421 86.28 108.458 86.7328C107.494 87.1856 106.442 87.1271 105.303 86.5575L105.288 86.5721Z" fill="#EBBF96"/>
<path d="M97.9855 88.9677L100.249 86.1343L111.218 94.8973L109.363 98.052L97.9855 88.9531V88.9677ZM112.474 101.104C111.948 100.681 111.656 100.199 111.597 99.6586C111.539 99.1182 111.729 98.5632 112.182 98.0082C112.62 97.4678 113.102 97.1611 113.657 97.1027C114.197 97.0443 114.738 97.2195 115.263 97.6431C115.774 98.052 116.067 98.534 116.14 99.089C116.213 99.644 116.023 100.184 115.585 100.725C115.132 101.28 114.635 101.586 114.08 101.645C113.525 101.703 113 101.528 112.488 101.119L112.474 101.104Z" fill="#EBBF96"/>
<path d="M94.9331 91.5966C95.5757 91.3775 96.1745 91.3191 96.7587 91.4068C97.3429 91.4944 97.7957 91.7573 98.1316 92.1954C98.5259 92.692 98.7012 93.3054 98.6574 94.0211C98.6136 94.7367 98.3653 95.4524 97.9271 96.1388C98.8034 95.9635 99.6651 96.0366 100.498 96.3579C101.33 96.6792 102.046 97.2196 102.645 97.9644C103.579 99.1621 103.93 100.506 103.682 102.025C103.433 103.544 102.572 104.887 101.082 106.056C100.059 106.859 98.818 107.458 97.4013 107.823L94.6117 110.437L92.5378 108.042L94.9477 106.742C94.3197 106.64 93.6916 106.187 93.0782 105.398C92.1873 104.259 91.866 102.945 92.1289 101.484C92.3918 100.009 93.1951 98.7531 94.5533 97.6869C95.0353 97.3072 95.5903 96.9713 96.2183 96.6938C96.6272 96.0074 96.6565 95.467 96.3351 95.0434C96.1015 94.7367 95.7509 94.6491 95.3128 94.7659C94.8746 94.8828 94.2174 95.2917 93.3557 95.9635H93.3265L93.2973 96.0074H93.2681L93.2389 96.0512H93.2097L93.1804 96.095L93.1366 96.1388H93.1074L93.0782 96.1826H93.049L93.0198 96.2264L92.976 96.2703H92.9468L92.903 96.3287H92.8737L92.8299 96.3871H92.8007L92.7569 96.4455L92.7131 96.4893H92.6839L92.6401 96.5477L92.5962 96.5916L92.5524 96.6354L92.5086 96.6792L92.4648 96.723L92.421 96.7668L92.3772 96.8106L92.1873 96.9567C88.8573 99.571 86.3891 99.8485 84.7825 97.8184C83.7748 96.5331 83.5703 94.9704 84.1837 93.1448C84.7971 91.3191 85.9947 89.698 87.7912 88.2813C89.3247 87.0836 90.7998 86.368 92.2165 86.1343C93.6478 85.9006 94.7286 86.2658 95.4881 87.2297C95.97 87.8431 96.1599 88.5442 96.0869 89.3328C95.9992 90.1215 95.6195 90.8956 94.9039 91.655L94.9331 91.5966ZM93.1658 92.3707C93.8377 91.3045 93.9107 90.4428 93.3849 89.771C92.976 89.2598 92.3626 89.0699 91.5155 89.2014C90.6684 89.3328 89.7775 89.771 88.8427 90.5012C87.8496 91.2899 87.1631 92.1078 86.7834 92.9549C86.4037 93.8166 86.4329 94.5176 86.871 95.0872C87.2654 95.5838 87.762 95.7299 88.39 95.5254C89.018 95.3209 89.8651 94.7951 90.9605 93.9334C91.7638 93.3054 92.494 92.7796 93.1658 92.3561V92.3707ZM99.8696 100.126C99.3438 99.4542 98.7304 99.0598 98.0293 98.9576C97.3283 98.8553 96.6419 99.0744 95.97 99.6002C95.342 100.097 95.0207 100.681 94.9915 101.382C94.9623 102.083 95.2252 102.784 95.7802 103.485C96.3205 104.172 96.934 104.581 97.6058 104.697C98.2776 104.814 98.9641 104.61 99.6651 104.055C100.293 103.558 100.629 102.959 100.658 102.244C100.687 101.528 100.439 100.812 99.8842 100.111L99.8696 100.126Z" fill="#EBBF96"/>
<path d="M73.2008 103.836L76.6184 102.623L79.4956 110.744C79.8315 111.708 80.2697 112.321 80.7809 112.584C81.292 112.847 81.9493 112.832 82.7379 112.555C83.8333 112.161 84.6658 111.401 85.25 110.262L81.8762 100.754L85.2938 99.5417L89.9967 112.818L86.7543 114.483L86.0095 112.38C85.2208 114.264 84.0086 115.491 82.3728 116.075C81.0291 116.557 79.8315 116.513 78.78 115.958C77.7284 115.403 76.9689 114.41 76.4577 112.993L73.2154 103.821L73.2008 103.836Z" fill="#EBBF96"/>
<path d="M60.246 113.183C59.8224 112.715 59.6179 112.146 59.6472 111.474C59.6764 110.802 59.9246 110.247 60.4066 109.809C60.874 109.371 61.4582 109.166 62.1592 109.196C62.8749 109.225 63.4445 109.488 63.8826 109.97C64.3208 110.452 64.5253 111.021 64.496 111.708C64.4668 112.38 64.2039 112.935 63.7366 113.358C63.2692 113.782 62.6558 113.986 61.9402 113.957C61.2391 113.928 60.6841 113.679 60.2606 113.197L60.246 113.183Z" fill="#EBBF96"/>
<path d="M36.1037 103.5C37.053 101.484 38.4405 100.111 40.2954 99.3956C42.1356 98.68 43.9759 98.753 45.8161 99.6001C46.8384 100.082 47.7148 100.666 48.4742 101.382L51.8334 102.375L42.9681 121.362L39.4775 120.281L42.9389 112.862C41.3031 113.431 39.8426 113.417 38.5866 112.832C36.907 112.044 35.8408 110.788 35.3881 109.064C34.9353 107.341 35.1836 105.486 36.1037 103.514V103.5ZM39.5067 104.916C38.9225 106.172 38.7472 107.312 38.9663 108.305C39.2 109.312 39.8134 110.043 40.8212 110.51C41.7851 110.963 42.8367 111.021 43.9612 110.685V110.656L43.9905 110.627V110.598L44.0197 110.569V110.539L44.0489 110.51V110.481L44.0781 110.452V110.422L44.1073 110.393V110.364L44.1365 110.335V110.306L44.1657 110.276V110.247L44.1949 110.218V110.189L44.2241 110.16V110.13L44.2533 110.101V110.072L44.2826 110.043V110.014L44.3118 109.984V109.955L44.341 109.926V109.897L44.3702 109.867V109.838L44.3994 109.809V109.78L44.4286 109.751V109.721L44.4578 109.692V109.663L44.487 109.634V109.605L44.5162 109.575V109.546L44.5454 109.517V109.488L44.5747 109.459V109.429L44.6039 109.4V109.371L44.6331 109.342V109.312L44.6623 109.283L44.6915 109.225V109.196L44.7207 109.166V109.137L44.7499 109.108V109.079L44.7791 109.05L44.8083 108.991V108.962L44.8376 108.933V108.904L44.8668 108.874L44.896 108.816V108.787L44.9252 108.757V108.728L44.969 108.67V108.641L44.9982 108.611V108.582L45.042 108.524V108.495L45.0712 108.465L45.1004 108.407V108.378L45.1297 108.349L45.1589 108.29V108.261L45.1881 108.232L45.2173 108.173V108.144L45.2465 108.115L45.2757 108.056V108.027L45.3049 107.998L45.3341 107.94V107.91L45.3779 107.852V107.823L45.4071 107.794L45.4364 107.735V107.706L45.4802 107.648V107.618L45.524 107.56V107.531L45.5678 107.472V107.443L45.597 107.414L45.6262 107.355V107.326L45.67 107.268V107.239L45.7139 107.18V107.151L45.7577 107.093L45.7869 107.034V107.005L45.8307 106.946V106.917L45.8745 106.859V106.83L45.9183 106.771V106.742L45.9621 106.684L45.9914 106.625V106.596L46.0352 106.538V106.508L46.079 106.45L46.1082 106.391V106.362L46.152 106.304V106.275L46.1958 106.216L46.225 106.158V106.129L46.2688 106.07L46.2981 106.012V105.983L46.3419 105.924L46.3711 105.866V105.836L46.4149 105.778L46.4441 105.72V105.69L46.4879 105.632L46.5171 105.574L46.5463 105.515V105.486L46.5902 105.428L46.6194 105.369V105.34L46.6632 105.281L46.6924 105.223L46.7216 105.165V105.135L46.7654 105.077L46.7946 105.019L46.8238 104.96L46.8531 104.902V104.873L46.8969 104.814L46.9261 104.756L46.9553 104.697L46.9845 104.639V104.61L47.0283 104.551L47.0575 104.493L47.0867 104.434L47.1159 104.376V104.347L47.1598 104.288L47.189 104.23L47.2182 104.171L47.2474 104.113L47.3496 103.894C46.9407 103.12 46.2542 102.507 45.2757 102.039C44.1949 101.543 43.1726 101.528 42.2086 102.039C41.2447 102.55 40.456 103.383 39.8864 104.61L39.5067 104.916Z" fill="#EBBF96"/>
<path d="M29.6192 99.8483L35.432 93.3198L38.1339 95.7297L28.8013 106.216L25.7488 104.201L27.2823 102.477C25.5589 103.032 24.1276 102.784 22.9884 101.776C22.2728 101.134 21.7908 100.418 21.5425 99.6292L24.3029 97.7306C24.5658 98.4608 24.9455 99.045 25.4421 99.4832C26.4352 100.359 27.8373 100.491 29.6338 99.8483H29.6192Z" fill="#EBBF96"/>
<path d="M24.8579 83.1402L24.931 83.2425C26.7274 83.4469 28.0272 84.1772 28.8597 85.4478C29.5462 86.514 29.7945 87.5948 29.6046 88.7048C29.4147 89.8148 28.8451 90.6765 27.8958 91.2899C25.2377 93.0133 22.3166 91.5966 19.1181 87.0106L18.8406 87.1858C18.0373 87.7116 17.57 88.2666 17.4678 88.8654C17.3509 89.4642 17.57 90.1799 18.125 91.027C18.8698 92.1808 20.1405 93.2178 21.9369 94.1379L19.9506 96.314C18.052 95.4231 16.5184 94.0648 15.3354 92.2538C14.167 90.4574 13.7288 88.9093 14.0209 87.6094C14.3131 86.3095 15.3062 85.1411 16.9858 84.0896L21.2359 81.3292C21.6886 81.0371 21.9223 80.7888 21.9661 80.5989C22.0099 80.3945 21.8931 80.0586 21.6302 79.5766L24.0693 78.3206C25.6028 80.2046 25.8803 81.7966 24.8871 83.1256L24.8579 83.1402ZM23.4266 84.221L20.6955 85.9882C21.8493 87.3465 22.7694 88.2082 23.4997 88.6171C24.2153 89.0115 24.9017 89.0115 25.5298 88.6025C25.9971 88.2958 26.26 87.9015 26.333 87.3903C26.4061 86.8791 26.2746 86.3534 25.9241 85.8276C25.3545 84.9513 24.522 84.4255 23.4266 84.2356V84.221Z" fill="#EBBF96"/>
<path d="M20.0527 64.957L20.9729 68.4623L12.6333 70.653C11.6402 70.9159 10.9976 71.2956 10.6909 71.7776C10.3842 72.2742 10.3403 72.9168 10.5594 73.7347C10.8515 74.8593 11.538 75.7648 12.6333 76.422L22.3896 73.8661L23.3097 77.3714L9.69772 80.9496L8.31024 77.5758L10.4718 77.0062C8.66076 76.0715 7.53617 74.7571 7.09802 73.0775C6.73289 71.69 6.87894 70.507 7.50696 69.5138C8.14958 68.5207 9.20115 67.8342 10.6617 67.4545L20.0673 64.9862L20.0527 64.957Z" fill="#EBBF96"/>
<path d="M6.52848 52.338L0.204471 51.8268L0 48.1755L20.9145 49.8697L20.6224 53.4772L19.2495 53.3603C20.3741 54.7186 20.8707 56.0915 20.7684 57.479C20.6224 59.3338 19.8191 60.7651 18.3586 61.7729C16.8981 62.7806 15.0725 63.2042 12.8671 63.0143C10.6471 62.8391 8.8799 62.0066 7.56544 60.5168C6.25098 59.0417 5.66678 57.2891 5.84204 55.2736C5.92967 54.2513 6.16335 53.2727 6.54308 52.3088L6.52848 52.338ZM9.77081 52.6009C9.15739 53.3165 8.80687 54.1782 8.73385 55.2006C8.63161 56.3836 8.99674 57.3475 9.80002 58.0924C10.6033 58.8373 11.6695 59.2608 13.0131 59.363C14.386 59.4799 15.496 59.2462 16.3577 58.662C17.2194 58.0924 17.7014 57.2599 17.789 56.1791C17.8766 55.0837 17.5699 54.076 16.8689 53.1851H16.8397H16.8105H16.7813H16.752H16.7228H16.6936H16.6644H16.6352H16.606H16.5768H16.5476H16.5184H16.4891H16.4599H16.4307H16.4015H16.3723H16.3431H16.3139H16.2847H16.2555H16.2263H16.197H16.1678H16.1386H16.1094H16.0802H16.051H16.0218H15.9926H15.9634H15.9342H15.9049H15.8757H15.8465H15.8173H15.7881H15.7589H15.7005H15.6713H15.6421H15.6128H15.5836H15.5544H15.5252H15.496H15.4668H15.4376H15.4084H15.3792H15.3207H15.2915H15.2623H15.2331H15.2039H15.1747H15.1163H15.0871H15.0579H15.0286H14.9994H14.941H14.9118H14.8826H14.8534H14.795H14.7657H14.7365H14.6781H14.6489H14.6197H14.5905H14.5321H14.5029H14.4736H14.4152H14.386H14.3568H14.2984H14.2692H14.2108H14.1815H14.1523H14.0939H14.0647H14.0063H13.9771H13.9479H13.8894H13.8602H13.8018H13.7726H13.7142H13.685H13.6266H13.5973H13.5389H13.5097H13.4513H13.4221H13.3637H13.3344H13.276H13.2468H13.1884H13.1592H13.1008H13.0716H13.0131H12.9839H12.9255H12.8671H12.8379H12.7795H12.7502H12.6918H12.6626H12.6042H12.5458H12.5166H12.4581H12.3997H12.3705H12.3121H12.2537H12.2245H12.166H12.1076H12.0784H12.02H11.9616H11.9324H11.8739H11.8155H11.7863H11.7279H11.6695H11.611H11.5818H11.5234H11.465H11.4066H11.3774H11.3189H11.2605H11.2021H11.1729H11.1145H11.0561H10.9976H10.9392H10.91H10.8516H10.7932H10.7347H10.6763H10.6471H10.5887H10.5303H10.4719H10.4134H10.355L10.0775 53.1559L9.77081 52.6009Z" fill="#EBBF96"/>
<path d="M5.44781 37.4263C6.09043 37.6454 6.52859 37.9959 6.76227 38.4925C7.01055 38.989 7.01055 39.5732 6.77687 40.2451C6.5578 40.9023 6.19267 41.3551 5.6961 41.5887C5.19952 41.837 4.62992 41.837 4.00191 41.6326C3.38849 41.4135 2.95034 41.063 2.68745 40.5664C2.43916 40.0698 2.42456 39.5002 2.64363 38.8284C2.87731 38.1565 3.24244 37.6892 3.73901 37.4555C4.23559 37.2218 4.80519 37.2072 5.4186 37.4117L5.44781 37.4263ZM23.193 43.9256L22.0246 47.3578L8.73396 42.8302L9.40579 39.2373L23.193 43.9402V43.9256Z" fill="#EBBF96"/>
<path d="M30.8167 30.5033L28.845 33.5412L21.6009 28.8676C20.7392 28.3126 20.0235 28.0935 19.4539 28.1957C18.8843 28.298 18.3731 28.7069 17.9204 29.408C17.2924 30.3865 17.0879 31.4965 17.3362 32.7525L25.8071 38.2294L23.8354 41.2673L12.0053 33.6288L13.5534 30.3281L15.4375 31.5403C14.9117 29.5686 15.1162 27.8598 16.0655 26.3993C16.8396 25.2017 17.8181 24.5007 18.9719 24.2962C20.1403 24.0917 21.3526 24.413 22.6232 25.2309L30.7875 30.5033H30.8167Z" fill="#EBBF96"/>
<path d="M33.8399 28.5171C33.1973 28.7362 32.5985 28.8092 32.0143 28.7216C31.4301 28.6339 30.9773 28.371 30.6268 27.9475C30.2325 27.4509 30.0572 26.8375 30.0864 26.1219C30.1302 25.3916 30.3639 24.6906 30.8021 24.0041C29.9258 24.1794 29.0641 24.121 28.2316 23.7996C27.3991 23.4783 26.6688 22.9525 26.07 22.2077C25.1207 21.0247 24.7702 19.681 25.0039 18.1621C25.2375 16.6431 26.0846 15.2995 27.5744 14.1019C28.5967 13.284 29.8235 12.6852 31.2402 12.3054L34.0006 9.67651L36.0891 12.0425L33.6939 13.3716C34.3219 13.4738 34.9499 13.912 35.5779 14.7007C36.4835 15.8399 36.8048 17.1397 36.5565 18.6148C36.3082 20.0899 35.5049 21.3606 34.1612 22.4268C33.6793 22.8065 33.1243 23.1424 32.4963 23.4345C32.1019 24.121 32.0727 24.6613 32.394 25.0849C32.6423 25.3916 32.9782 25.4792 33.4164 25.3478C33.8545 25.2163 34.4972 24.8074 35.3589 24.121H35.3881L35.4173 24.0771H35.4465L35.4757 24.0333H35.5049L35.5341 23.9895L35.5779 23.9457H35.6072L35.6364 23.9019H35.6656L35.6948 23.8581L35.7386 23.8142H35.7678L35.8116 23.7558H35.8408L35.8847 23.6974H35.9139L35.9577 23.639L36.0015 23.5952H36.0307L36.0745 23.5367L36.1183 23.4929L36.1621 23.4491L36.206 23.4053L36.2498 23.3615L36.2936 23.3177L36.3374 23.2739L36.5273 23.1278C39.8426 20.4843 42.2963 20.1776 43.9175 22.2077C44.9398 23.4929 45.1589 25.0411 44.5601 26.8667C43.9613 28.6923 42.7783 30.3281 40.9818 31.7594C39.4629 32.9716 37.9878 33.7019 36.5711 33.9502C35.1398 34.1985 34.0444 33.8479 33.2849 32.884C32.803 32.2706 32.5985 31.5696 32.6715 30.7809C32.7446 29.9922 33.1243 29.2035 33.8253 28.4441L33.8399 28.5171ZM28.8304 20.0315C29.3708 20.7034 29.9842 21.0831 30.6852 21.1853C31.3863 21.2876 32.0727 21.0539 32.7446 20.5281C33.3726 20.0315 33.6939 19.4327 33.7085 18.7317C33.7231 18.0306 33.4602 17.3296 32.8906 16.6285C32.3356 15.9421 31.7222 15.5478 31.0504 15.4309C30.3785 15.3141 29.6921 15.5332 29.0057 16.0882C28.3776 16.5847 28.0563 17.1981 28.0271 17.9138C27.9979 18.6294 28.2608 19.3451 28.8304 20.0461V20.0315ZM35.6072 27.743C34.9499 28.8238 34.8769 29.6855 35.4027 30.3427C35.8116 30.8539 36.4396 31.0438 37.2867 30.8977C38.1338 30.7663 39.0247 30.3281 39.9449 29.5833C40.938 28.7946 41.6245 27.9621 41.9896 27.1004C42.3693 26.2387 42.3255 25.523 41.8727 24.968C41.4784 24.4715 40.9672 24.3254 40.3538 24.5299C39.7404 24.7344 38.8787 25.2748 37.7979 26.1365C36.9946 26.7791 36.2644 27.3049 35.6072 27.7284V27.743Z" fill="#EBBF96"/>
<path d="M50.5628 8.36241C51.1178 8.65451 51.5121 9.13647 51.702 9.7791C51.9065 10.4217 51.848 11.0351 51.5559 11.6047C51.2638 12.1743 50.7819 12.5687 50.11 12.7731C49.4236 12.9776 48.7956 12.9338 48.226 12.6271C47.6564 12.3204 47.262 11.853 47.0722 11.1958C46.8677 10.5532 46.9261 9.93976 47.2328 9.38476C47.5395 8.81516 48.0361 8.43543 48.7226 8.21635C49.3798 8.01188 50.0078 8.0557 50.5628 8.36241Z" fill="#EBBF96"/>
</svg>
