<svg width="130" height="131" viewBox="0 0 130 131" fill="none" xmlns="http://www.w3.org/2000/svg">
<path d="M61.7319 19.3922L58.2087 19.5046L53.5227 5.4585L57.297 5.32415L60.0879 15.1757L62.5663 5.18237L66.1778 5.06138L69.5444 14.804L71.3256 4.86142L75.1602 4.72606L71.5007 19.0578L67.9493 19.1778L64.4538 9.34878L61.7281 19.3781L61.7319 19.3922Z" fill="#2C067E"/>
<path d="M80.8076 14.8554L80.7701 14.9411C80.4525 16.0695 80.5121 17.0817 80.9704 18.0022C81.4287 18.9227 82.2443 19.5963 83.417 20.0229C84.8749 20.5546 86.4001 20.66 88.0066 20.3354L87.4156 23.3213C85.8005 23.5575 84.0645 23.3422 82.2037 22.6614C80.0756 21.8859 78.5877 20.6214 77.7473 18.896C76.907 17.1707 76.8746 15.244 77.6539 13.13C78.4397 10.984 79.7146 9.47818 81.4964 8.62275C83.2781 7.76731 85.1512 7.70392 87.1475 8.43911C88.8727 9.0655 90.0443 10.0519 90.6545 11.3702C91.2648 12.6885 91.2544 14.1731 90.6552 15.8305C90.3504 16.6682 89.9797 17.3724 89.557 17.9392L80.8114 14.8695L80.8076 14.8554ZM81.6182 12.9145L87.3247 14.969L87.4128 14.7337C88.117 12.791 87.6244 11.5168 85.9453 10.8932C85.0577 10.5716 84.2223 10.614 83.4392 11.0204C82.6418 11.4306 82.0395 12.0607 81.6285 12.8966L81.6182 12.9145Z" fill="#2C067E"/>
<path d="M104.143 27.8511C102.752 29.5999 101.068 30.5954 99.1131 30.8621C97.1443 31.1325 95.375 30.6238 93.7986 29.3678C92.9153 28.6671 92.204 27.8748 91.6404 27.0128L88.5995 25.2571L101.663 8.8895L104.794 10.757L99.6903 17.1596C101.416 16.9995 102.825 17.3478 103.906 18.2224C105.364 19.374 106.108 20.853 106.131 22.6311C106.168 24.4054 105.503 26.1561 104.132 27.869L104.143 27.8511ZM101.169 25.6692C102.044 24.5881 102.469 23.5217 102.483 22.5047C102.494 21.4736 102.069 20.6198 101.204 19.9294C100.374 19.2596 99.3735 18.9682 98.1948 19.027L98.1666 19.0345L98.1459 19.0703L98.1177 19.0779L98.0971 19.1137L98.0688 19.1212L98.0482 19.157L98.02 19.1645L97.9993 19.2003L97.9711 19.2079L97.9542 19.2578L97.926 19.2653L97.9054 19.3011L97.8771 19.3087L97.8565 19.3444L97.8283 19.352L97.8076 19.3878L97.7794 19.3953L97.7587 19.4311L97.7305 19.4387L97.7099 19.4744L97.6817 19.482L97.661 19.5178L97.6328 19.5253L97.6121 19.5611L97.5839 19.5687L97.5633 19.6044L97.5351 19.612L97.5144 19.6478L97.4862 19.6553L97.4655 19.6911L97.4373 19.6987L97.4167 19.7345L97.3885 19.742L97.3678 19.7778L97.3396 19.7853L97.3189 19.8211L97.2907 19.8287L97.2701 19.8645L97.2418 19.872L97.2212 19.9078L97.193 19.9154L97.1723 19.9511L97.1441 19.9587L97.1234 19.9945L97.0952 20.002L97.0746 20.0378L97.0464 20.0454L97.0257 20.0811L96.9947 20.1348L96.9665 20.1424L96.9459 20.1781L96.9176 20.1857L96.897 20.2215L96.8688 20.229L96.8481 20.2648L96.8134 20.3044L96.7851 20.3119L96.7645 20.3477L96.7363 20.3553L96.7156 20.391L96.6808 20.4306L96.6526 20.4381L96.632 20.4739L96.6038 20.4815L96.5766 20.5492L96.5483 20.5568L96.5315 20.6067L96.5033 20.6143L96.4761 20.682L96.4478 20.6896L96.4272 20.7254L96.3924 20.7649L96.3642 20.7725L96.3436 20.8082L96.3088 20.8478L96.2806 20.8554L96.2599 20.8911L96.2252 20.9307L96.197 20.9382L96.1763 20.974L96.1453 21.0277L96.1171 21.0352L96.0964 21.071L96.0617 21.1106L96.0335 21.1181L96.0063 21.1859L95.978 21.1935L95.9574 21.2292L95.9226 21.2688L95.8944 21.2764L95.8672 21.3441L95.839 21.3517L95.8118 21.4195L95.7836 21.427L95.7564 21.4948L95.7282 21.5024L95.7075 21.5381L95.6728 21.5777L95.6445 21.5852L95.6173 21.653L95.5891 21.6606L95.5619 21.7283L95.5337 21.7359L95.5065 21.8037L95.4717 21.8432L95.4435 21.8508L95.4163 21.9186L95.3881 21.9261L95.3609 21.9939L95.3327 22.0014L95.3055 22.0692L95.2773 22.0768L95.2501 22.1445L95.2153 22.1841L95.1871 22.1917L95.1599 22.2594L95.1317 22.267L95.1045 22.3348L95.0697 22.3743L95.0415 22.3819L95.0143 22.4496L94.9861 22.4572L94.9589 22.525L94.9241 22.5645L94.8959 22.5721L94.8687 22.6399L94.8339 22.6794L94.8057 22.687L94.7785 22.7547L94.7438 22.7943L94.7155 22.8019L94.6883 22.8696L94.6574 22.9233L94.6291 22.9309L94.6019 22.9986L94.5672 23.0382L94.5324 23.0777L94.5042 23.0853L94.477 23.1531L94.4422 23.1926L94.414 23.2002L94.3868 23.268L94.3521 23.3075L94.3173 23.3471L94.2891 23.3546L94.2619 23.4224L94.2271 23.4619L94.1924 23.5015L94.1576 23.5411L94.1294 23.5486L94.1022 23.6164L94.0674 23.6559L94.0326 23.6955L93.9979 23.7351L93.9697 23.7426L93.9425 23.8104L93.9077 23.8499L93.8729 23.8895L93.8382 23.929L93.81 23.9366L93.7828 24.0044L93.748 24.0439L93.7132 24.0835L93.6785 24.123L93.5188 24.317C93.7315 25.1673 94.2545 25.9343 95.1124 26.5966C96.0353 27.3321 97.0384 27.5774 98.0899 27.3259C99.1556 27.0706 100.101 26.4241 100.951 25.3647L101.169 25.6692Z" fill="#2C067E"/>
<path d="M120.878 42.5694L126.695 40.0129L128.604 43.1303L109.392 51.5593L107.943 48.2429L109.203 47.6938C107.572 47.0269 106.479 46.0497 105.912 44.7803C105.168 43.0746 105.197 41.4338 105.999 39.858C106.802 38.2821 108.209 37.0433 110.238 36.1518C112.281 35.2566 114.231 35.1423 116.092 35.8231C117.953 36.5039 119.288 37.7639 120.102 39.6172C120.518 40.549 120.779 41.5224 120.889 42.5515L120.878 42.5694ZM117.903 43.8807C118.111 42.9632 118 42.0404 117.584 41.1086C117.112 40.0253 116.339 39.3404 115.282 39.0641C114.225 38.7879 113.083 38.9275 111.838 39.4728C110.579 40.0219 109.716 40.752 109.222 41.6708C108.727 42.5896 108.711 43.5464 109.142 44.5347C109.581 45.5512 110.334 46.2719 111.379 46.7325L111.408 46.725L111.436 46.7174L111.464 46.7099L111.492 46.7023L111.52 46.6947L111.549 46.6872L111.577 46.6796L111.605 46.6721L111.633 46.6645L111.662 46.6569L111.69 46.6494L111.718 46.6418L111.746 46.6343L111.774 46.6267L111.803 46.6191L111.831 46.6116L111.859 46.604L111.887 46.5965L111.915 46.5889L111.944 46.5813L111.972 46.5738L112 46.5662L112.028 46.5587L112.057 46.5511L112.085 46.5435L112.113 46.536L112.141 46.5284L112.169 46.5209L112.198 46.5133L112.226 46.5057L112.254 46.4982L112.282 46.4906L112.31 46.4831L112.339 46.4755L112.367 46.4679L112.395 46.4604L112.423 46.4528L112.452 46.4453L112.508 46.4301L112.536 46.4226L112.564 46.415L112.593 46.4075L112.621 46.3999L112.649 46.3923L112.677 46.3848L112.705 46.3772L112.734 46.3697L112.762 46.3621L112.79 46.3545L112.818 46.347L112.875 46.3319L112.903 46.3243L112.931 46.3167L112.959 46.3092L112.988 46.3016L113.016 46.2941L113.072 46.2789L113.1 46.2714L113.129 46.2638L113.157 46.2563L113.185 46.2487L113.242 46.2336L113.27 46.226L113.298 46.2185L113.326 46.2109L113.383 46.1958L113.411 46.1882L113.439 46.1806L113.495 46.1655L113.524 46.158L113.552 46.1504L113.58 46.1428L113.637 46.1277L113.665 46.1202L113.693 46.1126L113.749 46.0975L113.778 46.0899L113.806 46.0824L113.862 46.0672L113.89 46.0597L113.947 46.0446L113.975 46.037L114.003 46.0294L114.06 46.0143L114.088 46.0068L114.144 45.9916L114.173 45.9841L114.201 45.9765L114.257 45.9614L114.285 45.9538L114.342 45.9387L114.37 45.9312L114.427 45.916L114.455 45.9085L114.511 45.8934L114.539 45.8858L114.596 45.8707L114.624 45.8631L114.681 45.848L114.709 45.8404L114.765 45.8253L114.793 45.8178L114.85 45.8026L114.878 45.7951L114.934 45.78L114.963 45.7724L115.019 45.7573L115.047 45.7497L115.104 45.7346L115.132 45.727L115.188 45.7119L115.241 45.6827L115.269 45.6751L115.326 45.66L115.354 45.6525L115.41 45.6373L115.439 45.6298L115.495 45.6147L115.551 45.5995L115.58 45.592L115.636 45.5769L115.689 45.5476L115.717 45.5401L115.773 45.5249L115.83 45.5098L115.858 45.5023L115.914 45.4871L115.967 45.4579L115.995 45.4504L116.052 45.4352L116.108 45.4201L116.136 45.4126L116.193 45.3974L116.245 45.3682L116.274 45.3606L116.33 45.3455L116.386 45.3304L116.439 45.3012L116.467 45.2936L116.524 45.2785L116.58 45.2634L116.633 45.2342L116.661 45.2266L116.718 45.2115L116.774 45.1964L116.827 45.1671L116.855 45.1596L116.911 45.1444L116.968 45.1293L117.02 45.1001L117.077 45.085L117.105 45.0774L117.161 45.0623L117.214 45.0331L117.27 45.0179L117.323 44.9887L117.351 44.9812L117.408 44.966L117.464 44.9509L117.517 44.9217L117.573 44.9066L117.626 44.8773L117.883 44.7632L117.903 43.8807Z" fill="#2C067E"/>
<path d="M116.461 56.046L116.376 56.0687C115.213 56.2441 114.318 56.741 113.687 57.5452C113.056 58.3494 112.786 59.3742 112.892 60.6159C113.035 62.1653 113.583 63.5908 114.569 64.8993L111.619 65.6291C110.711 64.2698 110.176 62.6137 110.008 60.6326C109.811 58.3721 110.307 56.5002 111.522 54.9954C112.74 53.5046 114.462 52.6502 116.694 52.4603C118.969 52.2591 120.877 52.7761 122.403 54.0152C123.93 55.2543 124.787 56.9298 124.978 59.0557C125.137 60.8882 124.761 62.3648 123.816 63.4648C122.875 64.5789 121.532 65.2108 119.788 65.3606C118.886 65.436 118.092 65.4068 117.406 65.2731L116.464 56.0601L116.461 56.046ZM118.571 55.9644L119.147 62.0093L119.398 61.9874C121.45 61.8005 122.411 60.8172 122.246 59.0167C122.163 58.0863 121.768 57.3454 121.061 56.794C120.358 56.2567 119.524 55.9661 118.581 55.9465L118.571 55.9644Z" fill="#2C067E"/>
<path d="M112.54 78.658C111.214 78.3933 110.241 77.6409 109.625 76.4149C108.996 75.1926 108.868 73.6997 109.221 71.972C109.651 69.9064 110.447 68.196 111.615 66.8549L114.213 68.2C113.031 69.5448 112.291 71.0134 111.964 72.6131C111.819 73.317 111.84 73.9012 112.025 74.3658C112.21 74.8303 112.544 75.1187 113.024 75.2169C113.522 75.3255 113.948 75.166 114.306 74.7525C114.664 74.3391 115.05 73.6913 115.46 72.7952C116.109 71.3814 116.843 70.3381 117.657 69.6513C118.47 68.9644 119.501 68.7487 120.717 68.9975C122.015 69.2697 122.962 69.9836 123.549 71.157C124.135 72.3304 124.244 73.7528 123.918 75.4127C123.525 77.3324 122.808 78.9458 121.778 80.235L119.179 78.89C120.245 77.5612 120.919 76.1859 121.218 74.7602C121.499 73.3845 121.181 72.5927 120.254 72.4028C119.774 72.3046 119.362 72.4603 119.028 72.8521C118.699 73.258 118.313 73.9057 117.878 74.8235C117.204 76.259 116.457 77.3061 115.643 77.9929C114.829 78.6797 113.798 78.8955 112.55 78.6401L112.54 78.658Z" fill="#2C067E"/>
<path d="M106.106 82.8618L107.559 79.5391L120.422 85.1647L119.447 88.692L106.102 82.8477L106.106 82.8618ZM123.242 90.8353C122.624 90.5623 122.218 90.1723 122.021 89.6655C121.825 89.1586 121.865 88.5734 122.158 87.9201C122.442 87.2847 122.828 86.8637 123.349 86.6637C123.856 86.4674 124.423 86.4968 125.041 86.7698C125.64 87.0325 126.047 87.4225 126.261 87.9397C126.475 88.4568 126.432 89.028 126.149 89.6633C125.855 90.3166 125.455 90.7414 124.934 90.9415C124.413 91.1415 123.859 91.1083 123.26 90.8456L123.242 90.8353Z" fill="#2C067E"/>
<path d="M103.838 86.1913C104.402 85.8134 104.965 85.602 105.552 85.5354C106.139 85.4688 106.645 85.6056 107.083 85.9419C107.592 86.3195 107.92 86.8666 108.063 87.5692C108.206 88.2718 108.151 89.0273 107.906 89.8038C108.707 89.4077 109.558 89.2552 110.445 89.3501C111.333 89.445 112.164 89.7818 112.935 90.3463C114.148 91.2612 114.834 92.4683 114.987 93.9997C115.141 95.5312 114.656 97.0521 113.52 98.5663C112.74 99.6068 111.696 100.506 110.422 101.226L108.404 104.473L105.781 102.696L107.772 100.817C107.139 100.881 106.415 100.606 105.619 100.003C104.463 99.1331 103.813 97.9466 103.689 96.4678C103.561 94.9749 104.012 93.5538 105.048 92.1724C105.415 91.6809 105.864 91.2127 106.399 90.7822C106.616 90.0133 106.504 89.4837 106.084 89.1578C105.779 88.922 105.418 88.9281 105.025 89.1543C104.632 89.3806 104.103 89.9457 103.445 90.8177L103.417 90.8252L103.4 90.8751L103.371 90.8827L103.355 90.9326L103.326 90.9401L103.309 90.99L103.278 91.0437L103.25 91.0512L103.233 91.1011L103.205 91.1087L103.188 91.1586L103.157 91.2122L103.129 91.2198L103.102 91.2876L103.074 91.2951L103.046 91.3629L103.018 91.3704L102.991 91.4382L102.96 91.4919L102.932 91.4994L102.905 91.5672L102.874 91.6209L102.843 91.6745L102.812 91.7282L102.781 91.7818L102.75 91.8355L102.719 91.8892L102.573 92.0794C100.033 95.4665 97.721 96.3734 95.6437 94.8282C94.3377 93.8476 93.7357 92.391 93.8557 90.4688C93.9757 88.5466 94.7129 86.6707 96.0815 84.8374C97.2528 83.2837 98.4924 82.2106 99.8003 81.6182C101.122 81.0221 102.261 81.095 103.244 81.8295C103.868 82.2973 104.233 82.9253 104.367 83.706C104.486 84.4905 104.32 85.3365 103.825 86.2553L103.838 86.1913ZM102.331 87.3964C102.704 86.1927 102.552 85.3414 101.87 84.8286C101.343 84.4407 100.701 84.416 99.917 84.7622C99.1328 85.1084 98.3856 85.7622 97.6718 86.7095C96.9166 87.7284 96.4652 88.6961 96.3177 89.6126C96.1739 90.5432 96.3836 91.2128 96.9542 91.6496C97.4636 92.0272 97.9811 92.0397 98.5348 91.6797C99.0885 91.3196 99.7706 90.5925 100.606 89.4767C101.219 88.6622 101.788 87.9653 102.328 87.3823L102.331 87.3964ZM110.814 93.1524C110.132 92.6395 109.438 92.4174 108.734 92.5001C108.03 92.5828 107.424 92.972 106.911 93.6538C106.433 94.296 106.274 94.9435 106.427 95.6282C106.58 96.3129 107.016 96.922 107.733 97.4555C108.433 97.9787 109.131 98.2149 109.81 98.1539C110.49 98.0929 111.1 97.7177 111.633 97.0002C112.111 96.358 112.281 95.6927 112.124 94.9938C111.967 94.295 111.542 93.668 110.824 93.1345L110.814 93.1524Z" fill="#2C067E"/>
<path d="M86.014 103.638L89.0014 101.583L93.8823 108.682C94.4562 109.526 95.0382 110.005 95.6 110.127C96.1618 110.248 96.7929 110.064 97.4829 109.592C98.4389 108.927 99.0464 107.978 99.3159 106.727L93.5962 98.416L96.5836 96.3606L104.562 107.967L101.861 110.414L100.598 108.576C100.323 110.6 99.47 112.099 98.0412 113.086C96.868 113.9 95.6999 114.167 94.5405 113.903C93.3811 113.639 92.3905 112.877 91.5301 111.64L86.0243 103.62L86.014 103.638Z" fill="#2C067E"/>
<path d="M75.9199 116.02C75.3898 115.678 75.0449 115.18 74.8992 114.524C74.7535 113.867 74.8497 113.267 75.2019 112.719C75.5399 112.175 76.0513 111.826 76.736 111.673C77.4348 111.516 78.053 111.623 78.601 111.975C79.149 112.327 79.4939 112.824 79.6434 113.495C79.789 114.151 79.6787 114.755 79.3369 115.285C78.9951 115.815 78.4555 116.172 77.7567 116.329C77.072 116.482 76.4716 116.386 75.9378 116.03L75.9199 116.02Z" fill="#2C067E"/>
<path d="M50.094 112.915C50.4893 110.722 51.4742 109.037 53.0806 107.866C54.673 106.698 56.4694 106.293 58.4662 106.634C59.5784 106.835 60.5761 107.173 61.4949 107.668L64.9967 107.757L61.3475 128.392L57.6961 128.251L59.1193 120.189C57.6867 121.162 56.2722 121.526 54.9077 121.287C53.0813 120.96 51.7263 120.023 50.843 118.475C49.9596 116.928 49.7193 115.072 50.0978 112.929L50.094 112.915ZM53.7477 113.403C53.5085 114.767 53.6341 115.913 54.1027 116.815C54.5893 117.728 55.3708 118.275 56.4652 118.466C57.5134 118.653 58.5443 118.438 59.5436 117.822L59.5361 117.794L59.5567 117.758L59.5491 117.73L59.5698 117.694L59.5622 117.666L59.5829 117.63L59.5753 117.602L59.596 117.566L59.5884 117.538L59.6091 117.502L59.6015 117.474L59.6222 117.438L59.6146 117.41L59.6353 117.374L59.6277 117.346L59.6484 117.31L59.6408 117.282L59.6615 117.246L59.6539 117.218L59.6746 117.182L59.667 117.154L59.6877 117.118L59.6801 117.09L59.7007 117.054L59.6932 117.026L59.7138 116.99L59.7063 116.962L59.7269 116.926L59.7194 116.898L59.74 116.862L59.7325 116.834L59.7531 116.798L59.7456 116.77L59.7662 116.734L59.7587 116.706L59.7793 116.67L59.7718 116.642L59.7924 116.606L59.7848 116.578L59.8055 116.542L59.7979 116.514L59.8186 116.478L59.811 116.45L59.8317 116.414L59.8241 116.386L59.8448 116.35L59.8372 116.322L59.8579 116.286L59.871 116.222L59.8634 116.194L59.8841 116.158L59.8765 116.13L59.8972 116.094L59.8896 116.066L59.9103 116.03L59.9234 115.966L59.9158 115.938L59.9364 115.902L59.9289 115.874L59.9495 115.838L59.9626 115.774L59.9551 115.746L59.9757 115.71L59.9682 115.682L59.9954 115.614L59.9878 115.586L60.0085 115.55L60.0009 115.522L60.0281 115.454L60.0205 115.426L60.0412 115.39L60.0543 115.326L60.0467 115.298L60.0674 115.262L60.0805 115.198L60.0729 115.17L60.0936 115.135L60.1067 115.071L60.0991 115.042L60.1198 115.007L60.1329 114.943L60.1253 114.914L60.146 114.879L60.1591 114.815L60.1515 114.786L60.1787 114.719L60.1711 114.69L60.1918 114.655L60.2049 114.591L60.1973 114.562L60.2245 114.495L60.217 114.466L60.2442 114.399L60.2366 114.37L60.2638 114.303L60.2563 114.274L60.2769 114.239L60.29 114.175L60.2824 114.146L60.3096 114.079L60.3021 114.05L60.3293 113.983L60.3217 113.954L60.3489 113.887L60.362 113.823L60.3545 113.795L60.3817 113.727L60.3741 113.699L60.4013 113.631L60.3937 113.603L60.4209 113.535L60.4134 113.507L60.4406 113.439L60.4537 113.375L60.4461 113.347L60.4733 113.279L60.4658 113.251L60.493 113.183L60.5061 113.119L60.4985 113.091L60.5257 113.023L60.5181 112.995L60.5453 112.927L60.5584 112.863L60.5509 112.835L60.5781 112.767L60.5912 112.703L60.5836 112.675L60.6108 112.607L60.6239 112.543L60.6164 112.515L60.6436 112.447L60.6566 112.383L60.6491 112.355L60.6763 112.287L60.6894 112.223L60.7025 112.159L60.6949 112.131L60.7221 112.063L60.7352 111.999L60.7277 111.971L60.7549 111.903L60.768 111.839L60.781 111.775L60.7735 111.747L60.8007 111.679L60.8138 111.615L60.8269 111.551L60.84 111.487L60.8324 111.459L60.8596 111.391L60.8727 111.327L60.8858 111.263L60.8989 111.199L60.8913 111.171L60.9185 111.103L60.9316 111.039L60.9447 110.975L60.9578 110.911L60.9503 110.883L60.9775 110.815L60.9906 110.751L61.0037 110.687L61.0167 110.623L61.0588 110.385C60.4634 109.743 59.6416 109.328 58.5755 109.13C57.403 108.93 56.4117 109.181 55.6129 109.924C54.8141 110.667 54.2678 111.676 54.0351 113.008L53.7477 113.403Z" fill="#2C067E"/>
<path d="M42.8854 111.066L46.8105 103.256L50.044 104.884L43.7435 117.429L40.2734 116.272L41.3086 114.21C39.7876 115.193 38.3408 115.323 36.9796 114.645C36.122 114.209 35.4712 113.643 35.0273 112.945L37.2022 110.397C37.6451 111.034 38.1631 111.5 38.7562 111.795C39.9423 112.384 41.3306 112.148 42.8995 111.062L42.8854 111.066Z" fill="#2C067E"/>
<path d="M33.962 96.1597L34.059 96.2396C35.8472 95.9721 37.2917 96.3411 38.4247 97.353C39.3637 98.2052 39.8833 99.1848 39.9871 100.306C40.091 101.427 39.7639 102.407 39.0056 103.245C36.8841 105.598 33.696 104.986 29.4195 101.384L29.1968 101.625C28.557 102.341 28.2492 102.998 28.3054 103.603C28.3476 104.211 28.7444 104.846 29.4997 105.52C30.5178 106.442 32.0136 107.115 33.9869 107.539L32.6315 110.155C30.567 109.786 28.7342 108.871 27.1227 107.427C25.5292 105.995 24.7053 104.613 24.651 103.281C24.5967 101.95 25.2536 100.565 26.6038 99.1142L29.9946 95.3479C30.3564 94.9485 30.5178 94.6482 30.511 94.4535C30.5004 94.2447 30.3006 93.9504 29.9219 93.5529L31.9528 91.7084C33.9217 93.1314 34.6018 94.5973 33.9865 96.1381L33.962 96.1597ZM32.8592 97.5741L30.6785 99.988C32.1445 101.001 33.2563 101.596 34.0676 101.802C34.8609 101.997 35.5239 101.82 36.0247 101.262C36.3968 100.845 36.5486 100.396 36.4869 99.8832C36.4251 99.3706 36.1621 98.8967 35.6874 98.4796C34.9104 97.7805 33.9702 97.4881 32.863 97.5882L32.8592 97.5741Z" fill="#2C067E"/>
<path d="M24.6144 79.8397L26.4104 82.9874L18.922 87.2619C18.0308 87.7729 17.5083 88.306 17.3368 88.851C17.1691 89.41 17.2931 90.0421 17.7164 90.7754C18.2896 91.786 19.187 92.483 20.4151 92.8344L29.1774 87.8405L30.9734 90.9881L18.7514 97.9675L16.538 95.0678L18.4785 93.9581C16.4872 93.524 15.0607 92.5454 14.2028 91.0364C13.491 89.7907 13.3259 88.6102 13.6755 87.4884C14.0391 86.3627 14.8772 85.4275 16.1897 84.6827L24.636 79.8642L24.6144 79.8397Z" fill="#2C067E"/>
<path d="M8.28496 71.1512L2.04413 72.2943L0.901611 68.8203L21.5419 65.0437L22.1935 68.6038L20.8371 68.8463C22.275 69.8672 23.1099 71.0648 23.3703 72.4315C23.7093 74.2609 23.3038 75.8514 22.1539 77.2028C21.004 78.5542 19.3502 79.4358 17.1708 79.8232C14.9811 80.2285 13.0587 79.8818 11.4034 78.783C9.75197 77.6984 8.73406 76.1567 8.3817 74.1645C8.20174 73.1543 8.1742 72.1486 8.2915 71.1192L8.28496 71.1512ZM11.4848 70.566C11.0776 71.416 10.962 72.3391 11.1561 73.3455C11.3635 74.5147 11.9657 75.3513 12.9344 75.8628C13.9031 76.3744 15.0425 76.5076 16.3669 76.2586C17.7232 76.0161 18.7349 75.5031 19.416 74.7158C20.1009 73.9425 20.351 73.0137 20.156 71.9471C19.9571 70.8663 19.4 69.9723 18.4923 69.2932L18.4641 69.3007L18.4358 69.3083L18.4076 69.3159L18.3794 69.3234L18.3512 69.331L18.323 69.3385L18.2948 69.3461L18.2665 69.3537L18.2383 69.3612L18.2101 69.3688L18.1819 69.3763L18.1537 69.3839L18.1255 69.3915L18.0973 69.399L18.069 69.4066L18.0408 69.4141L18.0126 69.4217L17.9844 69.4293L17.9562 69.4368L17.928 69.4444L17.8998 69.4519L17.8715 69.4595L17.8433 69.4671L17.8151 69.4746L17.7869 69.4822L17.7587 69.4897L17.7305 69.4973L17.7022 69.5049L17.674 69.5124L17.6458 69.52L17.6176 69.5275L17.5894 69.5351L17.5612 69.5427L17.533 69.5502L17.5047 69.5578L17.4765 69.5653L17.4483 69.5729L17.4201 69.5805L17.3637 69.5956L17.3355 69.6031L17.3072 69.6107L17.279 69.6183L17.2508 69.6258L17.2226 69.6334L17.1944 69.6409L17.1662 69.6485L17.138 69.6561L17.1097 69.6636L17.0815 69.6712L17.0533 69.6787L16.9969 69.6939L16.9687 69.7014L16.9404 69.709L16.9122 69.7165L16.884 69.7241L16.8558 69.7317L16.7994 69.7468L16.7712 69.7543L16.7429 69.7619L16.7147 69.7695L16.6865 69.777L16.6301 69.7921L16.6019 69.7997L16.5737 69.8073L16.5454 69.8148L16.489 69.8299L16.4608 69.8375L16.4326 69.8451L16.3761 69.8602L16.3479 69.8677L16.3197 69.8753L16.2915 69.8829L16.2351 69.898L16.2069 69.9055L16.1786 69.9131L16.1222 69.9282L16.094 69.9358L16.0658 69.9433L16.0094 69.9585L15.9811 69.966L15.9247 69.9811L15.8965 69.9887L15.8683 69.9963L15.8119 70.0114L15.7836 70.0189L15.7272 70.0341L15.699 70.0416L15.6708 70.0492L15.6143 70.0643L15.5861 70.0719L15.5297 70.087L15.5015 70.0945L15.4451 70.1097L15.4168 70.1172L15.3604 70.1323L15.3322 70.1399L15.2758 70.155L15.2476 70.1626L15.1911 70.1777L15.1629 70.1853L15.1065 70.2004L15.0783 70.2079L15.0218 70.2231L14.9936 70.2306L14.9372 70.2457L14.909 70.2533L14.8525 70.2684L14.8243 70.276L14.7679 70.2911L14.7397 70.2987L14.6833 70.3138L14.6268 70.3289L14.5986 70.3365L14.5422 70.3516L14.514 70.3592L14.4575 70.3743L14.4293 70.3818L14.3729 70.397L14.3165 70.4121L14.2882 70.4196L14.2318 70.4348L14.1754 70.4499L14.1472 70.4574L14.0907 70.4726L14.0343 70.4877L14.0061 70.4952L13.9497 70.5104L13.8932 70.5255L13.865 70.533L13.8086 70.5482L13.7522 70.5633L13.724 70.5708L13.6675 70.586L13.6111 70.6011L13.5829 70.6086L13.5264 70.6238L13.47 70.6389L13.4136 70.654L13.3854 70.6616L13.3289 70.6767L13.2725 70.6918L13.2161 70.7069L13.1879 70.7145L13.1314 70.7296L13.075 70.7447L13.0186 70.7598L12.9904 70.7674L12.9339 70.7825L12.8775 70.7976L12.8211 70.8128L12.7646 70.8279L12.7364 70.8354L12.68 70.8506L12.6236 70.8657L12.5671 70.8808L12.5107 70.8959L12.4825 70.9035L12.4261 70.9186L12.3696 70.9337L12.3132 70.9488L12.2568 70.964L12.2003 70.9791L11.9247 71.0227L11.4848 70.566Z" fill="#2C067E"/>
<path d="M3.38164 57.0271C4.05907 57.0724 4.57301 57.2976 4.92726 57.7167C5.29561 58.1321 5.44681 58.6964 5.39497 59.4058C5.35346 60.0974 5.11796 60.6292 4.69879 60.9835C4.2834 61.3518 3.73321 61.4992 3.07367 61.4643C2.42445 61.4114 1.91051 61.1862 1.52805 60.7746C1.1597 60.3592 0.998172 59.8128 1.0359 59.1072C1.08774 58.3978 1.31946 57.8518 1.73863 57.4976C2.1578 57.1433 2.70421 56.9818 3.34965 57.0206L3.38164 57.0271ZM22.2043 58.7121L21.964 62.3298L7.95444 61.3963L7.67349 57.752L22.2081 58.7262L22.2043 58.7121Z" fill="#2C067E"/>
<path d="M26.0943 43.7741L24.976 47.2187L16.7691 44.5793C15.7931 44.2662 15.0452 44.2398 14.5214 44.486C13.9977 44.7322 13.6098 45.2595 13.3539 46.0538C13.0006 47.1616 13.0903 48.2867 13.6552 49.4356L23.2551 52.5335L22.1368 55.9782L8.73284 51.6618L9.37393 48.0729L11.5075 48.7561C10.4894 46.9877 10.2446 45.2842 10.7836 43.6278C11.2213 42.2706 11.9851 41.3402 13.0466 40.8441C14.1223 40.3442 15.3764 40.3408 16.8154 40.8019L26.0661 43.7817L26.0943 43.7741Z" fill="#2C067E"/>
<path d="M28.5004 41.0732C27.9364 41.4512 27.3769 41.6767 26.7899 41.7432C26.203 41.8098 25.6976 41.673 25.2494 41.3546C24.74 40.9771 24.4119 40.4299 24.2549 39.7311C24.1082 39.0144 24.1525 38.2767 24.3981 37.5003C23.597 37.8964 22.7495 38.063 21.8622 37.9681C20.9749 37.8732 20.1335 37.5543 19.3623 36.9898C18.1391 36.0928 17.4528 34.8856 17.2854 33.358C17.118 31.8303 17.5884 30.3132 18.7174 28.7708C19.4933 27.7162 20.5233 26.8203 21.7934 26.0868L23.7793 22.833L26.4091 24.5779L24.4394 26.4816C25.0725 26.4178 25.7925 26.6785 26.6033 27.2778C27.7728 28.1438 28.4196 29.3162 28.5615 30.8053C28.7035 32.2944 28.2565 33.7296 27.2345 35.1073C26.8673 35.5988 26.4181 36.0669 25.8871 36.5116C25.6839 37.2767 25.7955 37.8062 26.2155 38.1322C26.5347 38.3642 26.8819 38.3619 27.2711 38.1215C27.6603 37.8812 28.1751 37.3198 28.8298 36.4338L28.858 36.4262L28.8749 36.3763L28.9031 36.3688L28.92 36.3189L28.9482 36.3113L28.9651 36.2614L28.9961 36.2078L29.0243 36.2002L29.0412 36.1503L29.0694 36.1428L29.0862 36.0929L29.1172 36.0392L29.1454 36.0317L29.1726 35.9639L29.2009 35.9563L29.2281 35.8886L29.2563 35.881L29.2835 35.8132L29.3145 35.7596L29.3427 35.752L29.3699 35.6842L29.4009 35.6306L29.4318 35.5769L29.4628 35.5232L29.4938 35.4696L29.5248 35.4159L29.5558 35.3623L29.7014 35.172C32.2196 31.7605 34.5102 30.8292 36.6016 32.3706C37.9218 33.3474 38.5341 34.7861 38.4282 36.7045C38.3223 38.6229 37.6029 40.5091 36.2382 42.3566C35.0847 43.9207 33.8489 45.0078 32.5447 45.6143C31.2265 46.2246 30.0777 46.1695 29.0946 45.435C28.4703 44.9672 28.0914 44.343 27.9578 43.5623C27.8242 42.7816 27.9868 41.9215 28.4674 41.0065L28.5004 41.0732ZM21.4654 34.1734C22.1612 34.6824 22.852 34.8905 23.5556 34.8078C24.2593 34.7251 24.8618 34.3217 25.3747 33.64C25.8528 32.9978 26.0082 32.3362 25.8408 31.6553C25.6735 30.9743 25.2381 30.3652 24.5065 29.8355C23.7927 29.3161 23.0982 29.0939 22.419 29.155C21.7398 29.216 21.1334 29.6053 20.614 30.319C20.1359 30.9612 19.9843 31.6369 20.1414 32.3357C20.2984 33.0345 20.7375 33.6577 21.4691 34.1875L21.4654 34.1734ZM30.0071 39.8681C29.652 41.0822 29.8045 41.9334 30.4825 42.4322C31.0098 42.8201 31.6655 42.841 32.446 42.4806C33.2302 42.1344 33.9773 41.4806 34.6733 40.523C35.4285 39.5041 35.8761 38.5224 36.0057 37.5955C36.1495 36.6649 35.922 35.985 35.341 35.5661C34.8316 35.1885 34.3 35.1797 33.7604 35.536C33.2208 35.8922 32.5283 36.6372 31.7074 37.7493C31.0978 38.5779 30.5285 39.2748 30.0033 39.854L30.0071 39.8681Z" fill="#2C067E"/>
<path d="M39.437 17.2768C40.0487 17.4153 40.5544 17.7788 40.9041 18.3504C41.2679 18.9182 41.3703 19.5258 41.2355 20.1516C41.1008 20.7774 40.7373 21.283 40.1413 21.6544C39.5312 22.0296 38.9132 22.1498 38.2836 22.001C37.6541 21.8521 37.1522 21.5028 36.7987 20.9171C36.4349 20.3493 36.3325 19.7416 36.4852 19.1262C36.634 18.4966 37.0154 18.0013 37.6217 17.612C38.2036 17.2444 38.8216 17.1242 39.437 17.2768Z" fill="#2C067E"/>
</svg>
