<svg width="145" height="145" viewBox="0 0 145 145" fill="none" xmlns="http://www.w3.org/2000/svg">
<path d="M75.6115 17.492L72.6028 17.3424L73.4624 0.261632L76.5086 0L75.6302 17.492H75.6115Z" fill="#AF5269"/>
<path d="M90.5807 14.1841C90.1696 16.0342 89.2725 17.3984 87.8896 18.2768C86.5067 19.1551 84.9556 19.398 83.2363 19.0243C81.517 18.6505 80.2462 17.7909 79.4053 16.4453C78.5643 15.0998 78.3588 13.4926 78.7699 11.6052C79.181 9.73636 80.0781 8.37213 81.4423 7.4938C82.8065 6.61546 84.3763 6.37252 86.0956 6.74628C87.8149 7.12004 89.0857 7.97969 89.9266 9.32522C90.7676 10.6708 90.9731 12.2779 90.562 14.1654L90.5807 14.1841ZM86.2825 16.109C86.9552 15.5483 87.4037 14.7074 87.6467 13.5674C87.8896 12.4274 87.8336 11.4557 87.4598 10.6334C87.086 9.81111 86.432 9.30653 85.4976 9.10096C84.5445 8.8954 83.7409 9.08228 83.0681 9.6616C82.3954 10.2409 81.9469 11.1006 81.6852 12.2219C81.4423 13.3431 81.4983 14.2962 81.8908 15.1185C82.2645 15.9221 82.9373 16.4453 83.8904 16.6509C84.8248 16.8565 85.6284 16.6883 86.2825 16.109Z" fill="#AF5269"/>
<path d="M91.6458 21.5472C91.2534 21.1548 90.973 20.7249 90.8235 20.2577C90.674 19.7905 90.6927 19.342 90.8983 18.9309C91.1225 18.445 91.515 18.0899 92.0756 17.847C92.6363 17.6041 93.253 17.5293 93.9257 17.6041C93.4585 17.006 93.1969 16.352 93.1222 15.6044C93.0474 14.8569 93.1782 14.1281 93.5146 13.3993C94.0566 12.2593 94.9349 11.4931 96.1496 11.1006C97.3643 10.7082 98.6912 10.8577 100.13 11.5305C101.121 11.9977 102.018 12.6891 102.821 13.6235L105.811 14.7074L104.802 17.1555L102.933 15.8474C103.083 16.352 102.989 16.9873 102.634 17.7349C102.111 18.8375 101.27 19.5663 100.074 19.9214C98.8781 20.2764 97.6447 20.1456 96.3365 19.5476C95.8693 19.3233 95.4208 19.043 94.9723 18.6693C94.3182 18.6319 93.8884 18.8001 93.7015 19.2112C93.5707 19.5102 93.6267 19.7905 93.8697 20.0709C94.1313 20.3512 94.6733 20.6876 95.5142 21.08H95.5329L95.5516 21.0987H95.5703L95.589 21.1174H95.6077L95.6263 21.1361H95.6637L95.6824 21.1735H95.7011L95.7198 21.1921H95.7385L95.7945 21.2295H95.8132L95.8693 21.2669H95.888L95.944 21.3043H95.9627L96.0188 21.3416H96.0562L96.0749 21.379H96.1122L96.1683 21.4164H96.2057L96.2617 21.4538H96.2991L96.3365 21.4912H96.3926L96.5794 21.6033C99.7751 23.0983 100.915 24.8363 99.9993 26.7985C99.42 28.0319 98.3361 28.7608 96.7476 29.0037C95.1592 29.228 93.4959 28.9477 91.7579 28.1441C90.2816 27.4526 89.1977 26.6303 88.4875 25.6586C87.7774 24.6868 87.6279 23.7337 88.0764 22.7993C88.3567 22.22 88.8052 21.7902 89.4219 21.5659C90.0386 21.323 90.7675 21.323 91.6084 21.5659L91.6458 21.5472ZM92.8979 22.5751C91.8514 22.4816 91.1786 22.7432 90.8796 23.3786C90.6554 23.8645 90.7488 24.4065 91.1599 24.9858C91.5711 25.5651 92.2251 26.0697 93.1222 26.4808C94.0753 26.9294 94.9536 27.1349 95.7385 27.0975C96.5234 27.0602 97.0466 26.7612 97.2896 26.2192C97.5138 25.7333 97.4391 25.3035 97.0466 24.9111C96.6542 24.5186 95.944 24.0888 94.8975 23.5842C94.1313 23.2291 93.4585 22.8741 92.8979 22.5377V22.5751ZM96.1496 14.6513C95.8506 15.3054 95.7945 15.9034 95.9814 16.4641C96.1683 17.0247 96.5981 17.4545 97.2335 17.7536C97.8315 18.0339 98.3922 18.0526 98.9341 17.8096C99.4574 17.5667 99.8872 17.0995 100.205 16.4267C100.523 15.7539 100.597 15.1559 100.429 14.614C100.261 14.072 99.8498 13.6422 99.1771 13.3245C98.5791 13.0442 97.9997 13.0255 97.4578 13.2684C96.9158 13.5114 96.486 13.9786 96.1496 14.6513Z" fill="#AF5269"/>
<path d="M114.221 28.1815C113.062 29.6765 111.661 30.5362 110.053 30.7231C108.446 30.9099 106.933 30.4801 105.531 29.4149C104.148 28.331 103.344 27.0228 103.158 25.453C102.971 23.8833 103.475 22.3322 104.653 20.8184C105.83 19.3047 107.213 18.445 108.839 18.2395C110.446 18.0339 111.96 18.4637 113.361 19.5663C114.744 20.6502 115.548 21.9771 115.716 23.5469C115.884 25.1167 115.398 26.6678 114.221 28.2002V28.1815ZM109.512 28.088C110.352 27.8638 111.137 27.3032 111.848 26.3688C112.558 25.453 112.913 24.5373 112.931 23.6403C112.931 22.7433 112.558 21.9958 111.81 21.4164C111.044 20.8184 110.222 20.6315 109.381 20.8745C108.521 21.1174 107.755 21.6781 107.045 22.6125C106.353 23.5095 105.998 24.4252 105.998 25.3035C105.998 26.1819 106.372 26.9481 107.157 27.5461C107.904 28.1254 108.708 28.3123 109.549 28.088H109.512Z" fill="#AF5269"/>
<path d="M123.228 36.2736C123.154 36.7969 122.892 37.2267 122.444 37.5818C121.995 37.9181 121.509 38.0676 120.967 37.9929C120.425 37.9181 119.995 37.6565 119.64 37.208C119.285 36.7408 119.136 36.2175 119.211 35.6943C119.285 35.171 119.547 34.7225 119.995 34.3674C120.444 34.031 120.93 33.9002 121.472 33.975C121.995 34.0497 122.444 34.33 122.817 34.7972C123.172 35.2644 123.303 35.7503 123.247 36.2736H123.228Z" fill="#AF5269"/>
<path d="M123.509 52.2517L122.5 49.4859L132.442 42.1415L133.526 45.0942L126.424 49.8597L135.002 49.243L136.03 52.0836L129.171 57.2788L137.525 56.1202L138.609 59.1289L126.293 59.9325L125.284 57.148L132.18 51.8406L123.509 52.2704V52.2517Z" fill="#AF5269"/>
<path d="M132.685 65.9496H132.61C131.638 66.1178 130.891 66.529 130.367 67.2017C129.844 67.8745 129.62 68.7341 129.713 69.762C129.825 71.0515 130.293 72.2475 131.115 73.3314L128.648 73.9294C127.9 72.7894 127.452 71.4065 127.302 69.762C127.134 67.8745 127.564 66.3047 128.573 65.0713C129.582 63.8192 131.021 63.1277 132.89 62.9595C134.796 62.7914 136.385 63.2212 137.656 64.249C138.926 65.2769 139.655 66.6785 139.805 68.4538C139.936 69.9862 139.618 71.2196 138.833 72.1353C138.048 73.0697 136.927 73.593 135.469 73.7238C134.722 73.7986 134.068 73.7612 133.488 73.6491L132.703 65.9496H132.685ZM134.46 65.8749L134.927 70.9206H135.133C136.852 70.7524 137.637 69.9302 137.506 68.4351C137.431 67.6502 137.114 67.0335 136.516 66.585C135.918 66.1365 135.245 65.8936 134.441 65.8749H134.46Z" fill="#AF5269"/>
<path d="M132.516 88.2445C130.666 88.0016 129.227 87.2354 128.199 85.9459C127.172 84.6564 126.761 83.1801 126.966 81.4982C127.097 80.5638 127.34 79.7041 127.714 78.9379L127.658 76.0039L145 78.2652V81.3113L138.235 80.433C139.095 81.5916 139.45 82.7503 139.3 83.9089C139.095 85.4413 138.366 86.6187 137.114 87.4036C135.862 88.1885 134.329 88.4688 132.516 88.2445ZM132.797 85.1797C133.955 85.3292 134.89 85.1797 135.619 84.7499C136.347 84.3201 136.777 83.6286 136.908 82.7316C137.02 81.8532 136.815 81.0123 136.254 80.19H136.235H136.217H136.198H136.179H136.161H136.142H136.123H136.105H136.086H136.067H136.048H136.03H136.011H135.992H135.974H135.955H135.936H135.918H135.899H135.88H135.862H135.843H135.824H135.806H135.787H135.768H135.749H135.731H135.712H135.693H135.675H135.656H135.637H135.619H135.6H135.581H135.563H135.544H135.525H135.507H135.488H135.469H135.45H135.432H135.413H135.394H135.376H135.357H135.301H135.282H135.264H135.245H135.226H135.207H135.189H135.133H135.114H135.095H135.077H135.058H135.002H134.983H134.965H134.946H134.89H134.871H134.852H134.834H134.778H134.759H134.74H134.684H134.666H134.647H134.591H134.572H134.553H134.497H134.479H134.46H134.404H134.385H134.367H134.31H134.292H134.236H134.217H134.198H134.142H134.124H134.068H134.049H133.993H133.974H133.918H133.899H133.881H133.825H133.806H133.75H133.731H133.675H133.656H133.6H133.544H133.526H133.47H133.451H133.395H133.376H133.32H133.301H133.245H133.189H133.171H133.114H133.096H133.04H132.984H132.965H132.909H132.89H132.834H132.778H132.759H132.703H132.647H132.629H132.572H132.516H132.498H132.442H132.386H132.367H132.311H132.255H132.199H132.18H132.124H132.068H132.049H131.993H131.937H131.881H131.862H131.806H131.75H131.694H131.638H131.619H131.563H131.507H131.451H131.395H131.376H131.32H131.264H131.208H131.152H131.134H131.077H131.021H130.965H130.909H130.704C130.18 80.6759 129.881 81.386 129.751 82.2831C129.62 83.2735 129.881 84.0771 130.517 84.7312C131.152 85.3853 132.031 85.7777 133.152 85.9272L132.797 85.1797Z" fill="#AF5269"/>
<path d="M126.387 98.1866C125.322 97.8128 124.593 97.084 124.219 96.0001C123.845 94.9162 123.883 93.6828 124.387 92.2812C124.966 90.618 125.807 89.2911 126.929 88.3193L128.928 89.7209C127.807 90.7114 127.022 91.8327 126.574 93.1222C126.368 93.6828 126.331 94.1687 126.424 94.5798C126.518 94.9909 126.779 95.2526 127.153 95.3834C127.564 95.5329 127.919 95.4395 128.274 95.1405C128.629 94.8414 129.003 94.3556 129.452 93.6454C130.143 92.5428 130.872 91.7579 131.619 91.2907C132.367 90.8235 133.245 90.7488 134.217 91.0852C135.264 91.4589 135.974 92.1504 136.31 93.1782C136.665 94.2061 136.609 95.4021 136.142 96.7289C135.6 98.28 134.834 99.5321 133.825 100.485L131.825 99.0836C132.853 98.1118 133.563 97.0466 133.974 95.9067C134.367 94.8041 134.18 94.1126 133.451 93.851C133.058 93.7202 132.703 93.7949 132.386 94.0939C132.068 94.3929 131.675 94.8975 131.208 95.589C130.498 96.6916 129.769 97.4951 129.003 97.9623C128.237 98.4295 127.377 98.5043 126.368 98.1492L126.387 98.1866Z" fill="#AF5269"/>
<path d="M120.799 101.382L122.201 98.71L132.61 104.111L131.601 106.989L120.799 101.382ZM134.628 108.97C134.124 108.708 133.806 108.353 133.675 107.923C133.544 107.493 133.6 107.007 133.881 106.465C134.142 105.942 134.497 105.625 134.946 105.494C135.376 105.363 135.843 105.419 136.348 105.681C136.833 105.924 137.151 106.279 137.301 106.727C137.45 107.176 137.375 107.643 137.114 108.166C136.833 108.689 136.478 109.026 136.03 109.157C135.581 109.287 135.114 109.231 134.628 108.988V108.97Z" fill="#AF5269"/>
<path d="M115.604 109.474C115.865 108.559 116.258 107.718 116.781 106.951C117.547 105.849 118.388 105.195 119.285 105.027C120.182 104.858 121.192 105.176 122.294 105.998L126.761 109.306L127.975 107.905L129.508 109.063L128.947 110.913L131.059 112.446L129.396 114.838L127.153 113.212L125.265 115.94L123.266 114.464L125.209 111.642L120.818 108.409C119.939 107.792 119.211 107.905 118.594 108.783C118.295 109.213 118.052 109.773 117.846 110.502L115.585 109.437L115.604 109.474Z" fill="#AF5269"/>
<path d="M116.856 115.94L116.8 115.884C116.071 115.249 115.267 114.95 114.408 114.968C113.548 114.987 112.763 115.38 112.016 116.108C111.1 117.024 110.483 118.145 110.184 119.472L108.129 117.977C108.521 116.669 109.287 115.436 110.465 114.258C111.81 112.913 113.268 112.24 114.875 112.203C116.482 112.184 117.94 112.819 119.285 114.146C120.65 115.492 121.322 116.987 121.36 118.631C121.378 120.276 120.78 121.715 119.528 122.986C118.444 124.069 117.304 124.611 116.09 124.611C114.875 124.611 113.754 124.088 112.707 123.06C112.184 122.537 111.773 122.014 111.493 121.491L116.875 115.94H116.856ZM118.052 117.248L114.501 120.855L114.651 121.005C115.865 122.219 117.005 122.294 118.071 121.229C118.631 120.668 118.893 120.014 118.856 119.285C118.818 118.538 118.557 117.865 118.071 117.248H118.052Z" fill="#AF5269"/>
<path d="M102.634 130.05C102.111 129.919 101.719 129.62 101.438 129.134C101.158 128.648 101.065 128.144 101.196 127.62C101.326 127.097 101.644 126.686 102.13 126.387C102.653 126.088 103.158 125.995 103.681 126.125C104.204 126.256 104.615 126.574 104.896 127.06C105.176 127.546 105.251 128.05 105.12 128.574C104.989 129.097 104.653 129.508 104.148 129.807C103.644 130.106 103.139 130.181 102.634 130.05Z" fill="#AF5269"/>
<path d="M85.7966 130.162L85.89 130.124C86.488 128.741 87.385 127.882 88.5998 127.527C89.6089 127.228 90.5433 127.284 91.3843 127.714C92.2252 128.125 92.7859 128.798 93.0475 129.695C93.795 132.236 91.9449 134.236 87.5159 135.693L87.5906 135.955C87.8149 136.721 88.1512 137.226 88.5998 137.45C89.0483 137.674 89.6837 137.674 90.4872 137.45C91.5898 137.132 92.7298 136.366 93.8885 135.151L95.1405 137.263C93.9819 138.571 92.5242 139.468 90.7862 139.973C89.067 140.478 87.7214 140.459 86.7496 139.917C85.7779 139.375 85.0864 138.31 84.6566 136.703L83.4792 132.647C83.3484 132.217 83.2176 131.975 83.0681 131.881C82.9186 131.806 82.6196 131.806 82.1711 131.9L81.7599 129.639C83.6287 128.854 84.9743 129.022 85.7966 130.143V130.162ZM86.3198 131.563L87.086 134.161C88.4502 133.563 89.366 133.04 89.8518 132.554C90.3377 132.068 90.5059 131.526 90.319 130.928C90.1882 130.479 89.9266 130.18 89.5341 129.994C89.1417 129.807 88.6932 129.807 88.1886 129.956C87.3477 130.199 86.7309 130.741 86.3198 131.563Z" fill="#AF5269"/>
<path d="M78.1345 141.001C77.1627 142.084 76.0975 142.645 74.9388 142.739C73.3877 142.851 72.0983 142.346 71.0891 141.281C70.08 140.216 69.5006 138.758 69.3698 136.927C69.239 135.076 69.7062 133.507 70.7714 132.236C71.8366 130.965 73.2008 130.274 74.8828 130.162C75.8358 130.105 76.6768 130.162 77.4056 130.33L77.0319 124.742L80.0406 124.536L81.218 141.879L78.2279 142.496L78.1345 141.019V141.001ZM78.0037 139.001V138.945V138.889V138.833V138.777V138.721V138.665V138.608V138.552V138.496V138.44V138.384V138.328V138.272V138.216V138.16V138.104V138.048V137.992V137.936V137.88V137.824V137.768V137.711V137.655V137.599V137.581V137.525V137.469V137.394V137.338V137.282V137.226V137.207V137.151V137.095V137.076V137.02V136.964V136.945V136.871V136.814V136.758V136.74V136.665V136.609V136.553V136.534V136.459V136.385V136.329V136.272V136.254V136.198V136.179V136.123V136.104V136.048V136.03V135.955V135.88V135.805V135.731V135.674V135.656V135.6V135.581V135.525V135.506V135.45V135.432V135.375V135.319V135.245V135.17V135.114V135.095V135.039V135.02V134.964V134.908V134.834V134.777V134.759V134.703V134.647V134.572V134.516V134.497V134.441V134.385V134.329V134.31V134.254V134.198V134.123V134.067V134.011V133.936V133.88V133.824V133.768V133.75V133.694V133.637V133.581V133.525V133.451V133.395V133.338V133.282V133.264V133.208V133.152V133.096V133.039V132.834C77.387 132.423 76.6207 132.255 75.7237 132.311C74.7333 132.385 73.9857 132.778 73.4625 133.544C72.9392 134.31 72.7336 135.245 72.8084 136.366C72.8831 137.525 73.2195 138.422 73.7802 139.057C74.3408 139.692 75.107 139.991 76.0227 139.917C76.9011 139.861 77.7046 139.487 78.3774 138.777L78.0037 139.001Z" fill="#AF5269"/>
<path d="M62.6047 140.814C61.4086 141.636 60.25 141.954 59.11 141.767C57.5776 141.524 56.4376 140.758 55.6901 139.468C54.9426 138.179 54.7184 136.647 54.9987 134.834C55.2977 133.002 56.1013 131.582 57.4281 130.592C58.755 129.601 60.25 129.227 61.9132 129.508C62.8476 129.657 63.6699 129.9 64.3427 130.237L65.2397 124.705L68.2298 125.191L65.4266 142.346L62.3804 142.272L62.6234 140.814H62.6047ZM62.9224 138.852V138.796V138.74V138.683V138.627V138.571V138.515V138.459V138.403V138.347V138.291V138.235V138.179V138.123V138.067V138.011V137.955V137.899V137.843V137.786V137.73V137.674V137.618V137.562V137.506V137.45V137.431V137.375V137.319V137.245V137.188V137.132V137.076V137.058V137.002V136.946V136.927V136.871V136.815V136.796V136.721V136.665V136.609V136.59V136.516V136.46V136.404V136.385V136.31V136.235V136.179V136.123V136.105V136.048V136.03V135.974V135.955V135.899V135.88V135.806V135.731V135.656V135.581V135.525V135.507V135.45V135.432V135.376V135.357V135.301V135.282V135.226V135.17V135.095V135.021V134.965V134.946V134.89V134.871V134.815V134.759V134.684V134.628V134.61V134.553V134.497V134.423V134.367V134.348V134.292V134.236V134.18V134.161V134.105V134.049V133.974V133.918V133.862V133.787V133.731V133.675V133.619V133.6V133.544V133.488V133.432V133.376V133.301V133.245V133.189V133.133V133.114V133.058V133.002V132.946V132.89L62.9597 132.685C62.4552 132.143 61.7637 131.806 60.8667 131.676C59.8949 131.526 59.0726 131.75 58.3999 132.367C57.7271 132.984 57.2973 133.843 57.1291 134.965C56.9422 136.105 57.0543 137.058 57.4655 137.805C57.8766 138.553 58.5494 139.001 59.4464 139.151C60.3247 139.3 61.1657 139.113 62.0067 138.59L62.9224 138.852Z" fill="#AF5269"/>
<path d="M51.4106 127.116L54.2699 128.087L48.7382 144.271L45.7481 143.673L51.4106 127.097V127.116Z" fill="#AF5269"/>
<path d="M39.114 138.964C39.3569 138.459 39.6933 138.123 40.1231 137.955C40.553 137.805 41.0389 137.843 41.5808 138.085C42.1041 138.328 42.4591 138.665 42.6086 139.095C42.7582 139.524 42.7208 139.992 42.4965 140.515C42.2723 141.02 41.9359 141.337 41.5061 141.505C41.0762 141.674 40.5903 141.636 40.0671 141.393C39.5251 141.15 39.1701 140.795 39.0206 140.365C38.8711 139.936 38.9084 139.468 39.1327 138.964H39.114ZM46.0659 124.798L48.8131 126.069L43.8981 136.721L40.9828 135.843L46.0846 124.798H46.0659Z" fill="#AF5269"/>
<path d="M35.4138 118.968C36.6659 119.024 37.9928 119.509 39.3757 120.407C40.9642 121.453 41.9173 122.743 42.2163 124.275C42.5153 125.789 42.1228 127.377 41.0389 129.003C39.9924 130.591 38.6655 131.563 37.0771 131.9C35.4886 132.236 33.9188 131.9 32.3677 130.853C31.0408 129.975 30.0878 128.947 29.5271 127.77L31.3959 126.088C31.8818 127.172 32.6106 128.013 33.545 128.648C34.4421 129.246 35.3204 129.414 36.18 129.171C37.0397 128.928 37.7872 128.33 38.4226 127.358C39.0767 126.368 39.3383 125.415 39.2075 124.518C39.058 123.621 38.5721 122.892 37.7311 122.331C36.7033 121.659 35.6194 121.304 34.4794 121.304L35.4325 118.986L35.4138 118.968Z" fill="#AF5269"/>
<path d="M29.0038 113.866L29.0786 113.94C30.5736 113.791 31.7696 114.165 32.6666 115.062C33.4142 115.809 33.8066 116.65 33.844 117.585C33.8814 118.519 33.5637 119.323 32.9096 119.995C31.0408 121.864 28.4058 121.21 24.9859 118.033L24.7803 118.239C24.2197 118.799 23.9394 119.341 23.958 119.846C23.958 120.35 24.2757 120.911 24.8738 121.49C25.6773 122.294 26.9108 122.929 28.5366 123.359L27.2845 125.471C25.5839 125.078 24.0889 124.238 22.7994 122.967C21.5286 121.696 20.8932 120.519 20.9119 119.397C20.9119 118.295 21.5286 117.155 22.706 116.015L25.6773 113.025C25.995 112.707 26.1445 112.464 26.1445 112.296C26.1445 112.128 25.995 111.866 25.696 111.511L27.4714 110.053C29.0599 111.324 29.5644 112.576 28.9851 113.828L29.0038 113.866ZM28.032 114.987L26.1259 116.912C27.3032 117.809 28.2189 118.369 28.873 118.556C29.5271 118.743 30.0877 118.631 30.5362 118.183C30.8539 117.865 31.0034 117.472 30.9847 117.043C30.9474 116.613 30.7605 116.22 30.368 115.847C29.7513 115.23 28.9851 114.95 28.0507 114.987H28.032Z" fill="#AF5269"/>
<path d="M22.463 103.326C23.2292 103.886 23.8833 104.541 24.4065 105.307C25.1727 106.409 25.4904 107.418 25.3409 108.316C25.1914 109.213 24.5373 110.054 23.3787 110.801L18.7254 113.847L19.6224 115.473L18.0152 116.52L16.4828 115.342L14.315 116.8L12.6331 114.408L14.9317 112.857L13.0255 110.128L15.0999 108.764L17.0621 111.567L21.622 108.558C22.519 107.96 22.6498 107.213 22.0518 106.353C21.7528 105.942 21.3043 105.494 20.7063 105.045L22.4817 103.288L22.463 103.326Z" fill="#AF5269"/>
<path d="M6.20446 106.054C6.70903 105.793 7.17623 105.737 7.60606 105.867C8.03588 105.998 8.40964 106.335 8.67127 106.858C8.95159 107.362 9.00765 107.848 8.87684 108.278C8.74602 108.708 8.42833 109.063 7.92375 109.325C7.43786 109.586 6.97066 109.642 6.52215 109.511C6.07364 109.381 5.71857 109.063 5.45694 108.54C5.17662 108.016 5.10187 107.531 5.25137 107.082C5.40087 106.634 5.69988 106.297 6.18577 106.036L6.20446 106.054ZM20.3139 99.0089L21.7155 101.681L11.3437 107.138L9.54961 104.671L20.3139 99.0089Z" fill="#AF5269"/>
<path d="M9.8486 87.8147C11.6426 87.2167 13.2685 87.2914 14.7262 88.0389C16.1838 88.7865 17.193 89.9825 17.7349 91.6644C18.2769 93.3276 18.2021 94.8787 17.4733 96.2803C16.7445 97.6819 15.4737 98.6911 13.6423 99.2891C11.8295 99.8871 10.185 99.8124 8.74601 99.0835C7.28834 98.3547 6.27919 97.14 5.73724 95.4581C5.19529 93.7948 5.27004 92.2437 6.01756 90.8421C6.74639 89.4405 8.03586 88.4314 9.86729 87.8334L9.8486 87.8147ZM13.6983 90.5431C12.876 90.2628 11.9043 90.3002 10.8204 90.6553C9.71778 91.0103 8.9142 91.571 8.40962 92.3185C7.90505 93.066 7.79292 93.8883 8.09193 94.804C8.39093 95.7197 8.97026 96.3364 9.81122 96.6167C10.6522 96.897 11.624 96.8597 12.7265 96.4859C13.8104 96.1308 14.614 95.5702 15.0999 94.8414C15.6045 94.0939 15.6979 93.2716 15.3989 92.3372C15.0999 91.4215 14.5393 90.8235 13.717 90.5431H13.6983Z" fill="#AF5269"/>
<path d="M14.2776 73.7053L14.5392 76.7141L7.38173 77.3495C6.52209 77.4242 5.94276 77.6485 5.62506 78.0036C5.30737 78.3586 5.17655 78.9006 5.23261 79.592C5.32605 80.5638 5.75588 81.3861 6.55946 82.0962L14.9504 81.3487L15.212 84.3575L3.51332 85.404L2.84055 82.4326L4.70935 82.2644C3.34513 81.2366 2.59761 80.0032 2.48548 78.5642C2.37335 77.3682 2.65367 76.4151 3.32644 75.6863C3.98052 74.9574 4.95229 74.5463 6.20439 74.4342L14.2963 73.724L14.2776 73.7053Z" fill="#AF5269"/>
<path d="M5.15788 55.709L0 54.4756L0.299008 51.4481L17.3238 55.5221L16.6136 58.4561L15.4923 58.1945C16.2399 59.4653 16.4828 60.6613 16.2212 61.7826C15.8661 63.2963 15.0065 64.3802 13.6796 65.0156C12.3528 65.6697 10.783 65.7631 8.98892 65.352C7.17619 64.9222 5.83065 64.0064 4.93363 62.6235C4.0366 61.2406 3.79366 59.7269 4.18611 58.0824C4.39168 57.2601 4.70937 56.4752 5.1392 55.7277L5.15788 55.709ZM7.79289 56.3444C7.19487 56.8489 6.80243 57.5217 6.59686 58.344C6.3726 59.2971 6.54079 60.138 7.10143 60.8669C7.66207 61.577 8.50303 62.0629 9.58694 62.3245C10.7082 62.5862 11.6426 62.5488 12.4462 62.175C13.2311 61.8199 13.7357 61.1846 13.9412 60.3062C14.1468 59.4092 14.0347 58.5496 13.5675 57.7086H13.5488H13.5301H13.5114H13.4927H13.474H13.4553H13.4367H13.418H13.3993H13.3806H13.3619H13.3432H13.3245H13.3058H13.2872H13.2685H13.2498H13.2311H13.2124H13.1937H13.175H13.1563H13.1377H13.119H13.1003H13.0816H13.0629H13.0442H13.0255H13.0068H12.9881H12.9695H12.9508H12.9321H12.9134H12.8947H12.876H12.8573H12.8013H12.7826H12.7639H12.7452H12.7265H12.7078H12.6891H12.6705H12.6518H12.6331H12.6144H12.5957H12.5396H12.5209H12.5023H12.4836H12.4649H12.4462H12.3901H12.3714H12.3528H12.3341H12.3154H12.2593H12.2406H12.2219H12.2033H12.1472H12.1285H12.1098H12.0537H12.0351H12.0164H11.9977H11.9416H11.9229H11.9042H11.8482H11.8295H11.8108H11.7547H11.7361H11.68H11.6613H11.6426H11.5865H11.5679H11.5118H11.4931H11.4744H11.4184H11.3997H11.3436H11.3249H11.2689H11.2502H11.1941H11.1754H11.1193H11.1007H11.0446H11.0259H10.9698H10.9512H10.8951H10.8764H10.8203H10.8017H10.7456H10.7269H10.6708H10.6522H10.5961L10.54 57.6899H10.5213H10.4653H10.4466H10.3905H10.3718H10.3158H10.2597H10.241H10.1849L10.1289 57.6712H10.1102H10.0541H9.99807H9.97938H9.92332L9.86726 57.6525H9.84857H9.7925H9.73644H9.71775H9.66169L9.60562 57.6338H9.58694H9.53087H9.47481L9.41874 57.6152H9.40006H9.34399H9.28793L9.23186 57.5965H9.21317H9.15711H9.10105L9.04498 57.5778H9.0263H8.97023H8.91417L8.8581 57.5591H8.80204H8.78335H8.72729L8.67122 57.5404H8.61516L8.5591 57.5217H8.54041H8.48434H8.42828L8.37222 57.503H8.31615L8.26009 57.4843L8.03583 57.4283L7.79289 56.3444Z" fill="#AF5269"/>
<path d="M14.4272 48.944L14.5019 48.9814C15.3989 49.3551 16.2586 49.3738 17.0622 49.0748C17.8657 48.7758 18.5011 48.1591 18.9497 47.2247C19.529 46.066 19.7345 44.7953 19.6037 43.4497L22.0332 44.2159C22.0892 45.5802 21.7528 47.0004 21.024 48.4768C20.1831 50.1774 19.0244 51.2987 17.5107 51.8406C15.9969 52.3826 14.4085 52.2331 12.7079 51.4108C10.9886 50.5698 9.8486 49.3738 9.30665 47.8227C8.74601 46.2716 8.87683 44.7018 9.64303 43.1133C10.3158 41.7304 11.2315 40.8521 12.3902 40.4596C13.5488 40.0672 14.7822 40.198 16.0904 40.8521C16.7632 41.1885 17.3238 41.5435 17.7536 41.9547L14.4272 48.944ZM12.8761 48.0843L15.0812 43.5245L14.8944 43.431C13.3433 42.6648 12.2407 42.9638 11.5866 44.3094C11.2315 45.0195 11.1941 45.711 11.4745 46.4024C11.7548 47.0939 12.2033 47.6545 12.8761 48.0843Z" fill="#AF5269"/>
<path d="M26.2567 33.8251C27.1537 34.5166 27.6209 35.4323 27.6396 36.5723C27.6583 37.7122 27.2285 38.8896 26.3314 40.0669C25.2662 41.4685 24.0515 42.459 22.6686 43.0383L21.1922 41.0761C22.5565 40.4967 23.6591 39.6558 24.5 38.5719C24.8551 38.1047 25.0607 37.6562 25.0793 37.2263C25.098 36.7965 24.9672 36.4788 24.6308 36.2172C24.2944 35.9556 23.9207 35.9182 23.5096 36.0864C23.0984 36.2733 22.5752 36.6096 21.9398 37.1329C20.9493 37.9552 20.0149 38.4784 19.1366 38.7027C18.2769 38.9269 17.4173 38.7027 16.595 38.086C15.7167 37.4132 15.2682 36.5349 15.2495 35.4323C15.2495 34.3297 15.6606 33.2271 16.5202 32.1058C17.5107 30.7977 18.632 29.8633 19.8841 29.2653L21.3417 31.2275C20.0523 31.8442 19.0431 32.6291 18.3143 33.5822C17.6041 34.5166 17.5481 35.2267 18.1835 35.6939C18.5012 35.9369 18.8749 35.9742 19.2674 35.7874C19.6598 35.6005 20.1831 35.2454 20.8559 34.7221C21.8837 33.8999 22.8181 33.3766 23.6777 33.1524C24.5374 32.9281 25.397 33.1524 26.238 33.7878L26.2567 33.8251Z" fill="#AF5269"/>
<path d="M21.7716 21.0051C22.164 21.3975 22.3696 21.846 22.3509 22.2946C22.3509 22.7618 22.1266 23.1916 21.6968 23.6027C21.2857 24.0138 20.8372 24.2194 20.3887 24.2007C19.9215 24.2007 19.5103 23.9952 19.1179 23.584C18.7254 23.1916 18.5386 22.7618 18.5386 22.2946C18.5386 21.8274 18.7441 21.3975 19.1553 20.9864C19.5851 20.5753 20.0336 20.3697 20.4821 20.3697C20.9306 20.3697 21.3791 20.5753 21.7529 20.9677L21.7716 21.0051ZM32.5545 32.5169L30.4054 34.6286L22.1827 26.2564L24.0328 23.827L32.5545 32.4982V32.5169Z" fill="#AF5269"/>
<path d="M35.6007 30.3681C35.0587 30.5176 34.5542 30.555 34.0683 30.4429C33.5824 30.3308 33.2086 30.1065 32.947 29.7328C32.648 29.3029 32.5172 28.7797 32.5732 28.1816C32.6293 27.5836 32.8722 27.0043 33.2647 26.4437C32.5172 26.5558 31.807 26.4437 31.1343 26.1633C30.4428 25.8643 29.8822 25.3971 29.415 24.7431C28.6861 23.7152 28.4432 22.5753 28.7048 21.3232C28.9665 20.0711 29.7327 18.9872 31.0408 18.0528C31.9378 17.4174 32.9844 16.9689 34.1804 16.7259L36.6098 14.6516L38.2544 16.7259L36.1987 17.7164C36.722 17.8285 37.2265 18.221 37.7124 18.9124C38.4226 19.9029 38.6281 21.0055 38.3478 22.2202C38.0675 23.4349 37.3574 24.4627 36.18 25.285C35.7689 25.584 35.283 25.8457 34.741 26.0512C34.386 26.5932 34.3299 27.0604 34.5915 27.4154C34.7784 27.6771 35.0587 27.7705 35.4325 27.6771C35.8063 27.6023 36.3669 27.2846 37.1144 26.7427H37.1331L37.1518 26.7053H37.1705L37.1892 26.6679H37.2079L37.2265 26.6305L37.2639 26.5932H37.2826L37.3013 26.5558H37.32L37.3387 26.5184L37.376 26.481H37.3947L37.4321 26.4437H37.4508L37.4882 26.4063H37.5069L37.5442 26.3689L37.5816 26.3315H37.6003L37.6377 26.2942L37.6751 26.2568L37.7124 26.2194L37.7498 26.182L37.7872 26.1447L37.8246 26.1073L37.8619 26.0699L38.0301 25.9578C40.9081 23.9021 42.9824 23.7713 44.2345 25.528C45.0194 26.6305 45.1316 27.9387 44.5522 29.4524C43.9729 30.9475 42.9077 32.2556 41.3566 33.3769C40.0297 34.3113 38.7776 34.8533 37.5816 35.0028C36.3856 35.1523 35.4886 34.7972 34.8905 33.9749C34.5168 33.4517 34.3673 32.8536 34.4794 32.1996C34.5915 31.5455 34.9279 30.9101 35.5446 30.3121L35.6007 30.3681ZM31.807 23.0798C32.2182 23.6592 32.7227 24.0142 33.3021 24.1264C33.8814 24.2385 34.4607 24.089 35.0587 23.6592C35.6007 23.2667 35.8997 22.7808 35.9371 22.2015C35.9931 21.6222 35.7876 21.0242 35.3577 20.4074C34.9279 19.8094 34.442 19.4544 33.8814 19.3235C33.3208 19.1927 32.7414 19.3422 32.1434 19.7721C31.6015 20.1645 31.3025 20.6504 31.2464 21.2484C31.1903 21.8464 31.3772 22.4444 31.807 23.0611V23.0798ZM37.1144 29.8075C36.5164 30.6672 36.423 31.396 36.8341 31.9566C37.1518 32.4051 37.6564 32.592 38.3665 32.4986C39.0767 32.4238 39.8429 32.0874 40.6464 31.5268C41.5061 30.9101 42.1041 30.256 42.4592 29.5646C42.8142 28.8544 42.8142 28.2751 42.4592 27.7892C42.1602 27.3594 41.7303 27.2099 41.2071 27.3594C40.6838 27.5089 39.9363 27.92 39.0019 28.5928C38.3104 29.0974 37.6751 29.4898 37.1144 29.8262V29.8075Z" fill="#AF5269"/>
<path d="M54.083 19.6973L51.2984 20.8746L48.4952 14.2591C48.1589 13.4742 47.7664 12.9883 47.3366 12.7827C46.8881 12.5958 46.3461 12.6332 45.7107 12.8948C44.8137 13.2686 44.1596 13.9601 43.7298 14.9318L47.0189 22.6874L44.2344 23.8647L39.6558 13.0444L42.2721 11.4932L43.001 13.2125C43.5616 11.6054 44.5147 10.5215 45.8416 9.94215C46.9441 9.47495 47.9346 9.45626 48.8316 9.86739C49.7286 10.2785 50.4201 11.0634 50.906 12.2221L54.0643 19.6973H54.083Z" fill="#AF5269"/>
<path d="M63.8943 10.1292C64.3241 10.4469 64.5671 10.8954 64.6418 11.456C64.7166 12.0167 64.6044 12.5025 64.2681 12.9324C63.9504 13.3622 63.5018 13.6238 62.9225 13.6986C62.3245 13.7733 61.8199 13.6612 61.3901 13.3248C60.9603 12.9884 60.6986 12.5586 60.6239 11.998C60.5491 11.4373 60.68 10.9514 60.9977 10.5216C61.334 10.0918 61.7826 9.84885 62.3806 9.75541C62.9599 9.68066 63.4458 9.79279 63.8756 10.1292H63.8943Z" fill="#AF5269"/>
</svg>
