<svg width="248" height="152" viewBox="0 0 248 152" fill="none" xmlns="http://www.w3.org/2000/svg">
<g opacity="0.51">
<path d="M245.37 1.96926C245.37 2.51751 245.815 2.96196 246.363 2.96196C246.911 2.96196 247.356 2.51751 247.356 1.96926C247.356 1.42101 246.911 0.976562 246.363 0.976562C245.815 0.976562 245.37 1.42101 245.37 1.96926Z" fill="#E1E1E1"/>
<path d="M245.37 13.3687C245.37 13.9169 245.815 14.3614 246.363 14.3614C246.911 14.3614 247.356 13.9169 247.356 13.3687C247.356 12.8204 246.911 12.376 246.363 12.376C245.815 12.376 245.37 12.8204 245.37 13.3687Z" fill="#E1E1E1"/>
<path d="M245.37 24.7683C245.37 25.3166 245.815 25.761 246.363 25.761C246.911 25.761 247.356 25.3166 247.356 24.7683C247.356 24.2201 246.911 23.7756 246.363 23.7756C245.815 23.7756 245.37 24.2201 245.37 24.7683Z" fill="#E1E1E1"/>
<path d="M245.37 36.1677C245.37 36.716 245.815 37.1604 246.363 37.1604C246.911 37.1604 247.356 36.716 247.356 36.1677C247.356 35.6195 246.911 35.175 246.363 35.175C245.815 35.175 245.37 35.6195 245.37 36.1677Z" fill="#E1E1E1"/>
<path d="M245.37 47.5672C245.37 48.1154 245.815 48.5599 246.363 48.5599C246.911 48.5599 247.356 48.1154 247.356 47.5672C247.356 47.0189 246.911 46.5745 246.363 46.5745C245.815 46.5745 245.37 47.0189 245.37 47.5672Z" fill="#E1E1E1"/>
<path d="M245.37 58.9751C245.37 59.5234 245.815 59.9678 246.363 59.9678C246.911 59.9678 247.356 59.5234 247.356 58.9751C247.356 58.4269 246.911 57.9824 246.363 57.9824C245.815 57.9824 245.37 58.4269 245.37 58.9751Z" fill="#E1E1E1"/>
<path d="M245.37 70.3745C245.37 70.9228 245.815 71.3672 246.363 71.3672C246.911 71.3672 247.356 70.9228 247.356 70.3745C247.356 69.8263 246.911 69.3818 246.363 69.3818C245.815 69.3818 245.37 69.8263 245.37 70.3745Z" fill="#E1E1E1"/>
<path d="M246.363 82.7664C245.817 82.7664 245.37 82.3197 245.37 81.7737C245.37 81.2277 245.817 80.781 246.363 80.781C246.909 80.781 247.356 81.2277 247.356 81.7737C247.356 82.3197 246.909 82.7664 246.363 82.7664Z" fill="#E1E1E1"/>
<path d="M245.37 93.1734C245.37 93.7216 245.815 94.1661 246.363 94.1661C246.911 94.1661 247.356 93.7216 247.356 93.1734C247.356 92.6251 246.911 92.1807 246.363 92.1807C245.815 92.1807 245.37 92.6251 245.37 93.1734Z" fill="#E1E1E1"/>
<path d="M245.37 104.573C245.37 105.121 245.815 105.565 246.363 105.565C246.911 105.565 247.356 105.121 247.356 104.573C247.356 104.025 246.911 103.58 246.363 103.58C245.815 103.58 245.37 104.025 245.37 104.573Z" fill="#E1E1E1"/>
<path d="M245.37 115.972C245.37 116.52 245.815 116.965 246.363 116.965C246.911 116.965 247.356 116.52 247.356 115.972C247.356 115.424 246.911 114.979 246.363 114.979C245.815 114.979 245.37 115.424 245.37 115.972Z" fill="#E1E1E1"/>
<path d="M245.37 127.38C245.37 127.929 245.815 128.373 246.363 128.373C246.911 128.373 247.356 127.929 247.356 127.38C247.356 126.832 246.911 126.388 246.363 126.388C245.815 126.388 245.37 126.832 245.37 127.38Z" fill="#E1E1E1"/>
<path d="M245.37 138.78C245.37 139.328 245.815 139.773 246.363 139.773C246.911 139.773 247.356 139.328 247.356 138.78C247.356 138.232 246.911 137.787 246.363 137.787C245.815 137.787 245.37 138.232 245.37 138.78Z" fill="#E1E1E1"/>
<path d="M245.37 150.179C245.37 150.727 245.815 151.172 246.363 151.172C246.911 151.172 247.356 150.727 247.356 150.179C247.356 149.631 246.911 149.187 246.363 149.187C245.815 149.187 245.37 149.631 245.37 150.179Z" fill="#E1E1E1"/>
<path d="M234.219 1.96926C234.219 2.51751 234.663 2.96196 235.212 2.96196C235.76 2.96196 236.204 2.51751 236.204 1.96926C236.204 1.42101 235.76 0.976562 235.212 0.976562C234.663 0.976562 234.219 1.42101 234.219 1.96926Z" fill="#E1E1E1"/>
<path d="M234.219 13.3687C234.219 13.9169 234.663 14.3614 235.212 14.3614C235.76 14.3614 236.204 13.9169 236.204 13.3687C236.204 12.8204 235.76 12.376 235.212 12.376C234.663 12.376 234.219 12.8204 234.219 13.3687Z" fill="#E1E1E1"/>
<path d="M234.219 24.7683C234.219 25.3166 234.663 25.761 235.212 25.761C235.76 25.761 236.204 25.3166 236.204 24.7683C236.204 24.2201 235.76 23.7756 235.212 23.7756C234.663 23.7756 234.219 24.2201 234.219 24.7683Z" fill="#E1E1E1"/>
<path d="M234.219 36.1677C234.219 36.716 234.663 37.1604 235.212 37.1604C235.76 37.1604 236.204 36.716 236.204 36.1677C236.204 35.6195 235.76 35.175 235.212 35.175C234.663 35.175 234.219 35.6195 234.219 36.1677Z" fill="#E1E1E1"/>
<path d="M234.219 47.5672C234.219 48.1154 234.663 48.5599 235.212 48.5599C235.76 48.5599 236.204 48.1154 236.204 47.5672C236.204 47.0189 235.76 46.5745 235.212 46.5745C234.663 46.5745 234.219 47.0189 234.219 47.5672Z" fill="#E1E1E1"/>
<path d="M234.219 58.9751C234.219 59.5234 234.663 59.9678 235.212 59.9678C235.76 59.9678 236.204 59.5234 236.204 58.9751C236.204 58.4269 235.76 57.9824 235.212 57.9824C234.663 57.9824 234.219 58.4269 234.219 58.9751Z" fill="#E1E1E1"/>
<path d="M234.219 70.3745C234.219 70.9228 234.663 71.3672 235.212 71.3672C235.76 71.3672 236.204 70.9228 236.204 70.3745C236.204 69.8263 235.76 69.3818 235.212 69.3818C234.663 69.3818 234.219 69.8263 234.219 70.3745Z" fill="#E1E1E1"/>
<path d="M235.212 82.7664C234.666 82.7664 234.219 82.3197 234.219 81.7737C234.219 81.2277 234.666 80.781 235.212 80.781C235.758 80.781 236.204 81.2277 236.204 81.7737C236.196 82.3197 235.758 82.7664 235.212 82.7664Z" fill="#E1E1E1"/>
<path d="M234.219 93.1734C234.219 93.7216 234.663 94.1661 235.212 94.1661C235.76 94.1661 236.204 93.7216 236.204 93.1734C236.204 92.6251 235.76 92.1807 235.212 92.1807C234.663 92.1807 234.219 92.6251 234.219 93.1734Z" fill="#E1E1E1"/>
<path d="M234.219 104.573C234.219 105.121 234.663 105.565 235.212 105.565C235.76 105.565 236.204 105.121 236.204 104.573C236.204 104.025 235.76 103.58 235.212 103.58C234.663 103.58 234.219 104.025 234.219 104.573Z" fill="#E1E1E1"/>
<path d="M234.219 115.972C234.219 116.52 234.663 116.965 235.212 116.965C235.76 116.965 236.204 116.52 236.204 115.972C236.204 115.424 235.76 114.979 235.212 114.979C234.663 114.979 234.219 115.424 234.219 115.972Z" fill="#E1E1E1"/>
<path d="M234.219 127.38C234.219 127.929 234.663 128.373 235.212 128.373C235.76 128.373 236.204 127.929 236.204 127.38C236.204 126.832 235.76 126.388 235.212 126.388C234.663 126.388 234.219 126.832 234.219 127.38Z" fill="#E1E1E1"/>
<path d="M234.219 138.78C234.219 139.328 234.663 139.773 235.212 139.773C235.76 139.773 236.204 139.328 236.204 138.78C236.204 138.232 235.76 137.787 235.212 137.787C234.663 137.787 234.219 138.232 234.219 138.78Z" fill="#E1E1E1"/>
<path d="M234.219 150.179C234.219 150.727 234.663 151.172 235.212 151.172C235.76 151.172 236.204 150.727 236.204 150.179C236.204 149.631 235.76 149.187 235.212 149.187C234.663 149.187 234.219 149.631 234.219 150.179Z" fill="#E1E1E1"/>
<path d="M223.059 1.96926C223.059 2.51751 223.504 2.96196 224.052 2.96196C224.6 2.96196 225.045 2.51751 225.045 1.96926C225.045 1.42101 224.6 0.976562 224.052 0.976562C223.504 0.976562 223.059 1.42101 223.059 1.96926Z" fill="#E1E1E1"/>
<path d="M223.059 13.3687C223.059 13.9169 223.504 14.3614 224.052 14.3614C224.6 14.3614 225.045 13.9169 225.045 13.3687C225.045 12.8204 224.6 12.376 224.052 12.376C223.504 12.376 223.059 12.8204 223.059 13.3687Z" fill="#E1E1E1"/>
<path d="M223.059 24.7683C223.059 25.3166 223.504 25.761 224.052 25.761C224.6 25.761 225.045 25.3166 225.045 24.7683C225.045 24.2201 224.6 23.7756 224.052 23.7756C223.504 23.7756 223.059 24.2201 223.059 24.7683Z" fill="#E1E1E1"/>
<path d="M223.059 36.1677C223.059 36.716 223.504 37.1604 224.052 37.1604C224.6 37.1604 225.045 36.716 225.045 36.1677C225.045 35.6195 224.6 35.175 224.052 35.175C223.504 35.175 223.059 35.6195 223.059 36.1677Z" fill="#E1E1E1"/>
<path d="M223.059 47.5672C223.059 48.1154 223.504 48.5599 224.052 48.5599C224.6 48.5599 225.045 48.1154 225.045 47.5672C225.045 47.0189 224.6 46.5745 224.052 46.5745C223.504 46.5745 223.059 47.0189 223.059 47.5672Z" fill="#E1E1E1"/>
<path d="M223.059 58.9751C223.059 59.5234 223.504 59.9678 224.052 59.9678C224.6 59.9678 225.045 59.5234 225.045 58.9751C225.045 58.4269 224.6 57.9824 224.052 57.9824C223.504 57.9824 223.059 58.4269 223.059 58.9751Z" fill="#E1E1E1"/>
<path d="M223.059 70.3745C223.059 70.9228 223.504 71.3672 224.052 71.3672C224.6 71.3672 225.045 70.9228 225.045 70.3745C225.045 69.8263 224.6 69.3818 224.052 69.3818C223.504 69.3818 223.059 69.8263 223.059 70.3745Z" fill="#E1E1E1"/>
<path d="M224.052 82.7664C223.506 82.7664 223.059 82.3197 223.059 81.7737C223.059 81.2277 223.506 80.781 224.052 80.781C224.598 80.781 225.045 81.2277 225.045 81.7737C225.045 82.3197 224.606 82.7664 224.052 82.7664Z" fill="#E1E1E1"/>
<path d="M223.059 93.1734C223.059 93.7216 223.504 94.1661 224.052 94.1661C224.6 94.1661 225.045 93.7216 225.045 93.1734C225.045 92.6251 224.6 92.1807 224.052 92.1807C223.504 92.1807 223.059 92.6251 223.059 93.1734Z" fill="#E1E1E1"/>
<path d="M223.059 104.573C223.059 105.121 223.504 105.565 224.052 105.565C224.6 105.565 225.045 105.121 225.045 104.573C225.045 104.025 224.6 103.58 224.052 103.58C223.504 103.58 223.059 104.025 223.059 104.573Z" fill="#E1E1E1"/>
<path d="M223.059 115.972C223.059 116.52 223.504 116.965 224.052 116.965C224.6 116.965 225.045 116.52 225.045 115.972C225.045 115.424 224.6 114.979 224.052 114.979C223.504 114.979 223.059 115.424 223.059 115.972Z" fill="#E1E1E1"/>
<path d="M223.059 127.38C223.059 127.929 223.504 128.373 224.052 128.373C224.6 128.373 225.045 127.929 225.045 127.38C225.045 126.832 224.6 126.388 224.052 126.388C223.504 126.388 223.059 126.832 223.059 127.38Z" fill="#E1E1E1"/>
<path d="M223.059 138.78C223.059 139.328 223.504 139.773 224.052 139.773C224.6 139.773 225.045 139.328 225.045 138.78C225.045 138.232 224.6 137.787 224.052 137.787C223.504 137.787 223.059 138.232 223.059 138.78Z" fill="#E1E1E1"/>
<path d="M223.059 150.179C223.059 150.727 223.504 151.172 224.052 151.172C224.6 151.172 225.045 150.727 225.045 150.179C225.045 149.631 224.6 149.187 224.052 149.187C223.504 149.187 223.059 149.631 223.059 150.179Z" fill="#E1E1E1"/>
<path d="M211.908 1.96926C211.908 2.51751 212.353 2.96196 212.901 2.96196C213.449 2.96196 213.893 2.51751 213.893 1.96926C213.893 1.42101 213.449 0.976562 212.901 0.976562C212.353 0.976562 211.908 1.42101 211.908 1.96926Z" fill="#E1E1E1"/>
<path d="M211.908 13.3687C211.908 13.9169 212.353 14.3614 212.901 14.3614C213.449 14.3614 213.893 13.9169 213.893 13.3687C213.893 12.8204 213.449 12.376 212.901 12.376C212.353 12.376 211.908 12.8204 211.908 13.3687Z" fill="#E1E1E1"/>
<path d="M211.908 24.7683C211.908 25.3166 212.353 25.761 212.901 25.761C213.449 25.761 213.893 25.3166 213.893 24.7683C213.893 24.2201 213.449 23.7756 212.901 23.7756C212.353 23.7756 211.908 24.2201 211.908 24.7683Z" fill="#E1E1E1"/>
<path d="M211.908 36.1677C211.908 36.716 212.353 37.1604 212.901 37.1604C213.449 37.1604 213.893 36.716 213.893 36.1677C213.893 35.6195 213.449 35.175 212.901 35.175C212.353 35.175 211.908 35.6195 211.908 36.1677Z" fill="#E1E1E1"/>
<path d="M211.908 47.5672C211.908 48.1154 212.353 48.5599 212.901 48.5599C213.449 48.5599 213.893 48.1154 213.893 47.5672C213.893 47.0189 213.449 46.5745 212.901 46.5745C212.353 46.5745 211.908 47.0189 211.908 47.5672Z" fill="#E1E1E1"/>
<path d="M211.908 58.9751C211.908 59.5234 212.353 59.9678 212.901 59.9678C213.449 59.9678 213.893 59.5234 213.893 58.9751C213.893 58.4269 213.449 57.9824 212.901 57.9824C212.353 57.9824 211.908 58.4269 211.908 58.9751Z" fill="#E1E1E1"/>
<path d="M211.908 70.3745C211.908 70.9228 212.353 71.3672 212.901 71.3672C213.449 71.3672 213.893 70.9228 213.893 70.3745C213.893 69.8263 213.449 69.3818 212.901 69.3818C212.353 69.3818 211.908 69.8263 211.908 70.3745Z" fill="#E1E1E1"/>
<path d="M212.901 82.7664C212.355 82.7664 211.908 82.3197 211.908 81.7737C211.908 81.2277 212.355 80.781 212.901 80.781C213.447 80.781 213.893 81.2277 213.893 81.7737C213.893 82.3197 213.447 82.7664 212.901 82.7664Z" fill="#E1E1E1"/>
<path d="M211.908 93.1734C211.908 93.7216 212.353 94.1661 212.901 94.1661C213.449 94.1661 213.893 93.7216 213.893 93.1734C213.893 92.6251 213.449 92.1807 212.901 92.1807C212.353 92.1807 211.908 92.6251 211.908 93.1734Z" fill="#E1E1E1"/>
<path d="M211.908 104.573C211.908 105.121 212.353 105.565 212.901 105.565C213.449 105.565 213.893 105.121 213.893 104.573C213.893 104.025 213.449 103.58 212.901 103.58C212.353 103.58 211.908 104.025 211.908 104.573Z" fill="#E1E1E1"/>
<path d="M211.908 115.972C211.908 116.52 212.353 116.965 212.901 116.965C213.449 116.965 213.893 116.52 213.893 115.972C213.893 115.424 213.449 114.979 212.901 114.979C212.353 114.979 211.908 115.424 211.908 115.972Z" fill="#E1E1E1"/>
<path d="M211.908 127.38C211.908 127.929 212.353 128.373 212.901 128.373C213.449 128.373 213.893 127.929 213.893 127.38C213.893 126.832 213.449 126.388 212.901 126.388C212.353 126.388 211.908 126.832 211.908 127.38Z" fill="#E1E1E1"/>
<path d="M211.908 138.78C211.908 139.328 212.353 139.773 212.901 139.773C213.449 139.773 213.893 139.328 213.893 138.78C213.893 138.232 213.449 137.787 212.901 137.787C212.353 137.787 211.908 138.232 211.908 138.78Z" fill="#E1E1E1"/>
<path d="M211.908 150.179C211.908 150.727 212.353 151.172 212.901 151.172C213.449 151.172 213.893 150.727 213.893 150.179C213.893 149.631 213.449 149.187 212.901 149.187C212.353 149.187 211.908 149.631 211.908 150.179Z" fill="#E1E1E1"/>
<path d="M200.757 1.96926C200.757 2.51751 201.201 2.96196 201.75 2.96196C202.298 2.96196 202.742 2.51751 202.742 1.96926C202.742 1.42101 202.298 0.976562 201.75 0.976562C201.201 0.976562 200.757 1.42101 200.757 1.96926Z" fill="#E1E1E1"/>
<path d="M200.757 13.3687C200.757 13.9169 201.201 14.3614 201.75 14.3614C202.298 14.3614 202.742 13.9169 202.742 13.3687C202.742 12.8204 202.298 12.376 201.75 12.376C201.201 12.376 200.757 12.8204 200.757 13.3687Z" fill="#E1E1E1"/>
<path d="M200.757 24.7683C200.757 25.3166 201.201 25.761 201.75 25.761C202.298 25.761 202.742 25.3166 202.742 24.7683C202.742 24.2201 202.298 23.7756 201.75 23.7756C201.201 23.7756 200.757 24.2201 200.757 24.7683Z" fill="#E1E1E1"/>
<path d="M200.757 36.1677C200.757 36.716 201.201 37.1604 201.75 37.1604C202.298 37.1604 202.742 36.716 202.742 36.1677C202.742 35.6195 202.298 35.175 201.75 35.175C201.201 35.175 200.757 35.6195 200.757 36.1677Z" fill="#E1E1E1"/>
<path d="M200.757 47.5672C200.757 48.1154 201.201 48.5599 201.75 48.5599C202.298 48.5599 202.742 48.1154 202.742 47.5672C202.742 47.0189 202.298 46.5745 201.75 46.5745C201.201 46.5745 200.757 47.0189 200.757 47.5672Z" fill="#E1E1E1"/>
<path d="M200.757 58.9751C200.757 59.5234 201.201 59.9678 201.75 59.9678C202.298 59.9678 202.742 59.5234 202.742 58.9751C202.742 58.4269 202.298 57.9824 201.75 57.9824C201.201 57.9824 200.757 58.4269 200.757 58.9751Z" fill="#E1E1E1"/>
<path d="M200.757 70.3743C200.757 70.9225 201.201 71.367 201.75 71.367C202.298 71.367 202.742 70.9225 202.742 70.3743C202.742 69.826 202.298 69.3816 201.75 69.3816C201.201 69.3816 200.757 69.826 200.757 70.3743Z" fill="#E1E1E1"/>
<path d="M201.75 82.7664C201.204 82.7664 200.757 82.3197 200.757 81.7737C200.757 81.2277 201.204 80.781 201.75 80.781C202.296 80.781 202.742 81.2277 202.742 81.7737C202.742 82.3197 202.296 82.7664 201.75 82.7664Z" fill="#E1E1E1"/>
<path d="M200.757 93.1734C200.757 93.7216 201.201 94.1661 201.75 94.1661C202.298 94.1661 202.742 93.7216 202.742 93.1734C202.742 92.6251 202.298 92.1807 201.75 92.1807C201.201 92.1807 200.757 92.6251 200.757 93.1734Z" fill="#E1E1E1"/>
<path d="M200.757 104.573C200.757 105.121 201.201 105.565 201.75 105.565C202.298 105.565 202.742 105.121 202.742 104.573C202.742 104.025 202.298 103.58 201.75 103.58C201.201 103.58 200.757 104.025 200.757 104.573Z" fill="#E1E1E1"/>
<path d="M200.757 115.972C200.757 116.52 201.201 116.965 201.75 116.965C202.298 116.965 202.742 116.52 202.742 115.972C202.742 115.424 202.298 114.979 201.75 114.979C201.201 114.979 200.757 115.424 200.757 115.972Z" fill="#E1E1E1"/>
<path d="M200.757 127.38C200.757 127.929 201.201 128.373 201.75 128.373C202.298 128.373 202.742 127.929 202.742 127.38C202.742 126.832 202.298 126.388 201.75 126.388C201.201 126.388 200.757 126.832 200.757 127.38Z" fill="#E1E1E1"/>
<path d="M200.757 138.78C200.757 139.328 201.201 139.773 201.75 139.773C202.298 139.773 202.742 139.328 202.742 138.78C202.742 138.232 202.298 137.787 201.75 137.787C201.201 137.787 200.757 138.232 200.757 138.78Z" fill="#E1E1E1"/>
<path d="M200.757 150.179C200.757 150.727 201.201 151.172 201.75 151.172C202.298 151.172 202.742 150.727 202.742 150.179C202.742 149.631 202.298 149.187 201.75 149.187C201.201 149.187 200.757 149.631 200.757 150.179Z" fill="#E1E1E1"/>
<path d="M189.605 1.96926C189.605 2.51751 190.05 2.96196 190.598 2.96196C191.146 2.96196 191.591 2.51751 191.591 1.96926C191.591 1.42101 191.146 0.976562 190.598 0.976562C190.05 0.976562 189.605 1.42101 189.605 1.96926Z" fill="#E1E1E1"/>
<path d="M189.605 13.3687C189.605 13.9169 190.05 14.3614 190.598 14.3614C191.146 14.3614 191.591 13.9169 191.591 13.3687C191.591 12.8204 191.146 12.376 190.598 12.376C190.05 12.376 189.605 12.8204 189.605 13.3687Z" fill="#E1E1E1"/>
<path d="M189.605 24.7683C189.605 25.3166 190.05 25.761 190.598 25.761C191.146 25.761 191.591 25.3166 191.591 24.7683C191.591 24.2201 191.146 23.7756 190.598 23.7756C190.05 23.7756 189.605 24.2201 189.605 24.7683Z" fill="#E1E1E1"/>
<path d="M189.605 36.1677C189.605 36.716 190.05 37.1604 190.598 37.1604C191.146 37.1604 191.591 36.716 191.591 36.1677C191.591 35.6195 191.146 35.175 190.598 35.175C190.05 35.175 189.605 35.6195 189.605 36.1677Z" fill="#E1E1E1"/>
<path d="M189.605 47.5672C189.605 48.1154 190.05 48.5599 190.598 48.5599C191.146 48.5599 191.591 48.1154 191.591 47.5672C191.591 47.0189 191.146 46.5745 190.598 46.5745C190.05 46.5745 189.605 47.0189 189.605 47.5672Z" fill="#E1E1E1"/>
<path d="M189.606 58.9751C189.606 59.5234 190.05 59.9678 190.598 59.9678C191.146 59.9678 191.591 59.5234 191.591 58.9751C191.591 58.4269 191.146 57.9824 190.598 57.9824C190.05 57.9824 189.606 58.4269 189.606 58.9751Z" fill="#E1E1E1"/>
<path d="M189.605 70.3745C189.605 70.9228 190.05 71.3672 190.598 71.3672C191.146 71.3672 191.591 70.9228 191.591 70.3745C191.591 69.8263 191.146 69.3818 190.598 69.3818C190.05 69.3818 189.605 69.8263 189.605 70.3745Z" fill="#E1E1E1"/>
<path d="M190.598 82.7664C190.052 82.7664 189.605 82.3197 189.605 81.7737C189.605 81.2277 190.052 80.781 190.598 80.781C191.144 80.781 191.591 81.2277 191.591 81.7737C191.591 82.3197 191.144 82.7664 190.598 82.7664Z" fill="#E1E1E1"/>
<path d="M189.605 93.1734C189.605 93.7216 190.05 94.1661 190.598 94.1661C191.146 94.1661 191.591 93.7216 191.591 93.1734C191.591 92.6251 191.146 92.1807 190.598 92.1807C190.05 92.1807 189.605 92.6251 189.605 93.1734Z" fill="#E1E1E1"/>
<path d="M189.605 104.573C189.605 105.121 190.05 105.565 190.598 105.565C191.146 105.565 191.591 105.121 191.591 104.573C191.591 104.025 191.146 103.58 190.598 103.58C190.05 103.58 189.605 104.025 189.605 104.573Z" fill="#E1E1E1"/>
<path d="M189.605 115.972C189.605 116.52 190.05 116.965 190.598 116.965C191.146 116.965 191.591 116.52 191.591 115.972C191.591 115.424 191.146 114.979 190.598 114.979C190.05 114.979 189.605 115.424 189.605 115.972Z" fill="#E1E1E1"/>
<path d="M189.605 127.38C189.605 127.929 190.05 128.373 190.598 128.373C191.146 128.373 191.591 127.929 191.591 127.38C191.591 126.832 191.146 126.388 190.598 126.388C190.05 126.388 189.605 126.832 189.605 127.38Z" fill="#E1E1E1"/>
<path d="M189.605 138.78C189.605 139.328 190.05 139.773 190.598 139.773C191.146 139.773 191.591 139.328 191.591 138.78C191.591 138.232 191.146 137.787 190.598 137.787C190.05 137.787 189.605 138.232 189.605 138.78Z" fill="#E1E1E1"/>
<path d="M189.605 150.179C189.605 150.727 190.05 151.172 190.598 151.172C191.146 151.172 191.591 150.727 191.591 150.179C191.591 149.631 191.146 149.187 190.598 149.187C190.05 149.187 189.605 149.631 189.605 150.179Z" fill="#E1E1E1"/>
<path d="M178.454 1.96926C178.454 2.51751 178.899 2.96196 179.447 2.96196C179.995 2.96196 180.44 2.51751 180.44 1.96926C180.44 1.42101 179.995 0.976562 179.447 0.976562C178.899 0.976562 178.454 1.42101 178.454 1.96926Z" fill="#E1E1E1"/>
<path d="M178.454 13.3687C178.454 13.9169 178.899 14.3614 179.447 14.3614C179.995 14.3614 180.44 13.9169 180.44 13.3687C180.44 12.8204 179.995 12.376 179.447 12.376C178.899 12.376 178.454 12.8204 178.454 13.3687Z" fill="#E1E1E1"/>
<path d="M178.454 24.7683C178.454 25.3166 178.899 25.761 179.447 25.761C179.995 25.761 180.44 25.3166 180.44 24.7683C180.44 24.2201 179.995 23.7756 179.447 23.7756C178.899 23.7756 178.454 24.2201 178.454 24.7683Z" fill="#E1E1E1"/>
<path d="M178.454 36.1677C178.454 36.716 178.899 37.1604 179.447 37.1604C179.995 37.1604 180.44 36.716 180.44 36.1677C180.44 35.6195 179.995 35.175 179.447 35.175C178.899 35.175 178.454 35.6195 178.454 36.1677Z" fill="#E1E1E1"/>
<path d="M178.454 47.5672C178.454 48.1154 178.899 48.5599 179.447 48.5599C179.995 48.5599 180.44 48.1154 180.44 47.5672C180.44 47.0189 179.995 46.5745 179.447 46.5745C178.899 46.5745 178.454 47.0189 178.454 47.5672Z" fill="#E1E1E1"/>
<path d="M178.454 58.9751C178.454 59.5234 178.899 59.9678 179.447 59.9678C179.995 59.9678 180.44 59.5234 180.44 58.9751C180.44 58.4269 179.995 57.9824 179.447 57.9824C178.899 57.9824 178.454 58.4269 178.454 58.9751Z" fill="#E1E1E1"/>
<path d="M178.454 70.3745C178.454 70.9228 178.899 71.3672 179.447 71.3672C179.995 71.3672 180.44 70.9228 180.44 70.3745C180.44 69.8263 179.995 69.3818 179.447 69.3818C178.899 69.3818 178.454 69.8263 178.454 70.3745Z" fill="#E1E1E1"/>
<path d="M179.447 82.7664C178.901 82.7664 178.454 82.3197 178.454 81.7737C178.454 81.2277 178.901 80.781 179.447 80.781C179.993 80.781 180.44 81.2277 180.44 81.7737C180.431 82.3197 179.993 82.7664 179.447 82.7664Z" fill="#E1E1E1"/>
<path d="M178.454 93.1734C178.454 93.7216 178.899 94.1661 179.447 94.1661C179.995 94.1661 180.44 93.7216 180.44 93.1734C180.44 92.6251 179.995 92.1807 179.447 92.1807C178.899 92.1807 178.454 92.6251 178.454 93.1734Z" fill="#E1E1E1"/>
<path d="M178.454 104.573C178.454 105.121 178.899 105.565 179.447 105.565C179.995 105.565 180.44 105.121 180.44 104.573C180.44 104.025 179.995 103.58 179.447 103.58C178.899 103.58 178.454 104.025 178.454 104.573Z" fill="#E1E1E1"/>
<path d="M178.454 115.972C178.454 116.52 178.899 116.965 179.447 116.965C179.995 116.965 180.44 116.52 180.44 115.972C180.44 115.424 179.995 114.979 179.447 114.979C178.899 114.979 178.454 115.424 178.454 115.972Z" fill="#E1E1E1"/>
<path d="M178.454 127.38C178.454 127.929 178.899 128.373 179.447 128.373C179.995 128.373 180.44 127.929 180.44 127.38C180.44 126.832 179.995 126.388 179.447 126.388C178.899 126.388 178.454 126.832 178.454 127.38Z" fill="#E1E1E1"/>
<path d="M178.454 138.78C178.454 139.328 178.899 139.773 179.447 139.773C179.995 139.773 180.44 139.328 180.44 138.78C180.44 138.232 179.995 137.787 179.447 137.787C178.899 137.787 178.454 138.232 178.454 138.78Z" fill="#E1E1E1"/>
<path d="M178.454 150.179C178.454 150.727 178.899 151.172 179.447 151.172C179.995 151.172 180.44 150.727 180.44 150.179C180.44 149.631 179.995 149.187 179.447 149.187C178.899 149.187 178.454 149.631 178.454 150.179Z" fill="#E1E1E1"/>
<path d="M168.287 2.96196C167.741 2.96196 167.295 2.51524 167.295 1.96926C167.295 1.42327 167.741 0.976562 168.287 0.976562C168.833 0.976562 169.28 1.42327 169.28 1.96926C169.28 2.51524 168.842 2.96196 168.287 2.96196Z" fill="#E1E1E1"/>
<path d="M168.287 14.3614C167.741 14.3614 167.295 13.9147 167.295 13.3687C167.295 12.8227 167.741 12.376 168.287 12.376C168.833 12.376 169.28 12.8227 169.28 13.3687C169.28 13.9147 168.842 14.3614 168.287 14.3614Z" fill="#E1E1E1"/>
<path d="M168.287 25.761C167.741 25.761 167.295 25.3143 167.295 24.7683C167.295 24.2223 167.741 23.7756 168.287 23.7756C168.833 23.7756 169.28 24.2223 169.28 24.7683C169.28 25.3143 168.842 25.761 168.287 25.761Z" fill="#E1E1E1"/>
<path d="M168.287 37.1604C167.741 37.1604 167.295 36.7137 167.295 36.1677C167.295 35.6218 167.741 35.175 168.287 35.175C168.833 35.175 169.28 35.6218 169.28 36.1677C169.28 36.7137 168.842 37.1604 168.287 37.1604Z" fill="#E1E1E1"/>
<path d="M168.287 48.5599C167.741 48.5599 167.295 48.1131 167.295 47.5672C167.295 47.0212 167.741 46.5745 168.287 46.5745C168.833 46.5745 169.28 47.0212 169.28 47.5672C169.28 48.1214 168.842 48.5599 168.287 48.5599Z" fill="#E1E1E1"/>
<path d="M168.287 59.959C167.741 59.959 167.295 59.5123 167.295 58.9663C167.295 58.4203 167.741 57.9736 168.287 57.9736C168.833 57.9736 169.28 58.4203 169.28 58.9663C169.28 59.5206 168.842 59.959 168.287 59.959Z" fill="#E1E1E1"/>
<path d="M168.287 71.3672C167.741 71.3672 167.295 70.9205 167.295 70.3745C167.295 69.8285 167.741 69.3818 168.287 69.3818C168.833 69.3818 169.28 69.8285 169.28 70.3745C169.28 70.9205 168.842 71.3672 168.287 71.3672Z" fill="#E1E1E1"/>
<path d="M168.287 82.7664C167.741 82.7664 167.295 82.3197 167.295 81.7737C167.295 81.2277 167.741 80.781 168.287 80.781C168.833 80.781 169.28 81.2277 169.28 81.7737C169.28 82.3197 168.842 82.7664 168.287 82.7664Z" fill="#E1E1E1"/>
<path d="M168.287 94.1661C167.741 94.1661 167.295 93.7194 167.295 93.1734C167.295 92.6274 167.741 92.1807 168.287 92.1807C168.833 92.1807 169.28 92.6274 169.28 93.1734C169.28 93.7194 168.842 94.1661 168.287 94.1661Z" fill="#E1E1E1"/>
<path d="M168.287 105.565C167.741 105.565 167.295 105.119 167.295 104.573C167.295 104.027 167.741 103.58 168.287 103.58C168.833 103.58 169.28 104.027 169.28 104.573C169.28 105.119 168.842 105.565 168.287 105.565Z" fill="#E1E1E1"/>
<path d="M168.287 116.965C167.741 116.965 167.295 116.518 167.295 115.972C167.295 115.426 167.741 114.979 168.287 114.979C168.833 114.979 169.28 115.426 169.28 115.972C169.28 116.526 168.842 116.965 168.287 116.965Z" fill="#E1E1E1"/>
<path d="M168.287 128.365C167.741 128.365 167.295 127.918 167.295 127.372C167.295 126.826 167.741 126.379 168.287 126.379C168.833 126.379 169.28 126.826 169.28 127.372C169.28 127.926 168.842 128.365 168.287 128.365Z" fill="#E1E1E1"/>
<path d="M168.287 139.773C167.741 139.773 167.295 139.326 167.295 138.78C167.295 138.234 167.741 137.787 168.287 137.787C168.833 137.787 169.28 138.234 169.28 138.78C169.28 139.326 168.842 139.773 168.287 139.773Z" fill="#E1E1E1"/>
<path d="M168.287 151.172C167.741 151.172 167.295 150.725 167.295 150.179C167.295 149.633 167.741 149.187 168.287 149.187C168.833 149.187 169.28 149.633 169.28 150.179C169.28 150.725 168.842 151.172 168.287 151.172Z" fill="#E1E1E1"/>
<path d="M156.143 1.96926C156.143 2.51751 156.588 2.96196 157.136 2.96196C157.684 2.96196 158.129 2.51751 158.129 1.96926C158.129 1.42101 157.684 0.976562 157.136 0.976562C156.588 0.976562 156.143 1.42101 156.143 1.96926Z" fill="#E1E1E1"/>
<path d="M156.143 13.3687C156.143 13.9169 156.588 14.3614 157.136 14.3614C157.684 14.3614 158.129 13.9169 158.129 13.3687C158.129 12.8204 157.684 12.376 157.136 12.376C156.588 12.376 156.143 12.8204 156.143 13.3687Z" fill="#E1E1E1"/>
<path d="M156.143 24.7683C156.143 25.3166 156.588 25.761 157.136 25.761C157.684 25.761 158.129 25.3166 158.129 24.7683C158.129 24.2201 157.684 23.7756 157.136 23.7756C156.588 23.7756 156.143 24.2201 156.143 24.7683Z" fill="#E1E1E1"/>
<path d="M156.143 36.1677C156.143 36.716 156.588 37.1604 157.136 37.1604C157.684 37.1604 158.129 36.716 158.129 36.1677C158.129 35.6195 157.684 35.175 157.136 35.175C156.588 35.175 156.143 35.6195 156.143 36.1677Z" fill="#E1E1E1"/>
<path d="M156.143 47.5672C156.143 48.1154 156.588 48.5599 157.136 48.5599C157.684 48.5599 158.129 48.1154 158.129 47.5672C158.129 47.0189 157.684 46.5745 157.136 46.5745C156.588 46.5745 156.143 47.0189 156.143 47.5672Z" fill="#E1E1E1"/>
<path d="M156.143 58.9751C156.143 59.5234 156.588 59.9678 157.136 59.9678C157.684 59.9678 158.129 59.5234 158.129 58.9751C158.129 58.4269 157.684 57.9824 157.136 57.9824C156.588 57.9824 156.143 58.4269 156.143 58.9751Z" fill="#E1E1E1"/>
<path d="M156.143 70.3745C156.143 70.9228 156.588 71.3672 157.136 71.3672C157.684 71.3672 158.129 70.9228 158.129 70.3745C158.129 69.8263 157.684 69.3818 157.136 69.3818C156.588 69.3818 156.143 69.8263 156.143 70.3745Z" fill="#E1E1E1"/>
<path d="M157.136 82.7664C156.59 82.7664 156.143 82.3197 156.143 81.7737C156.143 81.2277 156.59 80.781 157.136 80.781C157.682 80.781 158.129 81.2277 158.129 81.7737C158.129 82.3197 157.682 82.7664 157.136 82.7664Z" fill="#E1E1E1"/>
<path d="M156.143 93.1734C156.143 93.7216 156.588 94.1661 157.136 94.1661C157.684 94.1661 158.129 93.7216 158.129 93.1734C158.129 92.6251 157.684 92.1807 157.136 92.1807C156.588 92.1807 156.143 92.6251 156.143 93.1734Z" fill="#E1E1E1"/>
<path d="M156.143 104.573C156.143 105.121 156.588 105.565 157.136 105.565C157.684 105.565 158.129 105.121 158.129 104.573C158.129 104.025 157.684 103.58 157.136 103.58C156.588 103.58 156.143 104.025 156.143 104.573Z" fill="#E1E1E1"/>
<path d="M156.143 115.972C156.143 116.52 156.588 116.965 157.136 116.965C157.684 116.965 158.129 116.52 158.129 115.972C158.129 115.424 157.684 114.979 157.136 114.979C156.588 114.979 156.143 115.424 156.143 115.972Z" fill="#E1E1E1"/>
<path d="M156.143 127.38C156.143 127.929 156.588 128.373 157.136 128.373C157.684 128.373 158.129 127.929 158.129 127.38C158.129 126.832 157.684 126.388 157.136 126.388C156.588 126.388 156.143 126.832 156.143 127.38Z" fill="#E1E1E1"/>
<path d="M156.143 138.78C156.143 139.328 156.588 139.773 157.136 139.773C157.684 139.773 158.129 139.328 158.129 138.78C158.129 138.232 157.684 137.787 157.136 137.787C156.588 137.787 156.143 138.232 156.143 138.78Z" fill="#E1E1E1"/>
<path d="M156.143 150.179C156.143 150.727 156.588 151.172 157.136 151.172C157.684 151.172 158.129 150.727 158.129 150.179C158.129 149.631 157.684 149.187 157.136 149.187C156.588 149.187 156.143 149.631 156.143 150.179Z" fill="#E1E1E1"/>
<path d="M144.992 1.96926C144.992 2.51751 145.436 2.96196 145.985 2.96196C146.533 2.96196 146.977 2.51751 146.977 1.96926C146.977 1.42101 146.533 0.976562 145.985 0.976562C145.436 0.976562 144.992 1.42101 144.992 1.96926Z" fill="#E1E1E1"/>
<path d="M144.992 13.3687C144.992 13.9169 145.436 14.3614 145.985 14.3614C146.533 14.3614 146.977 13.9169 146.977 13.3687C146.977 12.8204 146.533 12.376 145.985 12.376C145.436 12.376 144.992 12.8204 144.992 13.3687Z" fill="#E1E1E1"/>
<path d="M144.992 24.7683C144.992 25.3166 145.436 25.761 145.985 25.761C146.533 25.761 146.977 25.3166 146.977 24.7683C146.977 24.2201 146.533 23.7756 145.985 23.7756C145.436 23.7756 144.992 24.2201 144.992 24.7683Z" fill="#E1E1E1"/>
<path d="M144.992 36.1677C144.992 36.716 145.436 37.1604 145.985 37.1604C146.533 37.1604 146.977 36.716 146.977 36.1677C146.977 35.6195 146.533 35.175 145.985 35.175C145.436 35.175 144.992 35.6195 144.992 36.1677Z" fill="#E1E1E1"/>
<path d="M144.992 47.5672C144.992 48.1154 145.436 48.5599 145.985 48.5599C146.533 48.5599 146.977 48.1154 146.977 47.5672C146.977 47.0189 146.533 46.5745 145.985 46.5745C145.436 46.5745 144.992 47.0189 144.992 47.5672Z" fill="#E1E1E1"/>
<path d="M144.992 58.9751C144.992 59.5234 145.436 59.9678 145.985 59.9678C146.533 59.9678 146.977 59.5234 146.977 58.9751C146.977 58.4269 146.533 57.9824 145.985 57.9824C145.436 57.9824 144.992 58.4269 144.992 58.9751Z" fill="#E1E1E1"/>
<path d="M144.992 70.3745C144.992 70.9228 145.436 71.3672 145.985 71.3672C146.533 71.3672 146.977 70.9228 146.977 70.3745C146.977 69.8263 146.533 69.3818 145.985 69.3818C145.436 69.3818 144.992 69.8263 144.992 70.3745Z" fill="#E1E1E1"/>
<path d="M145.985 82.7664C145.439 82.7664 144.992 82.3197 144.992 81.7737C144.992 81.2277 145.439 80.781 145.985 80.781C146.531 80.781 146.977 81.2277 146.977 81.7737C146.977 82.3197 146.531 82.7664 145.985 82.7664Z" fill="#E1E1E1"/>
<path d="M144.992 93.1734C144.992 93.7216 145.436 94.1661 145.985 94.1661C146.533 94.1661 146.977 93.7216 146.977 93.1734C146.977 92.6251 146.533 92.1807 145.985 92.1807C145.436 92.1807 144.992 92.6251 144.992 93.1734Z" fill="#E1E1E1"/>
<path d="M144.992 104.573C144.992 105.121 145.436 105.565 145.985 105.565C146.533 105.565 146.977 105.121 146.977 104.573C146.977 104.025 146.533 103.58 145.985 103.58C145.436 103.58 144.992 104.025 144.992 104.573Z" fill="#E1E1E1"/>
<path d="M144.992 115.972C144.992 116.52 145.436 116.965 145.985 116.965C146.533 116.965 146.977 116.52 146.977 115.972C146.977 115.424 146.533 114.979 145.985 114.979C145.436 114.979 144.992 115.424 144.992 115.972Z" fill="#E1E1E1"/>
<path d="M144.992 127.38C144.992 127.929 145.436 128.373 145.985 128.373C146.533 128.373 146.977 127.929 146.977 127.38C146.977 126.832 146.533 126.388 145.985 126.388C145.436 126.388 144.992 126.832 144.992 127.38Z" fill="#E1E1E1"/>
<path d="M144.992 138.78C144.992 139.328 145.436 139.773 145.985 139.773C146.533 139.773 146.977 139.328 146.977 138.78C146.977 138.232 146.533 137.787 145.985 137.787C145.436 137.787 144.992 138.232 144.992 138.78Z" fill="#E1E1E1"/>
<path d="M144.992 150.179C144.992 150.727 145.436 151.172 145.985 151.172C146.533 151.172 146.977 150.727 146.977 150.179C146.977 149.631 146.533 149.187 145.985 149.187C145.436 149.187 144.992 149.631 144.992 150.179Z" fill="#E1E1E1"/>
<path d="M133.841 1.96926C133.841 2.51751 134.285 2.96196 134.833 2.96196C135.382 2.96196 135.826 2.51751 135.826 1.96926C135.826 1.42101 135.382 0.976562 134.833 0.976562C134.285 0.976562 133.841 1.42101 133.841 1.96926Z" fill="#E1E1E1"/>
<path d="M133.841 13.3687C133.841 13.9169 134.285 14.3614 134.833 14.3614C135.382 14.3614 135.826 13.9169 135.826 13.3687C135.826 12.8204 135.382 12.376 134.833 12.376C134.285 12.376 133.841 12.8204 133.841 13.3687Z" fill="#E1E1E1"/>
<path d="M133.841 24.7683C133.841 25.3166 134.285 25.761 134.833 25.761C135.382 25.761 135.826 25.3166 135.826 24.7683C135.826 24.2201 135.382 23.7756 134.833 23.7756C134.285 23.7756 133.841 24.2201 133.841 24.7683Z" fill="#E1E1E1"/>
<path d="M133.841 36.1677C133.841 36.716 134.285 37.1604 134.833 37.1604C135.382 37.1604 135.826 36.716 135.826 36.1677C135.826 35.6195 135.382 35.175 134.833 35.175C134.285 35.175 133.841 35.6195 133.841 36.1677Z" fill="#E1E1E1"/>
<path d="M133.841 47.5672C133.841 48.1154 134.285 48.5599 134.833 48.5599C135.382 48.5599 135.826 48.1154 135.826 47.5672C135.826 47.0189 135.382 46.5745 134.833 46.5745C134.285 46.5745 133.841 47.0189 133.841 47.5672Z" fill="#E1E1E1"/>
<path d="M133.841 58.9751C133.841 59.5234 134.285 59.9678 134.833 59.9678C135.382 59.9678 135.826 59.5234 135.826 58.9751C135.826 58.4269 135.382 57.9824 134.833 57.9824C134.285 57.9824 133.841 58.4269 133.841 58.9751Z" fill="#E1E1E1"/>
<path d="M133.841 70.3745C133.841 70.9228 134.285 71.3672 134.833 71.3672C135.382 71.3672 135.826 70.9228 135.826 70.3745C135.826 69.8263 135.382 69.3818 134.833 69.3818C134.285 69.3818 133.841 69.8263 133.841 70.3745Z" fill="#E1E1E1"/>
<path d="M134.833 82.7664C134.287 82.7664 133.841 82.3197 133.841 81.7737C133.841 81.2277 134.287 80.781 134.833 80.781C135.379 80.781 135.826 81.2277 135.826 81.7737C135.826 82.3197 135.379 82.7664 134.833 82.7664Z" fill="#E1E1E1"/>
<path d="M133.841 93.1734C133.841 93.7216 134.285 94.1661 134.833 94.1661C135.382 94.1661 135.826 93.7216 135.826 93.1734C135.826 92.6251 135.382 92.1807 134.833 92.1807C134.285 92.1807 133.841 92.6251 133.841 93.1734Z" fill="#E1E1E1"/>
<path d="M133.841 104.573C133.841 105.121 134.285 105.565 134.833 105.565C135.382 105.565 135.826 105.121 135.826 104.573C135.826 104.025 135.382 103.58 134.833 103.58C134.285 103.58 133.841 104.025 133.841 104.573Z" fill="#E1E1E1"/>
<path d="M133.841 115.972C133.841 116.52 134.285 116.965 134.833 116.965C135.382 116.965 135.826 116.52 135.826 115.972C135.826 115.424 135.382 114.979 134.833 114.979C134.285 114.979 133.841 115.424 133.841 115.972Z" fill="#E1E1E1"/>
<path d="M133.841 127.38C133.841 127.929 134.285 128.373 134.833 128.373C135.382 128.373 135.826 127.929 135.826 127.38C135.826 126.832 135.382 126.388 134.833 126.388C134.285 126.388 133.841 126.832 133.841 127.38Z" fill="#E1E1E1"/>
<path d="M133.841 138.78C133.841 139.328 134.285 139.773 134.833 139.773C135.382 139.773 135.826 139.328 135.826 138.78C135.826 138.232 135.382 137.787 134.833 137.787C134.285 137.787 133.841 138.232 133.841 138.78Z" fill="#E1E1E1"/>
<path d="M133.841 150.179C133.841 150.727 134.285 151.172 134.833 151.172C135.382 151.172 135.826 150.727 135.826 150.179C135.826 149.631 135.382 149.187 134.833 149.187C134.285 149.187 133.841 149.631 133.841 150.179Z" fill="#E1E1E1"/>
<path d="M122.689 1.96926C122.689 2.51751 123.134 2.96196 123.682 2.96196C124.23 2.96196 124.675 2.51751 124.675 1.96926C124.675 1.42101 124.23 0.976562 123.682 0.976562C123.134 0.976562 122.689 1.42101 122.689 1.96926Z" fill="#E1E1E1"/>
<path d="M122.689 13.3687C122.689 13.9169 123.134 14.3614 123.682 14.3614C124.23 14.3614 124.675 13.9169 124.675 13.3687C124.675 12.8204 124.23 12.376 123.682 12.376C123.134 12.376 122.689 12.8204 122.689 13.3687Z" fill="#E1E1E1"/>
<path d="M122.689 24.7683C122.689 25.3166 123.134 25.761 123.682 25.761C124.23 25.761 124.675 25.3166 124.675 24.7683C124.675 24.2201 124.23 23.7756 123.682 23.7756C123.134 23.7756 122.689 24.2201 122.689 24.7683Z" fill="#E1E1E1"/>
<path d="M122.689 36.1677C122.689 36.716 123.134 37.1604 123.682 37.1604C124.23 37.1604 124.675 36.716 124.675 36.1677C124.675 35.6195 124.23 35.175 123.682 35.175C123.134 35.175 122.689 35.6195 122.689 36.1677Z" fill="#E1E1E1"/>
<path d="M122.689 47.5672C122.689 48.1154 123.134 48.5599 123.682 48.5599C124.23 48.5599 124.675 48.1154 124.675 47.5672C124.675 47.0189 124.23 46.5745 123.682 46.5745C123.134 46.5745 122.689 47.0189 122.689 47.5672Z" fill="#E1E1E1"/>
<path d="M122.689 58.9751C122.689 59.5234 123.134 59.9678 123.682 59.9678C124.23 59.9678 124.675 59.5234 124.675 58.9751C124.675 58.4269 124.23 57.9824 123.682 57.9824C123.134 57.9824 122.689 58.4269 122.689 58.9751Z" fill="#E1E1E1"/>
<path d="M122.689 70.3745C122.689 70.9228 123.134 71.3672 123.682 71.3672C124.23 71.3672 124.675 70.9228 124.675 70.3745C124.675 69.8263 124.23 69.3818 123.682 69.3818C123.134 69.3818 122.689 69.8263 122.689 70.3745Z" fill="#E1E1E1"/>
<path d="M123.682 82.7664C123.136 82.7664 122.689 82.3197 122.689 81.7737C122.689 81.2277 123.136 80.781 123.682 80.781C124.228 80.781 124.675 81.2277 124.675 81.7737C124.666 82.3197 124.228 82.7664 123.682 82.7664Z" fill="#E1E1E1"/>
<path d="M122.689 93.1734C122.689 93.7216 123.134 94.1661 123.682 94.1661C124.23 94.1661 124.675 93.7216 124.675 93.1734C124.675 92.6251 124.23 92.1807 123.682 92.1807C123.134 92.1807 122.689 92.6251 122.689 93.1734Z" fill="#E1E1E1"/>
<path d="M122.689 104.573C122.689 105.121 123.134 105.565 123.682 105.565C124.23 105.565 124.675 105.121 124.675 104.573C124.675 104.025 124.23 103.58 123.682 103.58C123.134 103.58 122.689 104.025 122.689 104.573Z" fill="#E1E1E1"/>
<path d="M122.689 115.972C122.689 116.52 123.134 116.965 123.682 116.965C124.23 116.965 124.675 116.52 124.675 115.972C124.675 115.424 124.23 114.979 123.682 114.979C123.134 114.979 122.689 115.424 122.689 115.972Z" fill="#E1E1E1"/>
<path d="M122.689 127.38C122.689 127.929 123.134 128.373 123.682 128.373C124.23 128.373 124.675 127.929 124.675 127.38C124.675 126.832 124.23 126.388 123.682 126.388C123.134 126.388 122.689 126.832 122.689 127.38Z" fill="#E1E1E1"/>
<path d="M122.689 138.78C122.689 139.328 123.134 139.773 123.682 139.773C124.23 139.773 124.675 139.328 124.675 138.78C124.675 138.232 124.23 137.787 123.682 137.787C123.134 137.787 122.689 138.232 122.689 138.78Z" fill="#E1E1E1"/>
<path d="M122.689 150.179C122.689 150.727 123.134 151.172 123.682 151.172C124.23 151.172 124.675 150.727 124.675 150.179C124.675 149.631 124.23 149.187 123.682 149.187C123.134 149.187 122.689 149.631 122.689 150.179Z" fill="#E1E1E1"/>
<path d="M111.53 1.96926C111.53 2.51751 111.974 2.96196 112.522 2.96196C113.071 2.96196 113.515 2.51751 113.515 1.96926C113.515 1.42101 113.071 0.976562 112.522 0.976562C111.974 0.976562 111.53 1.42101 111.53 1.96926Z" fill="#E1E1E1"/>
<path d="M111.53 13.3687C111.53 13.9169 111.974 14.3614 112.522 14.3614C113.071 14.3614 113.515 13.9169 113.515 13.3687C113.515 12.8204 113.071 12.376 112.522 12.376C111.974 12.376 111.53 12.8204 111.53 13.3687Z" fill="#E1E1E1"/>
<path d="M111.53 24.7683C111.53 25.3166 111.974 25.761 112.522 25.761C113.071 25.761 113.515 25.3166 113.515 24.7683C113.515 24.2201 113.071 23.7756 112.522 23.7756C111.974 23.7756 111.53 24.2201 111.53 24.7683Z" fill="#E1E1E1"/>
<path d="M111.53 36.1677C111.53 36.716 111.974 37.1604 112.522 37.1604C113.071 37.1604 113.515 36.716 113.515 36.1677C113.515 35.6195 113.071 35.175 112.522 35.175C111.974 35.175 111.53 35.6195 111.53 36.1677Z" fill="#E1E1E1"/>
<path d="M111.53 47.5672C111.53 48.1154 111.974 48.5599 112.522 48.5599C113.071 48.5599 113.515 48.1154 113.515 47.5672C113.515 47.0189 113.071 46.5745 112.522 46.5745C111.974 46.5745 111.53 47.0189 111.53 47.5672Z" fill="#E1E1E1"/>
<path d="M111.53 58.9751C111.53 59.5234 111.974 59.9678 112.522 59.9678C113.071 59.9678 113.515 59.5234 113.515 58.9751C113.515 58.4269 113.071 57.9824 112.522 57.9824C111.974 57.9824 111.53 58.4269 111.53 58.9751Z" fill="#E1E1E1"/>
<path d="M111.53 70.3745C111.53 70.9228 111.974 71.3672 112.522 71.3672C113.071 71.3672 113.515 70.9228 113.515 70.3745C113.515 69.8263 113.071 69.3818 112.522 69.3818C111.974 69.3818 111.53 69.8263 111.53 70.3745Z" fill="#E1E1E1"/>
<path d="M112.522 82.7664C111.976 82.7664 111.53 82.3197 111.53 81.7737C111.53 81.2277 111.976 80.781 112.522 80.781C113.068 80.781 113.515 81.2277 113.515 81.7737C113.515 82.3197 113.077 82.7664 112.522 82.7664Z" fill="#E1E1E1"/>
<path d="M111.53 93.1734C111.53 93.7216 111.974 94.1661 112.522 94.1661C113.071 94.1661 113.515 93.7216 113.515 93.1734C113.515 92.6251 113.071 92.1807 112.522 92.1807C111.974 92.1807 111.53 92.6251 111.53 93.1734Z" fill="#E1E1E1"/>
<path d="M111.53 104.573C111.53 105.121 111.974 105.565 112.522 105.565C113.071 105.565 113.515 105.121 113.515 104.573C113.515 104.025 113.071 103.58 112.522 103.58C111.974 103.58 111.53 104.025 111.53 104.573Z" fill="#E1E1E1"/>
<path d="M111.53 115.972C111.53 116.52 111.974 116.965 112.522 116.965C113.071 116.965 113.515 116.52 113.515 115.972C113.515 115.424 113.071 114.979 112.522 114.979C111.974 114.979 111.53 115.424 111.53 115.972Z" fill="#E1E1E1"/>
<path d="M111.53 127.38C111.53 127.929 111.974 128.373 112.522 128.373C113.071 128.373 113.515 127.929 113.515 127.38C113.515 126.832 113.071 126.388 112.522 126.388C111.974 126.388 111.53 126.832 111.53 127.38Z" fill="#E1E1E1"/>
<path d="M111.53 138.78C111.53 139.328 111.974 139.773 112.522 139.773C113.071 139.773 113.515 139.328 113.515 138.78C113.515 138.232 113.071 137.787 112.522 137.787C111.974 137.787 111.53 138.232 111.53 138.78Z" fill="#E1E1E1"/>
<path d="M111.53 150.179C111.53 150.727 111.974 151.172 112.522 151.172C113.071 151.172 113.515 150.727 113.515 150.179C113.515 149.631 113.071 149.187 112.522 149.187C111.974 149.187 111.53 149.631 111.53 150.179Z" fill="#E1E1E1"/>
<path d="M100.378 1.96926C100.378 2.51751 100.823 2.96196 101.371 2.96196C101.919 2.96196 102.364 2.51751 102.364 1.96926C102.364 1.42101 101.919 0.976562 101.371 0.976562C100.823 0.976562 100.378 1.42101 100.378 1.96926Z" fill="#E1E1E1"/>
<path d="M100.378 13.3687C100.378 13.9169 100.823 14.3614 101.371 14.3614C101.919 14.3614 102.364 13.9169 102.364 13.3687C102.364 12.8204 101.919 12.376 101.371 12.376C100.823 12.376 100.378 12.8204 100.378 13.3687Z" fill="#E1E1E1"/>
<path d="M100.378 24.7683C100.378 25.3166 100.823 25.761 101.371 25.761C101.919 25.761 102.364 25.3166 102.364 24.7683C102.364 24.2201 101.919 23.7756 101.371 23.7756C100.823 23.7756 100.378 24.2201 100.378 24.7683Z" fill="#E1E1E1"/>
<path d="M100.378 36.1677C100.378 36.716 100.823 37.1604 101.371 37.1604C101.919 37.1604 102.364 36.716 102.364 36.1677C102.364 35.6195 101.919 35.175 101.371 35.175C100.823 35.175 100.378 35.6195 100.378 36.1677Z" fill="#E1E1E1"/>
<path d="M100.378 47.5672C100.378 48.1154 100.823 48.5599 101.371 48.5599C101.919 48.5599 102.364 48.1154 102.364 47.5672C102.364 47.0189 101.919 46.5745 101.371 46.5745C100.823 46.5745 100.378 47.0189 100.378 47.5672Z" fill="#E1E1E1"/>
<path d="M100.378 58.9751C100.378 59.5234 100.823 59.9678 101.371 59.9678C101.919 59.9678 102.364 59.5234 102.364 58.9751C102.364 58.4269 101.919 57.9824 101.371 57.9824C100.823 57.9824 100.378 58.4269 100.378 58.9751Z" fill="#E1E1E1"/>
<path d="M100.378 70.3745C100.378 70.9228 100.823 71.3672 101.371 71.3672C101.919 71.3672 102.364 70.9228 102.364 70.3745C102.364 69.8263 101.919 69.3818 101.371 69.3818C100.823 69.3818 100.378 69.8263 100.378 70.3745Z" fill="#E1E1E1"/>
<path d="M101.371 82.7664C100.825 82.7664 100.378 82.3197 100.378 81.7737C100.378 81.2277 100.825 80.781 101.371 80.781C101.917 80.781 102.364 81.2277 102.364 81.7737C102.364 82.3197 101.917 82.7664 101.371 82.7664Z" fill="#E1E1E1"/>
<path d="M100.378 93.1734C100.378 93.7216 100.823 94.1661 101.371 94.1661C101.919 94.1661 102.364 93.7216 102.364 93.1734C102.364 92.6251 101.919 92.1807 101.371 92.1807C100.823 92.1807 100.378 92.6251 100.378 93.1734Z" fill="#E1E1E1"/>
<path d="M100.378 104.573C100.378 105.121 100.823 105.565 101.371 105.565C101.919 105.565 102.364 105.121 102.364 104.573C102.364 104.025 101.919 103.58 101.371 103.58C100.823 103.58 100.378 104.025 100.378 104.573Z" fill="#E1E1E1"/>
<path d="M100.378 115.972C100.378 116.52 100.823 116.965 101.371 116.965C101.919 116.965 102.364 116.52 102.364 115.972C102.364 115.424 101.919 114.979 101.371 114.979C100.823 114.979 100.378 115.424 100.378 115.972Z" fill="#E1E1E1"/>
<path d="M100.378 127.38C100.378 127.929 100.823 128.373 101.371 128.373C101.919 128.373 102.364 127.929 102.364 127.38C102.364 126.832 101.919 126.388 101.371 126.388C100.823 126.388 100.378 126.832 100.378 127.38Z" fill="#E1E1E1"/>
<path d="M100.378 138.78C100.378 139.328 100.823 139.773 101.371 139.773C101.919 139.773 102.364 139.328 102.364 138.78C102.364 138.232 101.919 137.787 101.371 137.787C100.823 137.787 100.378 138.232 100.378 138.78Z" fill="#E1E1E1"/>
<path d="M100.378 150.179C100.378 150.727 100.823 151.172 101.371 151.172C101.919 151.172 102.364 150.727 102.364 150.179C102.364 149.631 101.919 149.187 101.371 149.187C100.823 149.187 100.378 149.631 100.378 150.179Z" fill="#E1E1E1"/>
<path d="M89.2271 1.96926C89.2271 2.51751 89.6715 2.96196 90.2198 2.96196C90.768 2.96196 91.2125 2.51751 91.2125 1.96926C91.2125 1.42101 90.768 0.976562 90.2198 0.976562C89.6715 0.976562 89.2271 1.42101 89.2271 1.96926Z" fill="#E1E1E1"/>
<path d="M89.2271 13.3687C89.2271 13.9169 89.6715 14.3614 90.2198 14.3614C90.768 14.3614 91.2125 13.9169 91.2125 13.3687C91.2125 12.8204 90.768 12.376 90.2198 12.376C89.6715 12.376 89.2271 12.8204 89.2271 13.3687Z" fill="#E1E1E1"/>
<path d="M89.2271 24.7683C89.2271 25.3166 89.6715 25.761 90.2198 25.761C90.768 25.761 91.2125 25.3166 91.2125 24.7683C91.2125 24.2201 90.768 23.7756 90.2198 23.7756C89.6715 23.7756 89.2271 24.2201 89.2271 24.7683Z" fill="#E1E1E1"/>
<path d="M89.2271 36.1677C89.2271 36.716 89.6715 37.1604 90.2198 37.1604C90.768 37.1604 91.2125 36.716 91.2125 36.1677C91.2125 35.6195 90.768 35.175 90.2198 35.175C89.6715 35.175 89.2271 35.6195 89.2271 36.1677Z" fill="#E1E1E1"/>
<path d="M89.2271 47.5672C89.2271 48.1154 89.6715 48.5599 90.2198 48.5599C90.768 48.5599 91.2125 48.1154 91.2125 47.5672C91.2125 47.0189 90.768 46.5745 90.2198 46.5745C89.6715 46.5745 89.2271 47.0189 89.2271 47.5672Z" fill="#E1E1E1"/>
<path d="M89.2271 58.9751C89.2271 59.5234 89.6715 59.9678 90.2198 59.9678C90.768 59.9678 91.2125 59.5234 91.2125 58.9751C91.2125 58.4269 90.768 57.9824 90.2198 57.9824C89.6715 57.9824 89.2271 58.4269 89.2271 58.9751Z" fill="#E1E1E1"/>
<path d="M89.2271 70.3745C89.2271 70.9228 89.6715 71.3672 90.2198 71.3672C90.768 71.3672 91.2125 70.9228 91.2125 70.3745C91.2125 69.8263 90.768 69.3818 90.2198 69.3818C89.6715 69.3818 89.2271 69.8263 89.2271 70.3745Z" fill="#E1E1E1"/>
<path d="M90.2198 82.7664C89.6738 82.7664 89.2271 82.3197 89.2271 81.7737C89.2271 81.2277 89.6738 80.781 90.2198 80.781C90.7658 80.781 91.2125 81.2277 91.2125 81.7737C91.2125 82.3197 90.7658 82.7664 90.2198 82.7664Z" fill="#E1E1E1"/>
<path d="M89.2271 93.1734C89.2271 93.7216 89.6715 94.1661 90.2198 94.1661C90.768 94.1661 91.2125 93.7216 91.2125 93.1734C91.2125 92.6251 90.768 92.1807 90.2198 92.1807C89.6715 92.1807 89.2271 92.6251 89.2271 93.1734Z" fill="#E1E1E1"/>
<path d="M89.2271 104.573C89.2271 105.121 89.6715 105.565 90.2198 105.565C90.768 105.565 91.2125 105.121 91.2125 104.573C91.2125 104.025 90.768 103.58 90.2198 103.58C89.6715 103.58 89.2271 104.025 89.2271 104.573Z" fill="#E1E1E1"/>
<path d="M89.2271 115.972C89.2271 116.52 89.6715 116.965 90.2198 116.965C90.768 116.965 91.2125 116.52 91.2125 115.972C91.2125 115.424 90.768 114.979 90.2198 114.979C89.6715 114.979 89.2271 115.424 89.2271 115.972Z" fill="#E1E1E1"/>
<path d="M89.2271 127.38C89.2271 127.929 89.6715 128.373 90.2198 128.373C90.768 128.373 91.2125 127.929 91.2125 127.38C91.2125 126.832 90.768 126.388 90.2198 126.388C89.6715 126.388 89.2271 126.832 89.2271 127.38Z" fill="#E1E1E1"/>
<path d="M89.2271 138.78C89.2271 139.328 89.6715 139.773 90.2198 139.773C90.768 139.773 91.2125 139.328 91.2125 138.78C91.2125 138.232 90.768 137.787 90.2198 137.787C89.6715 137.787 89.2271 138.232 89.2271 138.78Z" fill="#E1E1E1"/>
<path d="M89.2271 150.179C89.2271 150.727 89.6715 151.172 90.2198 151.172C90.768 151.172 91.2125 150.727 91.2125 150.179C91.2125 149.631 90.768 149.187 90.2198 149.187C89.6715 149.187 89.2271 149.631 89.2271 150.179Z" fill="#E1E1E1"/>
<path d="M78.0758 1.96926C78.0758 2.51751 78.5202 2.96196 79.0685 2.96196C79.6168 2.96196 80.0612 2.51751 80.0612 1.96926C80.0612 1.42101 79.6168 0.976562 79.0685 0.976562C78.5202 0.976562 78.0758 1.42101 78.0758 1.96926Z" fill="#E1E1E1"/>
<path d="M78.0758 13.3687C78.0758 13.9169 78.5202 14.3614 79.0685 14.3614C79.6167 14.3614 80.0611 13.9169 80.0611 13.3687C80.0611 12.8204 79.6167 12.376 79.0685 12.376C78.5202 12.376 78.0758 12.8204 78.0758 13.3687Z" fill="#E1E1E1"/>
<path d="M78.0758 24.7683C78.0758 25.3166 78.5202 25.761 79.0685 25.761C79.6167 25.761 80.0611 25.3166 80.0611 24.7683C80.0611 24.2201 79.6167 23.7756 79.0685 23.7756C78.5202 23.7756 78.0758 24.2201 78.0758 24.7683Z" fill="#E1E1E1"/>
<path d="M78.0758 36.1677C78.0758 36.716 78.5202 37.1604 79.0685 37.1604C79.6167 37.1604 80.0611 36.716 80.0611 36.1677C80.0611 35.6195 79.6167 35.175 79.0685 35.175C78.5202 35.175 78.0758 35.6195 78.0758 36.1677Z" fill="#E1E1E1"/>
<path d="M78.0758 47.5672C78.0758 48.1154 78.5202 48.5599 79.0685 48.5599C79.6167 48.5599 80.0611 48.1154 80.0611 47.5672C80.0611 47.0189 79.6167 46.5745 79.0685 46.5745C78.5202 46.5745 78.0758 47.0189 78.0758 47.5672Z" fill="#E1E1E1"/>
<path d="M78.0758 58.9751C78.0758 59.5234 78.5202 59.9678 79.0685 59.9678C79.6167 59.9678 80.0611 59.5234 80.0611 58.9751C80.0611 58.4269 79.6167 57.9824 79.0685 57.9824C78.5202 57.9824 78.0758 58.4269 78.0758 58.9751Z" fill="#E1E1E1"/>
<path d="M78.0758 70.3745C78.0758 70.9228 78.5202 71.3672 79.0685 71.3672C79.6167 71.3672 80.0611 70.9228 80.0611 70.3745C80.0611 69.8263 79.6167 69.3818 79.0685 69.3818C78.5202 69.3818 78.0758 69.8263 78.0758 70.3745Z" fill="#E1E1E1"/>
<path d="M79.0685 82.7664C78.5225 82.7664 78.0758 82.3197 78.0758 81.7737C78.0758 81.2277 78.5225 80.781 79.0685 80.781C79.6145 80.781 80.0611 81.2277 80.0611 81.7737C80.0611 82.3197 79.6145 82.7664 79.0685 82.7664Z" fill="#E1E1E1"/>
<path d="M78.0758 93.1734C78.0758 93.7216 78.5202 94.1661 79.0685 94.1661C79.6167 94.1661 80.0611 93.7216 80.0611 93.1734C80.0611 92.6251 79.6167 92.1807 79.0685 92.1807C78.5202 92.1807 78.0758 92.6251 78.0758 93.1734Z" fill="#E1E1E1"/>
<path d="M78.0758 104.573C78.0758 105.121 78.5202 105.565 79.0685 105.565C79.6167 105.565 80.0611 105.121 80.0611 104.573C80.0611 104.025 79.6167 103.58 79.0685 103.58C78.5202 103.58 78.0758 104.025 78.0758 104.573Z" fill="#E1E1E1"/>
<path d="M78.0758 115.972C78.0758 116.52 78.5202 116.965 79.0685 116.965C79.6167 116.965 80.0611 116.52 80.0611 115.972C80.0611 115.424 79.6167 114.979 79.0685 114.979C78.5202 114.979 78.0758 115.424 78.0758 115.972Z" fill="#E1E1E1"/>
<path d="M78.0758 127.38C78.0758 127.929 78.5202 128.373 79.0685 128.373C79.6167 128.373 80.0611 127.929 80.0611 127.38C80.0611 126.832 79.6167 126.388 79.0685 126.388C78.5202 126.388 78.0758 126.832 78.0758 127.38Z" fill="#E1E1E1"/>
<path d="M78.0758 138.78C78.0758 139.328 78.5202 139.773 79.0685 139.773C79.6167 139.773 80.0611 139.328 80.0611 138.78C80.0611 138.232 79.6167 137.787 79.0685 137.787C78.5202 137.787 78.0758 138.232 78.0758 138.78Z" fill="#E1E1E1"/>
<path d="M78.0758 150.179C78.0758 150.727 78.5202 151.172 79.0685 151.172C79.6167 151.172 80.0611 150.727 80.0611 150.179C80.0611 149.631 79.6167 149.187 79.0685 149.187C78.5202 149.187 78.0758 149.631 78.0758 150.179Z" fill="#E1E1E1"/>
<path d="M66.9245 1.96926C66.9245 2.51751 67.3689 2.96196 67.9171 2.96196C68.4654 2.96196 68.9099 2.51751 68.9099 1.96926C68.9099 1.42101 68.4654 0.976562 67.9171 0.976562C67.3689 0.976562 66.9245 1.42101 66.9245 1.96926Z" fill="#E1E1E1"/>
<path d="M66.9245 13.3687C66.9245 13.9169 67.3689 14.3614 67.9171 14.3614C68.4654 14.3614 68.9099 13.9169 68.9099 13.3687C68.9099 12.8204 68.4654 12.376 67.9171 12.376C67.3689 12.376 66.9245 12.8204 66.9245 13.3687Z" fill="#E1E1E1"/>
<path d="M66.9245 24.7683C66.9245 25.3166 67.3689 25.761 67.9171 25.761C68.4654 25.761 68.9099 25.3166 68.9099 24.7683C68.9099 24.2201 68.4654 23.7756 67.9171 23.7756C67.3689 23.7756 66.9245 24.2201 66.9245 24.7683Z" fill="#E1E1E1"/>
<path d="M66.9245 36.1677C66.9245 36.716 67.3689 37.1604 67.9171 37.1604C68.4654 37.1604 68.9099 36.716 68.9099 36.1677C68.9099 35.6195 68.4654 35.175 67.9171 35.175C67.3689 35.175 66.9245 35.6195 66.9245 36.1677Z" fill="#E1E1E1"/>
<path d="M66.9245 47.5672C66.9245 48.1154 67.3689 48.5599 67.9171 48.5599C68.4654 48.5599 68.9099 48.1154 68.9099 47.5672C68.9099 47.0189 68.4654 46.5745 67.9171 46.5745C67.3689 46.5745 66.9245 47.0189 66.9245 47.5672Z" fill="#E1E1E1"/>
<path d="M66.9245 58.9751C66.9245 59.5234 67.3689 59.9678 67.9171 59.9678C68.4654 59.9678 68.9099 59.5234 68.9099 58.9751C68.9099 58.4269 68.4654 57.9824 67.9171 57.9824C67.3689 57.9824 66.9245 58.4269 66.9245 58.9751Z" fill="#E1E1E1"/>
<path d="M66.9245 70.3743C66.9245 70.9225 67.3689 71.367 67.9171 71.367C68.4654 71.367 68.9099 70.9225 68.9099 70.3743C68.9099 69.826 68.4654 69.3816 67.9171 69.3816C67.3689 69.3816 66.9245 69.826 66.9245 70.3743Z" fill="#E1E1E1"/>
<path d="M67.9171 82.7664C67.3712 82.7664 66.9245 82.3197 66.9245 81.7737C66.9245 81.2277 67.3712 80.781 67.9171 80.781C68.4631 80.781 68.9099 81.2277 68.9099 81.7737C68.9016 82.3197 68.4631 82.7664 67.9171 82.7664Z" fill="#E1E1E1"/>
<path d="M66.9245 93.1734C66.9245 93.7216 67.3689 94.1661 67.9171 94.1661C68.4654 94.1661 68.9099 93.7216 68.9099 93.1734C68.9099 92.6251 68.4654 92.1807 67.9171 92.1807C67.3689 92.1807 66.9245 92.6251 66.9245 93.1734Z" fill="#E1E1E1"/>
<path d="M66.9245 104.573C66.9245 105.121 67.3689 105.565 67.9171 105.565C68.4654 105.565 68.9099 105.121 68.9099 104.573C68.9099 104.025 68.4654 103.58 67.9171 103.58C67.3689 103.58 66.9245 104.025 66.9245 104.573Z" fill="#E1E1E1"/>
<path d="M66.9245 115.972C66.9245 116.52 67.3689 116.965 67.9171 116.965C68.4654 116.965 68.9099 116.52 68.9099 115.972C68.9099 115.424 68.4654 114.979 67.9171 114.979C67.3689 114.979 66.9245 115.424 66.9245 115.972Z" fill="#E1E1E1"/>
<path d="M66.9245 127.38C66.9245 127.929 67.3689 128.373 67.9171 128.373C68.4654 128.373 68.9099 127.929 68.9099 127.38C68.9099 126.832 68.4654 126.388 67.9171 126.388C67.3689 126.388 66.9245 126.832 66.9245 127.38Z" fill="#E1E1E1"/>
<path d="M66.9245 138.78C66.9245 139.328 67.3689 139.773 67.9171 139.773C68.4654 139.773 68.9099 139.328 68.9099 138.78C68.9099 138.232 68.4654 137.787 67.9171 137.787C67.3689 137.787 66.9245 138.232 66.9245 138.78Z" fill="#E1E1E1"/>
<path d="M66.9245 150.179C66.9245 150.727 67.3689 151.172 67.9171 151.172C68.4654 151.172 68.9099 150.727 68.9099 150.179C68.9099 149.631 68.4654 149.187 67.9171 149.187C67.3689 149.187 66.9245 149.631 66.9245 150.179Z" fill="#E1E1E1"/>
<path d="M55.7648 1.96926C55.7648 2.51751 56.2093 2.96196 56.7575 2.96196C57.3058 2.96196 57.7502 2.51751 57.7502 1.96926C57.7502 1.42101 57.3058 0.976562 56.7575 0.976562C56.2093 0.976562 55.7648 1.42101 55.7648 1.96926Z" fill="#E1E1E1"/>
<path d="M55.7648 13.3687C55.7648 13.9169 56.2093 14.3614 56.7575 14.3614C57.3058 14.3614 57.7502 13.9169 57.7502 13.3687C57.7502 12.8204 57.3058 12.376 56.7575 12.376C56.2093 12.376 55.7648 12.8204 55.7648 13.3687Z" fill="#E1E1E1"/>
<path d="M55.7648 24.7683C55.7648 25.3166 56.2093 25.761 56.7575 25.761C57.3058 25.761 57.7502 25.3166 57.7502 24.7683C57.7502 24.2201 57.3058 23.7756 56.7575 23.7756C56.2093 23.7756 55.7648 24.2201 55.7648 24.7683Z" fill="#E1E1E1"/>
<path d="M55.7648 36.1677C55.7648 36.716 56.2093 37.1604 56.7575 37.1604C57.3058 37.1604 57.7502 36.716 57.7502 36.1677C57.7502 35.6195 57.3058 35.175 56.7575 35.175C56.2093 35.175 55.7648 35.6195 55.7648 36.1677Z" fill="#E1E1E1"/>
<path d="M55.7648 47.5672C55.7648 48.1154 56.2093 48.5599 56.7575 48.5599C57.3058 48.5599 57.7502 48.1154 57.7502 47.5672C57.7502 47.0189 57.3058 46.5745 56.7575 46.5745C56.2093 46.5745 55.7648 47.0189 55.7648 47.5672Z" fill="#E1E1E1"/>
<path d="M55.7648 58.9751C55.7648 59.5234 56.2093 59.9678 56.7575 59.9678C57.3058 59.9678 57.7502 59.5234 57.7502 58.9751C57.7502 58.4269 57.3058 57.9824 56.7575 57.9824C56.2093 57.9824 55.7648 58.4269 55.7648 58.9751Z" fill="#E1E1E1"/>
<path d="M55.7648 70.3743C55.7648 70.9225 56.2093 71.367 56.7575 71.367C57.3058 71.367 57.7502 70.9225 57.7502 70.3743C57.7502 69.826 57.3058 69.3816 56.7575 69.3816C56.2093 69.3816 55.7648 69.826 55.7648 70.3743Z" fill="#E1E1E1"/>
<path d="M56.7575 82.7664C56.2116 82.7664 55.7648 82.3197 55.7648 81.7737C55.7648 81.2277 56.2116 80.781 56.7575 80.781C57.3035 80.781 57.7502 81.2277 57.7502 81.7737C57.7502 82.3197 57.3118 82.7664 56.7575 82.7664Z" fill="#E1E1E1"/>
<path d="M55.7648 93.1734C55.7648 93.7216 56.2093 94.1661 56.7575 94.1661C57.3058 94.1661 57.7502 93.7216 57.7502 93.1734C57.7502 92.6251 57.3058 92.1807 56.7575 92.1807C56.2093 92.1807 55.7648 92.6251 55.7648 93.1734Z" fill="#E1E1E1"/>
<path d="M55.7648 104.573C55.7648 105.121 56.2093 105.565 56.7575 105.565C57.3058 105.565 57.7502 105.121 57.7502 104.573C57.7502 104.025 57.3058 103.58 56.7575 103.58C56.2093 103.58 55.7648 104.025 55.7648 104.573Z" fill="#E1E1E1"/>
<path d="M55.7648 115.972C55.7648 116.52 56.2093 116.965 56.7575 116.965C57.3058 116.965 57.7502 116.52 57.7502 115.972C57.7502 115.424 57.3058 114.979 56.7575 114.979C56.2093 114.979 55.7648 115.424 55.7648 115.972Z" fill="#E1E1E1"/>
<path d="M55.7648 127.38C55.7648 127.929 56.2093 128.373 56.7575 128.373C57.3058 128.373 57.7502 127.929 57.7502 127.38C57.7502 126.832 57.3058 126.388 56.7575 126.388C56.2093 126.388 55.7648 126.832 55.7648 127.38Z" fill="#E1E1E1"/>
<path d="M55.7648 138.78C55.7648 139.328 56.2093 139.773 56.7575 139.773C57.3058 139.773 57.7502 139.328 57.7502 138.78C57.7502 138.232 57.3058 137.787 56.7575 137.787C56.2093 137.787 55.7648 138.232 55.7648 138.78Z" fill="#E1E1E1"/>
<path d="M55.7648 150.179C55.7648 150.727 56.2093 151.172 56.7575 151.172C57.3058 151.172 57.7502 150.727 57.7502 150.179C57.7502 149.631 57.3058 149.187 56.7575 149.187C56.2093 149.187 55.7648 149.631 55.7648 150.179Z" fill="#E1E1E1"/>
<path d="M44.6135 1.96926C44.6135 2.51751 45.058 2.96196 45.6062 2.96196C46.1545 2.96196 46.5989 2.51751 46.5989 1.96926C46.5989 1.42101 46.1545 0.976562 45.6062 0.976562C45.058 0.976562 44.6135 1.42101 44.6135 1.96926Z" fill="#E1E1E1"/>
<path d="M44.6135 13.3687C44.6135 13.9169 45.058 14.3614 45.6062 14.3614C46.1545 14.3614 46.5989 13.9169 46.5989 13.3687C46.5989 12.8204 46.1545 12.376 45.6062 12.376C45.058 12.376 44.6135 12.8204 44.6135 13.3687Z" fill="#E1E1E1"/>
<path d="M44.6135 24.7683C44.6135 25.3166 45.058 25.761 45.6062 25.761C46.1545 25.761 46.5989 25.3166 46.5989 24.7683C46.5989 24.2201 46.1545 23.7756 45.6062 23.7756C45.058 23.7756 44.6135 24.2201 44.6135 24.7683Z" fill="#E1E1E1"/>
<path d="M44.6135 36.1677C44.6135 36.716 45.058 37.1604 45.6062 37.1604C46.1545 37.1604 46.5989 36.716 46.5989 36.1677C46.5989 35.6195 46.1545 35.175 45.6062 35.175C45.058 35.175 44.6135 35.6195 44.6135 36.1677Z" fill="#E1E1E1"/>
<path d="M44.6135 47.5672C44.6135 48.1154 45.058 48.5599 45.6062 48.5599C46.1545 48.5599 46.5989 48.1154 46.5989 47.5672C46.5989 47.0189 46.1545 46.5745 45.6062 46.5745C45.058 46.5745 44.6135 47.0189 44.6135 47.5672Z" fill="#E1E1E1"/>
<path d="M44.6135 58.9751C44.6135 59.5234 45.058 59.9678 45.6062 59.9678C46.1545 59.9678 46.5989 59.5234 46.5989 58.9751C46.5989 58.4269 46.1545 57.9824 45.6062 57.9824C45.058 57.9824 44.6135 58.4269 44.6135 58.9751Z" fill="#E1E1E1"/>
<path d="M44.6135 70.3743C44.6135 70.9225 45.058 71.367 45.6062 71.367C46.1545 71.367 46.5989 70.9225 46.5989 70.3743C46.5989 69.826 46.1545 69.3816 45.6062 69.3816C45.058 69.3816 44.6135 69.826 44.6135 70.3743Z" fill="#E1E1E1"/>
<path d="M45.6062 82.7664C45.0602 82.7664 44.6135 82.3197 44.6135 81.7737C44.6135 81.2277 45.0602 80.781 45.6062 80.781C46.1522 80.781 46.5989 81.2277 46.5989 81.7737C46.5989 82.3197 46.1522 82.7664 45.6062 82.7664Z" fill="#E1E1E1"/>
<path d="M44.6135 93.1734C44.6135 93.7216 45.058 94.1661 45.6062 94.1661C46.1545 94.1661 46.5989 93.7216 46.5989 93.1734C46.5989 92.6251 46.1545 92.1807 45.6062 92.1807C45.058 92.1807 44.6135 92.6251 44.6135 93.1734Z" fill="#E1E1E1"/>
<path d="M44.6135 104.573C44.6135 105.121 45.058 105.565 45.6062 105.565C46.1545 105.565 46.5989 105.121 46.5989 104.573C46.5989 104.025 46.1545 103.58 45.6062 103.58C45.058 103.58 44.6135 104.025 44.6135 104.573Z" fill="#E1E1E1"/>
<path d="M44.6135 115.972C44.6135 116.52 45.058 116.965 45.6062 116.965C46.1545 116.965 46.5989 116.52 46.5989 115.972C46.5989 115.424 46.1545 114.979 45.6062 114.979C45.058 114.979 44.6135 115.424 44.6135 115.972Z" fill="#E1E1E1"/>
<path d="M44.6135 127.38C44.6135 127.929 45.058 128.373 45.6062 128.373C46.1545 128.373 46.5989 127.929 46.5989 127.38C46.5989 126.832 46.1545 126.388 45.6062 126.388C45.058 126.388 44.6135 126.832 44.6135 127.38Z" fill="#E1E1E1"/>
<path d="M44.6135 138.78C44.6135 139.328 45.058 139.773 45.6062 139.773C46.1545 139.773 46.5989 139.328 46.5989 138.78C46.5989 138.232 46.1545 137.787 45.6062 137.787C45.058 137.787 44.6135 138.232 44.6135 138.78Z" fill="#E1E1E1"/>
<path d="M44.6135 150.179C44.6135 150.727 45.058 151.172 45.6062 151.172C46.1545 151.172 46.5989 150.727 46.5989 150.179C46.5989 149.631 46.1545 149.187 45.6062 149.187C45.058 149.187 44.6135 149.631 44.6135 150.179Z" fill="#E1E1E1"/>
<path d="M33.4623 1.96926C33.4623 2.51751 33.9067 2.96196 34.455 2.96196C35.0032 2.96196 35.4476 2.51751 35.4476 1.96926C35.4476 1.42101 35.0032 0.976562 34.455 0.976562C33.9067 0.976562 33.4623 1.42101 33.4623 1.96926Z" fill="#E1E1E1"/>
<path d="M33.4622 13.3687C33.4622 13.9169 33.9067 14.3614 34.4549 14.3614C35.0032 14.3614 35.4476 13.9169 35.4476 13.3687C35.4476 12.8204 35.0032 12.376 34.4549 12.376C33.9067 12.376 33.4622 12.8204 33.4622 13.3687Z" fill="#E1E1E1"/>
<path d="M33.4622 24.7683C33.4622 25.3166 33.9067 25.761 34.4549 25.761C35.0032 25.761 35.4476 25.3166 35.4476 24.7683C35.4476 24.2201 35.0032 23.7756 34.4549 23.7756C33.9067 23.7756 33.4622 24.2201 33.4622 24.7683Z" fill="#E1E1E1"/>
<path d="M33.4622 36.1677C33.4622 36.716 33.9067 37.1604 34.4549 37.1604C35.0032 37.1604 35.4476 36.716 35.4476 36.1677C35.4476 35.6195 35.0032 35.175 34.4549 35.175C33.9067 35.175 33.4622 35.6195 33.4622 36.1677Z" fill="#E1E1E1"/>
<path d="M33.4622 47.5672C33.4622 48.1154 33.9067 48.5599 34.4549 48.5599C35.0032 48.5599 35.4476 48.1154 35.4476 47.5672C35.4476 47.0189 35.0032 46.5745 34.4549 46.5745C33.9067 46.5745 33.4622 47.0189 33.4622 47.5672Z" fill="#E1E1E1"/>
<path d="M33.4622 58.9751C33.4622 59.5234 33.9067 59.9678 34.4549 59.9678C35.0032 59.9678 35.4476 59.5234 35.4476 58.9751C35.4476 58.4269 35.0032 57.9824 34.4549 57.9824C33.9067 57.9824 33.4622 58.4269 33.4622 58.9751Z" fill="#E1E1E1"/>
<path d="M33.4622 70.3743C33.4622 70.9225 33.9067 71.367 34.4549 71.367C35.0032 71.367 35.4476 70.9225 35.4476 70.3743C35.4476 69.826 35.0032 69.3816 34.4549 69.3816C33.9067 69.3816 33.4622 69.826 33.4622 70.3743Z" fill="#E1E1E1"/>
<path d="M34.4549 82.7664C33.909 82.7664 33.4622 82.3197 33.4622 81.7737C33.4622 81.2277 33.909 80.781 34.4549 80.781C35.0009 80.781 35.4476 81.2277 35.4476 81.7737C35.4476 82.3197 35.0009 82.7664 34.4549 82.7664Z" fill="#E1E1E1"/>
<path d="M33.4622 93.1734C33.4622 93.7216 33.9067 94.1661 34.4549 94.1661C35.0032 94.1661 35.4476 93.7216 35.4476 93.1734C35.4476 92.6251 35.0032 92.1807 34.4549 92.1807C33.9067 92.1807 33.4622 92.6251 33.4622 93.1734Z" fill="#E1E1E1"/>
<path d="M33.4622 104.573C33.4622 105.121 33.9067 105.565 34.4549 105.565C35.0032 105.565 35.4476 105.121 35.4476 104.573C35.4476 104.025 35.0032 103.58 34.4549 103.58C33.9067 103.58 33.4622 104.025 33.4622 104.573Z" fill="#E1E1E1"/>
<path d="M33.4622 115.972C33.4622 116.52 33.9067 116.965 34.4549 116.965C35.0032 116.965 35.4476 116.52 35.4476 115.972C35.4476 115.424 35.0032 114.979 34.4549 114.979C33.9067 114.979 33.4622 115.424 33.4622 115.972Z" fill="#E1E1E1"/>
<path d="M33.4622 127.38C33.4622 127.929 33.9067 128.373 34.4549 128.373C35.0032 128.373 35.4476 127.929 35.4476 127.38C35.4476 126.832 35.0032 126.388 34.4549 126.388C33.9067 126.388 33.4622 126.832 33.4622 127.38Z" fill="#E1E1E1"/>
<path d="M33.4622 138.78C33.4622 139.328 33.9067 139.773 34.4549 139.773C35.0032 139.773 35.4476 139.328 35.4476 138.78C35.4476 138.232 35.0032 137.787 34.4549 137.787C33.9067 137.787 33.4622 138.232 33.4622 138.78Z" fill="#E1E1E1"/>
<path d="M33.4622 150.179C33.4622 150.727 33.9067 151.172 34.4549 151.172C35.0032 151.172 35.4476 150.727 35.4476 150.179C35.4476 149.631 35.0032 149.187 34.4549 149.187C33.9067 149.187 33.4622 149.631 33.4622 150.179Z" fill="#E1E1E1"/>
<path d="M22.3109 1.96926C22.3109 2.51751 22.7554 2.96196 23.3036 2.96196C23.8519 2.96196 24.2963 2.51751 24.2963 1.96926C24.2963 1.42101 23.8519 0.976562 23.3036 0.976562C22.7554 0.976562 22.3109 1.42101 22.3109 1.96926Z" fill="#E1E1E1"/>
<path d="M22.3109 13.3687C22.3109 13.9169 22.7553 14.3614 23.3036 14.3614C23.8518 14.3614 24.2963 13.9169 24.2963 13.3687C24.2963 12.8204 23.8518 12.376 23.3036 12.376C22.7553 12.376 22.3109 12.8204 22.3109 13.3687Z" fill="#E1E1E1"/>
<path d="M22.3109 24.7683C22.3109 25.3166 22.7553 25.761 23.3036 25.761C23.8518 25.761 24.2963 25.3166 24.2963 24.7683C24.2963 24.2201 23.8518 23.7756 23.3036 23.7756C22.7553 23.7756 22.3109 24.2201 22.3109 24.7683Z" fill="#E1E1E1"/>
<path d="M22.3109 36.1677C22.3109 36.716 22.7553 37.1604 23.3036 37.1604C23.8518 37.1604 24.2963 36.716 24.2963 36.1677C24.2963 35.6195 23.8518 35.175 23.3036 35.175C22.7553 35.175 22.3109 35.6195 22.3109 36.1677Z" fill="#E1E1E1"/>
<path d="M22.3109 47.5672C22.3109 48.1154 22.7553 48.5599 23.3036 48.5599C23.8518 48.5599 24.2963 48.1154 24.2963 47.5672C24.2963 47.0189 23.8518 46.5745 23.3036 46.5745C22.7553 46.5745 22.3109 47.0189 22.3109 47.5672Z" fill="#E1E1E1"/>
<path d="M22.3109 58.9751C22.3109 59.5234 22.7553 59.9678 23.3036 59.9678C23.8518 59.9678 24.2963 59.5234 24.2963 58.9751C24.2963 58.4269 23.8518 57.9824 23.3036 57.9824C22.7553 57.9824 22.3109 58.4269 22.3109 58.9751Z" fill="#E1E1E1"/>
<path d="M22.3109 70.3743C22.3109 70.9225 22.7553 71.367 23.3036 71.367C23.8518 71.367 24.2963 70.9225 24.2963 70.3743C24.2963 69.826 23.8518 69.3816 23.3036 69.3816C22.7553 69.3816 22.3109 69.826 22.3109 70.3743Z" fill="#E1E1E1"/>
<path d="M23.3036 82.7664C22.7576 82.7664 22.3109 82.3197 22.3109 81.7737C22.3109 81.2277 22.7576 80.781 23.3036 80.781C23.8496 80.781 24.2963 81.2277 24.2963 81.7737C24.2963 82.3197 23.8496 82.7664 23.3036 82.7664Z" fill="#E1E1E1"/>
<path d="M22.3109 93.1734C22.3109 93.7216 22.7553 94.1661 23.3036 94.1661C23.8518 94.1661 24.2963 93.7216 24.2963 93.1734C24.2963 92.6251 23.8518 92.1807 23.3036 92.1807C22.7553 92.1807 22.3109 92.6251 22.3109 93.1734Z" fill="#E1E1E1"/>
<path d="M22.3109 104.573C22.3109 105.121 22.7553 105.565 23.3036 105.565C23.8518 105.565 24.2963 105.121 24.2963 104.573C24.2963 104.025 23.8518 103.58 23.3036 103.58C22.7553 103.58 22.3109 104.025 22.3109 104.573Z" fill="#E1E1E1"/>
<path d="M22.3109 115.972C22.3109 116.52 22.7553 116.965 23.3036 116.965C23.8518 116.965 24.2963 116.52 24.2963 115.972C24.2963 115.424 23.8518 114.979 23.3036 114.979C22.7553 114.979 22.3109 115.424 22.3109 115.972Z" fill="#E1E1E1"/>
<path d="M22.3109 127.38C22.3109 127.929 22.7553 128.373 23.3036 128.373C23.8518 128.373 24.2963 127.929 24.2963 127.38C24.2963 126.832 23.8518 126.388 23.3036 126.388C22.7553 126.388 22.3109 126.832 22.3109 127.38Z" fill="#E1E1E1"/>
<path d="M22.3109 138.78C22.3109 139.328 22.7553 139.773 23.3036 139.773C23.8518 139.773 24.2963 139.328 24.2963 138.78C24.2963 138.232 23.8518 137.787 23.3036 137.787C22.7553 137.787 22.3109 138.232 22.3109 138.78Z" fill="#E1E1E1"/>
<path d="M22.3109 150.179C22.3109 150.727 22.7553 151.172 23.3036 151.172C23.8518 151.172 24.2963 150.727 24.2963 150.179C24.2963 149.631 23.8518 149.187 23.3036 149.187C22.7553 149.187 22.3109 149.631 22.3109 150.179Z" fill="#E1E1E1"/>
<path d="M12.1521 2.96196C11.6061 2.96196 11.1594 2.51524 11.1594 1.96926C11.1594 1.42327 11.6061 0.976562 12.1521 0.976562C12.6981 0.976562 13.1448 1.42327 13.1448 1.96926C13.1365 2.51524 12.6981 2.96196 12.1521 2.96196Z" fill="#E1E1E1"/>
<path d="M12.1521 14.3614C11.6061 14.3614 11.1594 13.9147 11.1594 13.3687C11.1594 12.8227 11.6061 12.376 12.1521 12.376C12.6981 12.376 13.1448 12.8227 13.1448 13.3687C13.1365 13.9147 12.6981 14.3614 12.1521 14.3614Z" fill="#E1E1E1"/>
<path d="M12.1521 25.761C11.6061 25.761 11.1594 25.3143 11.1594 24.7683C11.1594 24.2223 11.6061 23.7756 12.1521 23.7756C12.6981 23.7756 13.1448 24.2223 13.1448 24.7683C13.1365 25.3143 12.6981 25.761 12.1521 25.761Z" fill="#E1E1E1"/>
<path d="M12.1521 37.1604C11.6061 37.1604 11.1594 36.7137 11.1594 36.1677C11.1594 35.6218 11.6061 35.175 12.1521 35.175C12.6981 35.175 13.1448 35.6218 13.1448 36.1677C13.1365 36.7137 12.6981 37.1604 12.1521 37.1604Z" fill="#E1E1E1"/>
<path d="M12.1521 48.5599C11.6061 48.5599 11.1594 48.1131 11.1594 47.5672C11.1594 47.0212 11.6061 46.5745 12.1521 46.5745C12.6981 46.5745 13.1448 47.0212 13.1448 47.5672C13.1365 48.1214 12.6981 48.5599 12.1521 48.5599Z" fill="#E1E1E1"/>
<path d="M12.1521 59.959C11.6061 59.959 11.1594 59.5123 11.1594 58.9663C11.1594 58.4203 11.6061 57.9736 12.1521 57.9736C12.6981 57.9736 13.1448 58.4203 13.1448 58.9663C13.1365 59.5206 12.6981 59.959 12.1521 59.959Z" fill="#E1E1E1"/>
<path d="M12.1521 71.367C11.6061 71.367 11.1594 70.9203 11.1594 70.3743C11.1594 69.8283 11.6061 69.3816 12.1521 69.3816C12.6981 69.3816 13.1448 69.8283 13.1448 70.3743C13.1448 70.9203 12.6981 71.367 12.1521 71.367Z" fill="#E1E1E1"/>
<path d="M12.1521 82.7664C11.6061 82.7664 11.1594 82.3197 11.1594 81.7737C11.1594 81.2277 11.6061 80.781 12.1521 80.781C12.6981 80.781 13.1448 81.2277 13.1448 81.7737C13.1365 82.3197 12.6981 82.7664 12.1521 82.7664Z" fill="#E1E1E1"/>
<path d="M12.1521 94.1661C11.6061 94.1661 11.1594 93.7194 11.1594 93.1734C11.1594 92.6274 11.6061 92.1807 12.1521 92.1807C12.6981 92.1807 13.1448 92.6274 13.1448 93.1734C13.1365 93.7194 12.6981 94.1661 12.1521 94.1661Z" fill="#E1E1E1"/>
<path d="M12.1521 105.565C11.6061 105.565 11.1594 105.119 11.1594 104.573C11.1594 104.027 11.6061 103.58 12.1521 103.58C12.6981 103.58 13.1448 104.027 13.1448 104.573C13.1365 105.119 12.6981 105.565 12.1521 105.565Z" fill="#E1E1E1"/>
<path d="M12.1521 116.965C11.6061 116.965 11.1594 116.518 11.1594 115.972C11.1594 115.426 11.6061 114.98 12.1521 114.98C12.6981 114.98 13.1448 115.426 13.1448 115.972C13.1365 116.527 12.6981 116.965 12.1521 116.965Z" fill="#E1E1E1"/>
<path d="M12.1521 128.365C11.6061 128.365 11.1594 127.918 11.1594 127.372C11.1594 126.826 11.6061 126.379 12.1521 126.379C12.6981 126.379 13.1448 126.826 13.1448 127.372C13.1365 127.926 12.6981 128.365 12.1521 128.365Z" fill="#E1E1E1"/>
<path d="M12.1521 139.773C11.6061 139.773 11.1594 139.326 11.1594 138.78C11.1594 138.234 11.6061 137.787 12.1521 137.787C12.6981 137.787 13.1448 138.234 13.1448 138.78C13.1365 139.326 12.6981 139.773 12.1521 139.773Z" fill="#E1E1E1"/>
<path d="M12.1521 151.172C11.6061 151.172 11.1594 150.725 11.1594 150.179C11.1594 149.633 11.6061 149.187 12.1521 149.187C12.6981 149.187 13.1448 149.633 13.1448 150.179C13.1448 150.725 12.6981 151.172 12.1521 151.172Z" fill="#E1E1E1"/>
<path d="M-4.93097e-06 1.96926C-4.95494e-06 2.51751 0.444451 2.96196 0.992704 2.96196C1.54096 2.96196 1.98541 2.51751 1.98541 1.96926C1.98541 1.42101 1.54096 0.976562 0.992704 0.976562C0.444452 0.976562 -4.90701e-06 1.42101 -4.93097e-06 1.96926Z" fill="#E1E1E1"/>
<path d="M-4.93097e-06 13.3687C-4.95494e-06 13.9169 0.444451 14.3614 0.992704 14.3614C1.54096 14.3614 1.98541 13.9169 1.98541 13.3687C1.98541 12.8204 1.54096 12.376 0.992704 12.376C0.444452 12.376 -4.90701e-06 12.8204 -4.93097e-06 13.3687Z" fill="#E1E1E1"/>
<path d="M-4.93097e-06 24.7683C-4.95494e-06 25.3166 0.444451 25.761 0.992704 25.761C1.54096 25.761 1.98541 25.3166 1.98541 24.7683C1.98541 24.2201 1.54096 23.7756 0.992704 23.7756C0.444452 23.7756 -4.90701e-06 24.2201 -4.93097e-06 24.7683Z" fill="#E1E1E1"/>
<path d="M-4.93097e-06 36.1677C-4.95494e-06 36.716 0.444451 37.1604 0.992704 37.1604C1.54096 37.1604 1.98541 36.716 1.98541 36.1677C1.98541 35.6195 1.54096 35.175 0.992704 35.175C0.444452 35.175 -4.90701e-06 35.6195 -4.93097e-06 36.1677Z" fill="#E1E1E1"/>
<path d="M-4.93097e-06 47.5672C-4.95494e-06 48.1154 0.444451 48.5599 0.992704 48.5599C1.54096 48.5599 1.98541 48.1154 1.98541 47.5672C1.98541 47.0189 1.54096 46.5745 0.992704 46.5745C0.444452 46.5745 -4.90701e-06 47.0189 -4.93097e-06 47.5672Z" fill="#E1E1E1"/>
<path d="M-4.93097e-06 58.9751C-4.95494e-06 59.5234 0.444451 59.9678 0.992704 59.9678C1.54096 59.9678 1.98541 59.5234 1.98541 58.9751C1.98541 58.4269 1.54096 57.9824 0.992704 57.9824C0.444452 57.9824 -4.90701e-06 58.4269 -4.93097e-06 58.9751Z" fill="#E1E1E1"/>
<path d="M-4.93097e-06 70.3743C-4.95494e-06 70.9225 0.444451 71.367 0.992704 71.367C1.54096 71.367 1.98541 70.9225 1.98541 70.3743C1.98541 69.826 1.54096 69.3816 0.992704 69.3816C0.444452 69.3816 -4.90701e-06 69.826 -4.93097e-06 70.3743Z" fill="#E1E1E1"/>
<path d="M0.992704 82.7664C0.446719 82.7664 -4.95484e-06 82.3197 -4.93097e-06 81.7737C-4.90711e-06 81.2277 0.44672 80.781 0.992704 80.781C1.53869 80.781 1.98541 81.2277 1.98541 81.7737C1.98541 82.3197 1.54696 82.7664 0.992704 82.7664Z" fill="#E1E1E1"/>
<path d="M-4.93097e-06 93.1734C-4.95494e-06 93.7216 0.444451 94.1661 0.992704 94.1661C1.54096 94.1661 1.98541 93.7216 1.98541 93.1734C1.98541 92.6251 1.54096 92.1807 0.992704 92.1807C0.444452 92.1807 -4.90701e-06 92.6251 -4.93097e-06 93.1734Z" fill="#E1E1E1"/>
<path d="M-4.93097e-06 104.573C-4.95494e-06 105.121 0.444451 105.565 0.992704 105.565C1.54096 105.565 1.98541 105.121 1.98541 104.573C1.98541 104.025 1.54096 103.58 0.992704 103.58C0.444452 103.58 -4.90701e-06 104.025 -4.93097e-06 104.573Z" fill="#E1E1E1"/>
<path d="M-4.93097e-06 115.972C-4.95494e-06 116.52 0.444451 116.965 0.992704 116.965C1.54096 116.965 1.98541 116.52 1.98541 115.972C1.98541 115.424 1.54096 114.979 0.992704 114.979C0.444452 114.979 -4.90701e-06 115.424 -4.93097e-06 115.972Z" fill="#E1E1E1"/>
<path d="M-4.93097e-06 127.38C-4.95494e-06 127.929 0.444451 128.373 0.992704 128.373C1.54096 128.373 1.98541 127.929 1.98541 127.38C1.98541 126.832 1.54096 126.388 0.992704 126.388C0.444452 126.388 -4.90701e-06 126.832 -4.93097e-06 127.38Z" fill="#E1E1E1"/>
<path d="M-4.93097e-06 138.78C-4.95494e-06 139.328 0.444451 139.773 0.992704 139.773C1.54096 139.773 1.98541 139.328 1.98541 138.78C1.98541 138.232 1.54096 137.787 0.992704 137.787C0.444452 137.787 -4.90701e-06 138.232 -4.93097e-06 138.78Z" fill="#E1E1E1"/>
<path d="M-4.93097e-06 150.179C-4.95494e-06 150.727 0.444451 151.172 0.992704 151.172C1.54096 151.172 1.98541 150.727 1.98541 150.179C1.98541 149.631 1.54096 149.187 0.992704 149.187C0.444452 149.187 -4.90701e-06 149.631 -4.93097e-06 150.179Z" fill="#E1E1E1"/>
</g>
</svg>
