<svg width="145" height="145" viewBox="0 0 145 145" fill="none" xmlns="http://www.w3.org/2000/svg">
<g clip-path="url(#clip0_2250_83)">
<path d="M39.4218 35.7128C39.5738 34.6189 40.0045 33.7846 40.7044 33.2385C41.6439 32.5104 42.6705 32.2527 43.7841 32.5037C44.8978 32.7548 45.8969 33.428 46.7526 34.5329C47.6371 35.6666 48.0227 36.8573 47.8901 38.1239C47.767 39.381 47.1926 40.4168 46.1764 41.2215C45.5916 41.6718 45.0354 41.9974 44.4982 42.2077L47.1519 45.6089L45.3207 47.0364L37.0811 36.4966L38.7199 34.8193L39.4218 35.7128ZM40.3736 36.933L40.4024 36.9619L40.4313 36.9907L40.4601 37.0195L40.4889 37.0484L40.5178 37.0772L40.5466 37.106L40.5754 37.1349L40.6043 37.1637L40.6331 37.1925L40.6619 37.2213L40.6908 37.2502L40.7196 37.279L40.7484 37.3078L40.7773 37.3367L40.8061 37.3655L40.8349 37.3943L40.8638 37.4232L40.8926 37.452L40.9214 37.4808L40.9503 37.5097L40.9791 37.5385L41.0079 37.5673L41.0368 37.5962L41.0656 37.625L41.0944 37.6538L41.104 37.6634L41.1329 37.6923L41.1617 37.7211L41.2001 37.7596L41.229 37.7884L41.2578 37.8172L41.2866 37.846L41.2962 37.8557L41.3251 37.8845L41.3539 37.9133L41.3635 37.9229L41.3923 37.9518L41.4212 37.9806L41.4308 37.9902L41.4692 38.0287L41.4981 38.0575L41.5269 38.0863L41.5365 38.0959L41.575 38.1344L41.6038 38.1632L41.6326 38.192L41.6422 38.2016L41.6807 38.2401L41.7191 38.2785L41.7479 38.3074L41.7768 38.3362L41.7864 38.3458L41.8152 38.3746L41.8248 38.3843L41.8537 38.4131L41.8633 38.4227L41.8921 38.4515L41.9017 38.4611L41.9402 38.4996L41.9786 38.538L42.0171 38.5765L42.0555 38.6149L42.0843 38.6437L42.0939 38.6534L42.1228 38.6822L42.1324 38.6918L42.1612 38.7206L42.1708 38.7302L42.1997 38.7591L42.2093 38.7687L42.2381 38.7975L42.2669 38.8264L42.3054 38.8648L42.3438 38.9032L42.3727 38.9321L42.3823 38.9417L42.4111 38.9705L42.4207 38.9801L42.4495 39.009L42.4784 39.0378L42.5168 39.0762L42.5456 39.1051L42.5553 39.1147L42.5841 39.1435L42.6129 39.1723L42.6514 39.2108L42.6802 39.2396L42.6898 39.2492L42.7186 39.2781L42.7475 39.3069L42.7763 39.3357L42.7859 39.3453L42.8147 39.3742L42.8436 39.403L42.882 39.4414L42.9109 39.4703L42.9397 39.4991L42.9781 39.5375L43.007 39.5664L43.0358 39.5952L43.0646 39.624L43.0742 39.6337L43.1031 39.6625L43.1319 39.6913L43.1607 39.7202L43.1896 39.749L43.228 39.7874L43.2568 39.8163L43.2857 39.8451L43.3145 39.8739L43.3241 39.8835L43.353 39.9124L43.3818 39.9412L43.4106 39.97L43.4394 39.9989L43.5548 40.1142C44.1018 40.1246 44.6582 39.9142 45.2047 39.4831C45.8086 39.0136 46.1054 38.4286 46.1044 37.7376C46.113 37.037 45.8433 36.3456 45.3049 35.6538C44.7569 34.9524 44.1612 34.5101 43.518 34.3653C42.8747 34.2012 42.2799 34.354 41.7239 34.7755C41.187 35.197 40.8519 35.782 40.7185 36.5112L40.3736 36.933Z" fill="#82CE8C"/>
<path d="M54.6803 34.6783L54.6131 34.707C54.3268 35.8199 53.7328 36.5868 52.86 36.9983C52.1214 37.3332 51.4017 37.3994 50.72 37.1777C50.0287 36.9464 49.5386 36.5138 49.2306 35.8608C48.3738 34.0073 49.5423 32.2814 52.7456 30.6734L52.6494 30.4814C52.3895 29.9148 52.0723 29.5784 51.6978 29.4531C51.3233 29.3278 50.8532 29.3944 50.2681 29.6719C49.472 30.0451 48.7052 30.7542 47.9389 31.8089L46.7372 30.3388C47.4746 29.2169 48.462 28.3641 49.7376 27.7804C50.9845 27.2063 52.0112 27.0638 52.8082 27.3624C53.6052 27.661 54.2685 28.401 54.7787 29.563L56.1553 32.5113C56.2997 32.8282 56.4343 33.0011 56.5495 33.0397C56.6743 33.0879 56.895 33.0402 57.2307 32.9159L57.8089 34.5866C56.4856 35.391 55.4395 35.4183 54.6802 34.6591L54.6803 34.6783ZM54.1318 33.6698L53.2558 31.7779C52.2873 32.3812 51.6546 32.8985 51.3385 33.3108C51.0127 33.7326 50.9653 34.1644 51.1771 34.6062C51.3311 34.9327 51.5521 35.1346 51.8786 35.231C52.1954 35.3178 52.5409 35.2799 52.9053 35.1077C53.5096 34.8302 53.9216 34.3413 54.1414 33.6602L54.1318 33.6698Z" fill="#82CE8C"/>
<path d="M65.8289 32.1024C65.1388 32.7733 64.1702 33.2422 62.9229 33.5284C61.4837 33.8527 60.2646 33.6879 59.2752 33.0434C58.2761 32.3894 57.6125 31.3424 57.2745 29.8735C56.9462 28.4334 57.1076 27.1956 57.778 26.1408C58.4387 25.0764 59.4647 24.3964 60.8559 24.0816C62.0456 23.8146 63.1206 23.8352 64.0807 24.1437L64.0162 26.0727C63.152 25.7644 62.2978 25.7152 61.4535 25.906C60.6571 26.0872 60.0914 26.4799 59.7564 27.0841C59.4405 27.6883 59.3743 28.4272 59.5771 29.3009C59.7799 30.1937 60.1647 30.8469 60.7411 31.2508C61.3175 31.6547 61.9895 31.7708 62.7378 31.599C63.6589 31.3892 64.4261 30.968 65.0395 30.3546L65.8193 32.112L65.8289 32.1024Z" fill="#82CE8C"/>
<path d="M69.4799 28.0476L69.4415 28.0476L69.4956 32.4145L67.173 32.4305L67.0204 19.2817L69.3329 18.949L69.431 27.3661L69.4694 27.3662L72.6693 23.3013L75.4429 23.2764L71.7347 27.6189L75.5611 32.3461L72.7875 32.3711L69.4703 28.038L69.4799 28.0476Z" fill="#82CE8C"/>
<path d="M81.2239 32.5461L81.1471 32.5268C80.2459 33.2549 79.3249 33.5032 78.3649 33.3099C77.5681 33.1456 76.9533 32.7609 76.5398 32.1749C76.1167 31.5792 75.991 30.936 76.1244 30.226C76.5343 28.2399 78.5104 27.5516 82.0432 28.1708L82.0813 27.9597C82.2052 27.3552 82.1662 26.8945 81.9354 26.5678C81.7142 26.2508 81.2916 26.0199 80.658 25.8846C79.8035 25.7011 78.748 25.8148 77.5104 26.2066L77.4214 24.3158C78.6877 23.8569 80.0024 23.7723 81.356 24.0525C82.7097 24.3327 83.6125 24.833 84.0742 25.5631C84.5359 26.2739 84.6236 27.2626 84.3374 28.5099L83.6796 31.6857C83.6129 32.0215 83.6036 32.2422 83.6901 32.3479C83.7767 32.4536 83.9591 32.5595 84.3048 32.6559L83.7793 34.3347C82.2243 34.179 81.3789 33.5828 81.2238 32.5269L81.2239 32.5461ZM81.3758 31.4138L81.8049 29.3701C80.6723 29.2726 79.8469 29.3098 79.3385 29.4531C78.83 29.5963 78.5329 29.9126 78.428 30.3828C78.3517 30.7282 78.4193 31.0258 78.6212 31.3044C78.8231 31.5638 79.1209 31.7466 79.5241 31.8239C80.1769 31.9592 80.791 31.8257 81.3758 31.4138Z" fill="#82CE8C"/>
<path d="M85.4505 35.2392C85.1429 34.9317 84.9217 34.6146 84.8061 34.2498C84.6904 33.8849 84.6995 33.549 84.843 33.2325C85.0057 32.8584 85.3028 32.5805 85.7248 32.3892C86.1469 32.1978 86.617 32.1313 87.145 32.18C86.7892 31.7284 86.5678 31.2194 86.4998 30.6531C86.4318 30.0867 86.527 29.511 86.7758 28.9547C87.1777 28.0723 87.839 27.4686 88.7792 27.1628C89.7097 26.8474 90.7368 26.9544 91.8507 27.455C92.619 27.8015 93.3204 28.3304 93.9452 29.0319L96.2593 29.8509L95.5229 31.7405L94.0628 30.7596C94.1881 31.1532 94.1216 31.6426 93.8536 32.2181C93.4709 33.0621 92.8191 33.6371 91.9077 33.9141C90.9963 34.1912 90.0365 34.1131 89.0281 33.6606C88.6728 33.497 88.3174 33.2757 87.9619 32.9969C87.4532 32.9674 87.1367 33.1109 86.9931 33.4274C86.8879 33.648 86.9362 33.8688 87.138 34.0899C87.3398 34.2917 87.7625 34.561 88.4059 34.8402L88.4348 34.8691L88.4636 34.8979L88.4924 34.9267L88.5213 34.9556L88.5404 34.9556L88.5693 34.9844L88.6173 35.0133L88.6558 35.0517L88.6942 35.0902L88.7422 35.119L88.7711 35.1479L88.7998 35.1383L88.8287 35.1671L88.8767 35.1768L88.9055 35.2056L88.9535 35.2153L88.9823 35.2441L89.0303 35.2538L89.0592 35.2826L89.2128 35.3404C91.6905 36.4572 92.5849 37.7733 91.9056 39.2983C91.475 40.2479 90.6504 40.8226 89.4318 41.0224C88.2132 41.2223 86.9269 41.0093 85.592 40.4028C84.4588 39.883 83.6037 39.258 83.0557 38.5182C82.5076 37.7785 82.3818 37.0393 82.7071 36.3295C82.908 35.8787 83.2531 35.5529 83.7231 35.3712C84.1931 35.1895 84.7594 35.1807 85.393 35.3543L85.4505 35.2392ZM86.4113 36.0275C85.605 35.9688 85.0871 36.1793 84.867 36.6684C84.6948 37.0521 84.7721 37.4553 85.0895 37.9068C85.4164 38.3487 85.916 38.7333 86.6266 39.0414C87.3661 39.3784 88.0381 39.5329 88.6427 39.4857C89.2377 39.4482 89.6405 39.2184 89.8223 38.8059C89.9849 38.4319 89.9269 38.1055 89.6289 37.8075C89.331 37.5096 88.7739 37.1825 87.9576 36.8071C87.3622 36.5375 86.8435 36.2681 86.4113 36.0275ZM88.8214 29.9077C88.5917 30.4065 88.5636 30.8767 88.7081 31.3088C88.8623 31.7313 89.1891 32.0581 89.6884 32.2891C90.1494 32.5009 90.5813 32.5111 90.9937 32.3101C91.3966 32.1187 91.7128 31.764 91.952 31.2365C92.1816 30.7186 92.2385 30.258 92.1036 29.8355C91.9686 29.413 91.6419 29.0863 91.1233 28.8552C90.6623 28.6434 90.2112 28.6332 89.7892 28.8245C89.3672 29.0159 89.0414 29.3802 88.8118 29.8981L88.8214 29.9077Z" fill="#82CE8C"/>
<path d="M95.1026 40.0417L93.1717 38.7433L98.1904 31.2643L100.303 32.2846L95.1026 40.0417ZM102.085 30.1372C101.846 30.492 101.549 30.7123 101.213 30.779C100.867 30.8553 100.503 30.7589 100.128 30.4992C99.7629 30.2492 99.5418 29.9513 99.4645 29.6057C99.3968 29.2505 99.4828 28.9147 99.7222 28.5408C99.952 28.1956 100.249 27.9752 100.604 27.9086C100.95 27.8323 101.315 27.9287 101.689 28.1692C102.073 28.4193 102.295 28.7363 102.353 29.0819C102.42 29.4371 102.325 29.7824 102.095 30.1276L102.085 30.1372Z" fill="#82CE8C"/>
<path d="M102.703 46.7608L101.022 45.1557L104.846 41.178C105.306 40.718 105.526 40.2864 105.535 39.9121C105.534 39.5474 105.342 39.1632 104.957 38.798C104.419 38.279 103.737 38.0189 102.922 38.0082L98.4461 42.6759L96.7643 41.0708L103.003 34.5628L104.905 35.9475L103.909 36.9826C105.214 36.8885 106.27 37.2354 107.077 38.0044C107.74 38.6483 108.068 39.3398 108.05 40.0884C108.031 40.8369 107.687 41.5659 107.016 42.2751L102.694 46.7703L102.703 46.7608Z" fill="#82CE8C"/>
<path d="M103.916 49.0275C103.819 48.6051 103.809 48.2116 103.905 47.847C104 47.4825 104.182 47.2044 104.489 47.0129C104.825 46.7926 105.228 46.7164 105.698 46.7842C106.159 46.8616 106.6 47.0542 107.014 47.3715C106.955 46.7956 107.05 46.2582 107.299 45.7403C107.548 45.2224 107.931 44.8006 108.449 44.4559C109.264 43.9291 110.147 43.7768 111.107 44.0277C112.058 44.2689 112.865 44.9035 113.538 45.9217C113.99 46.623 114.298 47.4488 114.463 48.38L115.972 50.3111L114.323 51.4989L113.63 49.8856C113.525 50.279 113.208 50.6528 112.672 50.9976C111.895 51.5052 111.041 51.6287 110.119 51.3779C109.197 51.1271 108.429 50.531 107.832 49.6088C107.621 49.2822 107.438 48.9077 107.284 48.4852C106.871 48.1871 106.525 48.129 106.238 48.3206C106.027 48.4546 105.95 48.6657 106.008 48.9537C106.066 49.2417 106.278 49.6834 106.672 50.2694L106.701 50.2983L106.73 50.3271L106.759 50.3559L106.787 50.3848L106.797 50.3944L106.826 50.4232L106.864 50.4617L106.903 50.5001L106.941 50.5385L106.98 50.577L107.008 50.6058L107.018 50.6154L107.047 50.6443L107.066 50.6827L107.095 50.7115L107.114 50.7499L107.143 50.7788L107.162 50.8172L107.191 50.846L107.268 50.9805C108.749 53.2667 108.799 54.8504 107.4 55.7506C106.517 56.3252 105.519 56.3622 104.376 55.8712C103.243 55.3705 102.273 54.515 101.465 53.2854C100.782 52.2383 100.406 51.2493 100.347 50.3278C100.279 49.3968 100.566 48.7254 101.228 48.2944C101.65 48.0263 102.1 47.9405 102.6 48.0372C103.099 48.1338 103.57 48.432 104.021 48.9221L103.916 49.0275ZM104.301 50.199C103.658 49.7086 103.101 49.6119 102.65 49.9088C102.305 50.1386 102.142 50.5319 102.182 51.0694C102.211 51.6165 102.442 52.2119 102.856 52.8555C103.308 53.5375 103.788 54.018 104.317 54.3163C104.845 54.6145 105.296 54.6248 105.689 54.3854C106.025 54.1651 106.149 53.8486 106.062 53.4358C105.975 53.0229 105.677 52.4563 105.186 51.6974C104.831 51.1499 104.532 50.6408 104.301 50.199ZM109.642 46.3578C109.182 46.6643 108.894 47.0286 108.799 47.4699C108.694 47.9209 108.79 48.3625 109.098 48.8236C109.377 49.2559 109.733 49.4963 110.184 49.5449C110.625 49.6031 111.086 49.4694 111.575 49.1533C112.054 48.8469 112.342 48.4826 112.456 48.0605C112.571 47.6383 112.474 47.1775 112.166 46.7164C111.888 46.2841 111.513 46.0437 111.062 45.9759C110.601 45.9177 110.14 46.0322 109.651 46.3482L109.642 46.3578Z" fill="#82CE8C"/>
<path d="M120.463 63.3699L124.415 62.3965L125.273 64.5763L112.205 67.7637L111.655 65.5075L112.519 65.2976C111.558 64.7012 110.972 63.9614 110.759 63.0973C110.479 61.9356 110.67 60.8994 111.35 59.9886C112.03 59.0778 113.056 58.4553 114.428 58.1213C115.819 57.7874 117.058 57.933 118.162 58.5584C119.257 59.1934 119.978 60.1445 120.278 61.4022C120.432 62.0358 120.49 62.6885 120.453 63.3411L120.463 63.3699ZM118.448 63.8662C118.677 63.3099 118.715 62.7149 118.551 62.0716C118.368 61.3324 117.954 60.8231 117.32 60.5343C116.686 60.2455 115.938 60.2061 115.103 60.4065C114.259 60.6164 113.616 60.9899 113.214 61.5076C112.802 62.0348 112.678 62.6393 112.852 63.3114C113.025 64.0026 113.41 64.5406 114.025 64.9446L114.034 64.935L114.054 64.935L114.063 64.9254L114.092 64.9351L114.102 64.9255L114.121 64.9255L114.13 64.9159L114.15 64.9159L114.159 64.9064L114.188 64.916L114.198 64.9064L114.217 64.9064L114.226 64.8969L114.255 64.9065L114.265 64.8969L114.284 64.8969L114.294 64.8874L114.313 64.8874L114.322 64.8778L114.351 64.8874L114.361 64.8779L114.38 64.8779L114.39 64.8683L114.418 64.8779L114.428 64.8683L114.447 64.8684L114.457 64.8588L114.476 64.8588L114.485 64.8492L114.514 64.8589L114.524 64.8493L114.543 64.8493L114.553 64.8397L114.572 64.8398L114.581 64.8302L114.61 64.8398L114.62 64.8302L114.639 64.8303L114.677 64.8303L114.687 64.8207L114.706 64.8207L114.716 64.8112L114.735 64.8112L114.745 64.8016L114.773 64.8112L114.783 64.8017L114.802 64.8017L114.812 64.7921L114.84 64.8017L114.85 64.7922L114.888 64.7922L114.898 64.7826L114.917 64.7827L114.927 64.7731L114.946 64.7731L114.956 64.7635L114.994 64.7636L115.004 64.754L115.032 64.7636L115.042 64.754L115.061 64.7541L115.1 64.7541L115.109 64.7445L115.128 64.7446L115.138 64.735L115.186 64.7254L115.195 64.7159L115.215 64.7159L115.263 64.7064L115.272 64.6968L115.291 64.6968L115.301 64.6872L115.339 64.6873L115.349 64.6777L115.378 64.6873L115.407 64.6586L115.435 64.6682L115.445 64.6586L115.493 64.6491L115.502 64.6395L115.55 64.63L115.56 64.6204L115.579 64.6204L115.627 64.6109L115.637 64.6013L115.685 64.5918L115.694 64.5822L115.714 64.5822L115.733 64.563L115.762 64.5727L115.81 64.5632L115.819 64.5536L115.867 64.544L115.877 64.5344L115.925 64.5249L115.934 64.5153L115.982 64.5058L115.992 64.4962L116.03 64.4963L116.04 64.4867L116.078 64.4867L116.088 64.4772L116.126 64.4772L116.136 64.4676L116.174 64.4677L116.184 64.4581L116.222 64.4581L116.232 64.4486L116.27 64.4486L116.28 64.439L116.328 64.4295L116.366 64.4296L116.376 64.42L116.414 64.42L116.424 64.4104L116.462 64.4105L116.472 64.4009L116.51 64.401L116.539 64.3722L116.567 64.3819L116.596 64.3531L116.644 64.3628L116.654 64.3532L116.692 64.3532L116.721 64.3245L116.75 64.3341L116.778 64.3054L116.826 64.315L116.836 64.3054L116.874 64.3055L116.903 64.2767L116.932 64.2864L116.961 64.2576L117.009 64.2673L117.018 64.2577L117.057 64.2578L117.086 64.229L117.134 64.2387L117.143 64.2291L117.181 64.2291L117.229 64.2196L117.249 64.2004L117.277 64.2101L117.297 64.1909L117.354 64.191L117.373 64.1718L117.402 64.1815L117.421 64.1623L117.469 64.172L117.517 64.1624L117.536 64.1433L117.565 64.1529L117.584 64.1337L117.642 64.1338L117.661 64.1146L117.719 64.1147L117.728 64.1051L117.776 64.0956L117.796 64.0764L117.844 64.0861L117.891 64.0766L117.911 64.0574L118.093 64.0289L118.448 63.8662Z" fill="#82CE8C"/>
<path d="M116.491 71.2438L116.433 71.2438C115.685 71.3003 115.09 71.5682 114.639 72.0571C114.189 72.5459 113.979 73.179 113.98 73.9852C113.991 74.9738 114.271 75.9243 114.838 76.8177L112.909 77.1317C112.399 76.2192 112.139 75.1152 112.127 73.8579C112.106 72.399 112.527 71.2287 113.38 70.3374C114.233 69.446 115.374 68.9965 116.814 68.9793C118.282 68.9717 119.473 69.3957 120.386 70.2703C121.299 71.1449 121.761 72.2589 121.782 73.6218C121.793 74.8023 121.468 75.7232 120.826 76.3845C120.165 77.0458 119.273 77.3805 118.15 77.3885C117.574 77.3877 117.065 77.339 116.624 77.204L116.481 71.2534L116.491 71.2438ZM117.854 71.3033L117.917 75.2L118.07 75.2002C119.395 75.1828 120.046 74.6079 120.035 73.4466C120.025 72.8419 119.813 72.3426 119.39 71.9581C118.967 71.5736 118.458 71.3521 117.844 71.2937L117.854 71.3033Z" fill="#82CE8C"/>
<path d="M113.545 85.6839C112.7 85.51 112.076 85.0389 111.662 84.2609C111.258 83.4733 111.161 82.5327 111.38 81.4101C111.647 80.086 112.144 78.9926 112.892 78.1298L114.572 78.9863C113.825 79.8491 113.356 80.7986 113.146 81.8348C113.06 82.2858 113.071 82.6601 113.196 82.9578C113.321 83.2555 113.532 83.4285 113.849 83.4961C114.166 83.5638 114.444 83.4586 114.664 83.1997C114.885 82.9409 115.134 82.519 115.392 81.9339C115.804 81.0227 116.263 80.3515 116.791 79.9012C117.308 79.4604 117.97 79.3174 118.757 79.472C119.593 79.6363 120.208 80.0979 120.583 80.8566C120.968 81.6057 121.055 82.5176 120.836 83.5826C120.598 84.8204 120.139 85.8562 119.487 86.6807L117.807 85.8242C118.487 84.971 118.908 84.0886 119.089 83.1771C119.26 82.2944 119.058 81.7854 118.463 81.6694C118.156 81.6114 117.887 81.707 117.686 81.9659C117.485 82.2247 117.236 82.6467 116.958 83.2317C116.537 84.1525 116.068 84.8333 115.541 85.2836C115.014 85.734 114.361 85.8674 113.555 85.7127L113.545 85.6839Z" fill="#82CE8C"/>
<path d="M109.624 88.6633L110.408 86.4761L118.896 89.5399L118.429 91.833L109.633 88.6537L109.624 88.6633ZM120.936 93.0362C120.523 92.8917 120.244 92.6514 120.1 92.3344C119.955 92.0175 119.955 91.6336 120.108 91.2115C120.261 90.7895 120.491 90.5019 120.807 90.3583C121.133 90.2052 121.488 90.2153 121.892 90.3503C122.285 90.4948 122.564 90.7159 122.718 91.0424C122.872 91.3689 122.873 91.7336 122.72 92.1557C122.557 92.5874 122.327 92.875 122.001 93.0281C121.675 93.1812 121.31 93.1807 120.917 93.0362L120.936 93.0362Z" fill="#82CE8C"/>
<path d="M108.264 91.0799C108.59 90.7924 108.926 90.6105 109.3 90.5247C109.674 90.4388 110.001 90.4777 110.308 90.6508C110.663 90.8529 110.923 91.1699 111.068 91.602C111.212 92.0341 111.251 92.514 111.156 93.0322C111.635 92.7065 112.163 92.5441 112.729 92.5353C113.305 92.5169 113.852 92.6616 114.4 92.9599C115.245 93.4409 115.783 94.1519 116.015 95.112C116.247 96.072 116.066 97.0795 115.463 98.144C115.051 98.8824 114.466 99.5246 113.709 100.09L112.704 102.325L110.889 101.41L112.001 100.049C111.607 100.135 111.118 100.029 110.561 99.7208C109.744 99.2686 109.234 98.5672 109.032 97.636C108.829 96.7048 108.991 95.7548 109.527 94.7958C109.718 94.4506 109.967 94.1246 110.264 93.7891C110.34 93.2902 110.215 92.9541 109.927 92.7809C109.706 92.6559 109.485 92.6843 109.265 92.8664C109.044 93.0484 108.748 93.4415 108.403 94.0553L108.393 94.0649L108.384 94.0744L108.374 94.084L108.365 94.0936L108.355 94.1032L108.345 94.1128L108.317 94.1415L108.317 94.1607L108.307 94.1703L108.297 94.1799L108.288 94.1895L108.269 94.2278L108.259 94.2374L108.24 94.2758L108.23 94.2854L108.211 94.3237L108.202 94.3333L108.183 94.3717L108.154 94.4004L108.154 94.4196L108.125 94.4484L108.116 94.4964L108.087 94.5251L108.077 94.5731L108.048 94.6018L108.039 94.6498L108.01 94.6786L107.943 94.8224C106.612 97.1912 105.222 97.9666 103.772 97.1488C102.859 96.6389 102.349 95.7648 102.261 94.5266C102.173 93.2884 102.478 92.0412 103.206 90.7561C103.809 89.6725 104.518 88.8865 105.305 88.3885C106.101 87.9001 106.83 87.8436 107.512 88.238C107.944 88.4785 108.242 88.8532 108.387 89.3429C108.531 89.8326 108.494 90.3892 108.264 91.0031L108.264 91.0799ZM107.392 91.9712C107.516 91.1748 107.352 90.6467 106.891 90.3774C106.526 90.1657 106.113 90.2131 105.643 90.4908C105.174 90.7685 104.752 91.2478 104.379 91.9095C103.976 92.6191 103.776 93.2811 103.757 93.8761C103.749 94.4807 103.941 94.8841 104.345 95.115C104.7 95.317 105.036 95.2695 105.352 95.0108C105.669 94.7329 106.052 94.2152 106.482 93.4384C106.798 92.8726 107.105 92.3739 107.392 91.9712ZM113.28 94.9258C112.799 94.6564 112.339 94.579 111.897 94.6936C111.456 94.8081 111.101 95.1051 110.833 95.5846C110.584 96.0258 110.537 96.4576 110.691 96.8801C110.845 97.3026 111.172 97.6486 111.681 97.9276C112.171 98.2066 112.641 98.2936 113.063 98.1983C113.486 98.1029 113.84 97.8058 114.118 97.3167C114.367 96.8756 114.414 96.4246 114.26 96.0021C114.106 95.5604 113.769 95.2048 113.26 94.9258L113.28 94.9258Z" fill="#82CE8C"/>
<path d="M98.8486 104.436L100.42 102.73L104.495 106.479C104.975 106.921 105.407 107.142 105.782 107.133C106.156 107.124 106.52 106.932 106.885 106.53C107.392 105.984 107.631 105.302 107.611 104.477L102.835 100.084L104.407 98.3782L111.066 104.501L109.725 106.419L108.668 105.438C108.785 106.744 108.48 107.799 107.722 108.633C107.1 109.313 106.419 109.648 105.651 109.647C104.883 109.646 104.153 109.319 103.442 108.665L98.839 104.446L98.8486 104.436Z" fill="#82CE8C"/>
<path d="M95.0519 114.172C94.6487 114.076 94.3413 113.845 94.1104 113.48C93.8796 113.115 93.8118 112.721 93.9073 112.318C94.0027 111.915 94.223 111.599 94.6161 111.36C95.0093 111.12 95.4027 111.054 95.8155 111.14C96.2187 111.237 96.5454 111.468 96.7666 111.842C96.9879 112.217 97.0556 112.591 96.9602 112.994C96.8648 113.397 96.6253 113.714 96.2321 113.953C95.8485 114.183 95.4647 114.259 95.0615 114.163L95.0519 114.172Z" fill="#82CE8C"/>
<path d="M86.5479 120.562C85.9926 121.521 85.2736 122.125 84.4197 122.363C83.2685 122.688 82.2222 122.523 81.2807 121.869C80.3392 121.216 79.6756 120.226 79.2995 118.872C78.9041 117.499 79.0079 116.242 79.611 115.12C80.2141 113.998 81.1248 113.26 82.3816 112.907C83.0819 112.706 83.7248 112.621 84.3103 112.631L83.1336 108.484L85.369 107.863L89.0147 120.729L86.8661 121.666L86.5575 120.572L86.5479 120.562ZM86.1235 119.083L86.0947 119.055L86.0659 119.026L86.037 118.997L86.0082 118.968L85.9794 118.939L85.9505 118.91L85.9217 118.882L85.8929 118.853L85.8737 118.833L85.8448 118.805L85.816 118.776L85.7872 118.747L85.7583 118.718L85.7295 118.689L85.7007 118.66L85.6718 118.632L85.643 118.603L85.6142 118.574L85.5853 118.545L85.5661 118.526L85.5373 118.497L85.5085 118.468L85.4796 118.439L85.4508 118.411L85.422 118.382L85.4315 118.353L85.4027 118.324L85.3738 118.295L85.345 118.247L85.3162 118.218L85.2969 118.199L85.2681 118.17L85.2777 118.142L85.2488 118.113L85.22 118.084L85.2296 118.055L85.2007 118.026L85.1719 117.998L85.1814 117.969L85.1526 117.921L85.1238 117.892L85.0949 117.863L85.1045 117.834L85.0756 117.786L85.0468 117.757L85.018 117.729L85.0275 117.7L84.9987 117.652L84.9698 117.604L84.941 117.575L84.9121 117.546L84.9217 117.517L84.8929 117.488L84.9024 117.46L84.8736 117.431L84.8831 117.402L84.8543 117.373L84.8639 117.344L84.835 117.296L84.8061 117.248L84.7773 117.2L84.7484 117.152L84.7196 117.124L84.7291 117.095L84.7099 117.076L84.7195 117.047L84.6907 117.018L84.7002 116.989L84.6714 116.96L84.6809 116.932L84.6521 116.903L84.652 116.845L84.6232 116.797L84.5943 116.749L84.5655 116.72L84.575 116.691L84.5558 116.672L84.5654 116.643L84.5365 116.615L84.5365 116.557L84.5076 116.509L84.4788 116.48L84.4883 116.451L84.4595 116.423L84.4594 116.365L84.4305 116.317L84.4017 116.288L84.4113 116.259L84.3921 116.24L84.392 116.183L84.3631 116.154L84.3727 116.125L84.3439 116.096L84.3438 116.039L84.3149 115.99L84.2861 115.962L84.286 115.904L84.2572 115.856L84.2379 115.837L84.2379 115.779L84.209 115.75L84.2186 115.722L84.1898 115.693L84.1897 115.635L84.1608 115.606L84.1608 115.549L84.1319 115.501L84.1031 115.472L84.103 115.414L84.0838 115.395L84.0933 115.366L84.0645 115.338L84.0644 115.28L84.0356 115.251L84.0355 115.193L83.9969 115.04C83.4783 114.828 82.8833 114.827 82.2021 115.009C81.473 115.219 80.9745 115.64 80.7067 116.293C80.4389 116.945 80.4303 117.684 80.6618 118.51C80.9029 119.364 81.2973 119.988 81.8257 120.383C82.3637 120.767 82.9685 120.874 83.6496 120.673C84.3116 120.492 84.8389 120.08 85.2411 119.447L86.1235 119.083Z" fill="#82CE8C"/>
<path d="M68.6214 114.807L70.9439 114.734L71.1436 120.262C71.1732 120.905 71.3082 121.366 71.5677 121.626C71.8272 121.885 72.2113 122.02 72.7295 122.002C73.5165 121.983 74.1975 121.668 74.7629 121.083L74.5236 114.614L76.8461 114.54L77.3154 127.68L75.003 128.07L74.8033 122.542C73.9505 123.529 72.9531 124.046 71.7823 124.083C70.909 124.11 70.1984 123.86 69.6794 123.322C69.1508 122.793 68.881 122.025 68.8317 121.056L68.6119 114.817L68.6214 114.807Z" fill="#82CE8C"/>
<path d="M57.4631 117.316C57.7586 115.886 58.429 114.832 59.4934 114.152C60.5578 113.472 61.7283 113.262 63.0628 113.542C64.3876 113.813 65.3771 114.477 66.0407 115.485C66.7043 116.513 66.8788 117.742 66.5833 119.191C66.2782 120.63 65.6174 121.694 64.5722 122.374C63.5271 123.054 62.3373 123.264 61.0028 122.983C59.678 122.713 58.6886 122.049 58.0249 121.021C57.3613 119.994 57.1868 118.746 57.4823 117.297L57.4631 117.316ZM60.7529 115.795C60.2449 116.226 59.9099 116.888 59.7287 117.761C59.5476 118.634 59.6062 119.382 59.9046 120.007C60.203 120.631 60.7122 121.025 61.4322 121.17C62.1618 121.325 62.7855 121.182 63.2935 120.731C63.8015 120.281 64.1461 119.629 64.3177 118.746C64.4892 117.882 64.4402 117.143 64.1322 116.529C63.8339 115.904 63.3151 115.52 62.5854 115.365C61.8654 115.22 61.2514 115.354 60.7529 115.795Z" fill="#82CE8C"/>
<path d="M52.2802 110.197C53.0097 110.256 53.701 110.429 54.354 110.699C55.3047 111.113 55.9196 111.632 56.1893 112.285C56.4589 112.938 56.364 113.744 55.9143 114.713L54.1058 118.578L55.3448 119.281L54.7036 120.614L53.2158 120.468L52.393 122.29L50.3283 121.395L51.199 119.467L48.8462 118.456L49.65 116.729L52.07 117.769L53.821 113.962C54.1559 113.204 53.9536 112.676 53.2045 112.348C52.8396 112.194 52.3692 112.088 51.7933 112.049L52.2514 110.188L52.2802 110.197Z" fill="#82CE8C"/>
<path d="M41.5671 108.493C42.4004 107.295 43.4263 106.595 44.6545 106.367C45.8827 106.138 47.0635 106.418 48.1779 107.187C49.2923 107.957 49.9463 108.937 50.1687 110.137C50.3815 111.327 50.0664 112.545 49.2235 113.753C48.3902 114.952 47.3547 115.68 46.117 115.899C44.8792 116.118 43.7079 115.848 42.5839 115.069C41.4696 114.299 40.8156 113.3 40.6028 112.11C40.3995 110.91 40.7146 109.692 41.5575 108.483L41.5671 108.493ZM45.1851 108.373C44.552 108.584 43.9768 109.043 43.4692 109.782C42.9615 110.52 42.7322 111.23 42.7523 111.921C42.7917 112.612 43.0996 113.169 43.7144 113.592C44.3292 114.015 44.9532 114.122 45.6055 113.912C46.2579 113.701 46.833 113.222 47.3311 112.494C47.8292 111.765 48.0681 111.065 48.0192 110.383C47.9798 109.692 47.6528 109.135 47.0379 108.712C46.4327 108.298 45.8087 108.192 45.1852 108.392L45.1851 108.373Z" fill="#82CE8C"/>
<path d="M42.999 102.967C43.1627 103.361 43.2305 103.754 43.2022 104.129C43.1739 104.503 43.0208 104.81 42.762 105.049C42.4648 105.327 42.0811 105.461 41.6109 105.47C41.1406 105.479 40.6797 105.344 40.2187 105.094C40.373 105.651 40.3642 106.198 40.1922 106.754C40.0298 107.301 39.7138 107.79 39.2633 108.202C38.5444 108.844 37.7002 109.131 36.7211 109.053C35.7325 108.965 34.8392 108.474 34.0222 107.561C33.4551 106.937 33.0221 106.178 32.7234 105.285L30.9263 103.622L32.364 102.185L33.3066 103.664C33.3444 103.261 33.5933 102.839 34.0822 102.408C34.7724 101.775 35.5974 101.527 36.5381 101.624C37.4788 101.721 38.3336 102.193 39.0737 103.01C39.3429 103.298 39.5737 103.644 39.795 104.038C40.2463 104.259 40.6015 104.269 40.8507 104.039C41.0232 103.867 41.0805 103.655 40.9745 103.377C40.8686 103.099 40.5897 102.705 40.1187 102.176L40.0899 102.147L40.061 102.118L40.0322 102.09L40.0034 102.061L39.9937 102.051L39.9649 102.022L39.9265 101.984L39.888 101.945L39.8496 101.907L39.8111 101.869L39.7823 101.84L39.7727 101.83L39.7439 101.801L39.715 101.772L39.6862 101.744L39.6574 101.715L39.6285 101.686L39.5997 101.657L39.5709 101.628L39.4555 101.513C37.6292 99.495 37.3295 97.9302 38.566 96.809C39.3425 96.1095 40.3307 95.9093 41.5308 96.2085C42.7309 96.5077 43.8164 97.2098 44.8161 98.3053C45.6523 99.2374 46.1815 100.15 46.4034 101.043C46.6158 101.945 46.4345 102.665 45.8498 103.192C45.4759 103.527 45.0443 103.69 44.526 103.67C44.0173 103.66 43.5083 103.438 42.9799 103.025L42.999 102.967ZM37.7733 106.501C38.1855 106.128 38.3961 105.725 38.4338 105.264C38.4716 104.804 38.2982 104.381 37.9234 103.968C37.5773 103.583 37.1836 103.401 36.7421 103.419C36.3007 103.438 35.8594 103.629 35.4281 104.022C35.0063 104.405 34.7766 104.808 34.7388 105.249C34.701 105.691 34.8648 106.123 35.2396 106.536C35.5857 106.921 35.9794 107.103 36.4497 107.095C36.9103 107.076 37.3516 106.885 37.7733 106.501ZM42.412 101.863C43.1228 102.247 43.6794 102.248 44.082 101.884C44.3887 101.597 44.4842 101.194 44.3682 100.656C44.2427 100.128 43.9349 99.5709 43.4158 99.0135C42.8679 98.4081 42.3107 98.0043 41.7442 97.8019C41.1776 97.5996 40.7266 97.647 40.3816 97.9536C40.0844 98.2315 40.0081 98.5577 40.1622 98.9418C40.3163 99.326 40.6913 99.8543 41.2969 100.517C41.739 100.998 42.1139 101.449 42.4024 101.853L42.412 101.863Z" fill="#82CE8C"/>
<path d="M31.2924 97.6818L36.1063 94.8093L37.2992 96.8072L29.5701 101.422L28.0895 99.5969L29.3553 98.85C28.1941 98.858 27.3681 98.4346 26.8582 97.5797C26.5408 97.0514 26.3865 96.5137 26.3857 95.9762L28.4387 95.3457C28.4586 95.8448 28.5744 96.2672 28.7956 96.6418C29.2381 97.3718 30.064 97.7185 31.2924 97.6818Z" fill="#82CE8C"/>
<path d="M31.1618 86.5677L31.1907 86.6349C32.2853 87.0203 32.9964 87.6739 33.324 88.5957C33.6034 89.3543 33.5948 90.0741 33.3174 90.7359C33.0304 91.4074 32.5608 91.8578 31.8797 92.0968C29.9611 92.7851 28.3469 91.4584 27.0179 88.1359L26.8164 88.2028C26.2409 88.4131 25.867 88.6909 25.7139 89.0554C25.5608 89.4199 25.5903 89.8902 25.8119 90.4952C26.1106 91.3306 26.7547 92.1664 27.7444 93.0028L26.1815 94.0659C25.1247 93.2391 24.3554 92.1631 23.8833 90.8476C23.4112 89.5513 23.3618 88.5243 23.735 87.7474C24.0986 86.9801 24.8944 86.3958 26.0935 85.9848L29.1536 84.8853C29.4797 84.7706 29.6619 84.6461 29.7193 84.531C29.7768 84.4159 29.7573 84.1855 29.6608 83.8399L31.3686 83.42C32.0615 84.8222 31.9958 85.8682 31.181 86.5485L31.1618 86.5677ZM30.1163 87.0365L28.1594 87.744C28.6791 88.762 29.1311 89.4441 29.5251 89.7997C29.9191 90.1554 30.3415 90.2519 30.802 90.0798C31.1377 89.9555 31.3678 89.7447 31.4825 89.4377C31.5972 89.1308 31.5968 88.7853 31.4619 88.4012C31.2306 87.7674 30.7885 87.3253 30.1355 87.0365L30.1163 87.0365Z" fill="#82CE8C"/>
<path d="M22.507 81.1715C21.6423 80.4601 21.1613 79.6725 21.0545 78.7798C20.9089 77.5991 21.2338 76.5822 22.0196 75.7579C22.8055 74.9336 23.8989 74.4361 25.2903 74.2748C26.7105 74.1041 27.9298 74.4033 28.9482 75.1725C29.9666 75.9417 30.5534 76.9694 30.7088 78.2557C30.8058 78.9852 30.7875 79.6378 30.6827 80.2039L34.9624 79.6916L35.2344 81.9954L21.9633 83.5605L21.3747 81.2851L22.507 81.1523L22.507 81.1715ZM24.0328 80.9913L24.0423 80.9817L24.0711 80.9914L24.0807 80.9818L24.1095 80.9914L24.1191 80.9818L24.1479 80.9915L24.1575 80.9819L24.1863 80.9915L24.1959 80.9819L24.2247 80.9916L24.2343 80.982L24.2631 80.9916L24.2727 80.982L24.3015 80.9917L24.3111 80.9821L24.3399 80.9917L24.3495 80.9821L24.3783 80.9918L24.3878 80.9822L24.4167 80.9918L24.4262 80.9823L24.455 80.9919L24.4646 80.9823L24.4934 80.9919L24.503 80.9824L24.5318 80.992L24.5414 80.9824L24.5702 80.992L24.5798 80.9825L24.6086 80.9921L24.6182 80.9825L24.647 80.9922L24.6566 80.9826L24.6854 80.9922L24.695 80.9826L24.7238 80.9923L24.7334 80.9827L24.7622 80.9923L24.7717 80.9827L24.8006 80.9924L24.8101 80.9828L24.8389 80.9924L24.8485 80.9828L24.8773 80.9925L24.8869 80.9829L24.9157 80.9925L24.9253 80.9829L24.9541 80.9926L24.9925 80.9926L25.0021 80.9831L25.0309 80.9927L25.0405 80.9831L25.0693 80.9927L25.0789 80.9832L25.1077 80.9928L25.1461 80.9928L25.1556 80.9833L25.1844 80.9929L25.194 80.9833L25.2228 80.993L25.2612 80.993L25.2708 80.9834L25.2996 80.9931L25.3092 80.9835L25.3572 80.9931L25.3668 80.9836L25.3956 80.9932L25.4052 80.9836L25.4532 80.9933L25.4628 80.9837L25.4916 80.9933L25.53 80.9934L25.5395 80.9838L25.5683 80.9934L25.6067 80.9935L25.6163 80.9839L25.6451 80.9935L25.6835 80.9936L25.6931 80.984L25.7219 80.9936L25.7603 80.9937L25.7699 80.9841L25.7987 80.9938L25.8371 80.9938L25.8467 80.9842L25.8947 80.9939L25.9042 80.9843L25.9331 80.9939L25.9714 80.994L25.981 80.9844L26.029 80.9941L26.0386 80.9845L26.0866 80.9942L26.0962 80.9846L26.1442 80.9942L26.1538 80.9847L26.1826 80.9943L26.221 80.9943L26.2306 80.9848L26.2786 80.9944L26.2881 80.9848L26.3361 80.9945L26.3457 80.9849L26.3937 80.9946L26.4321 80.9946L26.4417 80.985L26.4897 80.9947L26.4993 80.9851L26.5473 80.9948L26.5569 80.9852L26.6049 80.9949L26.6145 80.9853L26.6625 80.995L26.7008 80.995L26.7104 80.9854L26.7584 80.9951L26.768 80.9855L26.816 80.9952L26.8544 80.9952L26.864 80.9856L26.912 80.9953L26.9216 80.9857L26.9696 80.9954L27.008 80.9954L27.0176 80.9859L27.0655 80.9955L27.1039 80.9956L27.1135 80.986L27.1615 80.9956L27.1999 80.9957L27.2095 80.9861L27.2575 80.9958L27.2959 80.9958L27.3055 80.9863L27.3535 80.9959L27.3919 80.996L27.4303 80.996L27.4398 80.9864L27.4878 80.9961L27.5262 80.9962L27.5358 80.9866L27.5838 80.9962L27.6222 80.9963L27.6606 80.9963L27.6702 80.9868L27.7182 80.9964L27.7566 80.9965L27.795 80.9965L27.8333 80.9966L27.8429 80.987L27.8909 80.9967L27.9293 80.9967L27.9677 80.9968L28.0061 80.9968L28.0157 80.9872L28.0637 80.9969L28.1021 80.997L28.1405 80.997L28.1789 80.9971L28.1884 80.9875L28.2364 80.9971L28.2748 80.9972L28.3132 80.9972L28.3516 80.9973L28.5051 80.9783C28.7924 80.4988 28.8972 79.9135 28.8098 79.2128C28.7224 78.4545 28.3761 77.8974 27.7806 77.5318C27.185 77.1663 26.4554 77.0309 25.6014 77.1353C24.709 77.2396 24.0375 77.5266 23.5775 77.9867C23.1079 78.4563 22.9167 79.0319 23.0041 79.7326C23.0914 80.4141 23.4089 81 23.9663 81.4999L24.0328 80.9913Z" fill="#82CE8C"/>
<path d="M30.939 64.359L30.6543 66.662L25.1636 65.9825C24.5301 65.9049 24.0599 65.9714 23.7531 66.1821C23.4462 66.3928 23.274 66.7573 23.2075 67.2659C23.1126 68.0527 23.3056 68.7632 23.8055 69.4165L30.2369 70.2125L29.9522 72.5154L16.8974 70.9041L16.8654 68.5527L22.3561 69.2322C21.5197 68.2425 21.1535 67.167 21.2959 66.006C21.4002 65.1327 21.764 64.4806 22.3681 64.0496C22.9817 63.6089 23.7685 63.4565 24.738 63.5826L30.9294 64.3494L30.939 64.359Z" fill="#82CE8C"/>
<path d="M25.624 51.9515L32.8212 58.2478L33.9743 59.2284C34.9544 60.0551 35.5793 60.8142 35.8489 61.4864C36.1186 62.1586 36.0908 62.8976 35.7944 63.7129C35.5363 64.4324 35.1053 65.094 34.5207 65.6978L32.9545 64.4C33.4242 63.9304 33.7307 63.5277 33.8454 63.2016C33.9602 62.8754 33.9598 62.5875 33.8346 62.309C33.7094 62.0305 33.4018 61.6845 32.9118 61.252L32.0662 60.5214L22.4403 60.7864L23.2912 58.4362L30.1631 58.5225L24.7826 54.2729L25.6144 51.9419L25.624 51.9515Z" fill="#82CE8C"/>
<path d="M33.3221 45.7145C33.7251 45.6383 34.1091 45.7348 34.455 45.9848C34.8104 46.2252 35.0316 46.5614 35.1089 46.9646C35.1863 47.3678 35.1005 47.7612 34.8418 48.116C34.5832 48.4899 34.238 48.7198 33.835 48.796C33.432 48.8722 33.0384 48.7853 32.6926 48.5353C32.3371 48.2948 32.1255 47.9682 32.0578 47.5554C31.99 47.1427 32.0855 46.7589 32.3441 46.3849C32.5931 46.0206 32.9287 45.8003 33.3317 45.7241L33.3221 45.7145Z" fill="#82CE8C"/>
</g>
<defs>
<clipPath id="clip0_2250_83">
<rect width="104" height="101" fill="white" transform="translate(0 73.5391) rotate(-45)"/>
</clipPath>
</defs>
</svg>
