<svg width="161" height="152" viewBox="0 0 161 152" fill="none" xmlns="http://www.w3.org/2000/svg">
<path d="M98.387 26.3165L98.3632 26.4055C97.9838 27.4645 97.9901 28.4518 98.3859 29.3528C98.7818 30.2537 99.5355 30.9485 100.636 31.4184C102.008 32.0084 103.475 32.1791 105.035 31.9453L104.31 34.7716C102.744 34.9084 101.088 34.6077 99.3274 33.8657C97.3111 33.0075 95.9512 31.721 95.2437 30.0211C94.5213 28.3173 94.6039 26.4634 95.4387 24.4773C96.3004 22.4507 97.6106 21.0688 99.3653 20.3467C101.105 19.6205 102.926 19.6632 104.816 20.4559C106.447 21.1473 107.517 22.1493 108.029 23.4472C108.542 24.7451 108.463 26.1706 107.806 27.7276C107.465 28.5264 107.081 29.1866 106.64 29.7043L98.391 26.3017L98.387 26.3165ZM99.2604 24.4838L104.657 26.7567L104.747 26.5421C105.523 24.7152 105.125 23.464 103.524 22.7806C102.694 22.4309 101.884 22.4206 101.106 22.7685C100.328 23.1164 99.7139 23.6833 99.2604 24.4838Z" fill="#B182E7"/>
<path d="M115.046 36.6787L108.391 31.6682L110.192 29.289L116.847 34.2995L115.046 36.6787Z" fill="#B182E7"/>
<path d="M126.575 48.1142C124.896 49.4449 123.099 50.0285 121.202 49.8541C119.305 49.6797 117.748 48.8332 116.534 47.2996C115.853 46.4496 115.356 45.5693 115.002 44.6318L112.528 42.3313L128.326 29.8078L130.861 32.236L124.69 37.1325C126.351 37.3549 127.584 37.9872 128.422 39.0225C129.545 40.4204 129.911 41.9653 129.559 43.6357C129.207 45.3061 128.201 46.8012 126.56 48.1102L126.575 48.1142ZM124.249 45.44C125.3 44.6088 125.938 43.7146 126.162 42.7573C126.387 41.8 126.181 40.9024 125.512 40.0712C124.883 39.2668 123.995 38.7745 122.887 38.5728L122.879 38.6025L122.841 38.6242L122.833 38.6538L122.795 38.6755L122.787 38.7052L122.75 38.7269L122.742 38.7566L122.704 38.7783L122.696 38.8079L122.658 38.8296L122.65 38.8593L122.613 38.881L122.605 38.9107L122.567 38.9324L122.559 38.962L122.522 38.9837L122.514 39.0134L122.476 39.0351L122.468 39.0648L122.43 39.0865L122.422 39.1161L122.385 39.1378L122.377 39.1675L122.339 39.1892L122.331 39.2189L122.293 39.2406L122.285 39.2702L122.248 39.2919L122.24 39.3216L122.202 39.3433L122.194 39.373L122.157 39.3947L122.149 39.4243L122.111 39.446L122.103 39.4757L122.065 39.4974L122.057 39.5271L122.02 39.5488L122.012 39.5784L121.974 39.6001L121.966 39.6298L121.928 39.6515L121.92 39.6812L121.883 39.7029L121.875 39.7325L121.837 39.7542L121.829 39.7839L121.792 39.8056L121.75 39.8421L121.742 39.8718L121.704 39.8935L121.696 39.9232L121.659 39.9449L121.651 39.9745L121.613 39.9962L121.571 40.0328L121.563 40.0624L121.526 40.0841L121.518 40.1138L121.48 40.1355L121.438 40.172L121.431 40.2017L121.393 40.2234L121.385 40.2531L121.328 40.2856L121.32 40.3153L121.283 40.337L121.275 40.3666L121.218 40.3992L121.21 40.4289L121.173 40.4506L121.131 40.4871L121.123 40.5168L121.085 40.5385L121.044 40.575L121.036 40.6047L120.998 40.6264L120.956 40.6629L120.949 40.6926L120.911 40.7143L120.869 40.7508L120.861 40.7805L120.824 40.8022L120.782 40.8387L120.774 40.8684L120.703 40.8969L120.695 40.9266L120.657 40.9483L120.615 40.9848L120.607 41.0145L120.551 41.047L120.543 41.0767L120.472 41.1053L120.464 41.1349L120.407 41.1675L120.399 41.1972L120.361 41.2189L120.32 41.2554L120.312 41.2851L120.24 41.3136L120.232 41.3433L120.176 41.3759L120.168 41.4055L120.112 41.4381L120.07 41.4746L120.062 41.5043L120.005 41.5368L119.997 41.5665L119.941 41.599L119.933 41.6287L119.862 41.6573L119.854 41.6869L119.797 41.7195L119.755 41.756L119.748 41.7857L119.691 41.8182L119.683 41.8479L119.627 41.8805L119.585 41.917L119.577 41.9467L119.52 41.9792L119.512 42.0089L119.456 42.0414L119.414 42.078L119.406 42.1076L119.35 42.1402L119.308 42.1767L119.3 42.2064L119.244 42.2389L119.202 42.2755L119.194 42.3051L119.123 42.3337L119.081 42.3702L119.073 42.3999L119.017 42.4324L118.975 42.469L118.933 42.5055L118.925 42.5352L118.869 42.5677L118.827 42.6043L118.819 42.6339L118.763 42.6665L118.721 42.703L118.679 42.7395L118.672 42.7692L118.615 42.8018L118.573 42.8383L118.532 42.8748L118.49 42.9114L118.482 42.941L118.426 42.9736L118.384 43.0101L118.342 43.0466L118.301 43.0832L118.293 43.1128L118.236 43.1454L118.195 43.1819L118.153 43.2185L118.111 43.255L118.103 43.2847L118.047 43.3172L118.005 43.3537L117.963 43.3903L117.922 43.4268L117.74 43.569C117.753 44.4149 118.09 45.2366 118.73 46.0598C119.447 46.9514 120.317 47.3912 121.369 47.387C122.422 47.3829 123.455 46.9761 124.468 46.1666L124.249 45.44Z" fill="#B182E7"/>
<path d="M132.749 63.5999C130.71 64.3731 128.818 64.3589 127.113 63.5843C125.394 62.8058 124.177 61.4622 123.458 59.5684C122.739 57.6745 122.768 55.9017 123.53 54.2459C124.292 52.5901 125.715 51.3816 127.792 50.5868C129.865 49.8068 131.746 49.8021 133.465 50.5807C135.184 51.3592 136.402 52.7029 137.117 54.6115C137.836 56.5053 137.807 58.2781 137.03 59.93C136.253 61.5818 134.826 62.8051 132.753 63.5851L132.749 63.5999ZM128.169 60.6558C129.127 60.9443 130.233 60.8592 131.491 60.3854C132.749 59.9117 133.645 59.2455 134.2 58.361C134.756 57.4765 134.835 56.5279 134.441 55.5003C134.037 54.4539 133.357 53.779 132.38 53.5013C131.403 53.2236 130.278 53.3196 129.024 53.7785C127.785 54.2413 126.904 54.9116 126.367 55.7852C125.831 56.6589 125.748 57.6223 126.152 58.6687C126.546 59.6963 127.215 60.3524 128.188 60.6449L128.169 60.6558Z" fill="#B182E7"/>
<path d="M133.995 80.2932C131.818 80.3933 130.028 79.8184 128.635 78.5388C127.241 77.2592 126.503 75.6147 126.405 73.6013C126.307 71.5878 126.872 69.8951 128.107 68.5566C129.342 67.2182 131.078 66.5069 133.289 66.3999C135.5 66.2929 137.29 66.8678 138.683 68.1474C140.077 69.427 140.819 71.0567 140.924 73.1038C141.018 75.132 140.442 76.806 139.207 78.1444C137.957 79.4788 136.217 80.205 134.006 80.312L133.995 80.2932ZM130.563 76.0985C131.382 76.6678 132.475 76.9289 133.816 76.8589C135.153 76.8038 136.223 76.4386 137.025 75.7633C137.823 75.1028 138.189 74.215 138.132 73.1188C138.079 72.0077 137.623 71.1541 136.789 70.5808C135.94 70.0036 134.843 69.7573 133.521 69.8164C132.198 69.8755 131.144 70.2447 130.36 70.9092C129.577 71.5736 129.208 72.4763 129.26 73.5874C129.317 74.6836 129.748 75.5144 130.582 76.0877L130.563 76.0985Z" fill="#B182E7"/>
<path d="M132.267 87.1585L132.283 87.0992L125.923 85.5064L126.762 82.1382L145.901 86.9325L145.508 90.4202L133.238 87.3392L133.222 87.3986L137.921 93.5859L136.903 97.6216L132.002 90.5851L123.685 94.3342L124.703 90.2985L132.256 87.1397L132.267 87.1585Z" fill="#B182E7"/>
<path d="M121.686 105.42C120.551 104.782 119.888 103.81 119.663 102.509C119.452 101.213 119.767 99.8025 120.608 98.3269C121.607 96.5597 122.838 95.2361 124.315 94.3601L126.313 96.358C124.836 97.234 123.72 98.3659 122.936 99.7456C122.602 100.34 122.44 100.884 122.484 101.373C122.513 101.858 122.739 102.205 123.153 102.443C123.582 102.685 124.015 102.674 124.471 102.399C124.928 102.123 125.469 101.648 126.104 100.944C127.115 99.8478 128.097 99.0936 129.044 98.7114C129.995 98.3143 131.001 98.4249 132.04 99.0054C133.16 99.6395 133.802 100.575 133.994 101.818C134.187 103.062 133.878 104.394 133.082 105.819C132.148 107.46 131.03 108.719 129.695 109.601L127.697 107.603C129.07 106.699 130.084 105.651 130.776 104.438C131.444 103.25 131.375 102.436 130.599 102.006C130.185 101.767 129.766 101.782 129.34 102.066C128.914 102.349 128.372 102.824 127.704 103.535C126.674 104.642 125.677 105.392 124.726 105.79C123.779 106.172 122.754 106.072 121.704 105.473L121.686 105.42Z" fill="#B182E7"/>
<path d="M116.037 118.184C115.425 118.147 114.907 117.881 114.459 117.411C114.03 116.931 113.826 116.383 113.852 115.754C113.873 115.139 114.143 114.608 114.647 114.154C115.155 113.686 115.737 113.476 116.348 113.513C116.96 113.55 117.497 113.805 117.941 114.29C118.369 114.77 118.573 115.318 118.533 115.943C118.497 116.553 118.223 117.1 117.7 117.564C117.201 118.003 116.648 118.221 116.037 118.184Z" fill="#B182E7"/>
<path d="M103.053 125.912L99.6137 118.234L102.798 116.814L108.318 129.151L105.347 131.026L104.439 129.002C104.232 130.727 103.459 131.887 102.12 132.482C101.271 132.859 100.455 132.99 99.6503 132.902L99.0826 129.729C99.817 129.783 100.479 129.69 101.077 129.421C102.25 128.908 102.904 127.716 103.057 125.897L103.053 125.912Z" fill="#B182E7"/>
<path d="M91.8959 127.358L91.886 127.276C91.6202 126.187 91.0776 125.358 90.2504 124.819C89.4232 124.279 88.4223 124.09 87.2358 124.297C85.7688 124.54 84.4334 125.184 83.2483 126.218L82.3344 123.445C83.563 122.486 85.1225 121.839 87.0087 121.518C89.1607 121.156 90.999 121.49 92.5305 122.552C94.0511 123.596 94.9955 125.184 95.3598 127.333C95.7349 129.5 95.3759 131.375 94.3054 132.932C93.2349 134.49 91.6892 135.443 89.6721 135.777C87.9206 136.07 86.4767 135.811 85.3405 134.997C84.2042 134.184 83.4855 132.942 83.2141 131.28C83.0749 130.432 83.0428 129.66 83.1245 128.998L91.8988 127.407L91.8959 127.358ZM92.1353 129.378L86.3714 130.377L86.4049 130.609C86.7386 132.574 87.7589 133.404 89.4618 133.113C90.3638 132.957 91.035 132.533 91.4984 131.814C91.9617 131.096 92.1803 130.28 92.1205 129.374L92.1353 129.378Z" fill="#B182E7"/>
<path d="M75.1957 134.569C73.8472 135.559 72.5119 135.964 71.1899 135.785C69.406 135.545 68.0726 134.695 67.1707 133.245C66.2688 131.795 65.9469 130.024 66.2347 127.939C66.5157 125.82 67.4088 124.152 68.9022 122.978C70.3956 121.804 72.1016 121.323 74.038 121.588C75.1292 121.737 76.0656 121.988 76.8622 122.344L77.7169 115.944L81.1765 116.41L78.5049 136.25L74.9855 136.245L75.2146 134.558L75.1957 134.569ZM75.5055 132.283L75.5135 132.253L75.5214 132.224L75.5294 132.194L75.5373 132.164L75.5453 132.135L75.5532 132.105L75.5612 132.075L75.5691 132.046L75.5771 132.016L75.585 131.986L75.593 131.957L75.6009 131.927L75.6089 131.897L75.6168 131.868L75.6248 131.838L75.6327 131.808L75.6407 131.779L75.6486 131.749L75.6566 131.719L75.6645 131.69L75.6725 131.66L75.6804 131.63L75.6884 131.601L75.6963 131.571L75.7043 131.541L75.7122 131.512L75.7202 131.482L75.7281 131.452L75.736 131.423L75.744 131.393L75.7519 131.363L75.7599 131.334L75.7678 131.304L75.7758 131.274L75.7837 131.245L75.7917 131.215L75.7996 131.185L75.8076 131.156L75.8155 131.126L75.8235 131.096L75.8314 131.067L75.8394 131.037L75.8473 131.007L75.8553 130.978L75.8632 130.948L75.8712 130.918L75.8791 130.889L75.8871 130.859L75.903 130.8L75.9109 130.77L75.9189 130.74L75.9268 130.711L75.9348 130.681L75.9427 130.651L75.9507 130.622L75.9666 130.562L75.9745 130.533L75.9825 130.503L75.9904 130.473L75.9984 130.444L76.0143 130.384L76.0222 130.355L76.0302 130.325L76.0381 130.295L76.054 130.236L76.062 130.206L76.0699 130.177L76.0779 130.147L76.0938 130.088L76.1017 130.058L76.1097 130.028L76.1256 129.969L76.1335 129.939L76.1414 129.91L76.1573 129.85L76.1653 129.821L76.1732 129.791L76.1891 129.732L76.1971 129.702L76.205 129.672L76.2209 129.613L76.2289 129.583L76.2368 129.554L76.2527 129.494L76.2607 129.465L76.2766 129.405L76.2845 129.376L76.2925 129.346L76.3084 129.287L76.3163 129.257L76.3322 129.198L76.3402 129.168L76.3561 129.109L76.364 129.079L76.3799 129.02L76.3879 128.99L76.3958 128.96L76.4117 128.901L76.4197 128.871L76.4356 128.812L76.4435 128.782L76.4594 128.723L76.4674 128.693L76.4833 128.634L76.4992 128.575L76.5071 128.545L76.523 128.486L76.531 128.456L76.5468 128.397L76.5548 128.367L76.5707 128.308L76.5786 128.278L76.5945 128.219L76.6104 128.159L76.6184 128.13L76.6343 128.07L76.6422 128.041L76.6581 127.981L76.674 127.922L76.682 127.892L76.6979 127.833L76.7058 127.803L76.7217 127.744L76.7376 127.685L76.7456 127.655L76.7615 127.596L76.7774 127.536L76.7853 127.507L76.8012 127.447L76.8171 127.388L76.8251 127.358L76.841 127.299L76.8569 127.24L76.8648 127.21L76.8807 127.151L76.8966 127.091L76.9125 127.032L76.9205 127.002L76.9363 126.943L76.9522 126.884L76.9602 126.854L76.9761 126.795L76.992 126.735L77.0079 126.676L77.0158 126.646L77.0317 126.587L77.0476 126.528L77.0635 126.468L77.0794 126.409L77.0874 126.379L77.1033 126.32L77.1192 126.261L77.1351 126.201L77.151 126.142L77.1589 126.112L77.1748 126.053L77.1907 125.994L77.2066 125.934L77.2225 125.875L77.2305 125.845L77.2464 125.786L77.2623 125.727L77.2782 125.667L77.2941 125.608L77.3239 125.378C76.7327 124.79 75.9103 124.411 74.8787 124.277C73.743 124.116 72.8012 124.42 72.0504 125.141C71.2957 125.877 70.8352 126.882 70.6648 128.172C70.4865 129.491 70.6552 130.586 71.1453 131.433C71.6501 132.283 72.4258 132.777 73.4872 132.919C74.504 133.048 75.4744 132.815 76.4253 132.18L75.5055 132.283Z" fill="#B182E7"/>
<path d="M50.9339 121.009C51.8768 119.036 53.2266 117.744 55.0169 117.127C56.7924 116.505 58.608 116.626 60.4301 117.496C62.267 118.37 63.4812 119.665 64.0727 121.381C64.6642 123.098 64.4845 124.957 63.5297 126.975C62.5829 128.963 61.2143 130.266 59.4536 130.891C57.6781 131.512 55.8774 131.395 54.0296 130.503C52.1927 129.629 50.9785 128.334 50.3909 126.602C49.8034 124.871 49.9831 123.011 50.9379 120.994L50.9339 121.009ZM56.2618 119.972C55.3734 120.434 54.6286 121.251 54.0638 122.467C53.4842 123.679 53.3129 124.794 53.5204 125.803C53.7278 126.813 54.3388 127.565 55.3276 128.036C56.3462 128.516 57.3016 128.518 58.2088 128.045C59.1159 127.573 59.8499 126.736 60.4296 125.524C61.0012 124.342 61.1685 123.242 60.9462 122.229C60.7239 121.215 60.1089 120.478 59.0904 119.999C58.1016 119.527 57.1501 119.511 56.2618 119.972Z" fill="#B182E7"/>
<path d="M44.5723 117.699L50.0802 111.353L52.719 113.634L43.8674 123.837L40.9053 121.931L42.3544 120.268C40.7108 120.813 39.3145 120.614 38.2031 119.649C37.5038 119.048 37.0335 118.365 36.7773 117.597L39.409 115.743C39.6702 116.433 40.0454 116.994 40.5347 117.428C41.5064 118.26 42.8483 118.366 44.5792 117.732L44.5723 117.699Z" fill="#B182E7"/>
<path d="M40.0065 99.9569C40.907 100.58 41.6785 101.327 42.3103 102.18C43.2341 103.429 43.6258 104.583 43.4893 105.628C43.3529 106.672 42.6128 107.65 41.303 108.555L36.0258 112.197L37.1079 114.045L35.2774 115.287L33.4586 113.989L31.0005 115.731L28.9993 113.033L31.5973 111.185L29.3149 108.109L31.6629 106.481L34.0146 109.655L39.1827 106.064C40.1872 105.347 40.3354 104.496 39.6126 103.508C39.2621 103.032 38.7252 102.539 38.013 102.046L40.0134 99.9905L40.0065 99.9569Z" fill="#B182E7"/>
<path d="M31.7239 91.0925C32.9156 90.5693 34.0979 90.6158 35.267 91.247C36.44 91.8634 37.3739 92.9562 38.0537 94.5215C38.8632 96.3759 39.1811 98.1622 39.0114 99.8655L36.2173 100.246C36.3869 98.5422 36.1699 96.9738 35.5406 95.5174C35.2635 94.8867 34.9199 94.4449 34.5137 94.1771C34.1076 93.9093 33.6864 93.8759 33.2541 94.0622C32.803 94.2592 32.5471 94.6199 32.5051 95.1333C32.4483 95.6427 32.5072 96.3739 32.686 97.3121C32.9605 98.7847 32.9666 100.01 32.7003 101.004C32.434 101.998 31.7576 102.739 30.6561 103.223C29.4833 103.735 28.3495 103.686 27.2359 103.085C26.1224 102.485 25.24 101.438 24.5889 99.9437C23.8259 98.213 23.5059 96.5534 23.5952 94.9716L26.3894 94.5916C26.2882 96.2178 26.5181 97.6785 27.0831 98.9586C27.6264 100.201 28.3209 100.642 29.1517 100.276C29.5839 100.09 29.821 99.7399 29.859 99.2414C29.897 98.7428 29.8381 98.0116 29.6821 97.0477C29.4116 95.5603 29.4134 94.3049 29.6797 93.3111C29.946 92.3173 30.6373 91.5804 31.7576 91.0857L31.7239 91.0925Z" fill="#B182E7"/>
<path d="M19.9816 73.0815L13.8646 73.0799L13.3952 69.5997L33.6047 69.6254L33.6113 73.1088L32.2901 73.1046C33.4757 74.3284 34.0595 75.5977 34.0676 76.9353C34.0683 78.7161 33.4102 80.1614 32.0864 81.2375C30.7625 82.3136 29.0406 82.8537 26.9206 82.858C24.7709 82.8544 23.0201 82.1944 21.6345 80.8852C20.2528 79.5611 19.574 77.9325 19.5684 75.9914C19.5621 75.004 19.7233 74.0457 20.0074 73.1043L19.9816 73.0815ZM23.1205 73.08C22.5897 73.8121 22.3146 74.6605 22.3209 75.6479C22.3171 76.7915 22.7318 77.6816 23.5609 78.333C24.39 78.9845 25.4523 79.3009 26.7546 79.316C28.0757 79.3202 29.1295 79.0143 29.9198 78.3835C30.7101 77.7527 31.1042 76.9362 31.0989 75.8855C31.0977 74.82 30.7246 73.8934 29.969 73.0868L29.9393 73.0788L29.9095 73.0708L29.8798 73.0629L29.8501 73.0549L29.8203 73.0469L29.7906 73.039L29.7609 73.031L29.7272 73.0379L29.6975 73.0299L29.6677 73.0219L29.638 73.014L29.6083 73.006L29.5786 72.998L29.5488 72.9901L29.5191 72.9821L29.4854 72.989L29.4557 72.981L29.4259 72.973L29.3962 72.9651L29.3665 72.9571L29.3368 72.9491L29.307 72.9412L29.2773 72.9332L29.2476 72.9253L29.2178 72.9173L29.1881 72.9093L29.1584 72.9014L29.1287 72.8934L29.0989 72.8854L29.0692 72.8775L29.0395 72.8695L29.0098 72.8615L28.98 72.8536L28.9463 72.8604L28.9166 72.8525L28.8869 72.8445L28.8571 72.8365L28.8274 72.8286L28.768 72.8126L28.7343 72.8195L28.7045 72.8115L28.6748 72.8036L28.6451 72.7956L28.6153 72.7876L28.5856 72.7797L28.5519 72.7865L28.5222 72.7786L28.4925 72.7706L28.4627 72.7626L28.433 72.7547L28.3735 72.7387L28.3398 72.7456L28.3101 72.7377L28.2804 72.7297L28.2507 72.7217L28.2209 72.7138L28.1615 72.6978L28.1238 72.7195L28.0941 72.7116L28.0643 72.7036L28.0346 72.6956L27.9712 72.6945L27.9415 72.6866L27.9078 72.6934L27.878 72.6855L27.8146 72.6844L27.7849 72.6764L27.7512 72.6833L27.6917 72.6673L27.658 72.6742L27.6283 72.6662L27.5986 72.6583L27.5391 72.6423L27.5014 72.664L27.4717 72.6561L27.4083 72.655L27.3785 72.647L27.3448 72.6539L27.2854 72.638L27.2517 72.6448L27.1922 72.6289L27.1585 72.6358L27.1288 72.6278L27.0654 72.6267L27.0356 72.6187L26.9682 72.6325L26.9385 72.6245L26.9088 72.6165L26.8493 72.6006L26.8156 72.6075L26.7562 72.5915L26.7225 72.5984L26.663 72.5825L26.6253 72.6042L26.5659 72.5882L26.5322 72.5951L26.4727 72.5792L26.439 72.586L26.3796 72.5701L26.3459 72.577L26.2864 72.5611L26.2527 72.5679L26.1932 72.552L26.1556 72.5737L26.0961 72.5578L26.0624 72.5646L26.003 72.5487L25.9693 72.5556L25.9098 72.5396L25.8721 72.5613L25.8127 72.5454L25.7453 72.5591L25.7155 72.5512L25.6521 72.5501L25.6224 72.5421L25.559 72.541L25.5292 72.533L25.4618 72.5468L25.4024 72.5308L25.3687 72.5377L25.3092 72.5218L25.2418 72.5355L25.2121 72.5276L25.1486 72.5265L25.0892 72.5105L25.0515 72.5322L24.9921 72.5163L24.9247 72.53L24.8949 72.5221L24.8315 72.521L24.772 72.505L24.7383 72.5119L24.6789 72.496L24.6115 72.5097L24.5818 72.5017L24.5143 72.5155L24.4549 72.4995L24.3875 72.5133L24.3578 72.5053L24.2943 72.5042L24.2349 72.4883L24.1675 72.502L24.1377 72.4941L24.0743 72.493L24.0149 72.477L23.9475 72.4908L23.9177 72.4828L23.8543 72.4817L23.7948 72.4658L23.7274 72.4795L23.668 72.4636L23.6303 72.4853L23.5708 72.4693L23.5034 72.4831L23.444 72.4671L23.3766 72.4809L23.3469 72.4729L23.2795 72.4867L23.22 72.4707L23.1526 72.4845L23.0931 72.4685L23.0257 72.4823L22.7571 72.4739L23.1205 73.08Z" fill="#B182E7"/>
<path d="M28.965 63.0403L29.0542 63.0642C30.1472 63.3253 31.1344 63.2083 31.9821 62.72C32.8447 62.2358 33.4479 61.4117 33.8025 60.2667C34.2474 58.8438 34.2603 57.3687 33.8709 55.8494L36.7676 56.2759C37.0748 57.8049 36.9577 59.4905 36.3905 61.3099C35.7518 63.3963 34.619 64.8892 32.9959 65.7738C31.3729 66.6585 29.5234 66.7829 27.4475 66.1472C25.3418 65.5035 23.8341 64.3523 22.9284 62.6788C22.0187 61.0201 21.8653 59.2144 22.4683 57.2615C22.9848 55.5716 23.8696 54.4097 25.1119 53.7569C26.3542 53.1041 27.7735 53.0392 29.3927 53.5366C30.2171 53.7894 30.9136 54.1032 31.4783 54.4929L28.965 63.0403ZM27.0467 62.3515L28.7353 56.7627L28.5124 56.703C26.6148 56.115 25.4043 56.6492 24.8997 58.2945C24.6355 59.1617 24.7232 59.9642 25.1479 60.698C25.5725 61.4318 26.2203 61.987 27.0467 62.3515Z" fill="#B182E7"/>
<path d="M40.3982 44.2121C41.5028 44.9055 42.1246 45.9147 42.2674 47.2248C42.4102 48.5349 42.0257 49.9104 41.1099 51.3661C40.0295 53.0798 38.7213 54.335 37.2004 55.1357L35.3089 53.039C36.8298 52.2383 38.0079 51.1709 38.8433 49.8367C39.2075 49.2507 39.3951 48.7286 39.3806 48.2478C39.3661 47.767 39.1631 47.3946 38.7679 47.1456C38.3617 46.8778 37.9177 46.8701 37.4547 47.1117C36.9917 47.3533 36.4244 47.8055 35.753 48.4681C34.6908 49.519 33.6755 50.2167 32.696 50.5425C31.7166 50.8683 30.7335 50.732 29.7141 50.0773C28.6392 49.3919 28.0393 48.4203 27.9143 47.1627C27.7893 45.905 28.1727 44.5928 29.0349 43.2182C30.0499 41.6301 31.249 40.4251 32.6133 39.6143L34.5049 41.7109C33.088 42.5395 32.008 43.5379 31.2609 44.7208C30.5406 45.8632 30.546 46.6755 31.3217 47.1695C31.717 47.4185 32.1461 47.4222 32.5794 47.1726C33.0127 46.9231 33.5799 46.4709 34.285 45.8014C35.3809 44.7437 36.4111 44.05 37.3757 43.7202C38.3403 43.3904 39.3531 43.5346 40.3873 44.1933L40.3982 44.2121Z" fill="#B182E7"/>
<path d="M34.6934 29.7108C35.1638 30.1548 35.4132 30.6509 35.4159 31.1763C35.4333 31.7056 35.2011 32.2157 34.73 32.7253C34.2668 33.2054 33.7701 33.4538 33.2398 33.4707C32.7096 33.4876 32.2132 33.2592 31.7427 32.8152C31.2871 32.3752 31.0486 31.8979 31.0311 31.3686C31.0136 30.8393 31.231 30.3252 31.6942 29.8452C32.1613 29.3503 32.6769 29.091 33.218 29.0929C33.7443 29.0909 34.2447 29.3044 34.7042 29.7296L34.6934 29.7108ZM47.6027 42.5338L45.2064 45.0554L35.4009 35.7509L37.4445 32.8804L47.6175 42.5378L47.6027 42.5338Z" fill="#B182E7"/>
<path d="M50.7867 40.2231C50.1533 40.3872 49.5745 40.407 49.0206 40.2745C48.4666 40.142 48.0456 39.8702 47.7505 39.4255C47.408 38.9203 47.2795 38.3295 47.3692 37.6381C47.4589 36.9467 47.7309 36.2883 48.2189 35.6559C47.3625 35.7603 46.536 35.6343 45.7583 35.2669C44.9805 34.8995 44.3327 34.3444 43.804 33.5827C42.9802 32.3763 42.7442 31.0571 43.0663 29.6172C43.3884 28.1773 44.3229 26.9492 45.8251 25.9209C46.8593 25.2123 48.0876 24.7306 49.4803 24.4679L52.3174 22.1439L54.1513 24.5748L51.756 25.6659C52.3546 25.8104 52.9291 26.2823 53.4647 27.0776C54.2558 28.2276 54.47 29.5091 54.1153 30.8926C53.7605 32.276 52.9054 33.4459 51.543 34.3686C51.0561 34.6992 50.5029 34.9802 49.8644 35.2225C49.425 35.8519 49.3641 36.3762 49.6483 36.8021C49.8523 37.1111 50.1753 37.2135 50.6094 37.1391C51.0327 37.0458 51.695 36.7145 52.5745 36.1076L52.5894 36.1116L52.6162 36.0711L52.631 36.0751L52.6578 36.0345L52.6727 36.0385L52.6995 35.998L52.7411 35.9615L52.756 35.9655L52.7828 35.9249L52.7976 35.9289L52.8244 35.8884L52.8661 35.8519L52.8809 35.8559L52.9414 35.8085L52.9563 35.8125L53.0019 35.7611L53.0168 35.7651L53.0773 35.7177L53.1338 35.6851L53.1486 35.6891L53.1943 35.6378L53.2508 35.6052L53.3073 35.5727L53.349 35.5361L53.4055 35.5036L53.462 35.471L53.5036 35.4345L53.7 35.2963C57.0703 33.0039 59.4569 32.8962 60.8639 34.9584C61.757 36.2628 61.8481 37.7658 61.1334 39.482C60.4186 41.1983 59.1629 42.6742 57.3513 43.9057C55.8114 44.9557 54.3313 45.5448 52.9555 45.6849C51.5649 45.821 50.5493 45.3899 49.8859 44.4173C49.4632 43.7953 49.31 43.1183 49.4493 42.3607C49.5737 41.5992 50.0033 40.8876 50.7273 40.2072L50.7867 40.2231ZM46.5962 31.7236C47.0665 32.406 47.6272 32.8106 48.304 32.9602C48.966 33.1058 49.648 32.9387 50.3311 32.47C50.9727 32.0378 51.3249 31.4962 51.3918 30.8305C51.4586 30.1648 51.246 29.4719 50.7688 28.7558C50.2876 28.0546 49.7309 27.6351 49.0917 27.4639C48.4526 27.2926 47.7706 27.4596 47.0685 27.9392C46.427 28.3715 46.0708 28.9278 46 29.6084C45.9143 30.2849 46.1229 30.9926 46.615 31.7127L46.5962 31.7236ZM52.5325 39.5939C51.8222 40.58 51.6968 41.4049 52.1413 42.0646C52.4948 42.5885 53.0883 42.8112 53.903 42.7433C54.7178 42.6754 55.608 42.3258 56.548 41.6715C57.5594 40.9886 58.2695 40.2409 58.6893 39.4472C59.1091 38.6535 59.1314 37.9758 58.7452 37.3954C58.4027 36.8903 57.9241 36.7143 57.3095 36.8676C56.6949 37.0209 55.8403 37.4755 54.7307 38.2275C53.9156 38.7722 53.1879 39.229 52.5176 39.5899L52.5325 39.5939Z" fill="#B182E7"/>
<path d="M72.4179 29.5329L69.0831 30.563L66.6335 22.6413C66.3428 21.7049 65.9498 21.0908 65.4653 20.8179C64.9808 20.5451 64.3505 20.5192 63.5812 20.7742C62.5047 21.1057 61.6796 21.8067 61.0763 22.8692L63.959 32.1471L60.6243 33.1772L56.6181 20.2438L59.8035 18.7604L60.4453 20.8242C61.2731 19.0428 62.486 17.9052 64.084 17.4113C65.4045 17.002 66.5452 17.0851 67.5359 17.6685C68.5157 18.2331 69.2236 19.2177 69.6637 20.6075L72.4328 29.5369L72.4179 29.5329Z" fill="#B182E7"/>
<path d="M85.1323 20.7301C85.5354 21.188 85.7204 21.7463 85.6912 22.3904C85.662 23.0345 85.4069 23.5704 84.9447 23.9872C84.4825 24.4039 83.9233 24.588 83.2483 24.5502C82.5584 24.5085 82.0065 24.2493 81.5885 23.7875C81.1705 23.3257 80.9855 22.7673 81.0186 22.1083C81.0478 21.4642 81.3029 20.9284 81.776 20.5304C82.2343 20.1285 82.8272 19.9376 83.5171 19.9793C84.1921 20.0171 84.7292 20.2723 85.1323 20.7301Z" fill="#B182E7"/>
</svg>
