<svg width="310" height="310" viewBox="0 0 310 310" fill="none" xmlns="http://www.w3.org/2000/svg">
<path d="M309.98 155.65C309.769 167.191 308.215 178.801 305.321 190.271C298.896 215.828 289.646 235.085 274.184 253.564C289.011 229.068 297.413 195.864 296.283 162.872C295.012 125.986 279.126 89.1007 249.119 53.2063C229.844 30.197 209.51 14.9755 186.987 6.76301C163.899 -1.66191 126.62 -0.529146 103.108 18.0906C82.5622 34.4449 76.9138 64.1091 89.6933 88.6051C98.2365 105.101 115.323 115.083 129.232 122.022C135.586 125.137 142.223 128.181 149.284 131.367C180.209 145.456 215.229 161.385 234.928 193.102C251.378 219.652 246.224 257.528 222.572 283.299C200.614 307.157 162.204 315.724 119.771 306.166C118.359 305.812 116.947 305.458 115.535 305.104C52.2021 288.184 7.1562 235.51 0.801762 171.014C-2.86969 134.199 6.16773 98.446 25.8665 68.8525C13.5812 92.0034 8.78011 119.402 11.5337 150.695C14.8521 188.147 32.8564 227.298 62.3692 260.856C72.6775 272.608 88.2106 284.644 105.085 293.847C122.736 303.547 142.011 308.219 160.722 307.37C177.243 306.662 188.681 303.405 199.131 296.538C227.02 278.06 228.008 241.174 217.135 214.625C210.145 197.633 195.318 182.908 171.807 169.668C164.393 165.491 156.697 161.527 149.284 157.704C137.705 151.686 125.702 145.526 114.546 138.447C105.509 132.712 94.0708 124.854 85.3158 114.092C61.6632 84.9236 71.4066 44.569 94.4238 22.4801C107.133 10.3029 124.713 2.58595 143.918 0.674416C181.55 -3.07786 220.736 8.95774 251.449 33.5245C288.305 63.1887 310.757 109.986 309.98 155.65Z" fill="url(#paint0_linear_204_42355)" fill-opacity="0.27"/>
<defs>
<linearGradient id="paint0_linear_204_42355" x1="273.865" y1="30.9049" x2="38.0368" y2="291.933" gradientUnits="userSpaceOnUse">
<stop stop-color="#EFD1D1"/>
<stop offset="1" stop-color="#EA97A5"/>
</linearGradient>
</defs>
</svg>
