<svg width="139" height="130" viewBox="0 0 139 130" fill="none" xmlns="http://www.w3.org/2000/svg">
<path d="M76.5039 16.6625L72.8341 15.8036L71.8815 0L75.8168 0.905741L75.973 11.8527L81.2981 2.2175L85.0616 3.09201L85.8424 14.0858L90.4336 4.31008L94.4314 5.23143L86.6857 19.0206L82.9847 18.1617L82.0945 7.04292L76.5039 16.6469V16.6625Z" fill="#674348"/>
<path d="M97.4609 17.2559L97.3984 17.334C96.7581 18.4115 96.5395 19.4734 96.7581 20.5509C96.9768 21.6284 97.6326 22.5498 98.7258 23.315C100.084 24.2676 101.63 24.7985 103.379 24.9078L101.943 27.8281C100.209 27.625 98.4759 26.9223 96.7425 25.7043C94.7593 24.3144 93.5724 22.5966 93.182 20.5821C92.7916 18.5676 93.2913 16.5688 94.6812 14.6011C96.0866 12.6022 97.82 11.3998 99.897 11.0094C101.974 10.619 103.926 11.0719 105.784 12.3836C107.393 13.508 108.33 14.851 108.595 16.3814C108.861 17.9118 108.439 19.4421 107.362 20.9882C106.815 21.769 106.237 22.3936 105.644 22.8621L97.4609 17.2715V17.2559ZM98.8351 15.4756L104.16 19.1767L104.316 18.958C105.581 17.1466 105.425 15.6943 103.864 14.5855C103.036 14.0077 102.161 13.8203 101.24 14.0233C100.303 14.2263 99.5066 14.7104 98.8507 15.46L98.8351 15.4756Z" fill="#674348"/>
<path d="M117.965 37.1353C116.044 38.5564 114.03 39.1186 111.937 38.8531C109.829 38.5876 108.142 37.5726 106.862 35.8392C106.143 34.871 105.628 33.8559 105.285 32.8096L102.63 30.1549L120.651 16.8655L123.368 19.6608L116.325 24.861C118.152 25.1733 119.511 25.9229 120.385 27.1253C121.572 28.7182 121.931 30.4516 121.463 32.2943C121.01 34.137 119.839 35.7611 117.949 37.151L117.965 37.1353ZM115.498 34.0589C116.7 33.1844 117.434 32.2006 117.731 31.1543C118.027 30.0924 117.824 29.093 117.122 28.1404C116.45 27.219 115.498 26.6412 114.264 26.3758H114.233L114.201 26.407H114.17L114.139 26.4382H114.108L114.077 26.4695H114.045L114.014 26.5007H113.983L113.952 26.5475H113.92L113.889 26.5788H113.858L113.827 26.61H113.795L113.764 26.6412H113.733L113.702 26.6725H113.67L113.639 26.7037H113.608L113.577 26.7349H113.546L113.514 26.7662H113.483L113.452 26.7974H113.421L113.389 26.8286H113.358L113.327 26.8599H113.296L113.264 26.8911H113.233L113.202 26.9223H113.171L113.14 26.9536H113.108L113.077 26.9848H113.046L113.015 27.016H112.983L112.952 27.0473H112.921L112.89 27.0785H112.858L112.827 27.1097H112.796L112.765 27.141L112.718 27.1878H112.687L112.655 27.219H112.624L112.593 27.2503H112.562L112.531 27.2815L112.484 27.3127H112.452L112.421 27.344H112.39L112.359 27.3752L112.312 27.4064H112.281L112.249 27.4377H112.218L112.171 27.5001H112.14L112.109 27.547H112.078L112.031 27.6094H112L111.968 27.6407L111.921 27.6719H111.89L111.859 27.7031L111.812 27.7344H111.781L111.75 27.7656L111.703 27.7968H111.672L111.64 27.8281L111.594 27.8749H111.562L111.531 27.9061L111.484 27.9374H111.453L111.406 27.9998H111.375L111.344 28.0311L111.297 28.0623H111.266L111.219 28.1248H111.188L111.141 28.1872H111.109L111.063 28.2497H111.031L111 28.2809L110.953 28.3122H110.922L110.875 28.3746H110.844L110.797 28.4371H110.766L110.719 28.4996L110.672 28.5308H110.641L110.594 28.5933H110.563L110.516 28.6557H110.485L110.438 28.7182H110.407L110.36 28.7807L110.313 28.8119H110.282L110.235 28.8744H110.204L110.157 28.9368L110.11 28.9681H110.079L110.032 29.0305H110.001L109.954 29.093L109.907 29.1242H109.876L109.829 29.1867L109.782 29.2179H109.751L109.704 29.2804L109.657 29.3116H109.626L109.579 29.3741L109.532 29.4209H109.501L109.454 29.4834L109.407 29.5146L109.36 29.5459H109.329L109.282 29.6083L109.235 29.6395H109.204L109.157 29.702L109.111 29.7332L109.064 29.7645H109.032L108.986 29.8269L108.939 29.8582L108.892 29.8894L108.845 29.9206H108.814L108.767 29.9831L108.72 30.0143L108.673 30.0456L108.626 30.0768H108.595L108.548 30.1393L108.502 30.1705L108.455 30.2017L108.408 30.233H108.377L108.33 30.2954L108.283 30.3267L108.236 30.3579L108.189 30.3891L107.971 30.5453C107.955 31.4823 108.283 32.4192 108.986 33.3406C109.735 34.3556 110.703 34.8866 111.859 34.9178C113.03 34.9491 114.186 34.543 115.357 33.6841L115.498 34.0589Z" fill="#674348"/>
<path d="M131.176 56.968L137.891 55.9373L139 59.6852L116.825 63.0739L116.247 59.2479L117.7 59.0293C116.2 57.8893 115.342 56.5775 115.107 55.1096C114.811 53.142 115.295 51.4554 116.56 50.05C117.824 48.6445 119.62 47.7544 121.963 47.3952C124.321 47.036 126.367 47.4577 128.1 48.6757C129.833 49.8938 130.864 51.5647 131.192 53.7042C131.364 54.7817 131.364 55.8592 131.192 56.9523L131.176 56.968ZM127.741 57.4989C128.209 56.6088 128.35 55.625 128.178 54.5474C127.991 53.2981 127.382 52.3768 126.367 51.799C125.352 51.2212 124.133 51.0494 122.697 51.268C121.244 51.4867 120.151 52.002 119.386 52.814C118.621 53.6261 118.34 54.6099 118.512 55.7499C118.683 56.9211 119.261 57.8737 120.214 58.6389H120.245H120.276H120.307H120.339H120.37H120.401H120.432H120.464H120.495H120.526H120.557H120.589H120.62H120.651H120.682H120.713H120.745H120.776H120.807H120.838H120.87H120.901H120.932H120.963H120.995H121.026H121.057H121.088H121.12H121.151H121.182H121.213H121.244H121.276H121.307H121.338H121.369H121.401H121.463H121.494H121.526H121.557H121.588H121.619H121.65H121.682H121.713H121.744H121.775H121.807H121.869H121.9H121.932H121.963H121.994H122.025H122.088H122.119H122.15H122.181H122.213H122.275H122.306H122.338H122.369H122.431H122.463H122.494H122.556H122.587H122.619H122.65H122.712H122.744H122.775H122.837H122.869H122.9H122.962H122.993H123.056H123.087H123.118H123.181H123.212H123.275H123.306H123.337H123.399H123.431H123.493H123.524H123.587H123.618H123.681H123.712H123.774H123.806H123.868H123.899H123.962H123.993H124.055H124.087H124.149H124.18H124.243H124.274H124.336H124.368H124.43L124.493 58.6233H124.524H124.586H124.618H124.68H124.711H124.774H124.836H124.867H124.93L124.992 58.6077H125.024H125.086H125.148H125.18H125.242L125.305 58.592H125.336H125.398H125.461H125.492H125.555L125.617 58.5764H125.648H125.711H125.773L125.836 58.5608H125.867H125.929H125.992L126.054 58.5452H126.085H126.148H126.21L126.273 58.5296H126.304H126.367H126.429L126.491 58.514H126.554H126.585H126.648L126.71 58.4983H126.773L126.835 58.4827H126.866H126.929H126.991L127.054 58.4671H127.116L127.179 58.4515L127.475 58.4046L127.741 57.4989Z" fill="#674348"/>
<path d="M122.884 69.6638H122.79C121.541 69.5233 120.479 69.7888 119.605 70.4447C118.73 71.1005 118.168 72.0844 117.934 73.3961C117.653 75.0358 117.825 76.6599 118.48 78.284L115.232 78.2215C114.67 76.5662 114.576 74.7079 114.951 72.6153C115.373 70.226 116.403 68.4302 118.074 67.2121C119.745 66.0097 121.76 65.6036 124.118 66.0253C126.523 66.4469 128.35 67.5088 129.584 69.211C130.817 70.9131 131.239 72.8808 130.848 75.1295C130.505 77.0659 129.708 78.487 128.428 79.3615C127.147 80.2516 125.586 80.5327 123.743 80.2048C122.79 80.033 121.978 79.7832 121.307 79.4552L122.884 69.6795V69.6638ZM125.086 70.1636L124.009 76.5662L124.274 76.6131C126.445 76.9879 127.71 76.2383 128.038 74.3331C128.209 73.3493 128.006 72.4748 127.428 71.7096C126.851 70.96 126.07 70.429 125.102 70.1479L125.086 70.1636Z" fill="#674348"/>
<path d="M112.577 91.9323C111.281 91.2921 110.485 90.2458 110.188 88.8091C109.876 87.3724 110.157 85.7952 111 84.1086C112.015 82.0941 113.311 80.5481 114.889 79.4862L117.2 81.5944C115.607 82.6563 114.436 83.9681 113.655 85.5297C113.311 86.2168 113.171 86.8258 113.233 87.3568C113.296 87.8877 113.561 88.2781 114.03 88.5124C114.514 88.7622 114.998 88.7154 115.482 88.3874C115.966 88.0595 116.544 87.4973 117.215 86.6853C118.277 85.4047 119.324 84.5302 120.354 84.0461C121.385 83.562 122.509 83.6245 123.696 84.2179C124.961 84.8582 125.742 85.8576 126.023 87.2319C126.304 88.6061 126.023 90.1052 125.227 91.7293C124.29 93.6033 123.103 95.0712 121.682 96.1175L119.371 94.0093C120.838 92.9318 121.916 91.6981 122.619 90.3082C123.29 88.9653 123.181 88.0595 122.275 87.6066C121.807 87.3724 121.338 87.4192 120.885 87.7316C120.432 88.0595 119.855 88.6217 119.152 89.4494C118.059 90.7455 116.997 91.62 115.966 92.1041C114.936 92.5882 113.811 92.5258 112.593 91.9167L112.577 91.9323Z" fill="#674348"/>
<path d="M104.769 94.4937L107.19 91.4641L118.917 100.834L116.934 104.207L104.769 94.478V94.4937ZM120.26 107.471C119.698 107.018 119.386 106.503 119.323 105.925C119.261 105.347 119.464 104.754 119.948 104.16C120.417 103.582 120.932 103.254 121.525 103.192C122.103 103.129 122.681 103.317 123.243 103.77C123.79 104.207 124.102 104.722 124.18 105.316C124.258 105.909 124.055 106.487 123.587 107.065C123.103 107.658 122.572 107.986 121.978 108.049C121.385 108.111 120.823 107.924 120.276 107.486L120.26 107.471Z" fill="#674348"/>
<path d="M101.505 97.3047C102.193 97.0705 102.833 97.008 103.457 97.1017C104.082 97.1954 104.566 97.4765 104.925 97.945C105.347 98.4759 105.534 99.1318 105.488 99.897C105.441 100.662 105.175 101.427 104.707 102.161C105.644 101.974 106.565 102.052 107.455 102.396C108.345 102.739 109.11 103.317 109.751 104.113C110.75 105.394 111.125 106.831 110.86 108.455C110.594 110.079 109.673 111.515 108.08 112.765C106.987 113.624 105.659 114.264 104.145 114.654L101.162 117.45L98.9443 114.889L101.521 113.499C100.85 113.389 100.178 112.905 99.5221 112.062C98.5695 110.844 98.226 109.439 98.5071 107.877C98.7882 106.3 99.6471 104.957 101.099 103.817C101.615 103.411 102.208 103.051 102.88 102.755C103.317 102.021 103.348 101.443 103.005 100.99C102.755 100.662 102.38 100.569 101.911 100.693C101.443 100.818 100.74 101.256 99.8188 101.974H99.7876L99.7564 102.021H99.7251L99.6939 102.068H99.6627L99.6314 102.115L99.5846 102.161H99.5534L99.5221 102.208H99.4909L99.4597 102.255L99.4128 102.302H99.3816L99.3347 102.364H99.3035L99.2567 102.427H99.2254L99.1786 102.489L99.1317 102.536H99.1005L99.0536 102.599L99.0068 102.645L98.9599 102.692L98.9131 102.739L98.8663 102.786L98.8194 102.833L98.7726 102.88L98.5695 103.036C95.009 105.831 92.3699 106.128 90.6521 103.957C89.5746 102.583 89.356 100.912 90.0119 98.96C90.6677 97.008 91.9483 95.2746 93.8691 93.7598C95.5088 92.4793 97.086 91.7141 98.6008 91.4642C100.131 91.2144 101.287 91.6048 102.099 92.6355C102.614 93.2913 102.817 94.0409 102.739 94.8842C102.645 95.7275 102.239 96.5551 101.474 97.3672L101.505 97.3047ZM99.6158 98.1324C100.334 96.9924 100.412 96.071 99.8501 95.3527C99.4128 94.8061 98.7569 94.6031 97.8512 94.7436C96.9455 94.8842 95.9929 95.3527 94.9934 96.1335C93.9315 96.9768 93.1976 97.8513 92.7915 98.757C92.3855 99.6784 92.4167 100.428 92.8852 101.037C93.3069 101.568 93.8378 101.724 94.5093 101.505C95.1808 101.287 96.0866 100.725 97.2578 99.8033C98.1167 99.1318 98.8975 98.5696 99.6158 98.1168V98.1324ZM106.784 106.425C106.221 105.706 105.566 105.285 104.816 105.175C104.066 105.066 103.332 105.3 102.614 105.862C101.943 106.393 101.599 107.018 101.568 107.768C101.537 108.517 101.818 109.267 102.411 110.016C102.989 110.75 103.645 111.188 104.363 111.312C105.082 111.437 105.815 111.219 106.565 110.625C107.237 110.094 107.596 109.454 107.627 108.689C107.658 107.924 107.393 107.159 106.799 106.409L106.784 106.425Z" fill="#674348"/>
<path d="M78.2686 110.391L81.9228 109.095L84.9991 117.777C85.3583 118.808 85.8268 119.464 86.3734 119.745C86.9199 120.026 87.6227 120.011 88.466 119.714C89.6372 119.292 90.5273 118.48 91.1519 117.262L87.5446 107.096L91.1988 105.8L96.2272 119.995L92.7604 121.775L91.964 119.526C91.1207 121.541 89.8246 122.853 88.0755 123.477C86.6389 123.993 85.3583 123.946 84.234 123.352C83.1096 122.759 82.2975 121.697 81.751 120.182L78.2842 110.375L78.2686 110.391Z" fill="#674348"/>
<path d="M64.4169 120.385C63.964 119.886 63.7454 119.277 63.7766 118.558C63.8078 117.84 64.0733 117.246 64.5887 116.778C65.0884 116.309 65.713 116.091 66.4626 116.122C67.2278 116.153 67.8368 116.434 68.3053 116.95C68.7738 117.465 68.9924 118.074 68.9612 118.808C68.93 119.526 68.6489 120.12 68.1492 120.573C67.6494 121.026 66.9936 121.244 66.2284 121.213C65.4788 121.182 64.8854 120.916 64.4325 120.401L64.4169 120.385Z" fill="#674348"/>
<path d="M38.6032 110.032C39.6182 107.877 41.1018 106.409 43.085 105.644C45.0527 104.878 47.0203 104.957 48.988 105.862C50.0811 106.378 51.0181 107.002 51.8301 107.767L55.4218 108.829L45.9428 129.13L42.2105 127.975L45.9116 120.042C44.1625 120.651 42.6009 120.635 41.2579 120.011C39.4621 119.167 38.3221 117.824 37.838 115.982C37.3539 114.139 37.6193 112.156 38.6032 110.047V110.032ZM42.2417 111.547C41.6171 112.89 41.4297 114.108 41.6639 115.17C41.9138 116.247 42.5697 117.028 43.6472 117.528C44.6779 118.012 45.8022 118.074 47.0047 117.715V117.684L47.0359 117.653V117.621L47.0672 117.59V117.559L47.0984 117.528V117.496L47.1296 117.465V117.434L47.1609 117.403V117.371L47.1921 117.34V117.309L47.2233 117.278V117.247L47.2545 117.215V117.184L47.2858 117.153V117.122L47.317 117.09V117.059L47.3482 117.028V116.997L47.3795 116.965V116.934L47.4107 116.903V116.872L47.4419 116.841V116.809L47.4732 116.778V116.747L47.5044 116.716V116.684L47.5356 116.653V116.622L47.5669 116.591V116.559L47.5981 116.528V116.497L47.6293 116.466V116.434L47.6606 116.403V116.372L47.6918 116.341V116.31L47.723 116.278V116.247L47.7543 116.216L47.7855 116.153V116.122L47.8167 116.091V116.06L47.848 116.028V115.997L47.8792 115.966L47.9104 115.904V115.872L47.9417 115.841V115.81L47.9729 115.779L48.0041 115.716V115.685L48.0354 115.654V115.622L48.0822 115.56V115.529L48.1134 115.498V115.466L48.1603 115.404V115.373L48.1915 115.341L48.2228 115.279V115.248L48.254 115.216L48.2852 115.154V115.123L48.3165 115.091L48.3477 115.029V114.998L48.3789 114.967L48.4101 114.904V114.873L48.4414 114.842L48.4726 114.779V114.748L48.5195 114.685V114.654L48.5507 114.623L48.5819 114.561V114.529L48.6288 114.467V114.436L48.6756 114.373V114.342L48.7225 114.279V114.248L48.7537 114.217L48.7849 114.155V114.123L48.8318 114.061V114.03L48.8786 113.967V113.936L48.9255 113.873L48.9567 113.811V113.78L49.0036 113.717V113.686L49.0504 113.624V113.592L49.0973 113.53V113.499L49.1441 113.436L49.1753 113.374V113.342L49.2222 113.28V113.249L49.269 113.186L49.3003 113.124V113.093L49.3471 113.03V112.999L49.394 112.936L49.4252 112.874V112.843L49.4721 112.78L49.5033 112.718V112.687L49.5501 112.624L49.5814 112.562V112.53L49.6282 112.468L49.6594 112.406V112.374L49.7063 112.312L49.7375 112.249L49.7688 112.187V112.156L49.8156 112.093L49.8468 112.031V111.999L49.8937 111.937L49.9249 111.875L49.9562 111.812V111.781L50.003 111.718L50.0342 111.656L50.0655 111.593L50.0967 111.531V111.5L50.1436 111.437L50.1748 111.375L50.206 111.312L50.2372 111.25V111.219L50.2841 111.156L50.3153 111.094L50.3466 111.031L50.3778 110.969V110.938L50.4246 110.875L50.4559 110.813L50.4871 110.75L50.5183 110.688L50.6277 110.453C50.1904 109.626 49.4564 108.97 48.4101 108.47C47.2545 107.939 46.1614 107.924 45.1307 108.47C44.1001 109.017 43.2568 109.907 42.6478 111.219L42.2417 111.547Z" fill="#674348"/>
<path d="M31.6697 106.128L37.885 99.1472L40.774 101.724L30.7952 112.936L27.5314 110.781L29.1711 108.939C27.3284 109.532 25.798 109.267 24.5799 108.189C23.8147 107.502 23.2994 106.737 23.0339 105.893L25.9854 103.863C26.2665 104.644 26.6725 105.269 27.2035 105.737C28.2654 106.674 29.7645 106.815 31.6853 106.128H31.6697Z" fill="#674348"/>
<path d="M26.5789 88.2628L26.657 88.3722C28.5778 88.5908 29.9676 89.3716 30.8577 90.7302C31.5917 91.8702 31.8572 93.0258 31.6542 94.2126C31.4511 95.3995 30.8421 96.3208 29.8271 96.9767C26.9849 98.8194 23.8617 97.3046 20.4417 92.4011L20.145 92.5885C19.2861 93.1507 18.7864 93.7441 18.6771 94.3844C18.5521 95.0247 18.7864 95.7899 19.3798 96.6956C20.1762 97.9293 21.5348 99.038 23.4556 100.022L21.3318 102.349C19.3017 101.396 17.662 99.9438 16.3971 98.0074C15.1478 96.0866 14.6793 94.4313 14.9916 93.0414C15.304 91.6516 16.3659 90.4023 18.1617 89.2779L22.7061 86.3264C23.1902 86.0141 23.44 85.7486 23.4869 85.5456C23.5337 85.327 23.4088 84.9678 23.1277 84.4525L25.7356 83.1095C27.3753 85.124 27.672 86.8262 26.6101 88.2472L26.5789 88.2628ZM25.0485 89.4184L22.1283 91.308C23.3619 92.7603 24.3458 93.6817 25.1266 94.1189C25.8918 94.5406 26.6257 94.5406 27.2972 94.1033C27.7969 93.7754 28.078 93.3537 28.1561 92.8072C28.2342 92.2606 28.0937 91.6984 27.7189 91.1362C27.1098 90.1993 26.2197 89.6371 25.0485 89.4341V89.4184Z" fill="#674348"/>
<path d="M21.441 68.8208L22.4248 72.5687L13.508 74.9111C12.4461 75.1922 11.759 75.5982 11.431 76.1136C11.1031 76.6445 11.0562 77.3316 11.2905 78.2062C11.6028 79.4086 12.3368 80.3768 13.508 81.0795L23.9396 78.3467L24.9234 82.0946L10.3691 85.9206L8.88558 82.3132L11.1968 81.7042C9.26037 80.7047 8.05792 79.2993 7.58944 77.5034C7.19903 76.0199 7.35519 74.755 8.02669 73.6931C8.7138 72.6312 9.83817 71.8972 11.3998 71.4912L21.4566 68.852L21.441 68.8208Z" fill="#674348"/>
<path d="M6.98045 55.3281L0.218627 54.7815L0 50.8774L22.3624 52.6889L22.0501 56.5461L20.5822 56.4212C21.7846 57.8735 22.3156 59.3414 22.2063 60.825C22.0501 62.8082 21.1912 64.3386 19.6296 65.4161C18.068 66.4937 16.1159 66.9465 13.7579 66.7435C11.3842 66.5561 9.49466 65.666 8.0892 64.0731C6.68374 62.4959 6.05909 60.622 6.24649 58.4669C6.34019 57.3738 6.59005 56.3275 6.99607 55.2968L6.98045 55.3281ZM10.4473 55.6092C9.79137 56.3744 9.41658 57.2957 9.3385 58.3888C9.22919 59.6538 9.61959 60.6844 10.4785 61.4809C11.3374 62.2773 12.4774 62.7302 13.9141 62.8395C15.382 62.9644 16.5688 62.7145 17.4902 62.0899C18.4115 61.4809 18.9269 60.5907 19.0206 59.4351C19.1143 58.2639 18.7863 57.1864 18.0367 56.2338H18.0055H17.9743H17.943H17.9118H17.8806H17.8493H17.8181H17.7869H17.7556H17.7244H17.6932H17.6619H17.6307H17.5995H17.5682H17.537H17.5058H17.4746H17.4433H17.4121H17.3809H17.3496H17.3184H17.2872H17.2559H17.2247H17.1935H17.1622H17.131H17.0998H17.0685H17.0373H17.0061H16.9748H16.9436H16.9124H16.8811H16.8499H16.7874H16.7562H16.725H16.6937H16.6625H16.6313H16.6H16.5688H16.5376H16.5063H16.4751H16.4439H16.3814H16.3502H16.319H16.2877H16.2565H16.2253H16.1628H16.1316H16.1003H16.0691H16.0379H15.9754H15.9442H15.9129H15.8817H15.8192H15.788H15.7568H15.6943H15.6631H15.6318H15.6006H15.5381H15.5069H15.4757H15.4132H15.382H15.3507H15.2883H15.257H15.1946H15.1634H15.1321H15.0697H15.0384H14.976H14.9447H14.9135H14.851H14.8198H14.7573H14.7261H14.6636H14.6324H14.5699H14.5387H14.4762H14.445H14.3825H14.3513H14.2888H14.2576H14.1951H14.1639H14.1014H14.0702H14.0078H13.9765H13.9141H13.8828H13.8204H13.7579H13.7267H13.6642H13.633H13.5705H13.5393H13.4768H13.4143H13.3831H13.3206H13.2582H13.2269H13.1645H13.102H13.0708H13.0083H12.9458H12.9146H12.8521H12.7897H12.7585H12.696H12.6335H12.6023H12.5398H12.4774H12.4149H12.3837H12.3212H12.2587H12.1963H12.165H12.1026H12.0401H11.9776H11.9464H11.8839H11.8215H11.759H11.6965H11.6653H11.6029H11.5404H11.4779H11.4155H11.3842H11.3218H11.2593H11.1968H11.1344H11.0719L10.7752 56.2026L10.4473 55.6092Z" fill="#674348"/>
<path d="M5.82494 39.3841C6.51206 39.6184 6.98054 39.9931 7.2304 40.5241C7.49588 41.055 7.49588 41.6797 7.24602 42.398C7.01178 43.1008 6.62137 43.5849 6.09042 43.8347C5.55947 44.1002 4.95043 44.1002 4.27894 43.8816C3.62306 43.6473 3.15457 43.2726 2.87348 42.7416C2.608 42.2106 2.59239 41.6016 2.82663 40.8833C3.07649 40.1649 3.46689 39.6652 3.99785 39.4153C4.5288 39.1655 5.13783 39.1499 5.79371 39.3685L5.82494 39.3841ZM24.7987 46.3333L23.5494 50.0031L9.33859 45.1621L10.0569 41.3205L24.7987 46.3489V46.3333Z" fill="#674348"/>
<path d="M32.9501 31.9819L30.8419 35.2301L23.0963 30.2329C22.1749 29.6395 21.4097 29.4052 20.8007 29.5145C20.1917 29.6238 19.6451 30.0611 19.161 30.8107C18.4895 31.857 18.2709 33.0438 18.5363 34.3868L27.5938 40.2429L25.4856 43.4911L12.8364 35.3238L14.4917 31.7945L16.5062 33.0907C15.9441 30.9825 16.1627 29.1554 17.1777 27.5937C18.0054 26.3132 19.0517 25.5636 20.2854 25.345C21.5347 25.1264 22.8308 25.4699 24.1894 26.3444L32.9189 31.9819H32.9501Z" fill="#674348"/>
<path d="M36.1827 29.8581C35.4956 30.0923 34.8553 30.1704 34.2307 30.0767C33.606 29.983 33.1219 29.7019 32.7471 29.249C32.3255 28.7181 32.1381 28.0622 32.1693 27.297C32.2162 26.5162 32.466 25.7666 32.9345 25.0327C31.9975 25.22 31.0762 25.1576 30.1861 24.814C29.2959 24.4705 28.5151 23.9083 27.8749 23.1119C26.8598 21.8469 26.485 20.4102 26.7349 18.7862C26.9847 17.1621 27.8905 15.7254 29.4833 14.4449C30.5765 13.5703 31.8882 12.9301 33.403 12.5241L36.3545 9.71313L38.5876 12.243L36.0265 13.664C36.698 13.7734 37.3695 14.2418 38.041 15.0851C39.0092 16.3032 39.3528 17.693 39.0873 19.2703C38.8218 20.8475 37.9629 22.2061 36.5262 23.3461C36.0109 23.7521 35.4175 24.1113 34.746 24.4236C34.3243 25.1576 34.2931 25.7354 34.6367 26.1883C34.9022 26.5162 35.2613 26.6099 35.7298 26.4693C36.1983 26.3288 36.8854 25.8915 37.8068 25.1576H37.838L37.8692 25.1107H37.9005L37.9317 25.0639H37.9629L37.9942 25.017L38.041 24.9702H38.0722L38.1035 24.9233H38.1347L38.1659 24.8765L38.2128 24.8296H38.244L38.2909 24.7672H38.3221L38.369 24.7047H38.4002L38.447 24.6422L38.4939 24.5954H38.5251L38.572 24.5329L38.6188 24.4861L38.6657 24.4392L38.7125 24.3924L38.7594 24.3455L38.8062 24.2987L38.8531 24.2518L39.0561 24.0957C42.6009 21.2691 45.2245 20.9412 46.9579 23.1119C48.051 24.4861 48.2853 26.1414 47.645 28.0934C47.0047 30.0455 45.7398 31.7945 43.819 33.3249C42.1949 34.621 40.6177 35.4018 39.1029 35.6673C37.5725 35.9328 36.4013 35.558 35.5893 34.5273C35.0739 33.8714 34.8553 33.1219 34.9334 32.2786C35.0115 31.4353 35.4175 30.592 36.1671 29.78L36.1827 29.8581ZM30.8263 20.785C31.4041 21.5034 32.06 21.9094 32.8096 22.0187C33.5592 22.128 34.2931 21.8782 35.0115 21.316C35.683 20.785 36.0265 20.1448 36.0421 19.3952C36.0578 18.6456 35.7767 17.896 35.1676 17.1465C34.5742 16.4125 33.9183 15.9909 33.2 15.8659C32.4816 15.741 31.7477 15.9752 31.0137 16.5687C30.3422 17.0996 29.9987 17.7555 29.9674 18.5207C29.9362 19.2859 30.2173 20.0511 30.8263 20.8007V20.785ZM38.0722 29.0304C37.3695 30.186 37.2914 31.1074 37.8536 31.8101C38.2909 32.3567 38.9624 32.5597 39.8681 32.4035C40.7739 32.263 41.7264 31.7945 42.7103 30.998C43.7722 30.1548 44.5061 29.2646 44.8965 28.3433C45.3026 27.4219 45.2557 26.6567 44.7716 26.0633C44.35 25.5324 43.8034 25.3762 43.1475 25.5948C42.4916 25.8135 41.5703 26.3913 40.4147 27.3126C39.5558 27.9997 38.775 28.5619 38.0722 29.0148V29.0304Z" fill="#674348"/>
<path d="M54.0633 8.30807C54.6567 8.62039 55.0784 9.13573 55.2814 9.82284C55.5 10.51 55.4375 11.1658 55.1252 11.7749C54.8129 12.3839 54.2976 12.8055 53.5792 13.0242C52.8453 13.2428 52.1738 13.1959 51.5647 12.868C50.9557 12.5401 50.5341 12.0403 50.331 11.3376C50.1124 10.6505 50.1749 9.99462 50.5028 9.40121C50.8308 8.79217 51.3617 8.38615 52.0957 8.15191C52.7984 7.93328 53.4699 7.98013 54.0633 8.30807Z" fill="#674348"/>
</svg>
