<svg width="244" height="244" viewBox="0 0 244 244" fill="none" xmlns="http://www.w3.org/2000/svg">
    <g opacity="0.79">
        <path opacity="0.79" d="M183 183C216.689 149.311 216.689 94.6894 183 61C149.311 27.3106 94.6894 27.3106 61 61C27.3107 94.6893 27.3106 149.311 61 183C94.6894 216.689 149.311 216.689 183 183Z" stroke="#8773FF" stroke-opacity="0.49" stroke-width="0.18031" stroke-miterlimit="10"/>
        <path opacity="0.79" d="M178.701 178.701C210.016 147.386 210.016 96.6141 178.701 65.299C147.386 33.9839 96.6142 33.9839 65.2992 65.299C33.9841 96.6141 33.9841 147.386 65.2991 178.701C96.6142 210.016 147.386 210.016 178.701 178.701Z" stroke="#8773FF" stroke-opacity="0.49" stroke-width="0.262278" stroke-miterlimit="10"/>
        <path opacity="0.79" d="M122.004 196.107C162.933 196.107 196.112 162.928 196.112 121.999C196.112 81.07 162.933 47.8906 122.004 47.8906C81.0749 47.8906 47.8955 81.07 47.8955 121.999C47.8955 162.928 81.0749 196.107 122.004 196.107Z" stroke="#8773FF" stroke-opacity="0.49" stroke-width="0.344211" stroke-miterlimit="10"/>
        <path opacity="0.79" d="M122.004 190.036C159.58 190.036 190.041 159.575 190.041 121.999C190.041 84.4225 159.58 53.9609 122.004 53.9609C84.4274 53.9609 53.9659 84.4225 53.9659 121.999C53.9659 159.575 84.4274 190.036 122.004 190.036Z" stroke="#8773FF" stroke-opacity="0.49" stroke-width="0.42618" stroke-miterlimit="10"/>
        <path opacity="0.79" d="M122.004 183.957C156.222 183.957 183.962 156.217 183.962 121.999C183.962 87.7806 156.222 60.041 122.004 60.041C87.7852 60.041 60.0457 87.7806 60.0457 121.999C60.0457 156.217 87.7852 183.957 122.004 183.957Z" stroke="#8773FF" stroke-opacity="0.49" stroke-width="0.508149" stroke-miterlimit="10"/>
        <path opacity="0.79" d="M122.004 177.877C152.864 177.877 177.882 152.859 177.882 121.999C177.882 91.1381 152.864 66.1206 122.004 66.1206C91.1431 66.1206 66.1256 91.1381 66.1256 121.999C66.1256 152.859 91.1431 177.877 122.004 177.877Z" stroke="#8773FF" stroke-opacity="0.49" stroke-width="0.590117" stroke-miterlimit="10"/>
        <path opacity="0.79" d="M122.004 171.797C149.507 171.797 171.802 149.502 171.802 121.999C171.802 94.4962 149.507 72.2007 122.004 72.2007C94.5008 72.2007 72.2054 94.4962 72.2054 121.999C72.2054 149.502 94.5008 171.797 122.004 171.797Z" stroke="#8773FF" stroke-opacity="0.49" stroke-width="0.67205" stroke-miterlimit="10"/>
        <path opacity="0.79" d="M122.004 165.717C146.149 165.717 165.722 146.144 165.722 121.999C165.722 97.8537 146.149 78.2803 122.004 78.2803C97.8586 78.2803 78.2852 97.8537 78.2852 121.999C78.2852 146.144 97.8586 165.717 122.004 165.717Z" stroke="#8773FF" stroke-opacity="0.49" stroke-width="0.754019" stroke-miterlimit="10"/>
        <path opacity="0.79" d="M122.004 159.638C142.791 159.638 159.642 142.786 159.642 121.999C159.642 101.212 142.791 84.3604 122.004 84.3604C101.216 84.3604 84.365 101.212 84.365 121.999C84.365 142.786 101.216 159.638 122.004 159.638Z" stroke="#8773FF" stroke-opacity="0.49" stroke-width="0.835988" stroke-miterlimit="10"/>
        <path opacity="0.79" d="M122.003 153.558C139.433 153.558 153.562 139.428 153.562 121.999C153.562 104.569 139.433 90.4399 122.003 90.4399C104.574 90.4399 90.4446 104.569 90.4446 121.999C90.4446 139.428 104.574 153.558 122.003 153.558Z" stroke="#8773FF" stroke-opacity="0.49" stroke-width="0.91792" stroke-miterlimit="10"/>
        <path opacity="0.79" d="M122.004 147.478C136.075 147.478 147.483 136.071 147.483 121.999C147.483 107.927 136.075 96.52 122.004 96.52C107.932 96.52 96.5245 107.927 96.5245 121.999C96.5245 136.071 107.932 147.478 122.004 147.478Z" stroke="#8773FF" stroke-opacity="0.49" stroke-width="0.999889" stroke-miterlimit="10"/>
        <path opacity="0.79" d="M122.004 141.398C132.717 141.398 141.403 132.713 141.403 121.999C141.403 111.285 132.717 102.6 122.004 102.6C111.29 102.6 102.604 111.285 102.604 121.999C102.604 132.713 111.29 141.398 122.004 141.398Z" stroke="#8773FF" stroke-opacity="0.49" stroke-width="1.08186" stroke-miterlimit="10"/>
    </g>
</svg>