<svg width="151" height="249" viewBox="0 0 151 249" fill="none" xmlns="http://www.w3.org/2000/svg">
<g opacity="0.2">
<path d="M0.992696 2.96247C1.54095 2.96247 1.9854 2.51801 1.9854 1.96976C1.9854 1.42151 1.54095 0.977051 0.992696 0.977051C0.444444 0.977051 0 1.42151 0 1.96976C0 2.51801 0.444444 2.96247 0.992696 2.96247Z" fill="#E1E1E1"/>
<path d="M12.3921 2.96247C12.9404 2.96247 13.3848 2.51801 13.3848 1.96976C13.3848 1.42151 12.9404 0.977051 12.3921 0.977051C11.8439 0.977051 11.3994 1.42151 11.3994 1.96976C11.3994 2.51801 11.8439 2.96247 12.3921 2.96247Z" fill="#E1E1E1"/>
<path d="M23.7917 2.96247C24.34 2.96247 24.7844 2.51801 24.7844 1.96976C24.7844 1.42151 24.34 0.977051 23.7917 0.977051C23.2435 0.977051 22.799 1.42151 22.799 1.96976C22.799 2.51801 23.2435 2.96247 23.7917 2.96247Z" fill="#E1E1E1"/>
<path d="M35.1911 2.96247C35.7394 2.96247 36.1838 2.51801 36.1838 1.96976C36.1838 1.42151 35.7394 0.977051 35.1911 0.977051C34.6429 0.977051 34.1984 1.42151 34.1984 1.96976C34.1984 2.51801 34.6429 2.96247 35.1911 2.96247Z" fill="#E1E1E1"/>
<path d="M46.5905 2.96247C47.1387 2.96247 47.5832 2.51801 47.5832 1.96976C47.5832 1.42151 47.1387 0.977051 46.5905 0.977051C46.0422 0.977051 45.5978 1.42151 45.5978 1.96976C45.5978 2.51801 46.0422 2.96247 46.5905 2.96247Z" fill="#E1E1E1"/>
<path d="M57.9983 2.96247C58.5465 2.96247 58.991 2.51801 58.991 1.96976C58.991 1.42151 58.5465 0.977051 57.9983 0.977051C57.45 0.977051 57.0056 1.42151 57.0056 1.96976C57.0056 2.51801 57.45 2.96247 57.9983 2.96247Z" fill="#E1E1E1"/>
<path d="M69.3978 2.96247C69.9461 2.96247 70.3906 2.51801 70.3906 1.96976C70.3906 1.42151 69.9461 0.977051 69.3978 0.977051C68.8496 0.977051 68.4052 1.42151 68.4052 1.96976C68.4052 2.51801 68.8496 2.96247 69.3978 2.96247Z" fill="#E1E1E1"/>
<path d="M81.79 1.96976C81.79 2.51574 81.3433 2.96247 80.7973 2.96247C80.2513 2.96247 79.8046 2.51574 79.8046 1.96976C79.8046 1.42378 80.2513 0.977051 80.7973 0.977051C81.3433 0.977051 81.79 1.42378 81.79 1.96976Z" fill="#E1E1E1"/>
<path d="M92.1969 2.96247C92.7451 2.96247 93.1896 2.51801 93.1896 1.96976C93.1896 1.42151 92.7451 0.977051 92.1969 0.977051C91.6486 0.977051 91.2042 1.42151 91.2042 1.96976C91.2042 2.51801 91.6486 2.96247 92.1969 2.96247Z" fill="#E1E1E1"/>
<path d="M103.596 2.96247C104.145 2.96247 104.589 2.51801 104.589 1.96976C104.589 1.42151 104.145 0.977051 103.596 0.977051C103.048 0.977051 102.604 1.42151 102.604 1.96976C102.604 2.51801 103.048 2.96247 103.596 2.96247Z" fill="#E1E1E1"/>
<path d="M114.996 2.96247C115.544 2.96247 115.989 2.51801 115.989 1.96976C115.989 1.42151 115.544 0.977051 114.996 0.977051C114.448 0.977051 114.003 1.42151 114.003 1.96976C114.003 2.51801 114.448 2.96247 114.996 2.96247Z" fill="#E1E1E1"/>
<path d="M126.403 2.96247C126.952 2.96247 127.396 2.51801 127.396 1.96976C127.396 1.42151 126.952 0.977051 126.403 0.977051C125.855 0.977051 125.411 1.42151 125.411 1.96976C125.411 2.51801 125.855 2.96247 126.403 2.96247Z" fill="#E1E1E1"/>
<path d="M137.803 2.96247C138.351 2.96247 138.796 2.51801 138.796 1.96976C138.796 1.42151 138.351 0.977051 137.803 0.977051C137.255 0.977051 136.81 1.42151 136.81 1.96976C136.81 2.51801 137.255 2.96247 137.803 2.96247Z" fill="#E1E1E1"/>
<path d="M149.202 2.96247C149.751 2.96247 150.195 2.51801 150.195 1.96976C150.195 1.42151 149.751 0.977051 149.202 0.977051C148.654 0.977051 148.21 1.42151 148.21 1.96976C148.21 2.51801 148.654 2.96247 149.202 2.96247Z" fill="#E1E1E1"/>
<path d="M0.992696 14.1138C1.54095 14.1138 1.9854 13.6694 1.9854 13.1211C1.9854 12.5729 1.54095 12.1284 0.992696 12.1284C0.444444 12.1284 0 12.5729 0 13.1211C0 13.6694 0.444444 14.1138 0.992696 14.1138Z" fill="#E1E1E1"/>
<path d="M12.3921 14.1138C12.9404 14.1138 13.3848 13.6694 13.3848 13.1211C13.3848 12.5729 12.9404 12.1284 12.3921 12.1284C11.8439 12.1284 11.3994 12.5729 11.3994 13.1211C11.3994 13.6694 11.8439 14.1138 12.3921 14.1138Z" fill="#E1E1E1"/>
<path d="M23.7917 14.1138C24.34 14.1138 24.7844 13.6694 24.7844 13.1211C24.7844 12.5729 24.34 12.1284 23.7917 12.1284C23.2435 12.1284 22.799 12.5729 22.799 13.1211C22.799 13.6694 23.2435 14.1138 23.7917 14.1138Z" fill="#E1E1E1"/>
<path d="M35.1911 14.1138C35.7394 14.1138 36.1838 13.6694 36.1838 13.1211C36.1838 12.5729 35.7394 12.1284 35.1911 12.1284C34.6429 12.1284 34.1984 12.5729 34.1984 13.1211C34.1984 13.6694 34.6429 14.1138 35.1911 14.1138Z" fill="#E1E1E1"/>
<path d="M46.5905 14.1138C47.1387 14.1138 47.5832 13.6694 47.5832 13.1211C47.5832 12.5729 47.1387 12.1284 46.5905 12.1284C46.0422 12.1284 45.5978 12.5729 45.5978 13.1211C45.5978 13.6694 46.0422 14.1138 46.5905 14.1138Z" fill="#E1E1E1"/>
<path d="M57.9983 14.1138C58.5465 14.1138 58.991 13.6694 58.991 13.1211C58.991 12.5729 58.5465 12.1284 57.9983 12.1284C57.45 12.1284 57.0056 12.5729 57.0056 13.1211C57.0056 13.6694 57.45 14.1138 57.9983 14.1138Z" fill="#E1E1E1"/>
<path d="M69.3978 14.1138C69.9461 14.1138 70.3906 13.6694 70.3906 13.1211C70.3906 12.5729 69.9461 12.1284 69.3978 12.1284C68.8496 12.1284 68.4052 12.5729 68.4052 13.1211C68.4052 13.6694 68.8496 14.1138 69.3978 14.1138Z" fill="#E1E1E1"/>
<path d="M81.79 13.1211C81.79 13.6671 81.3433 14.1138 80.7973 14.1138C80.2513 14.1138 79.8046 13.6671 79.8046 13.1211C79.8046 12.5751 80.2513 12.1284 80.7973 12.1284C81.3433 12.1367 81.79 12.5751 81.79 13.1211Z" fill="#E1E1E1"/>
<path d="M92.1969 14.1138C92.7451 14.1138 93.1896 13.6694 93.1896 13.1211C93.1896 12.5729 92.7451 12.1284 92.1969 12.1284C91.6486 12.1284 91.2042 12.5729 91.2042 13.1211C91.2042 13.6694 91.6486 14.1138 92.1969 14.1138Z" fill="#E1E1E1"/>
<path d="M103.596 14.1138C104.145 14.1138 104.589 13.6694 104.589 13.1211C104.589 12.5729 104.145 12.1284 103.596 12.1284C103.048 12.1284 102.604 12.5729 102.604 13.1211C102.604 13.6694 103.048 14.1138 103.596 14.1138Z" fill="#E1E1E1"/>
<path d="M114.996 14.1138C115.544 14.1138 115.989 13.6694 115.989 13.1211C115.989 12.5729 115.544 12.1284 114.996 12.1284C114.448 12.1284 114.003 12.5729 114.003 13.1211C114.003 13.6694 114.448 14.1138 114.996 14.1138Z" fill="#E1E1E1"/>
<path d="M126.403 14.1138C126.952 14.1138 127.396 13.6694 127.396 13.1211C127.396 12.5729 126.952 12.1284 126.403 12.1284C125.855 12.1284 125.411 12.5729 125.411 13.1211C125.411 13.6694 125.855 14.1138 126.403 14.1138Z" fill="#E1E1E1"/>
<path d="M137.803 14.1138C138.351 14.1138 138.796 13.6694 138.796 13.1211C138.796 12.5729 138.351 12.1284 137.803 12.1284C137.255 12.1284 136.81 12.5729 136.81 13.1211C136.81 13.6694 137.255 14.1138 137.803 14.1138Z" fill="#E1E1E1"/>
<path d="M149.202 14.1138C149.751 14.1138 150.195 13.6694 150.195 13.1211C150.195 12.5729 149.751 12.1284 149.202 12.1284C148.654 12.1284 148.21 12.5729 148.21 13.1211C148.21 13.6694 148.654 14.1138 149.202 14.1138Z" fill="#E1E1E1"/>
<path d="M0.992696 25.2733C1.54095 25.2733 1.9854 24.8288 1.9854 24.2806C1.9854 23.7323 1.54095 23.2878 0.992696 23.2878C0.444444 23.2878 0 23.7323 0 24.2806C0 24.8288 0.444444 25.2733 0.992696 25.2733Z" fill="#E1E1E1"/>
<path d="M12.3921 25.2733C12.9404 25.2733 13.3848 24.8288 13.3848 24.2806C13.3848 23.7323 12.9404 23.2878 12.3921 23.2878C11.8439 23.2878 11.3994 23.7323 11.3994 24.2806C11.3994 24.8288 11.8439 25.2733 12.3921 25.2733Z" fill="#E1E1E1"/>
<path d="M23.7917 25.2733C24.34 25.2733 24.7844 24.8288 24.7844 24.2806C24.7844 23.7323 24.34 23.2878 23.7917 23.2878C23.2435 23.2878 22.799 23.7323 22.799 24.2806C22.799 24.8288 23.2435 25.2733 23.7917 25.2733Z" fill="#E1E1E1"/>
<path d="M35.1911 25.2733C35.7394 25.2733 36.1838 24.8288 36.1838 24.2806C36.1838 23.7323 35.7394 23.2878 35.1911 23.2878C34.6429 23.2878 34.1984 23.7323 34.1984 24.2806C34.1984 24.8288 34.6429 25.2733 35.1911 25.2733Z" fill="#E1E1E1"/>
<path d="M46.5905 25.2733C47.1387 25.2733 47.5832 24.8288 47.5832 24.2806C47.5832 23.7323 47.1387 23.2878 46.5905 23.2878C46.0422 23.2878 45.5978 23.7323 45.5978 24.2806C45.5978 24.8288 46.0422 25.2733 46.5905 25.2733Z" fill="#E1E1E1"/>
<path d="M57.9983 25.2733C58.5465 25.2733 58.991 24.8288 58.991 24.2806C58.991 23.7323 58.5465 23.2878 57.9983 23.2878C57.45 23.2878 57.0056 23.7323 57.0056 24.2806C57.0056 24.8288 57.45 25.2733 57.9983 25.2733Z" fill="#E1E1E1"/>
<path d="M69.3978 25.2733C69.9461 25.2733 70.3906 24.8288 70.3906 24.2806C70.3906 23.7323 69.9461 23.2878 69.3978 23.2878C68.8496 23.2878 68.4052 23.7323 68.4052 24.2806C68.4052 24.8288 68.8496 25.2733 69.3978 25.2733Z" fill="#E1E1E1"/>
<path d="M81.79 24.2806C81.79 24.8265 81.3433 25.2733 80.7973 25.2733C80.2513 25.2733 79.8046 24.8265 79.8046 24.2806C79.8046 23.7346 80.2513 23.2878 80.7973 23.2878C81.3433 23.2878 81.79 23.7263 81.79 24.2806Z" fill="#E1E1E1"/>
<path d="M92.1969 25.2733C92.7451 25.2733 93.1896 24.8288 93.1896 24.2806C93.1896 23.7323 92.7451 23.2878 92.1969 23.2878C91.6486 23.2878 91.2042 23.7323 91.2042 24.2806C91.2042 24.8288 91.6486 25.2733 92.1969 25.2733Z" fill="#E1E1E1"/>
<path d="M103.596 25.2733C104.145 25.2733 104.589 24.8288 104.589 24.2806C104.589 23.7323 104.145 23.2878 103.596 23.2878C103.048 23.2878 102.604 23.7323 102.604 24.2806C102.604 24.8288 103.048 25.2733 103.596 25.2733Z" fill="#E1E1E1"/>
<path d="M114.996 25.2733C115.544 25.2733 115.989 24.8288 115.989 24.2806C115.989 23.7323 115.544 23.2878 114.996 23.2878C114.448 23.2878 114.003 23.7323 114.003 24.2806C114.003 24.8288 114.448 25.2733 114.996 25.2733Z" fill="#E1E1E1"/>
<path d="M126.403 25.2733C126.952 25.2733 127.396 24.8288 127.396 24.2806C127.396 23.7323 126.952 23.2878 126.403 23.2878C125.855 23.2878 125.411 23.7323 125.411 24.2806C125.411 24.8288 125.855 25.2733 126.403 25.2733Z" fill="#E1E1E1"/>
<path d="M137.803 25.2733C138.351 25.2733 138.796 24.8288 138.796 24.2806C138.796 23.7323 138.351 23.2878 137.803 23.2878C137.255 23.2878 136.81 23.7323 136.81 24.2806C136.81 24.8288 137.255 25.2733 137.803 25.2733Z" fill="#E1E1E1"/>
<path d="M149.202 25.2733C149.751 25.2733 150.195 24.8288 150.195 24.2806C150.195 23.7323 149.751 23.2878 149.202 23.2878C148.654 23.2878 148.21 23.7323 148.21 24.2806C148.21 24.8288 148.654 25.2733 149.202 25.2733Z" fill="#E1E1E1"/>
<path d="M0.992696 36.4246C1.54095 36.4246 1.9854 35.9802 1.9854 35.4319C1.9854 34.8837 1.54095 34.4392 0.992696 34.4392C0.444444 34.4392 0 34.8837 0 35.4319C0 35.9802 0.444444 36.4246 0.992696 36.4246Z" fill="#E1E1E1"/>
<path d="M12.3921 36.4246C12.9404 36.4246 13.3848 35.9802 13.3848 35.4319C13.3848 34.8837 12.9404 34.4392 12.3921 34.4392C11.8439 34.4392 11.3994 34.8837 11.3994 35.4319C11.3994 35.9802 11.8439 36.4246 12.3921 36.4246Z" fill="#E1E1E1"/>
<path d="M23.7917 36.4246C24.34 36.4246 24.7844 35.9802 24.7844 35.4319C24.7844 34.8837 24.34 34.4392 23.7917 34.4392C23.2435 34.4392 22.799 34.8837 22.799 35.4319C22.799 35.9802 23.2435 36.4246 23.7917 36.4246Z" fill="#E1E1E1"/>
<path d="M35.1911 36.4246C35.7394 36.4246 36.1838 35.9802 36.1838 35.4319C36.1838 34.8837 35.7394 34.4392 35.1911 34.4392C34.6429 34.4392 34.1984 34.8837 34.1984 35.4319C34.1984 35.9802 34.6429 36.4246 35.1911 36.4246Z" fill="#E1E1E1"/>
<path d="M46.5905 36.4246C47.1387 36.4246 47.5832 35.9802 47.5832 35.4319C47.5832 34.8837 47.1387 34.4392 46.5905 34.4392C46.0422 34.4392 45.5978 34.8837 45.5978 35.4319C45.5978 35.9802 46.0422 36.4246 46.5905 36.4246Z" fill="#E1E1E1"/>
<path d="M57.9983 36.4246C58.5465 36.4246 58.991 35.9802 58.991 35.4319C58.991 34.8837 58.5465 34.4392 57.9983 34.4392C57.45 34.4392 57.0056 34.8837 57.0056 35.4319C57.0056 35.9802 57.45 36.4246 57.9983 36.4246Z" fill="#E1E1E1"/>
<path d="M69.3978 36.4246C69.9461 36.4246 70.3906 35.9802 70.3906 35.4319C70.3906 34.8837 69.9461 34.4392 69.3978 34.4392C68.8496 34.4392 68.4052 34.8837 68.4052 35.4319C68.4052 35.9802 68.8496 36.4246 69.3978 36.4246Z" fill="#E1E1E1"/>
<path d="M81.79 35.4319C81.79 35.9779 81.3433 36.4246 80.7973 36.4246C80.2513 36.4246 79.8046 35.9779 79.8046 35.4319C79.8046 34.8859 80.2513 34.4392 80.7973 34.4392C81.3433 34.4392 81.79 34.8859 81.79 35.4319Z" fill="#E1E1E1"/>
<path d="M92.1969 36.4246C92.7451 36.4246 93.1896 35.9802 93.1896 35.4319C93.1896 34.8837 92.7451 34.4392 92.1969 34.4392C91.6486 34.4392 91.2042 34.8837 91.2042 35.4319C91.2042 35.9802 91.6486 36.4246 92.1969 36.4246Z" fill="#E1E1E1"/>
<path d="M103.596 36.4246C104.145 36.4246 104.589 35.9802 104.589 35.4319C104.589 34.8837 104.145 34.4392 103.596 34.4392C103.048 34.4392 102.604 34.8837 102.604 35.4319C102.604 35.9802 103.048 36.4246 103.596 36.4246Z" fill="#E1E1E1"/>
<path d="M114.996 36.4246C115.544 36.4246 115.989 35.9802 115.989 35.4319C115.989 34.8837 115.544 34.4392 114.996 34.4392C114.448 34.4392 114.003 34.8837 114.003 35.4319C114.003 35.9802 114.448 36.4246 114.996 36.4246Z" fill="#E1E1E1"/>
<path d="M126.403 36.4246C126.952 36.4246 127.396 35.9802 127.396 35.4319C127.396 34.8837 126.952 34.4392 126.403 34.4392C125.855 34.4392 125.411 34.8837 125.411 35.4319C125.411 35.9802 125.855 36.4246 126.403 36.4246Z" fill="#E1E1E1"/>
<path d="M137.803 36.4246C138.351 36.4246 138.796 35.9802 138.796 35.4319C138.796 34.8837 138.351 34.4392 137.803 34.4392C137.255 34.4392 136.81 34.8837 136.81 35.4319C136.81 35.9802 137.255 36.4246 137.803 36.4246Z" fill="#E1E1E1"/>
<path d="M149.202 36.4246C149.751 36.4246 150.195 35.9802 150.195 35.4319C150.195 34.8837 149.751 34.4392 149.202 34.4392C148.654 34.4392 148.21 34.8837 148.21 35.4319C148.21 35.9802 148.654 36.4246 149.202 36.4246Z" fill="#E1E1E1"/>
<path d="M0.992696 47.5757C1.54095 47.5757 1.9854 47.1313 1.9854 46.583C1.9854 46.0348 1.54095 45.5903 0.992696 45.5903C0.444444 45.5903 0 46.0348 0 46.583C0 47.1313 0.444444 47.5757 0.992696 47.5757Z" fill="#E1E1E1"/>
<path d="M12.3921 47.5757C12.9404 47.5757 13.3848 47.1313 13.3848 46.583C13.3848 46.0348 12.9404 45.5903 12.3921 45.5903C11.8439 45.5903 11.3994 46.0348 11.3994 46.583C11.3994 47.1313 11.8439 47.5757 12.3921 47.5757Z" fill="#E1E1E1"/>
<path d="M23.7917 47.5757C24.34 47.5757 24.7844 47.1313 24.7844 46.583C24.7844 46.0348 24.34 45.5903 23.7917 45.5903C23.2435 45.5903 22.799 46.0348 22.799 46.583C22.799 47.1313 23.2435 47.5757 23.7917 47.5757Z" fill="#E1E1E1"/>
<path d="M35.1911 47.5757C35.7393 47.5757 36.1838 47.1313 36.1838 46.583C36.1838 46.0348 35.7393 45.5903 35.1911 45.5903C34.6428 45.5903 34.1984 46.0348 34.1984 46.583C34.1984 47.1313 34.6428 47.5757 35.1911 47.5757Z" fill="#E1E1E1"/>
<path d="M46.5905 47.5757C47.1387 47.5757 47.5832 47.1313 47.5832 46.583C47.5832 46.0348 47.1387 45.5903 46.5905 45.5903C46.0422 45.5903 45.5978 46.0348 45.5978 46.583C45.5978 47.1313 46.0422 47.5757 46.5905 47.5757Z" fill="#E1E1E1"/>
<path d="M57.9983 47.5757C58.5465 47.5757 58.991 47.1313 58.991 46.583C58.991 46.0348 58.5465 45.5903 57.9983 45.5903C57.45 45.5903 57.0056 46.0348 57.0056 46.583C57.0056 47.1313 57.45 47.5757 57.9983 47.5757Z" fill="#E1E1E1"/>
<path d="M69.3978 47.5757C69.9461 47.5757 70.3906 47.1313 70.3906 46.583C70.3906 46.0348 69.9461 45.5903 69.3978 45.5903C68.8496 45.5903 68.4052 46.0348 68.4052 46.583C68.4052 47.1313 68.8496 47.5757 69.3978 47.5757Z" fill="#E1E1E1"/>
<path d="M81.79 46.583C81.79 47.129 81.3433 47.5757 80.7973 47.5757C80.2513 47.5757 79.8046 47.129 79.8046 46.583C79.8046 46.0371 80.2513 45.5903 80.7973 45.5903C81.3433 45.5903 81.79 46.0371 81.79 46.583Z" fill="#E1E1E1"/>
<path d="M92.1969 47.5757C92.7451 47.5757 93.1896 47.1313 93.1896 46.583C93.1896 46.0348 92.7451 45.5903 92.1969 45.5903C91.6486 45.5903 91.2042 46.0348 91.2042 46.583C91.2042 47.1313 91.6486 47.5757 92.1969 47.5757Z" fill="#E1E1E1"/>
<path d="M103.596 47.5757C104.145 47.5757 104.589 47.1313 104.589 46.583C104.589 46.0348 104.145 45.5903 103.596 45.5903C103.048 45.5903 102.604 46.0348 102.604 46.583C102.604 47.1313 103.048 47.5757 103.596 47.5757Z" fill="#E1E1E1"/>
<path d="M114.996 47.5757C115.544 47.5757 115.989 47.1313 115.989 46.583C115.989 46.0348 115.544 45.5903 114.996 45.5903C114.448 45.5903 114.003 46.0348 114.003 46.583C114.003 47.1313 114.448 47.5757 114.996 47.5757Z" fill="#E1E1E1"/>
<path d="M126.403 47.5757C126.952 47.5757 127.396 47.1313 127.396 46.583C127.396 46.0348 126.952 45.5903 126.403 45.5903C125.855 45.5903 125.411 46.0348 125.411 46.583C125.411 47.1313 125.855 47.5757 126.403 47.5757Z" fill="#E1E1E1"/>
<path d="M137.803 47.5757C138.351 47.5757 138.796 47.1313 138.796 46.583C138.796 46.0348 138.351 45.5903 137.803 45.5903C137.255 45.5903 136.81 46.0348 136.81 46.583C136.81 47.1313 137.255 47.5757 137.803 47.5757Z" fill="#E1E1E1"/>
<path d="M149.202 47.5757C149.751 47.5757 150.195 47.1313 150.195 46.583C150.195 46.0348 149.751 45.5903 149.202 45.5903C148.654 45.5903 148.21 46.0348 148.21 46.583C148.21 47.1313 148.654 47.5757 149.202 47.5757Z" fill="#E1E1E1"/>
<path d="M0.992696 58.7273C1.54095 58.7273 1.9854 58.2829 1.9854 57.7346C1.9854 57.1863 1.54095 56.7419 0.992696 56.7419C0.444444 56.7419 0 57.1863 0 57.7346C0 58.2829 0.444444 58.7273 0.992696 58.7273Z" fill="#E1E1E1"/>
<path d="M12.3921 58.7273C12.9404 58.7273 13.3848 58.2829 13.3848 57.7346C13.3848 57.1863 12.9404 56.7419 12.3921 56.7419C11.8439 56.7419 11.3994 57.1863 11.3994 57.7346C11.3994 58.2829 11.8439 58.7273 12.3921 58.7273Z" fill="#E1E1E1"/>
<path d="M23.7917 58.7273C24.34 58.7273 24.7844 58.2829 24.7844 57.7346C24.7844 57.1863 24.34 56.7419 23.7917 56.7419C23.2435 56.7419 22.799 57.1863 22.799 57.7346C22.799 58.2829 23.2435 58.7273 23.7917 58.7273Z" fill="#E1E1E1"/>
<path d="M35.1911 58.7273C35.7394 58.7273 36.1838 58.2829 36.1838 57.7346C36.1838 57.1863 35.7394 56.7419 35.1911 56.7419C34.6429 56.7419 34.1984 57.1863 34.1984 57.7346C34.1984 58.2829 34.6429 58.7273 35.1911 58.7273Z" fill="#E1E1E1"/>
<path d="M46.5905 58.7273C47.1387 58.7273 47.5832 58.2829 47.5832 57.7346C47.5832 57.1863 47.1387 56.7419 46.5905 56.7419C46.0422 56.7419 45.5978 57.1863 45.5978 57.7346C45.5978 58.2829 46.0422 58.7273 46.5905 58.7273Z" fill="#E1E1E1"/>
<path d="M57.9983 58.7273C58.5465 58.7273 58.991 58.2829 58.991 57.7346C58.991 57.1863 58.5465 56.7419 57.9983 56.7419C57.45 56.7419 57.0056 57.1863 57.0056 57.7346C57.0056 58.2829 57.45 58.7273 57.9983 58.7273Z" fill="#E1E1E1"/>
<path d="M69.3978 58.7273C69.9461 58.7273 70.3906 58.2829 70.3906 57.7346C70.3906 57.1863 69.9461 56.7419 69.3978 56.7419C68.8496 56.7419 68.4052 57.1863 68.4052 57.7346C68.4052 58.2829 68.8496 58.7273 69.3978 58.7273Z" fill="#E1E1E1"/>
<path d="M81.79 57.7346C81.79 58.2806 81.3433 58.7273 80.7973 58.7273C80.2513 58.7273 79.8046 58.2806 79.8046 57.7346C79.8046 57.1886 80.2513 56.7419 80.7973 56.7419C81.3433 56.7419 81.79 57.1886 81.79 57.7346Z" fill="#E1E1E1"/>
<path d="M92.1969 58.7273C92.7451 58.7273 93.1896 58.2829 93.1896 57.7346C93.1896 57.1863 92.7451 56.7419 92.1969 56.7419C91.6486 56.7419 91.2042 57.1863 91.2042 57.7346C91.2042 58.2829 91.6486 58.7273 92.1969 58.7273Z" fill="#E1E1E1"/>
<path d="M103.596 58.7273C104.145 58.7273 104.589 58.2829 104.589 57.7346C104.589 57.1863 104.145 56.7419 103.596 56.7419C103.048 56.7419 102.604 57.1863 102.604 57.7346C102.604 58.2829 103.048 58.7273 103.596 58.7273Z" fill="#E1E1E1"/>
<path d="M114.996 58.7273C115.544 58.7273 115.989 58.2829 115.989 57.7346C115.989 57.1863 115.544 56.7419 114.996 56.7419C114.448 56.7419 114.003 57.1863 114.003 57.7346C114.003 58.2829 114.448 58.7273 114.996 58.7273Z" fill="#E1E1E1"/>
<path d="M126.403 58.7273C126.952 58.7273 127.396 58.2829 127.396 57.7346C127.396 57.1863 126.952 56.7419 126.403 56.7419C125.855 56.7419 125.411 57.1863 125.411 57.7346C125.411 58.2829 125.855 58.7273 126.403 58.7273Z" fill="#E1E1E1"/>
<path d="M137.803 58.7273C138.351 58.7273 138.796 58.2829 138.796 57.7346C138.796 57.1863 138.351 56.7419 137.803 56.7419C137.255 56.7419 136.81 57.1863 136.81 57.7346C136.81 58.2829 137.255 58.7273 137.803 58.7273Z" fill="#E1E1E1"/>
<path d="M149.202 58.7273C149.751 58.7273 150.195 58.2829 150.195 57.7346C150.195 57.1863 149.751 56.7419 149.202 56.7419C148.654 56.7419 148.21 57.1863 148.21 57.7346C148.21 58.2829 148.654 58.7273 149.202 58.7273Z" fill="#E1E1E1"/>
<path d="M0.992696 69.8787C1.54095 69.8787 1.9854 69.4343 1.9854 68.886C1.9854 68.3378 1.54095 67.8933 0.992696 67.8933C0.444444 67.8933 0 68.3378 0 68.886C0 69.4343 0.444444 69.8787 0.992696 69.8787Z" fill="#E1E1E1"/>
<path d="M12.3921 69.8787C12.9404 69.8787 13.3848 69.4343 13.3848 68.886C13.3848 68.3378 12.9404 67.8933 12.3921 67.8933C11.8439 67.8933 11.3994 68.3378 11.3994 68.886C11.3994 69.4343 11.8439 69.8787 12.3921 69.8787Z" fill="#E1E1E1"/>
<path d="M23.7917 69.8787C24.34 69.8787 24.7844 69.4343 24.7844 68.886C24.7844 68.3378 24.34 67.8933 23.7917 67.8933C23.2435 67.8933 22.799 68.3378 22.799 68.886C22.799 69.4343 23.2435 69.8787 23.7917 69.8787Z" fill="#E1E1E1"/>
<path d="M35.1911 69.8787C35.7394 69.8787 36.1838 69.4343 36.1838 68.886C36.1838 68.3378 35.7394 67.8933 35.1911 67.8933C34.6429 67.8933 34.1984 68.3378 34.1984 68.886C34.1984 69.4343 34.6429 69.8787 35.1911 69.8787Z" fill="#E1E1E1"/>
<path d="M46.5905 69.8787C47.1387 69.8787 47.5832 69.4343 47.5832 68.886C47.5832 68.3378 47.1387 67.8933 46.5905 67.8933C46.0422 67.8933 45.5978 68.3378 45.5978 68.886C45.5978 69.4343 46.0422 69.8787 46.5905 69.8787Z" fill="#E1E1E1"/>
<path d="M57.9983 69.8787C58.5465 69.8787 58.991 69.4343 58.991 68.886C58.991 68.3378 58.5465 67.8933 57.9983 67.8933C57.45 67.8933 57.0056 68.3378 57.0056 68.886C57.0056 69.4343 57.45 69.8787 57.9983 69.8787Z" fill="#E1E1E1"/>
<path d="M69.3978 69.8787C69.9461 69.8787 70.3906 69.4343 70.3906 68.886C70.3906 68.3378 69.9461 67.8933 69.3978 67.8933C68.8496 67.8933 68.4052 68.3378 68.4052 68.886C68.4052 69.4343 68.8496 69.8787 69.3978 69.8787Z" fill="#E1E1E1"/>
<path d="M81.79 68.886C81.79 69.432 81.3433 69.8787 80.7973 69.8787C80.2513 69.8787 79.8046 69.432 79.8046 68.886C79.8046 68.34 80.2513 67.8933 80.7973 67.8933C81.3433 67.9016 81.79 68.34 81.79 68.886Z" fill="#E1E1E1"/>
<path d="M92.1969 69.8787C92.7451 69.8787 93.1896 69.4343 93.1896 68.886C93.1896 68.3378 92.7451 67.8933 92.1969 67.8933C91.6486 67.8933 91.2042 68.3378 91.2042 68.886C91.2042 69.4343 91.6486 69.8787 92.1969 69.8787Z" fill="#E1E1E1"/>
<path d="M103.596 69.8787C104.145 69.8787 104.589 69.4343 104.589 68.886C104.589 68.3378 104.145 67.8933 103.596 67.8933C103.048 67.8933 102.604 68.3378 102.604 68.886C102.604 69.4343 103.048 69.8787 103.596 69.8787Z" fill="#E1E1E1"/>
<path d="M114.996 69.8787C115.544 69.8787 115.989 69.4343 115.989 68.886C115.989 68.3378 115.544 67.8933 114.996 67.8933C114.448 67.8933 114.003 68.3378 114.003 68.886C114.003 69.4343 114.448 69.8787 114.996 69.8787Z" fill="#E1E1E1"/>
<path d="M126.403 69.8787C126.952 69.8787 127.396 69.4343 127.396 68.886C127.396 68.3378 126.952 67.8933 126.403 67.8933C125.855 67.8933 125.411 68.3378 125.411 68.886C125.411 69.4343 125.855 69.8787 126.403 69.8787Z" fill="#E1E1E1"/>
<path d="M137.803 69.8787C138.351 69.8787 138.796 69.4343 138.796 68.886C138.796 68.3378 138.351 67.8933 137.803 67.8933C137.255 67.8933 136.81 68.3378 136.81 68.886C136.81 69.4343 137.255 69.8787 137.803 69.8787Z" fill="#E1E1E1"/>
<path d="M149.202 69.8787C149.751 69.8787 150.195 69.4343 150.195 68.886C150.195 68.3378 149.751 67.8933 149.202 67.8933C148.654 67.8933 148.21 68.3378 148.21 68.886C148.21 69.4343 148.654 69.8787 149.202 69.8787Z" fill="#E1E1E1"/>
<path d="M1.9854 80.0454C1.9854 80.5914 1.53868 81.0382 0.992696 81.0382C0.446712 81.0382 0 80.5914 0 80.0454C0 79.4995 0.446712 79.0527 0.992696 79.0527C1.53868 79.0527 1.9854 79.4912 1.9854 80.0454Z" fill="#E1E1E1"/>
<path d="M13.3848 80.0454C13.3848 80.5914 12.9381 81.0382 12.3921 81.0382C11.8461 81.0382 11.3994 80.5914 11.3994 80.0454C11.3994 79.4995 11.8461 79.0527 12.3921 79.0527C12.9381 79.0527 13.3848 79.4912 13.3848 80.0454Z" fill="#E1E1E1"/>
<path d="M24.7844 80.0454C24.7844 80.5914 24.3377 81.0382 23.7917 81.0382C23.2457 81.0382 22.799 80.5914 22.799 80.0454C22.799 79.4995 23.2457 79.0527 23.7917 79.0527C24.3377 79.0527 24.7844 79.4912 24.7844 80.0454Z" fill="#E1E1E1"/>
<path d="M36.1838 80.0454C36.1838 80.5914 35.7371 81.0382 35.1911 81.0382C34.6451 81.0382 34.1984 80.5914 34.1984 80.0454C34.1984 79.4995 34.6451 79.0527 35.1911 79.0527C35.7371 79.0527 36.1838 79.4912 36.1838 80.0454Z" fill="#E1E1E1"/>
<path d="M47.5832 80.0454C47.5832 80.5914 47.1365 81.0382 46.5905 81.0382C46.0445 81.0382 45.5978 80.5914 45.5978 80.0454C45.5978 79.4995 46.0445 79.0527 46.5905 79.0527C47.1447 79.0527 47.5832 79.4912 47.5832 80.0454Z" fill="#E1E1E1"/>
<path d="M58.9826 80.0454C58.9826 80.5914 58.5359 81.0382 57.9899 81.0382C57.4439 81.0382 56.9972 80.5914 56.9972 80.0454C56.9972 79.4995 57.4439 79.0527 57.9899 79.0527C58.5441 79.0527 58.9826 79.4912 58.9826 80.0454Z" fill="#E1E1E1"/>
<path d="M70.3906 80.0454C70.3906 80.5914 69.9438 81.0382 69.3978 81.0382C68.8519 81.0382 68.4052 80.5914 68.4052 80.0454C68.4052 79.4995 68.8519 79.0527 69.3978 79.0527C69.9438 79.0527 70.3906 79.4912 70.3906 80.0454Z" fill="#E1E1E1"/>
<path d="M81.79 80.0454C81.79 80.5914 81.3433 81.0382 80.7973 81.0382C80.2513 81.0382 79.8046 80.5914 79.8046 80.0454C79.8046 79.4995 80.2513 79.0527 80.7973 79.0527C81.3433 79.0527 81.79 79.4912 81.79 80.0454Z" fill="#E1E1E1"/>
<path d="M93.1896 80.0454C93.1896 80.5914 92.7429 81.0382 92.1969 81.0382C91.6509 81.0382 91.2042 80.5914 91.2042 80.0454C91.2042 79.4995 91.6509 79.0527 92.1969 79.0527C92.7429 79.0527 93.1896 79.4912 93.1896 80.0454Z" fill="#E1E1E1"/>
<path d="M104.589 80.0454C104.589 80.5914 104.142 81.0382 103.596 81.0382C103.05 81.0382 102.604 80.5914 102.604 80.0454C102.604 79.4995 103.05 79.0527 103.596 79.0527C104.142 79.0527 104.589 79.4912 104.589 80.0454Z" fill="#E1E1E1"/>
<path d="M115.989 80.0454C115.989 80.5914 115.542 81.0382 114.996 81.0382C114.45 81.0382 114.003 80.5914 114.003 80.0454C114.003 79.4995 114.45 79.0527 114.996 79.0527C115.55 79.0527 115.989 79.4912 115.989 80.0454Z" fill="#E1E1E1"/>
<path d="M127.388 80.0454C127.388 80.5914 126.941 81.0382 126.395 81.0382C125.849 81.0382 125.403 80.5914 125.403 80.0454C125.403 79.4995 125.849 79.0527 126.395 79.0527C126.95 79.0527 127.388 79.4912 127.388 80.0454Z" fill="#E1E1E1"/>
<path d="M138.796 80.0454C138.796 80.5914 138.349 81.0382 137.803 81.0382C137.257 81.0382 136.81 80.5914 136.81 80.0454C136.81 79.4995 137.257 79.0527 137.803 79.0527C138.349 79.0527 138.796 79.4912 138.796 80.0454Z" fill="#E1E1E1"/>
<path d="M150.195 80.0454C150.195 80.5914 149.748 81.0382 149.202 81.0382C148.656 81.0382 148.21 80.5914 148.21 80.0454C148.21 79.4995 148.656 79.0527 149.202 79.0527C149.748 79.0527 150.195 79.4912 150.195 80.0454Z" fill="#E1E1E1"/>
<path d="M0.992696 92.1895C1.54095 92.1895 1.9854 91.7451 1.9854 91.1968C1.9854 90.6486 1.54095 90.2041 0.992696 90.2041C0.444444 90.2041 0 90.6486 0 91.1968C0 91.7451 0.444444 92.1895 0.992696 92.1895Z" fill="#E1E1E1"/>
<path d="M12.3921 92.1895C12.9404 92.1895 13.3848 91.7451 13.3848 91.1968C13.3848 90.6486 12.9404 90.2041 12.3921 90.2041C11.8439 90.2041 11.3994 90.6486 11.3994 91.1968C11.3994 91.7451 11.8439 92.1895 12.3921 92.1895Z" fill="#E1E1E1"/>
<path d="M23.7917 92.1895C24.34 92.1895 24.7844 91.7451 24.7844 91.1968C24.7844 90.6486 24.34 90.2041 23.7917 90.2041C23.2435 90.2041 22.799 90.6486 22.799 91.1968C22.799 91.7451 23.2435 92.1895 23.7917 92.1895Z" fill="#E1E1E1"/>
<path d="M35.1911 92.1895C35.7394 92.1895 36.1838 91.7451 36.1838 91.1968C36.1838 90.6486 35.7394 90.2041 35.1911 90.2041C34.6429 90.2041 34.1984 90.6486 34.1984 91.1968C34.1984 91.7451 34.6429 92.1895 35.1911 92.1895Z" fill="#E1E1E1"/>
<path d="M46.5905 92.1895C47.1387 92.1895 47.5832 91.7451 47.5832 91.1968C47.5832 90.6486 47.1387 90.2041 46.5905 90.2041C46.0422 90.2041 45.5978 90.6486 45.5978 91.1968C45.5978 91.7451 46.0422 92.1895 46.5905 92.1895Z" fill="#E1E1E1"/>
<path d="M57.9983 92.1895C58.5465 92.1895 58.991 91.7451 58.991 91.1968C58.991 90.6486 58.5465 90.2041 57.9983 90.2041C57.45 90.2041 57.0056 90.6486 57.0056 91.1968C57.0056 91.7451 57.45 92.1895 57.9983 92.1895Z" fill="#E1E1E1"/>
<path d="M69.3978 92.1895C69.9461 92.1895 70.3906 91.7451 70.3906 91.1968C70.3906 90.6486 69.9461 90.2041 69.3978 90.2041C68.8496 90.2041 68.4052 90.6486 68.4052 91.1968C68.4052 91.7451 68.8496 92.1895 69.3978 92.1895Z" fill="#E1E1E1"/>
<path d="M81.79 91.1968C81.79 91.7428 81.3433 92.1895 80.7973 92.1895C80.2513 92.1895 79.8046 91.7428 79.8046 91.1968C79.8046 90.6508 80.2513 90.2041 80.7973 90.2041C81.3433 90.2041 81.79 90.6508 81.79 91.1968Z" fill="#E1E1E1"/>
<path d="M92.1969 92.1895C92.7451 92.1895 93.1896 91.7451 93.1896 91.1968C93.1896 90.6486 92.7451 90.2041 92.1969 90.2041C91.6486 90.2041 91.2042 90.6486 91.2042 91.1968C91.2042 91.7451 91.6486 92.1895 92.1969 92.1895Z" fill="#E1E1E1"/>
<path d="M103.596 92.1895C104.145 92.1895 104.589 91.7451 104.589 91.1968C104.589 90.6486 104.145 90.2041 103.596 90.2041C103.048 90.2041 102.604 90.6486 102.604 91.1968C102.604 91.7451 103.048 92.1895 103.596 92.1895Z" fill="#E1E1E1"/>
<path d="M114.996 92.1895C115.544 92.1895 115.989 91.7451 115.989 91.1968C115.989 90.6486 115.544 90.2041 114.996 90.2041C114.448 90.2041 114.003 90.6486 114.003 91.1968C114.003 91.7451 114.448 92.1895 114.996 92.1895Z" fill="#E1E1E1"/>
<path d="M126.403 92.1895C126.952 92.1895 127.396 91.7451 127.396 91.1968C127.396 90.6486 126.952 90.2041 126.403 90.2041C125.855 90.2041 125.411 90.6486 125.411 91.1968C125.411 91.7451 125.855 92.1895 126.403 92.1895Z" fill="#E1E1E1"/>
<path d="M137.803 92.1895C138.351 92.1895 138.796 91.7451 138.796 91.1968C138.796 90.6486 138.351 90.2041 137.803 90.2041C137.255 90.2041 136.81 90.6486 136.81 91.1968C136.81 91.7451 137.255 92.1895 137.803 92.1895Z" fill="#E1E1E1"/>
<path d="M149.202 92.1895C149.751 92.1895 150.195 91.7451 150.195 91.1968C150.195 90.6486 149.751 90.2041 149.202 90.2041C148.654 90.2041 148.21 90.6486 148.21 91.1968C148.21 91.7451 148.654 92.1895 149.202 92.1895Z" fill="#E1E1E1"/>
<path d="M0.992696 103.341C1.54095 103.341 1.9854 102.896 1.9854 102.348C1.9854 101.8 1.54095 101.355 0.992696 101.355C0.444444 101.355 0 101.8 0 102.348C0 102.896 0.444444 103.341 0.992696 103.341Z" fill="#E1E1E1"/>
<path d="M12.3921 103.341C12.9404 103.341 13.3848 102.896 13.3848 102.348C13.3848 101.8 12.9404 101.355 12.3921 101.355C11.8439 101.355 11.3994 101.8 11.3994 102.348C11.3994 102.896 11.8439 103.341 12.3921 103.341Z" fill="#E1E1E1"/>
<path d="M23.7917 103.341C24.34 103.341 24.7844 102.896 24.7844 102.348C24.7844 101.8 24.34 101.355 23.7917 101.355C23.2435 101.355 22.799 101.8 22.799 102.348C22.799 102.896 23.2435 103.341 23.7917 103.341Z" fill="#E1E1E1"/>
<path d="M35.1911 103.341C35.7394 103.341 36.1838 102.896 36.1838 102.348C36.1838 101.8 35.7394 101.355 35.1911 101.355C34.6429 101.355 34.1984 101.8 34.1984 102.348C34.1984 102.896 34.6429 103.341 35.1911 103.341Z" fill="#E1E1E1"/>
<path d="M46.5905 103.341C47.1387 103.341 47.5832 102.896 47.5832 102.348C47.5832 101.8 47.1387 101.355 46.5905 101.355C46.0422 101.355 45.5978 101.8 45.5978 102.348C45.5978 102.896 46.0422 103.341 46.5905 103.341Z" fill="#E1E1E1"/>
<path d="M57.9983 103.341C58.5465 103.341 58.991 102.896 58.991 102.348C58.991 101.8 58.5465 101.355 57.9983 101.355C57.45 101.355 57.0056 101.8 57.0056 102.348C57.0056 102.896 57.45 103.341 57.9983 103.341Z" fill="#E1E1E1"/>
<path d="M69.3978 103.341C69.9461 103.341 70.3906 102.896 70.3906 102.348C70.3906 101.8 69.9461 101.355 69.3978 101.355C68.8496 101.355 68.4052 101.8 68.4052 102.348C68.4052 102.896 68.8496 103.341 69.3978 103.341Z" fill="#E1E1E1"/>
<path d="M81.79 102.348C81.79 102.894 81.3433 103.341 80.7973 103.341C80.2513 103.341 79.8046 102.894 79.8046 102.348C79.8046 101.802 80.2513 101.355 80.7973 101.355C81.3433 101.355 81.79 101.802 81.79 102.348Z" fill="#E1E1E1"/>
<path d="M92.1969 103.341C92.7451 103.341 93.1896 102.896 93.1896 102.348C93.1896 101.8 92.7451 101.355 92.1969 101.355C91.6486 101.355 91.2042 101.8 91.2042 102.348C91.2042 102.896 91.6486 103.341 92.1969 103.341Z" fill="#E1E1E1"/>
<path d="M103.596 103.341C104.145 103.341 104.589 102.896 104.589 102.348C104.589 101.8 104.145 101.355 103.596 101.355C103.048 101.355 102.604 101.8 102.604 102.348C102.604 102.896 103.048 103.341 103.596 103.341Z" fill="#E1E1E1"/>
<path d="M114.996 103.341C115.544 103.341 115.989 102.896 115.989 102.348C115.989 101.8 115.544 101.355 114.996 101.355C114.448 101.355 114.003 101.8 114.003 102.348C114.003 102.896 114.448 103.341 114.996 103.341Z" fill="#E1E1E1"/>
<path d="M126.403 103.341C126.952 103.341 127.396 102.896 127.396 102.348C127.396 101.8 126.952 101.355 126.403 101.355C125.855 101.355 125.411 101.8 125.411 102.348C125.411 102.896 125.855 103.341 126.403 103.341Z" fill="#E1E1E1"/>
<path d="M137.803 103.341C138.351 103.341 138.796 102.896 138.796 102.348C138.796 101.8 138.351 101.355 137.803 101.355C137.255 101.355 136.81 101.8 136.81 102.348C136.81 102.896 137.255 103.341 137.803 103.341Z" fill="#E1E1E1"/>
<path d="M149.202 103.341C149.751 103.341 150.195 102.896 150.195 102.348C150.195 101.8 149.751 101.355 149.202 101.355C148.654 101.355 148.21 101.8 148.21 102.348C148.21 102.896 148.654 103.341 149.202 103.341Z" fill="#E1E1E1"/>
<path d="M0.992696 114.492C1.54095 114.492 1.9854 114.047 1.9854 113.499C1.9854 112.951 1.54095 112.506 0.992696 112.506C0.444444 112.506 0 112.951 0 113.499C0 114.047 0.444444 114.492 0.992696 114.492Z" fill="#E1E1E1"/>
<path d="M12.3921 114.492C12.9404 114.492 13.3848 114.047 13.3848 113.499C13.3848 112.951 12.9404 112.506 12.3921 112.506C11.8439 112.506 11.3994 112.951 11.3994 113.499C11.3994 114.047 11.8439 114.492 12.3921 114.492Z" fill="#E1E1E1"/>
<path d="M23.7918 114.492C24.34 114.492 24.7845 114.047 24.7845 113.499C24.7845 112.951 24.34 112.506 23.7918 112.506C23.2435 112.506 22.7991 112.951 22.7991 113.499C22.7991 114.047 23.2435 114.492 23.7918 114.492Z" fill="#E1E1E1"/>
<path d="M35.1911 114.492C35.7393 114.492 36.1838 114.047 36.1838 113.499C36.1838 112.951 35.7393 112.506 35.1911 112.506C34.6428 112.506 34.1984 112.951 34.1984 113.499C34.1984 114.047 34.6428 114.492 35.1911 114.492Z" fill="#E1E1E1"/>
<path d="M46.5905 114.492C47.1387 114.492 47.5832 114.047 47.5832 113.499C47.5832 112.951 47.1387 112.506 46.5905 112.506C46.0422 112.506 45.5978 112.951 45.5978 113.499C45.5978 114.047 46.0422 114.492 46.5905 114.492Z" fill="#E1E1E1"/>
<path d="M57.9982 114.492C58.5464 114.492 58.9909 114.047 58.9909 113.499C58.9909 112.951 58.5464 112.506 57.9982 112.506C57.4499 112.506 57.0055 112.951 57.0055 113.499C57.0055 114.047 57.4499 114.492 57.9982 114.492Z" fill="#E1E1E1"/>
<path d="M69.3978 114.492C69.9461 114.492 70.3906 114.047 70.3906 113.499C70.3906 112.951 69.9461 112.506 69.3978 112.506C68.8496 112.506 68.4052 112.951 68.4052 113.499C68.4052 114.047 68.8496 114.492 69.3978 114.492Z" fill="#E1E1E1"/>
<path d="M81.79 113.499C81.79 114.045 81.3433 114.492 80.7973 114.492C80.2513 114.492 79.8046 114.045 79.8046 113.499C79.8046 112.953 80.2513 112.506 80.7973 112.506C81.3433 112.506 81.79 112.953 81.79 113.499Z" fill="#E1E1E1"/>
<path d="M92.1969 114.492C92.7452 114.492 93.1896 114.047 93.1896 113.499C93.1896 112.951 92.7452 112.506 92.1969 112.506C91.6487 112.506 91.2042 112.951 91.2042 113.499C91.2042 114.047 91.6487 114.492 92.1969 114.492Z" fill="#E1E1E1"/>
<path d="M103.596 114.492C104.144 114.492 104.589 114.047 104.589 113.499C104.589 112.951 104.144 112.506 103.596 112.506C103.048 112.506 102.604 112.951 102.604 113.499C102.604 114.047 103.048 114.492 103.596 114.492Z" fill="#E1E1E1"/>
<path d="M114.996 114.492C115.544 114.492 115.989 114.047 115.989 113.499C115.989 112.951 115.544 112.506 114.996 112.506C114.448 112.506 114.003 112.951 114.003 113.499C114.003 114.047 114.448 114.492 114.996 114.492Z" fill="#E1E1E1"/>
<path d="M126.403 114.492C126.952 114.492 127.396 114.047 127.396 113.499C127.396 112.951 126.952 112.506 126.403 112.506C125.855 112.506 125.411 112.951 125.411 113.499C125.411 114.047 125.855 114.492 126.403 114.492Z" fill="#E1E1E1"/>
<path d="M137.803 114.492C138.351 114.492 138.796 114.047 138.796 113.499C138.796 112.951 138.351 112.506 137.803 112.506C137.255 112.506 136.81 112.951 136.81 113.499C136.81 114.047 137.255 114.492 137.803 114.492Z" fill="#E1E1E1"/>
<path d="M149.202 114.492C149.751 114.492 150.195 114.047 150.195 113.499C150.195 112.951 149.751 112.506 149.202 112.506C148.654 112.506 148.21 112.951 148.21 113.499C148.21 114.047 148.654 114.492 149.202 114.492Z" fill="#E1E1E1"/>
<path d="M0.992696 125.643C1.54095 125.643 1.9854 125.199 1.9854 124.65C1.9854 124.102 1.54095 123.658 0.992696 123.658C0.444444 123.658 0 124.102 0 124.65C0 125.199 0.444444 125.643 0.992696 125.643Z" fill="#E1E1E1"/>
<path d="M12.3921 125.643C12.9404 125.643 13.3848 125.199 13.3848 124.65C13.3848 124.102 12.9404 123.658 12.3921 123.658C11.8439 123.658 11.3994 124.102 11.3994 124.65C11.3994 125.199 11.8439 125.643 12.3921 125.643Z" fill="#E1E1E1"/>
<path d="M23.7918 125.643C24.34 125.643 24.7845 125.199 24.7845 124.65C24.7845 124.102 24.34 123.658 23.7918 123.658C23.2435 123.658 22.7991 124.102 22.7991 124.65C22.7991 125.199 23.2435 125.643 23.7918 125.643Z" fill="#E1E1E1"/>
<path d="M35.1911 125.643C35.7393 125.643 36.1838 125.199 36.1838 124.65C36.1838 124.102 35.7393 123.658 35.1911 123.658C34.6428 123.658 34.1984 124.102 34.1984 124.65C34.1984 125.199 34.6428 125.643 35.1911 125.643Z" fill="#E1E1E1"/>
<path d="M46.5905 125.643C47.1387 125.643 47.5832 125.199 47.5832 124.65C47.5832 124.102 47.1387 123.658 46.5905 123.658C46.0422 123.658 45.5978 124.102 45.5978 124.65C45.5978 125.199 46.0422 125.643 46.5905 125.643Z" fill="#E1E1E1"/>
<path d="M57.9982 125.643C58.5464 125.643 58.9909 125.199 58.9909 124.65C58.9909 124.102 58.5464 123.658 57.9982 123.658C57.4499 123.658 57.0055 124.102 57.0055 124.65C57.0055 125.199 57.4499 125.643 57.9982 125.643Z" fill="#E1E1E1"/>
<path d="M69.3978 125.643C69.9461 125.643 70.3906 125.199 70.3906 124.65C70.3906 124.102 69.9461 123.658 69.3978 123.658C68.8496 123.658 68.4052 124.102 68.4052 124.65C68.4052 125.199 68.8496 125.643 69.3978 125.643Z" fill="#E1E1E1"/>
<path d="M81.79 124.65C81.79 125.196 81.3433 125.643 80.7973 125.643C80.2513 125.643 79.8046 125.196 79.8046 124.65C79.8046 124.104 80.2513 123.658 80.7973 123.658C81.3433 123.666 81.79 124.104 81.79 124.65Z" fill="#E1E1E1"/>
<path d="M92.1969 125.643C92.7452 125.643 93.1896 125.199 93.1896 124.65C93.1896 124.102 92.7452 123.658 92.1969 123.658C91.6487 123.658 91.2042 124.102 91.2042 124.65C91.2042 125.199 91.6487 125.643 92.1969 125.643Z" fill="#E1E1E1"/>
<path d="M103.596 125.643C104.144 125.643 104.589 125.199 104.589 124.65C104.589 124.102 104.144 123.658 103.596 123.658C103.048 123.658 102.604 124.102 102.604 124.65C102.604 125.199 103.048 125.643 103.596 125.643Z" fill="#E1E1E1"/>
<path d="M114.996 125.643C115.544 125.643 115.989 125.199 115.989 124.65C115.989 124.102 115.544 123.658 114.996 123.658C114.448 123.658 114.003 124.102 114.003 124.65C114.003 125.199 114.448 125.643 114.996 125.643Z" fill="#E1E1E1"/>
<path d="M126.403 125.643C126.952 125.643 127.396 125.199 127.396 124.65C127.396 124.102 126.952 123.658 126.403 123.658C125.855 123.658 125.411 124.102 125.411 124.65C125.411 125.199 125.855 125.643 126.403 125.643Z" fill="#E1E1E1"/>
<path d="M137.803 125.643C138.351 125.643 138.796 125.199 138.796 124.65C138.796 124.102 138.351 123.658 137.803 123.658C137.255 123.658 136.81 124.102 136.81 124.65C136.81 125.199 137.255 125.643 137.803 125.643Z" fill="#E1E1E1"/>
<path d="M149.202 125.643C149.751 125.643 150.195 125.199 150.195 124.65C150.195 124.102 149.751 123.658 149.202 123.658C148.654 123.658 148.21 124.102 148.21 124.65C148.21 125.199 148.654 125.643 149.202 125.643Z" fill="#E1E1E1"/>
<path d="M0.992696 136.803C1.54095 136.803 1.9854 136.359 1.9854 135.81C1.9854 135.262 1.54095 134.818 0.992696 134.818C0.444444 134.818 0 135.262 0 135.81C0 136.359 0.444444 136.803 0.992696 136.803Z" fill="#E1E1E1"/>
<path d="M12.3921 136.803C12.9404 136.803 13.3848 136.359 13.3848 135.81C13.3848 135.262 12.9404 134.818 12.3921 134.818C11.8439 134.818 11.3994 135.262 11.3994 135.81C11.3994 136.359 11.8439 136.803 12.3921 136.803Z" fill="#E1E1E1"/>
<path d="M23.7917 136.803C24.34 136.803 24.7844 136.359 24.7844 135.81C24.7844 135.262 24.34 134.818 23.7917 134.818C23.2435 134.818 22.799 135.262 22.799 135.81C22.799 136.359 23.2435 136.803 23.7917 136.803Z" fill="#E1E1E1"/>
<path d="M35.1911 136.803C35.7394 136.803 36.1838 136.359 36.1838 135.81C36.1838 135.262 35.7394 134.818 35.1911 134.818C34.6429 134.818 34.1984 135.262 34.1984 135.81C34.1984 136.359 34.6429 136.803 35.1911 136.803Z" fill="#E1E1E1"/>
<path d="M46.5905 136.803C47.1387 136.803 47.5832 136.359 47.5832 135.81C47.5832 135.262 47.1387 134.818 46.5905 134.818C46.0422 134.818 45.5978 135.262 45.5978 135.81C45.5978 136.359 46.0422 136.803 46.5905 136.803Z" fill="#E1E1E1"/>
<path d="M57.9983 136.803C58.5465 136.803 58.991 136.359 58.991 135.81C58.991 135.262 58.5465 134.818 57.9983 134.818C57.45 134.818 57.0056 135.262 57.0056 135.81C57.0056 136.359 57.45 136.803 57.9983 136.803Z" fill="#E1E1E1"/>
<path d="M69.3978 136.803C69.9461 136.803 70.3906 136.359 70.3906 135.81C70.3906 135.262 69.9461 134.818 69.3978 134.818C68.8496 134.818 68.4052 135.262 68.4052 135.81C68.4052 136.359 68.8496 136.803 69.3978 136.803Z" fill="#E1E1E1"/>
<path d="M81.79 135.81C81.79 136.356 81.3433 136.803 80.7973 136.803C80.2513 136.803 79.8046 136.356 79.8046 135.81C79.8046 135.264 80.2513 134.818 80.7973 134.818C81.3433 134.818 81.79 135.256 81.79 135.81Z" fill="#E1E1E1"/>
<path d="M92.1969 136.803C92.7451 136.803 93.1896 136.359 93.1896 135.81C93.1896 135.262 92.7451 134.818 92.1969 134.818C91.6486 134.818 91.2042 135.262 91.2042 135.81C91.2042 136.359 91.6486 136.803 92.1969 136.803Z" fill="#E1E1E1"/>
<path d="M103.596 136.803C104.145 136.803 104.589 136.359 104.589 135.81C104.589 135.262 104.145 134.818 103.596 134.818C103.048 134.818 102.604 135.262 102.604 135.81C102.604 136.359 103.048 136.803 103.596 136.803Z" fill="#E1E1E1"/>
<path d="M114.996 136.803C115.544 136.803 115.989 136.359 115.989 135.81C115.989 135.262 115.544 134.818 114.996 134.818C114.448 134.818 114.003 135.262 114.003 135.81C114.003 136.359 114.448 136.803 114.996 136.803Z" fill="#E1E1E1"/>
<path d="M126.403 136.803C126.952 136.803 127.396 136.359 127.396 135.81C127.396 135.262 126.952 134.818 126.403 134.818C125.855 134.818 125.411 135.262 125.411 135.81C125.411 136.359 125.855 136.803 126.403 136.803Z" fill="#E1E1E1"/>
<path d="M137.803 136.803C138.351 136.803 138.796 136.359 138.796 135.81C138.796 135.262 138.351 134.818 137.803 134.818C137.255 134.818 136.81 135.262 136.81 135.81C136.81 136.359 137.255 136.803 137.803 136.803Z" fill="#E1E1E1"/>
<path d="M149.202 136.803C149.751 136.803 150.195 136.359 150.195 135.81C150.195 135.262 149.751 134.818 149.202 134.818C148.654 134.818 148.21 135.262 148.21 135.81C148.21 136.359 148.654 136.803 149.202 136.803Z" fill="#E1E1E1"/>
<path d="M0.992696 147.955C1.54095 147.955 1.9854 147.51 1.9854 146.962C1.9854 146.414 1.54095 145.969 0.992696 145.969C0.444444 145.969 0 146.414 0 146.962C0 147.51 0.444444 147.955 0.992696 147.955Z" fill="#E1E1E1"/>
<path d="M12.3921 147.955C12.9404 147.955 13.3848 147.51 13.3848 146.962C13.3848 146.414 12.9404 145.969 12.3921 145.969C11.8439 145.969 11.3994 146.414 11.3994 146.962C11.3994 147.51 11.8439 147.955 12.3921 147.955Z" fill="#E1E1E1"/>
<path d="M23.7918 147.955C24.34 147.955 24.7845 147.51 24.7845 146.962C24.7845 146.414 24.34 145.969 23.7918 145.969C23.2435 145.969 22.7991 146.414 22.7991 146.962C22.7991 147.51 23.2435 147.955 23.7918 147.955Z" fill="#E1E1E1"/>
<path d="M35.1911 147.955C35.7393 147.955 36.1838 147.51 36.1838 146.962C36.1838 146.414 35.7393 145.969 35.1911 145.969C34.6428 145.969 34.1984 146.414 34.1984 146.962C34.1984 147.51 34.6428 147.955 35.1911 147.955Z" fill="#E1E1E1"/>
<path d="M46.5905 147.955C47.1387 147.955 47.5832 147.51 47.5832 146.962C47.5832 146.414 47.1387 145.969 46.5905 145.969C46.0422 145.969 45.5978 146.414 45.5978 146.962C45.5978 147.51 46.0422 147.955 46.5905 147.955Z" fill="#E1E1E1"/>
<path d="M57.9982 147.955C58.5464 147.955 58.9909 147.51 58.9909 146.962C58.9909 146.414 58.5464 145.969 57.9982 145.969C57.4499 145.969 57.0055 146.414 57.0055 146.962C57.0055 147.51 57.4499 147.955 57.9982 147.955Z" fill="#E1E1E1"/>
<path d="M69.3978 147.955C69.9461 147.955 70.3906 147.51 70.3906 146.962C70.3906 146.414 69.9461 145.969 69.3978 145.969C68.8496 145.969 68.4052 146.414 68.4052 146.962C68.4052 147.51 68.8496 147.955 69.3978 147.955Z" fill="#E1E1E1"/>
<path d="M81.79 146.962C81.79 147.508 81.3433 147.955 80.7973 147.955C80.2513 147.955 79.8046 147.508 79.8046 146.962C79.8046 146.416 80.2513 145.969 80.7973 145.969C81.3433 145.969 81.79 146.416 81.79 146.962Z" fill="#E1E1E1"/>
<path d="M92.1969 147.955C92.7452 147.955 93.1896 147.51 93.1896 146.962C93.1896 146.414 92.7452 145.969 92.1969 145.969C91.6487 145.969 91.2042 146.414 91.2042 146.962C91.2042 147.51 91.6487 147.955 92.1969 147.955Z" fill="#E1E1E1"/>
<path d="M103.596 147.955C104.144 147.955 104.589 147.51 104.589 146.962C104.589 146.414 104.144 145.969 103.596 145.969C103.048 145.969 102.604 146.414 102.604 146.962C102.604 147.51 103.048 147.955 103.596 147.955Z" fill="#E1E1E1"/>
<path d="M114.996 147.955C115.544 147.955 115.989 147.51 115.989 146.962C115.989 146.414 115.544 145.969 114.996 145.969C114.448 145.969 114.003 146.414 114.003 146.962C114.003 147.51 114.448 147.955 114.996 147.955Z" fill="#E1E1E1"/>
<path d="M126.403 147.955C126.952 147.955 127.396 147.51 127.396 146.962C127.396 146.414 126.952 145.969 126.403 145.969C125.855 145.969 125.411 146.414 125.411 146.962C125.411 147.51 125.855 147.955 126.403 147.955Z" fill="#E1E1E1"/>
<path d="M137.803 147.955C138.351 147.955 138.796 147.51 138.796 146.962C138.796 146.414 138.351 145.969 137.803 145.969C137.255 145.969 136.81 146.414 136.81 146.962C136.81 147.51 137.255 147.955 137.803 147.955Z" fill="#E1E1E1"/>
<path d="M149.202 147.955C149.751 147.955 150.195 147.51 150.195 146.962C150.195 146.414 149.751 145.969 149.202 145.969C148.654 145.969 148.21 146.414 148.21 146.962C148.21 147.51 148.654 147.955 149.202 147.955Z" fill="#E1E1E1"/>
<path d="M0.992696 159.106C1.54095 159.106 1.9854 158.662 1.9854 158.113C1.9854 157.565 1.54095 157.121 0.992696 157.121C0.444444 157.121 0 157.565 0 158.113C0 158.662 0.444444 159.106 0.992696 159.106Z" fill="#E1E1E1"/>
<path d="M12.3921 159.106C12.9404 159.106 13.3848 158.662 13.3848 158.113C13.3848 157.565 12.9404 157.121 12.3921 157.121C11.8439 157.121 11.3994 157.565 11.3994 158.113C11.3994 158.662 11.8439 159.106 12.3921 159.106Z" fill="#E1E1E1"/>
<path d="M23.7918 159.106C24.34 159.106 24.7845 158.662 24.7845 158.113C24.7845 157.565 24.34 157.121 23.7918 157.121C23.2435 157.121 22.7991 157.565 22.7991 158.113C22.7991 158.662 23.2435 159.106 23.7918 159.106Z" fill="#E1E1E1"/>
<path d="M35.1911 159.106C35.7393 159.106 36.1838 158.662 36.1838 158.113C36.1838 157.565 35.7393 157.121 35.1911 157.121C34.6428 157.121 34.1984 157.565 34.1984 158.113C34.1984 158.662 34.6428 159.106 35.1911 159.106Z" fill="#E1E1E1"/>
<path d="M46.5905 159.106C47.1387 159.106 47.5832 158.662 47.5832 158.113C47.5832 157.565 47.1387 157.121 46.5905 157.121C46.0422 157.121 45.5978 157.565 45.5978 158.113C45.5978 158.662 46.0422 159.106 46.5905 159.106Z" fill="#E1E1E1"/>
<path d="M57.9982 159.106C58.5464 159.106 58.9909 158.662 58.9909 158.113C58.9909 157.565 58.5464 157.121 57.9982 157.121C57.4499 157.121 57.0055 157.565 57.0055 158.113C57.0055 158.662 57.4499 159.106 57.9982 159.106Z" fill="#E1E1E1"/>
<path d="M69.3978 159.106C69.9461 159.106 70.3906 158.662 70.3906 158.113C70.3906 157.565 69.9461 157.121 69.3978 157.121C68.8496 157.121 68.4052 157.565 68.4052 158.113C68.4052 158.662 68.8496 159.106 69.3978 159.106Z" fill="#E1E1E1"/>
<path d="M81.79 158.113C81.79 158.659 81.3433 159.106 80.7973 159.106C80.2513 159.106 79.8046 158.659 79.8046 158.113C79.8046 157.567 80.2513 157.121 80.7973 157.121C81.3433 157.121 81.79 157.567 81.79 158.113Z" fill="#E1E1E1"/>
<path d="M92.1969 159.106C92.7452 159.106 93.1896 158.662 93.1896 158.113C93.1896 157.565 92.7452 157.121 92.1969 157.121C91.6487 157.121 91.2042 157.565 91.2042 158.113C91.2042 158.662 91.6487 159.106 92.1969 159.106Z" fill="#E1E1E1"/>
<path d="M103.596 159.106C104.144 159.106 104.589 158.662 104.589 158.113C104.589 157.565 104.144 157.121 103.596 157.121C103.048 157.121 102.604 157.565 102.604 158.113C102.604 158.662 103.048 159.106 103.596 159.106Z" fill="#E1E1E1"/>
<path d="M114.996 159.106C115.544 159.106 115.989 158.662 115.989 158.113C115.989 157.565 115.544 157.121 114.996 157.121C114.448 157.121 114.003 157.565 114.003 158.113C114.003 158.662 114.448 159.106 114.996 159.106Z" fill="#E1E1E1"/>
<path d="M126.403 159.106C126.952 159.106 127.396 158.662 127.396 158.113C127.396 157.565 126.952 157.121 126.403 157.121C125.855 157.121 125.411 157.565 125.411 158.113C125.411 158.662 125.855 159.106 126.403 159.106Z" fill="#E1E1E1"/>
<path d="M137.803 159.106C138.351 159.106 138.796 158.662 138.796 158.113C138.796 157.565 138.351 157.121 137.803 157.121C137.255 157.121 136.81 157.565 136.81 158.113C136.81 158.662 137.255 159.106 137.803 159.106Z" fill="#E1E1E1"/>
<path d="M149.202 159.106C149.751 159.106 150.195 158.662 150.195 158.113C150.195 157.565 149.751 157.121 149.202 157.121C148.654 157.121 148.21 157.565 148.21 158.113C148.21 158.662 148.654 159.106 149.202 159.106Z" fill="#E1E1E1"/>
<path d="M0.992696 170.257C1.54095 170.257 1.9854 169.813 1.9854 169.265C1.9854 168.716 1.54095 168.272 0.992696 168.272C0.444444 168.272 0 168.716 0 169.265C0 169.813 0.444444 170.257 0.992696 170.257Z" fill="#E1E1E1"/>
<path d="M12.3921 170.257C12.9404 170.257 13.3848 169.813 13.3848 169.265C13.3848 168.716 12.9404 168.272 12.3921 168.272C11.8439 168.272 11.3994 168.716 11.3994 169.265C11.3994 169.813 11.8439 170.257 12.3921 170.257Z" fill="#E1E1E1"/>
<path d="M23.7918 170.257C24.34 170.257 24.7845 169.813 24.7845 169.265C24.7845 168.716 24.34 168.272 23.7918 168.272C23.2435 168.272 22.7991 168.716 22.7991 169.265C22.7991 169.813 23.2435 170.257 23.7918 170.257Z" fill="#E1E1E1"/>
<path d="M35.1911 170.257C35.7393 170.257 36.1838 169.813 36.1838 169.265C36.1838 168.716 35.7393 168.272 35.1911 168.272C34.6428 168.272 34.1984 168.716 34.1984 169.265C34.1984 169.813 34.6428 170.257 35.1911 170.257Z" fill="#E1E1E1"/>
<path d="M46.5905 170.257C47.1387 170.257 47.5832 169.813 47.5832 169.265C47.5832 168.716 47.1387 168.272 46.5905 168.272C46.0422 168.272 45.5978 168.716 45.5978 169.265C45.5978 169.813 46.0422 170.257 46.5905 170.257Z" fill="#E1E1E1"/>
<path d="M57.9982 170.257C58.5464 170.257 58.9909 169.813 58.9909 169.265C58.9909 168.716 58.5464 168.272 57.9982 168.272C57.4499 168.272 57.0055 168.716 57.0055 169.265C57.0055 169.813 57.4499 170.257 57.9982 170.257Z" fill="#E1E1E1"/>
<path d="M69.3978 170.257C69.9461 170.257 70.3906 169.813 70.3906 169.265C70.3906 168.716 69.9461 168.272 69.3978 168.272C68.8496 168.272 68.4052 168.716 68.4052 169.265C68.4052 169.813 68.8496 170.257 69.3978 170.257Z" fill="#E1E1E1"/>
<path d="M81.79 169.265C81.79 169.811 81.3433 170.257 80.7973 170.257C80.2513 170.257 79.8046 169.811 79.8046 169.265C79.8046 168.719 80.2513 168.272 80.7973 168.272C81.3433 168.272 81.79 168.719 81.79 169.265Z" fill="#E1E1E1"/>
<path d="M92.1969 170.257C92.7452 170.257 93.1896 169.813 93.1896 169.265C93.1896 168.716 92.7452 168.272 92.1969 168.272C91.6487 168.272 91.2042 168.716 91.2042 169.265C91.2042 169.813 91.6487 170.257 92.1969 170.257Z" fill="#E1E1E1"/>
<path d="M103.596 170.257C104.144 170.257 104.589 169.813 104.589 169.265C104.589 168.716 104.144 168.272 103.596 168.272C103.048 168.272 102.604 168.716 102.604 169.265C102.604 169.813 103.048 170.257 103.596 170.257Z" fill="#E1E1E1"/>
<path d="M114.996 170.257C115.544 170.257 115.989 169.813 115.989 169.265C115.989 168.716 115.544 168.272 114.996 168.272C114.448 168.272 114.003 168.716 114.003 169.265C114.003 169.813 114.448 170.257 114.996 170.257Z" fill="#E1E1E1"/>
<path d="M126.403 170.257C126.952 170.257 127.396 169.813 127.396 169.265C127.396 168.716 126.952 168.272 126.403 168.272C125.855 168.272 125.411 168.716 125.411 169.265C125.411 169.813 125.855 170.257 126.403 170.257Z" fill="#E1E1E1"/>
<path d="M137.803 170.257C138.351 170.257 138.796 169.813 138.796 169.265C138.796 168.716 138.351 168.272 137.803 168.272C137.255 168.272 136.81 168.716 136.81 169.265C136.81 169.813 137.255 170.257 137.803 170.257Z" fill="#E1E1E1"/>
<path d="M149.202 170.257C149.751 170.257 150.195 169.813 150.195 169.265C150.195 168.716 149.751 168.272 149.202 168.272C148.654 168.272 148.21 168.716 148.21 169.265C148.21 169.813 148.654 170.257 149.202 170.257Z" fill="#E1E1E1"/>
<path d="M0.992696 181.409C1.54095 181.409 1.9854 180.964 1.9854 180.416C1.9854 179.868 1.54095 179.423 0.992696 179.423C0.444444 179.423 0 179.868 0 180.416C0 180.964 0.444444 181.409 0.992696 181.409Z" fill="#E1E1E1"/>
<path d="M12.3921 181.409C12.9404 181.409 13.3848 180.964 13.3848 180.416C13.3848 179.868 12.9404 179.423 12.3921 179.423C11.8439 179.423 11.3994 179.868 11.3994 180.416C11.3994 180.964 11.8439 181.409 12.3921 181.409Z" fill="#E1E1E1"/>
<path d="M23.7918 181.409C24.34 181.409 24.7845 180.964 24.7845 180.416C24.7845 179.868 24.34 179.423 23.7918 179.423C23.2435 179.423 22.7991 179.868 22.7991 180.416C22.7991 180.964 23.2435 181.409 23.7918 181.409Z" fill="#E1E1E1"/>
<path d="M35.1911 181.409C35.7393 181.409 36.1838 180.964 36.1838 180.416C36.1838 179.868 35.7393 179.423 35.1911 179.423C34.6428 179.423 34.1984 179.868 34.1984 180.416C34.1984 180.964 34.6428 181.409 35.1911 181.409Z" fill="#E1E1E1"/>
<path d="M46.5905 181.409C47.1387 181.409 47.5832 180.964 47.5832 180.416C47.5832 179.868 47.1387 179.423 46.5905 179.423C46.0422 179.423 45.5978 179.868 45.5978 180.416C45.5978 180.964 46.0422 181.409 46.5905 181.409Z" fill="#E1E1E1"/>
<path d="M57.9982 181.409C58.5464 181.409 58.9909 180.964 58.9909 180.416C58.9909 179.868 58.5464 179.423 57.9982 179.423C57.4499 179.423 57.0055 179.868 57.0055 180.416C57.0055 180.964 57.4499 181.409 57.9982 181.409Z" fill="#E1E1E1"/>
<path d="M69.3978 181.409C69.9461 181.409 70.3906 180.964 70.3906 180.416C70.3906 179.868 69.9461 179.423 69.3978 179.423C68.8496 179.423 68.4052 179.868 68.4052 180.416C68.4052 180.964 68.8496 181.409 69.3978 181.409Z" fill="#E1E1E1"/>
<path d="M81.79 180.416C81.79 180.962 81.3433 181.409 80.7973 181.409C80.2513 181.409 79.8046 180.962 79.8046 180.416C79.8046 179.87 80.2513 179.423 80.7973 179.423C81.3433 179.432 81.79 179.87 81.79 180.416Z" fill="#E1E1E1"/>
<path d="M92.1969 181.409C92.7452 181.409 93.1896 180.964 93.1896 180.416C93.1896 179.868 92.7452 179.423 92.1969 179.423C91.6487 179.423 91.2042 179.868 91.2042 180.416C91.2042 180.964 91.6487 181.409 92.1969 181.409Z" fill="#E1E1E1"/>
<path d="M103.596 181.409C104.144 181.409 104.589 180.964 104.589 180.416C104.589 179.868 104.144 179.423 103.596 179.423C103.048 179.423 102.604 179.868 102.604 180.416C102.604 180.964 103.048 181.409 103.596 181.409Z" fill="#E1E1E1"/>
<path d="M114.996 181.409C115.544 181.409 115.989 180.964 115.989 180.416C115.989 179.868 115.544 179.423 114.996 179.423C114.448 179.423 114.003 179.868 114.003 180.416C114.003 180.964 114.448 181.409 114.996 181.409Z" fill="#E1E1E1"/>
<path d="M126.403 181.409C126.952 181.409 127.396 180.964 127.396 180.416C127.396 179.868 126.952 179.423 126.403 179.423C125.855 179.423 125.411 179.868 125.411 180.416C125.411 180.964 125.855 181.409 126.403 181.409Z" fill="#E1E1E1"/>
<path d="M137.803 181.409C138.351 181.409 138.796 180.964 138.796 180.416C138.796 179.868 138.351 179.423 137.803 179.423C137.255 179.423 136.81 179.868 136.81 180.416C136.81 180.964 137.255 181.409 137.803 181.409Z" fill="#E1E1E1"/>
<path d="M149.202 181.409C149.751 181.409 150.195 180.964 150.195 180.416C150.195 179.868 149.751 179.423 149.202 179.423C148.654 179.423 148.21 179.868 148.21 180.416C148.21 180.964 148.654 181.409 149.202 181.409Z" fill="#E1E1E1"/>
<path d="M0.992696 192.568C1.54095 192.568 1.9854 192.123 1.9854 191.575C1.9854 191.027 1.54095 190.583 0.992696 190.583C0.444444 190.583 0 191.027 0 191.575C0 192.123 0.444444 192.568 0.992696 192.568Z" fill="#E1E1E1"/>
<path d="M12.3921 192.568C12.9404 192.568 13.3848 192.123 13.3848 191.575C13.3848 191.027 12.9404 190.583 12.3921 190.583C11.8439 190.583 11.3994 191.027 11.3994 191.575C11.3994 192.123 11.8439 192.568 12.3921 192.568Z" fill="#E1E1E1"/>
<path d="M23.7917 192.568C24.34 192.568 24.7844 192.123 24.7844 191.575C24.7844 191.027 24.34 190.583 23.7917 190.583C23.2435 190.583 22.799 191.027 22.799 191.575C22.799 192.123 23.2435 192.568 23.7917 192.568Z" fill="#E1E1E1"/>
<path d="M35.1911 192.568C35.7394 192.568 36.1838 192.123 36.1838 191.575C36.1838 191.027 35.7394 190.583 35.1911 190.583C34.6429 190.583 34.1984 191.027 34.1984 191.575C34.1984 192.123 34.6429 192.568 35.1911 192.568Z" fill="#E1E1E1"/>
<path d="M46.5905 192.568C47.1387 192.568 47.5832 192.123 47.5832 191.575C47.5832 191.027 47.1387 190.583 46.5905 190.583C46.0422 190.583 45.5978 191.027 45.5978 191.575C45.5978 192.123 46.0422 192.568 46.5905 192.568Z" fill="#E1E1E1"/>
<path d="M57.9983 192.568C58.5465 192.568 58.991 192.123 58.991 191.575C58.991 191.027 58.5465 190.583 57.9983 190.583C57.45 190.583 57.0056 191.027 57.0056 191.575C57.0056 192.123 57.45 192.568 57.9983 192.568Z" fill="#E1E1E1"/>
<path d="M69.3978 192.568C69.9461 192.568 70.3906 192.123 70.3906 191.575C70.3906 191.027 69.9461 190.583 69.3978 190.583C68.8496 190.583 68.4052 191.027 68.4052 191.575C68.4052 192.123 68.8496 192.568 69.3978 192.568Z" fill="#E1E1E1"/>
<path d="M81.79 191.575C81.79 192.121 81.3433 192.568 80.7973 192.568C80.2513 192.568 79.8046 192.121 79.8046 191.575C79.8046 191.029 80.2513 190.583 80.7973 190.583C81.3433 190.583 81.79 191.021 81.79 191.575Z" fill="#E1E1E1"/>
<path d="M92.1969 192.568C92.7451 192.568 93.1896 192.123 93.1896 191.575C93.1896 191.027 92.7451 190.583 92.1969 190.583C91.6486 190.583 91.2042 191.027 91.2042 191.575C91.2042 192.123 91.6486 192.568 92.1969 192.568Z" fill="#E1E1E1"/>
<path d="M103.596 192.568C104.145 192.568 104.589 192.123 104.589 191.575C104.589 191.027 104.145 190.583 103.596 190.583C103.048 190.583 102.604 191.027 102.604 191.575C102.604 192.123 103.048 192.568 103.596 192.568Z" fill="#E1E1E1"/>
<path d="M114.996 192.568C115.544 192.568 115.989 192.123 115.989 191.575C115.989 191.027 115.544 190.583 114.996 190.583C114.448 190.583 114.003 191.027 114.003 191.575C114.003 192.123 114.448 192.568 114.996 192.568Z" fill="#E1E1E1"/>
<path d="M126.403 192.568C126.952 192.568 127.396 192.123 127.396 191.575C127.396 191.027 126.952 190.583 126.403 190.583C125.855 190.583 125.411 191.027 125.411 191.575C125.411 192.123 125.855 192.568 126.403 192.568Z" fill="#E1E1E1"/>
<path d="M137.803 192.568C138.351 192.568 138.796 192.123 138.796 191.575C138.796 191.027 138.351 190.583 137.803 190.583C137.255 190.583 136.81 191.027 136.81 191.575C136.81 192.123 137.255 192.568 137.803 192.568Z" fill="#E1E1E1"/>
<path d="M149.202 192.568C149.751 192.568 150.195 192.123 150.195 191.575C150.195 191.027 149.751 190.583 149.202 190.583C148.654 190.583 148.21 191.027 148.21 191.575C148.21 192.123 148.654 192.568 149.202 192.568Z" fill="#E1E1E1"/>
<path d="M0.992696 203.719C1.54095 203.719 1.9854 203.275 1.9854 202.727C1.9854 202.178 1.54095 201.734 0.992696 201.734C0.444444 201.734 0 202.178 0 202.727C0 203.275 0.444444 203.719 0.992696 203.719Z" fill="#E1E1E1"/>
<path d="M12.3921 203.719C12.9404 203.719 13.3848 203.275 13.3848 202.727C13.3848 202.178 12.9404 201.734 12.3921 201.734C11.8439 201.734 11.3994 202.178 11.3994 202.727C11.3994 203.275 11.8439 203.719 12.3921 203.719Z" fill="#E1E1E1"/>
<path d="M23.7917 203.719C24.34 203.719 24.7844 203.275 24.7844 202.727C24.7844 202.178 24.34 201.734 23.7917 201.734C23.2435 201.734 22.799 202.178 22.799 202.727C22.799 203.275 23.2435 203.719 23.7917 203.719Z" fill="#E1E1E1"/>
<path d="M35.1911 203.719C35.7394 203.719 36.1838 203.275 36.1838 202.727C36.1838 202.178 35.7394 201.734 35.1911 201.734C34.6429 201.734 34.1984 202.178 34.1984 202.727C34.1984 203.275 34.6429 203.719 35.1911 203.719Z" fill="#E1E1E1"/>
<path d="M46.5905 203.719C47.1387 203.719 47.5832 203.275 47.5832 202.727C47.5832 202.178 47.1387 201.734 46.5905 201.734C46.0422 201.734 45.5978 202.178 45.5978 202.727C45.5978 203.275 46.0422 203.719 46.5905 203.719Z" fill="#E1E1E1"/>
<path d="M57.9983 203.719C58.5465 203.719 58.991 203.275 58.991 202.727C58.991 202.178 58.5465 201.734 57.9983 201.734C57.45 201.734 57.0056 202.178 57.0056 202.727C57.0056 203.275 57.45 203.719 57.9983 203.719Z" fill="#E1E1E1"/>
<path d="M69.3978 203.719C69.9461 203.719 70.3906 203.275 70.3906 202.727C70.3906 202.178 69.9461 201.734 69.3978 201.734C68.8496 201.734 68.4052 202.178 68.4052 202.727C68.4052 203.275 68.8496 203.719 69.3978 203.719Z" fill="#E1E1E1"/>
<path d="M81.79 202.727C81.79 203.273 81.3433 203.719 80.7973 203.719C80.2513 203.719 79.8046 203.273 79.8046 202.727C79.8046 202.181 80.2513 201.734 80.7973 201.734C81.3433 201.734 81.79 202.181 81.79 202.727Z" fill="#E1E1E1"/>
<path d="M92.1969 203.719C92.7451 203.719 93.1896 203.275 93.1896 202.727C93.1896 202.178 92.7451 201.734 92.1969 201.734C91.6486 201.734 91.2042 202.178 91.2042 202.727C91.2042 203.275 91.6486 203.719 92.1969 203.719Z" fill="#E1E1E1"/>
<path d="M103.596 203.719C104.145 203.719 104.589 203.275 104.589 202.727C104.589 202.178 104.145 201.734 103.596 201.734C103.048 201.734 102.604 202.178 102.604 202.727C102.604 203.275 103.048 203.719 103.596 203.719Z" fill="#E1E1E1"/>
<path d="M114.996 203.719C115.544 203.719 115.989 203.275 115.989 202.727C115.989 202.178 115.544 201.734 114.996 201.734C114.448 201.734 114.003 202.178 114.003 202.727C114.003 203.275 114.448 203.719 114.996 203.719Z" fill="#E1E1E1"/>
<path d="M126.403 203.719C126.952 203.719 127.396 203.275 127.396 202.727C127.396 202.178 126.952 201.734 126.403 201.734C125.855 201.734 125.411 202.178 125.411 202.727C125.411 203.275 125.855 203.719 126.403 203.719Z" fill="#E1E1E1"/>
<path d="M137.803 203.719C138.351 203.719 138.796 203.275 138.796 202.727C138.796 202.178 138.351 201.734 137.803 201.734C137.255 201.734 136.81 202.178 136.81 202.727C136.81 203.275 137.255 203.719 137.803 203.719Z" fill="#E1E1E1"/>
<path d="M149.202 203.719C149.751 203.719 150.195 203.275 150.195 202.727C150.195 202.178 149.751 201.734 149.202 201.734C148.654 201.734 148.21 202.178 148.21 202.727C148.21 203.275 148.654 203.719 149.202 203.719Z" fill="#E1E1E1"/>
<path d="M0.992696 214.871C1.54095 214.871 1.9854 214.426 1.9854 213.878C1.9854 213.33 1.54095 212.885 0.992696 212.885C0.444444 212.885 0 213.33 0 213.878C0 214.426 0.444444 214.871 0.992696 214.871Z" fill="#E1E1E1"/>
<path d="M12.3921 214.871C12.9404 214.871 13.3848 214.426 13.3848 213.878C13.3848 213.33 12.9404 212.885 12.3921 212.885C11.8439 212.885 11.3994 213.33 11.3994 213.878C11.3994 214.426 11.8439 214.871 12.3921 214.871Z" fill="#E1E1E1"/>
<path d="M23.7917 214.871C24.34 214.871 24.7844 214.426 24.7844 213.878C24.7844 213.33 24.34 212.885 23.7917 212.885C23.2435 212.885 22.799 213.33 22.799 213.878C22.799 214.426 23.2435 214.871 23.7917 214.871Z" fill="#E1E1E1"/>
<path d="M35.1911 214.871C35.7394 214.871 36.1838 214.426 36.1838 213.878C36.1838 213.33 35.7394 212.885 35.1911 212.885C34.6429 212.885 34.1984 213.33 34.1984 213.878C34.1984 214.426 34.6429 214.871 35.1911 214.871Z" fill="#E1E1E1"/>
<path d="M46.5905 214.871C47.1387 214.871 47.5832 214.426 47.5832 213.878C47.5832 213.33 47.1387 212.885 46.5905 212.885C46.0422 212.885 45.5978 213.33 45.5978 213.878C45.5978 214.426 46.0422 214.871 46.5905 214.871Z" fill="#E1E1E1"/>
<path d="M57.9983 214.871C58.5465 214.871 58.991 214.426 58.991 213.878C58.991 213.33 58.5465 212.885 57.9983 212.885C57.45 212.885 57.0056 213.33 57.0056 213.878C57.0056 214.426 57.45 214.871 57.9983 214.871Z" fill="#E1E1E1"/>
<path d="M69.3978 214.871C69.9461 214.871 70.3906 214.426 70.3906 213.878C70.3906 213.33 69.9461 212.885 69.3978 212.885C68.8496 212.885 68.4052 213.33 68.4052 213.878C68.4052 214.426 68.8496 214.871 69.3978 214.871Z" fill="#E1E1E1"/>
<path d="M81.79 213.878C81.79 214.424 81.3433 214.871 80.7973 214.871C80.2513 214.871 79.8046 214.424 79.8046 213.878C79.8046 213.332 80.2513 212.885 80.7973 212.885C81.3433 212.885 81.79 213.332 81.79 213.878Z" fill="#E1E1E1"/>
<path d="M92.1969 214.871C92.7451 214.871 93.1896 214.426 93.1896 213.878C93.1896 213.33 92.7451 212.885 92.1969 212.885C91.6486 212.885 91.2042 213.33 91.2042 213.878C91.2042 214.426 91.6486 214.871 92.1969 214.871Z" fill="#E1E1E1"/>
<path d="M103.596 214.871C104.145 214.871 104.589 214.426 104.589 213.878C104.589 213.33 104.145 212.885 103.596 212.885C103.048 212.885 102.604 213.33 102.604 213.878C102.604 214.426 103.048 214.871 103.596 214.871Z" fill="#E1E1E1"/>
<path d="M114.996 214.871C115.544 214.871 115.989 214.426 115.989 213.878C115.989 213.33 115.544 212.885 114.996 212.885C114.448 212.885 114.003 213.33 114.003 213.878C114.003 214.426 114.448 214.871 114.996 214.871Z" fill="#E1E1E1"/>
<path d="M126.403 214.871C126.952 214.871 127.396 214.426 127.396 213.878C127.396 213.33 126.952 212.885 126.403 212.885C125.855 212.885 125.411 213.33 125.411 213.878C125.411 214.426 125.855 214.871 126.403 214.871Z" fill="#E1E1E1"/>
<path d="M137.803 214.871C138.351 214.871 138.796 214.426 138.796 213.878C138.796 213.33 138.351 212.885 137.803 212.885C137.255 212.885 136.81 213.33 136.81 213.878C136.81 214.426 137.255 214.871 137.803 214.871Z" fill="#E1E1E1"/>
<path d="M149.202 214.871C149.751 214.871 150.195 214.426 150.195 213.878C150.195 213.33 149.751 212.885 149.202 212.885C148.654 212.885 148.21 213.33 148.21 213.878C148.21 214.426 148.654 214.871 149.202 214.871Z" fill="#E1E1E1"/>
<path d="M0.992696 226.022C1.54095 226.022 1.9854 225.577 1.9854 225.029C1.9854 224.481 1.54095 224.036 0.992696 224.036C0.444444 224.036 0 224.481 0 225.029C0 225.577 0.444444 226.022 0.992696 226.022Z" fill="#E1E1E1"/>
<path d="M12.3921 226.022C12.9404 226.022 13.3848 225.577 13.3848 225.029C13.3848 224.481 12.9404 224.036 12.3921 224.036C11.8439 224.036 11.3994 224.481 11.3994 225.029C11.3994 225.577 11.8439 226.022 12.3921 226.022Z" fill="#E1E1E1"/>
<path d="M23.7917 226.022C24.34 226.022 24.7844 225.577 24.7844 225.029C24.7844 224.481 24.34 224.036 23.7917 224.036C23.2435 224.036 22.799 224.481 22.799 225.029C22.799 225.577 23.2435 226.022 23.7917 226.022Z" fill="#E1E1E1"/>
<path d="M35.1911 226.022C35.7394 226.022 36.1838 225.577 36.1838 225.029C36.1838 224.481 35.7394 224.036 35.1911 224.036C34.6429 224.036 34.1984 224.481 34.1984 225.029C34.1984 225.577 34.6429 226.022 35.1911 226.022Z" fill="#E1E1E1"/>
<path d="M46.5905 226.022C47.1387 226.022 47.5832 225.577 47.5832 225.029C47.5832 224.481 47.1387 224.036 46.5905 224.036C46.0422 224.036 45.5978 224.481 45.5978 225.029C45.5978 225.577 46.0422 226.022 46.5905 226.022Z" fill="#E1E1E1"/>
<path d="M57.9983 226.022C58.5465 226.022 58.991 225.577 58.991 225.029C58.991 224.481 58.5465 224.036 57.9983 224.036C57.45 224.036 57.0056 224.481 57.0056 225.029C57.0056 225.577 57.45 226.022 57.9983 226.022Z" fill="#E1E1E1"/>
<path d="M69.3978 226.022C69.9461 226.022 70.3906 225.577 70.3906 225.029C70.3906 224.481 69.9461 224.036 69.3978 224.036C68.8496 224.036 68.4052 224.481 68.4052 225.029C68.4052 225.577 68.8496 226.022 69.3978 226.022Z" fill="#E1E1E1"/>
<path d="M81.79 225.029C81.79 225.575 81.3433 226.022 80.7973 226.022C80.2513 226.022 79.8046 225.575 79.8046 225.029C79.8046 224.483 80.2513 224.036 80.7973 224.036C81.3433 224.036 81.79 224.483 81.79 225.029Z" fill="#E1E1E1"/>
<path d="M92.1969 226.022C92.7451 226.022 93.1896 225.577 93.1896 225.029C93.1896 224.481 92.7451 224.036 92.1969 224.036C91.6486 224.036 91.2042 224.481 91.2042 225.029C91.2042 225.577 91.6486 226.022 92.1969 226.022Z" fill="#E1E1E1"/>
<path d="M103.596 226.022C104.144 226.022 104.589 225.577 104.589 225.029C104.589 224.481 104.144 224.036 103.596 224.036C103.048 224.036 102.604 224.481 102.604 225.029C102.604 225.577 103.048 226.022 103.596 226.022Z" fill="#E1E1E1"/>
<path d="M114.996 226.022C115.544 226.022 115.989 225.577 115.989 225.029C115.989 224.481 115.544 224.036 114.996 224.036C114.448 224.036 114.003 224.481 114.003 225.029C114.003 225.577 114.448 226.022 114.996 226.022Z" fill="#E1E1E1"/>
<path d="M126.403 226.022C126.952 226.022 127.396 225.577 127.396 225.029C127.396 224.481 126.952 224.036 126.403 224.036C125.855 224.036 125.411 224.481 125.411 225.029C125.411 225.577 125.855 226.022 126.403 226.022Z" fill="#E1E1E1"/>
<path d="M137.803 226.022C138.351 226.022 138.796 225.577 138.796 225.029C138.796 224.481 138.351 224.036 137.803 224.036C137.255 224.036 136.81 224.481 136.81 225.029C136.81 225.577 137.255 226.022 137.803 226.022Z" fill="#E1E1E1"/>
<path d="M149.202 226.022C149.751 226.022 150.195 225.577 150.195 225.029C150.195 224.481 149.751 224.036 149.202 224.036C148.654 224.036 148.21 224.481 148.21 225.029C148.21 225.577 148.654 226.022 149.202 226.022Z" fill="#E1E1E1"/>
<path d="M1.9854 236.181C1.9854 236.727 1.53868 237.173 0.992696 237.173C0.446712 237.173 0 236.727 0 236.181C0 235.635 0.446712 235.188 0.992696 235.188C1.53868 235.196 1.9854 235.635 1.9854 236.181Z" fill="#E1E1E1"/>
<path d="M13.3848 236.181C13.3848 236.727 12.9381 237.173 12.3921 237.173C11.8461 237.173 11.3994 236.727 11.3994 236.181C11.3994 235.635 11.8461 235.188 12.3921 235.188C12.9381 235.196 13.3848 235.635 13.3848 236.181Z" fill="#E1E1E1"/>
<path d="M24.7844 236.181C24.7844 236.727 24.3377 237.173 23.7917 237.173C23.2457 237.173 22.799 236.727 22.799 236.181C22.799 235.635 23.2457 235.188 23.7917 235.188C24.3377 235.196 24.7844 235.635 24.7844 236.181Z" fill="#E1E1E1"/>
<path d="M36.1838 236.181C36.1838 236.727 35.737 237.173 35.1911 237.173C34.6451 237.173 34.1984 236.727 34.1984 236.181C34.1984 235.635 34.6451 235.188 35.1911 235.188C35.737 235.196 36.1838 235.635 36.1838 236.181Z" fill="#E1E1E1"/>
<path d="M47.5832 236.181C47.5832 236.727 47.1365 237.173 46.5905 237.173C46.0445 237.173 45.5978 236.727 45.5978 236.181C45.5978 235.635 46.0445 235.188 46.5905 235.188C47.1447 235.196 47.5832 235.635 47.5832 236.181Z" fill="#E1E1E1"/>
<path d="M58.9826 236.181C58.9826 236.727 58.5359 237.173 57.9899 237.173C57.4439 237.173 56.9972 236.727 56.9972 236.181C56.9972 235.635 57.4439 235.188 57.9899 235.188C58.5441 235.196 58.9826 235.635 58.9826 236.181Z" fill="#E1E1E1"/>
<path d="M70.3906 236.181C70.3906 236.727 69.9438 237.173 69.3978 237.173C68.8519 237.173 68.4052 236.727 68.4052 236.181C68.4052 235.635 68.8519 235.188 69.3978 235.188C69.9438 235.188 70.3906 235.635 70.3906 236.181Z" fill="#E1E1E1"/>
<path d="M81.79 236.181C81.79 236.727 81.3433 237.173 80.7973 237.173C80.2513 237.173 79.8046 236.727 79.8046 236.181C79.8046 235.635 80.2513 235.188 80.7973 235.188C81.3433 235.196 81.79 235.635 81.79 236.181Z" fill="#E1E1E1"/>
<path d="M93.1896 236.181C93.1896 236.727 92.7429 237.173 92.1969 237.173C91.6509 237.173 91.2042 236.727 91.2042 236.181C91.2042 235.635 91.6509 235.188 92.1969 235.188C92.7429 235.196 93.1896 235.635 93.1896 236.181Z" fill="#E1E1E1"/>
<path d="M104.589 236.181C104.589 236.727 104.142 237.173 103.596 237.173C103.05 237.173 102.604 236.727 102.604 236.181C102.604 235.635 103.05 235.188 103.596 235.188C104.142 235.196 104.589 235.635 104.589 236.181Z" fill="#E1E1E1"/>
<path d="M115.989 236.181C115.989 236.727 115.542 237.173 114.996 237.173C114.45 237.173 114.003 236.727 114.003 236.181C114.003 235.635 114.45 235.188 114.996 235.188C115.55 235.196 115.989 235.635 115.989 236.181Z" fill="#E1E1E1"/>
<path d="M127.388 236.181C127.388 236.727 126.941 237.173 126.395 237.173C125.849 237.173 125.403 236.727 125.403 236.181C125.403 235.635 125.849 235.188 126.395 235.188C126.95 235.196 127.388 235.635 127.388 236.181Z" fill="#E1E1E1"/>
<path d="M138.796 236.181C138.796 236.727 138.349 237.173 137.803 237.173C137.257 237.173 136.81 236.727 136.81 236.181C136.81 235.635 137.257 235.188 137.803 235.188C138.349 235.196 138.796 235.635 138.796 236.181Z" fill="#E1E1E1"/>
<path d="M150.195 236.181C150.195 236.727 149.748 237.173 149.202 237.173C148.656 237.173 148.21 236.727 148.21 236.181C148.21 235.635 148.656 235.188 149.202 235.188C149.748 235.188 150.195 235.635 150.195 236.181Z" fill="#E1E1E1"/>
<path d="M0.992696 248.333C1.54095 248.333 1.9854 247.888 1.9854 247.34C1.9854 246.792 1.54095 246.347 0.992696 246.347C0.444444 246.347 0 246.792 0 247.34C0 247.888 0.444444 248.333 0.992696 248.333Z" fill="#E1E1E1"/>
<path d="M12.3921 248.333C12.9404 248.333 13.3848 247.888 13.3848 247.34C13.3848 246.792 12.9404 246.347 12.3921 246.347C11.8439 246.347 11.3994 246.792 11.3994 247.34C11.3994 247.888 11.8439 248.333 12.3921 248.333Z" fill="#E1E1E1"/>
<path d="M23.7917 248.333C24.34 248.333 24.7844 247.888 24.7844 247.34C24.7844 246.792 24.34 246.347 23.7917 246.347C23.2435 246.347 22.799 246.792 22.799 247.34C22.799 247.888 23.2435 248.333 23.7917 248.333Z" fill="#E1E1E1"/>
<path d="M35.1911 248.333C35.7394 248.333 36.1838 247.888 36.1838 247.34C36.1838 246.792 35.7394 246.347 35.1911 246.347C34.6429 246.347 34.1984 246.792 34.1984 247.34C34.1984 247.888 34.6429 248.333 35.1911 248.333Z" fill="#E1E1E1"/>
<path d="M46.5905 248.333C47.1387 248.333 47.5832 247.888 47.5832 247.34C47.5832 246.792 47.1387 246.347 46.5905 246.347C46.0422 246.347 45.5978 246.792 45.5978 247.34C45.5978 247.888 46.0422 248.333 46.5905 248.333Z" fill="#E1E1E1"/>
<path d="M57.9983 248.333C58.5465 248.333 58.991 247.888 58.991 247.34C58.991 246.792 58.5465 246.347 57.9983 246.347C57.45 246.347 57.0056 246.792 57.0056 247.34C57.0056 247.888 57.45 248.333 57.9983 248.333Z" fill="#E1E1E1"/>
<path d="M69.3978 248.333C69.9461 248.333 70.3906 247.888 70.3906 247.34C70.3906 246.792 69.9461 246.347 69.3978 246.347C68.8496 246.347 68.4052 246.792 68.4052 247.34C68.4052 247.888 68.8496 248.333 69.3978 248.333Z" fill="#E1E1E1"/>
<path d="M81.79 247.34C81.79 247.886 81.3433 248.333 80.7973 248.333C80.2513 248.333 79.8046 247.886 79.8046 247.34C79.8046 246.794 80.2513 246.347 80.7973 246.347C81.3433 246.347 81.79 246.786 81.79 247.34Z" fill="#E1E1E1"/>
<path d="M92.1969 248.333C92.7451 248.333 93.1896 247.888 93.1896 247.34C93.1896 246.792 92.7451 246.347 92.1969 246.347C91.6486 246.347 91.2042 246.792 91.2042 247.34C91.2042 247.888 91.6486 248.333 92.1969 248.333Z" fill="#E1E1E1"/>
<path d="M103.596 248.333C104.144 248.333 104.589 247.888 104.589 247.34C104.589 246.792 104.144 246.347 103.596 246.347C103.048 246.347 102.604 246.792 102.604 247.34C102.604 247.888 103.048 248.333 103.596 248.333Z" fill="#E1E1E1"/>
<path d="M114.996 248.333C115.544 248.333 115.989 247.888 115.989 247.34C115.989 246.792 115.544 246.347 114.996 246.347C114.448 246.347 114.003 246.792 114.003 247.34C114.003 247.888 114.448 248.333 114.996 248.333Z" fill="#E1E1E1"/>
<path d="M126.403 248.333C126.952 248.333 127.396 247.888 127.396 247.34C127.396 246.792 126.952 246.347 126.403 246.347C125.855 246.347 125.411 246.792 125.411 247.34C125.411 247.888 125.855 248.333 126.403 248.333Z" fill="#E1E1E1"/>
<path d="M137.803 248.333C138.351 248.333 138.796 247.888 138.796 247.34C138.796 246.792 138.351 246.347 137.803 246.347C137.255 246.347 136.81 246.792 136.81 247.34C136.81 247.888 137.255 248.333 137.803 248.333Z" fill="#E1E1E1"/>
<path d="M149.202 248.333C149.751 248.333 150.195 247.888 150.195 247.34C150.195 246.792 149.751 246.347 149.202 246.347C148.654 246.347 148.21 246.792 148.21 247.34C148.21 247.888 148.654 248.333 149.202 248.333Z" fill="#E1E1E1"/>
</g>
</svg>
