<svg width="115" height="111" viewBox="0 0 115 111" fill="none" xmlns="http://www.w3.org/2000/svg">
<path d="M61.5299 17.5092L58.6781 17.3209L59.7543 1.17834L62.633 0.976562L61.5299 17.4957V17.5092Z" fill="#CA31EB"/>
<path d="M75.6815 15.1148C75.1838 16.8366 74.2556 18.0742 72.9103 18.8141C71.5517 19.554 70.072 19.7019 68.4846 19.2446C66.8838 18.7872 65.7269 17.8994 65.014 16.5811C64.301 15.2628 64.1934 13.7292 64.7046 11.9804C65.2023 10.2451 66.1305 8.99407 67.4757 8.25421C68.8209 7.51434 70.3006 7.36637 71.9149 7.83719C73.5157 8.29456 74.6726 9.1824 75.3855 10.5142C76.0985 11.8459 76.2061 13.366 75.6949 15.1282L75.6815 15.1148ZM71.5113 16.6752C72.1705 16.1909 72.6548 15.4107 72.9642 14.3615C73.2736 13.3122 73.2601 12.384 72.9642 11.5903C72.6682 10.7967 72.0629 10.272 71.2019 10.0299C70.3141 9.7743 69.5473 9.89536 68.8747 10.4065C68.2021 10.9177 67.7178 11.6979 67.4219 12.7472C67.1259 13.783 67.1259 14.6978 67.4353 15.4914C67.7447 16.2717 68.3501 16.7963 69.2245 17.0519C70.0989 17.3075 70.8522 17.1864 71.5248 16.6887L71.5113 16.6752Z" fill="#CA31EB"/>
<path d="M75.9371 22.1501C75.6143 21.7331 75.399 21.3027 75.3183 20.8453C75.2376 20.3879 75.3183 19.9844 75.547 19.6077C75.816 19.1907 76.2196 18.8947 76.7711 18.7333C77.3227 18.5719 77.9146 18.5719 78.5468 18.7333C78.1836 18.128 78.0222 17.4688 78.0356 16.7559C78.0491 16.0563 78.2643 15.3837 78.6679 14.738C79.3001 13.7291 80.2149 13.1103 81.4121 12.8951C82.5959 12.6799 83.8335 12.9624 85.098 13.7695C85.9724 14.321 86.7257 15.0878 87.3848 16.0429L90.0618 17.4285L88.8242 19.6077L87.2234 18.1549C87.3176 18.6526 87.1427 19.231 86.7257 19.9036C86.1069 20.8722 85.2191 21.4506 84.0622 21.639C82.9053 21.8273 81.7484 21.5583 80.605 20.8318C80.2014 20.5762 79.7979 20.2534 79.4212 19.8498C78.8024 19.7288 78.3854 19.8498 78.1702 20.1996C78.0087 20.4552 78.0222 20.7377 78.2374 21.0336C78.4392 21.3296 78.91 21.7062 79.6499 22.177H79.6768L79.7037 22.204H79.7306L79.7575 22.2309H79.7844L79.8113 22.2578L79.8517 22.2847H79.8786L79.9055 22.3116H79.9324L79.9593 22.3385L79.9996 22.3654H80.0265L80.0669 22.4057H80.0938L80.1342 22.4461H80.1611L80.2014 22.4864L80.2418 22.5134H80.2687L80.309 22.5537L80.3494 22.5806L80.3898 22.6075L80.4301 22.6344L80.4705 22.6613L80.5108 22.6882L80.5512 22.7151L80.7126 22.8227C83.5375 24.6119 84.3985 26.3741 83.3089 28.096C82.6228 29.1856 81.5197 29.7506 79.9996 29.7775C78.4796 29.8044 76.9595 29.347 75.4259 28.3785C74.1345 27.5579 73.2063 26.6431 72.6548 25.6477C72.1033 24.6522 72.0898 23.7375 72.601 22.9169C72.9238 22.3923 73.3947 22.0694 74.0135 21.9215C74.6188 21.7735 75.3049 21.8542 76.0582 22.177L75.9371 22.1501ZM76.9864 23.2667C76.0178 23.0514 75.3452 23.2263 74.9955 23.7778C74.713 24.2083 74.7399 24.7329 75.0627 25.3248C75.3856 25.9167 75.9371 26.4683 76.7308 26.966C77.5783 27.5041 78.3719 27.8 79.1118 27.8538C79.8517 27.9076 80.3763 27.7059 80.6722 27.2216C80.9413 26.8046 80.9144 26.3876 80.605 25.9705C80.2956 25.567 79.6633 25.0692 78.7351 24.4774C78.0491 24.0469 77.4706 23.6433 76.9864 23.2532V23.2667ZM80.9816 16.2178C80.6184 16.7962 80.4974 17.3477 80.605 17.8993C80.7126 18.4508 81.0624 18.9082 81.6273 19.2714C82.1654 19.6077 82.6901 19.6884 83.2147 19.527C83.7393 19.3656 84.1967 18.9754 84.5734 18.3836C84.95 17.7917 85.0845 17.2401 84.9904 16.702C84.8962 16.164 84.5599 15.72 83.968 15.3434C83.4299 15.0071 82.9053 14.9264 82.3538 15.0878C81.8022 15.2492 81.3449 15.6393 80.9682 16.2312L80.9816 16.2178Z" fill="#CA31EB"/>
<path d="M95.8462 31.6204C94.501 32.8042 93.0616 33.3558 91.5146 33.2616C89.9677 33.1674 88.6494 32.4948 87.5463 31.2438C86.4432 29.9927 85.9455 28.6341 86.0396 27.1409C86.1338 25.6477 86.8737 24.3025 88.2323 23.0918C89.5775 21.8946 91.0304 21.343 92.5639 21.4237C94.0974 21.5179 95.4292 22.1905 96.5457 23.4416C97.6488 24.6791 98.1465 26.0513 98.0389 27.5579C97.9313 29.0511 97.1914 30.4097 95.8328 31.6204H95.8462ZM91.4877 30.6922C92.3083 30.6384 93.1289 30.2349 93.9495 29.5085C94.7701 28.782 95.2678 28.0018 95.4292 27.1543C95.5906 26.3203 95.3754 25.567 94.7701 24.8809C94.1647 24.1949 93.4383 23.8855 92.6043 23.9527C91.7702 24.02 90.9497 24.4236 90.1291 25.15C89.322 25.8629 88.8377 26.6432 88.6763 27.4772C88.5148 28.3112 88.7435 29.0645 89.3489 29.7506C89.9542 30.4232 90.6537 30.7326 91.4743 30.6788L91.4877 30.6922Z" fill="#CA31EB"/>
<path d="M102.29 41.2117C102.101 41.6691 101.752 42.0054 101.254 42.2072C100.756 42.409 100.285 42.409 99.8146 42.2206C99.3438 42.0323 99.0075 41.6826 98.7923 41.1714C98.577 40.6467 98.5636 40.149 98.7654 39.6782C98.9671 39.2074 99.3035 38.8711 99.8012 38.6693C100.299 38.4675 100.77 38.4675 101.241 38.6693C101.711 38.8711 102.048 39.2343 102.263 39.7589C102.465 40.2701 102.478 40.7544 102.29 41.2117Z" fill="#CA31EB"/>
<path d="M97.9717 54.1393L97.595 51.3009L113.63 49.189L114.383 51.9735L97.9582 54.1393H97.9717Z" fill="#CA31EB"/>
<path d="M99.2362 62.3989V62.3047C98.2004 61.3361 97.7161 60.2465 97.7968 59.0627C97.8641 58.0673 98.2138 57.2601 98.8595 56.6413C99.5052 56.0226 100.272 55.7401 101.16 55.8073C103.662 55.9687 104.846 58.2422 104.711 62.6544H104.98C105.734 62.7217 106.299 62.5737 106.648 62.2509C106.998 61.928 107.2 61.363 107.254 60.5828C107.321 59.5066 106.998 58.2422 106.299 56.8162L108.585 56.3723C109.366 57.8251 109.702 59.4125 109.608 61.1209C109.5 62.8159 109.056 63.9996 108.263 64.6857C107.469 65.3718 106.285 65.6543 104.725 65.5197L100.743 65.2776C100.326 65.2507 100.057 65.2776 99.9357 65.3987C99.8146 65.5197 99.7205 65.7753 99.6666 66.2058L97.5278 65.856C97.4336 63.9458 98.012 62.8024 99.2631 62.4258L99.2362 62.3989ZM100.649 62.3854L103.218 62.5468C103.124 61.1478 102.949 60.1524 102.68 59.5605C102.411 58.9686 101.98 58.6592 101.375 58.6188C100.945 58.5919 100.581 58.7264 100.299 59.0089C100.016 59.2914 99.855 59.695 99.8281 60.1927C99.7743 61.0133 100.057 61.7397 100.662 62.3719L100.649 62.3854Z" fill="#CA31EB"/>
<path d="M94.1378 76.4698L95.0929 73.7794L101.51 76.0393C102.276 76.3084 102.855 76.3487 103.272 76.1604C103.689 75.9721 104.012 75.5685 104.227 74.9497C104.536 74.0753 104.482 73.1875 104.065 72.2727L96.5457 69.6227L97.5008 66.9323L107.98 70.6316L107.402 73.4565L105.733 72.8646C106.5 74.2771 106.662 75.6358 106.204 76.9272C105.828 77.9899 105.209 78.7028 104.361 79.0795C103.5 79.4427 102.518 79.4293 101.388 79.0257L94.1512 76.4698H94.1378Z" fill="#CA31EB"/>
<path d="M97.9044 90.6618L101.94 93.6347L100.555 96.1637L87.21 86.3571L88.905 84.0568L89.7794 84.7025C89.591 83.3169 89.8197 82.187 90.4789 81.3126C91.3533 80.1288 92.4832 79.4965 93.8823 79.4293C95.2813 79.362 96.6803 79.8328 98.0793 80.8686C99.4918 81.9179 100.339 83.1959 100.608 84.7428C100.877 86.2764 100.541 87.7023 99.5994 88.9803C99.1151 89.626 98.5501 90.1909 97.9044 90.6752V90.6618ZM95.8328 89.1417C96.5323 88.913 97.1242 88.4825 97.6085 87.8368C98.16 87.0835 98.3215 86.2898 98.0928 85.4558C97.8641 84.6218 97.3125 83.8954 96.4651 83.2631C95.5907 82.6174 94.7432 82.3215 93.9226 82.3484C93.102 82.3753 92.4429 82.7385 91.9317 83.4245C91.4205 84.1241 91.2053 84.9312 91.3129 85.819H91.3264L91.3398 85.8459H91.3533L91.3667 85.8728H91.3802L91.3936 85.8997H91.4071L91.4205 85.9266H91.434L91.4474 85.9535H91.4609L91.4743 85.9804H91.4878L91.5012 86.0073H91.5147L91.5281 86.0343H91.5416L91.555 86.0612H91.5685L91.582 86.0881H91.5954L91.6089 86.115H91.6223L91.6358 86.1419H91.6492L91.6627 86.1688H91.6761L91.6896 86.1957H91.703L91.7165 86.2226H91.7299L91.7434 86.2495H91.7568L91.7703 86.2764H91.7837L91.7972 86.3033H91.8106L91.8375 86.3302L91.8779 86.3571H91.8913L91.9048 86.384H91.9183L91.9317 86.4109H91.9452L91.9586 86.4378H91.9721L91.9855 86.4647H91.999L92.0124 86.4916H92.0259L92.0662 86.532H92.0797L92.0931 86.5589H92.1066L92.12 86.5858H92.1335L92.1738 86.6261H92.1873L92.2008 86.653H92.2142L92.2277 86.68L92.268 86.7069H92.2815L92.2949 86.7338H92.3084L92.3487 86.7741H92.3622L92.3756 86.801L92.416 86.8279H92.4294L92.4429 86.8548H92.4563L92.4967 86.8952H92.5101L92.5236 86.9221L92.564 86.949H92.5774L92.5909 86.9759L92.6312 87.0028H92.6447L92.685 87.0432H92.6985L92.7119 87.0701L92.7523 87.097H92.7657L92.8061 87.1373H92.8195L92.833 87.1642L92.8734 87.1911H92.8868L92.9272 87.2315H92.9406L92.981 87.2718H92.9944L93.0348 87.3122H93.0482L93.0886 87.3526H93.102L93.1424 87.3929H93.1558L93.1962 87.4333H93.2097L93.25 87.4736H93.2635L93.3038 87.514H93.3173L93.3576 87.5543H93.3711L93.4114 87.5947H93.4249L93.4653 87.6351L93.5056 87.662H93.5191L93.5594 87.7023H93.5729L93.6132 87.7427H93.6267L93.667 87.783L93.7074 87.8099H93.7208L93.7612 87.8503L93.8016 87.8772H93.815L93.8554 87.9176L93.8957 87.9444H93.9092L93.9495 87.9848L93.9899 88.0117H94.0033L94.0437 88.0521L94.084 88.079H94.0975L94.1379 88.1193L94.1782 88.1462H94.1917L94.232 88.1866L94.2724 88.2135L94.3127 88.2404H94.3262L94.3665 88.2808L94.4069 88.3077L94.4472 88.3346H94.4607L94.5011 88.3749L94.5414 88.4018L94.5818 88.4287H94.5952L94.6356 88.4691L94.6759 88.496L94.7163 88.5229L94.7567 88.5498H94.7701L94.8105 88.5902L94.8508 88.6171L94.8912 88.644L94.9315 88.6709H94.945L94.9853 88.7112L95.0257 88.7381L95.066 88.765L95.1064 88.7919L95.1468 88.8188L95.3216 88.9534L95.8328 89.1417Z" fill="#CA31EB"/>
<path d="M83.2954 89.599L85.4343 87.7023L92.7791 96.0022L90.9093 98.2084L83.2819 89.599H83.2954ZM92.9271 101.006C92.5773 100.603 92.4159 100.186 92.4428 99.7554C92.4697 99.3249 92.6984 98.9213 93.1154 98.5447C93.5324 98.1815 93.9494 98.0066 94.3799 98.0335C94.8104 98.0604 95.2005 98.2756 95.5637 98.6657C95.9 99.0558 96.0614 99.4594 96.048 99.9033C96.0345 100.347 95.8058 100.737 95.4023 101.101C94.9852 101.477 94.5548 101.652 94.1109 101.612C93.6669 101.585 93.2768 101.37 92.9405 100.979L92.9271 101.006Z" fill="#CA31EB"/>
<path d="M72.8969 96.1637L75.3856 94.7646L78.7217 100.697C79.1118 101.397 79.5288 101.814 79.9728 101.948C80.4032 102.083 80.9144 101.988 81.4928 101.666C82.3 101.208 82.838 100.509 83.134 99.5401L79.2194 92.5988L81.7081 91.1998L87.1562 100.885L84.8559 102.621L83.9949 101.074C83.6452 102.648 82.865 103.764 81.6677 104.437C80.6857 104.988 79.7441 105.123 78.8697 104.84C77.9818 104.558 77.242 103.885 76.6635 102.849L72.8969 96.1637Z" fill="#CA31EB"/>
<path d="M69.9508 96.5807C70.4755 96.6345 70.9328 96.7959 71.323 97.0515C71.7131 97.3071 71.9418 97.6568 72.0494 98.0738C72.157 98.5581 72.0897 99.0558 71.8072 99.5536C71.5382 100.051 71.1212 100.482 70.5696 100.818C71.2557 100.993 71.8476 101.329 72.3319 101.84C72.8161 102.352 73.1524 102.97 73.3273 103.71C73.5964 104.867 73.3946 105.957 72.722 106.966C72.0494 107.975 70.9732 108.647 69.5069 108.983C68.498 109.212 67.4218 109.226 66.2784 109.01L63.4131 109.952L62.7271 107.558L64.8794 107.423C64.4624 107.141 64.1664 106.616 63.9916 105.836C63.736 104.719 63.9378 103.683 64.6238 102.715C65.2964 101.76 66.3053 101.114 67.6236 100.805C68.0945 100.697 68.6056 100.643 69.1572 100.643C69.6683 100.293 69.8836 99.9168 69.7894 99.4998C69.7222 99.2038 69.5069 99.0289 69.1572 98.9617C68.8074 98.9079 68.2021 98.9617 67.3546 99.1769H67.3277H67.3008H67.2739H67.247H67.2201H67.1932H67.1394L67.1124 99.1904H67.0855H67.0586H67.0317L66.9779 99.2038H66.951L66.8972 99.2173H66.8703L66.8165 99.2307H66.7896L66.7358 99.2442H66.6954L66.6685 99.2576H66.6147L66.5609 99.2845H66.5071L66.4533 99.3114H66.4129L66.3591 99.3383H66.3053L66.117 99.3922C62.8616 100.145 61.0052 99.5267 60.5344 97.5358C60.2384 96.2847 60.6151 95.1009 61.6643 93.9979C62.7136 92.8948 64.1126 92.1415 65.8749 91.7245C67.368 91.3747 68.6594 91.3478 69.7625 91.6572C70.8656 91.9666 71.5247 92.5854 71.74 93.527C71.8745 94.1189 71.7938 94.6974 71.4709 95.2355C71.1481 95.7735 70.61 96.204 69.8567 96.5134L69.9508 96.5807ZM68.4308 96.5403C69.2648 96.0022 69.6145 95.4103 69.4531 94.7646C69.332 94.2669 68.9554 93.9172 68.3097 93.7288C67.664 93.5405 66.8838 93.5539 65.969 93.7692C65.0005 93.9979 64.2337 94.3476 63.6687 94.8453C63.1037 95.3296 62.9019 95.8543 63.023 96.4058C63.1306 96.8901 63.4535 97.1726 63.9647 97.2264C64.4758 97.2936 65.2695 97.1995 66.3322 96.9439C67.1124 96.7555 67.812 96.6345 68.4308 96.5538V96.5403ZM70.6369 104.329C70.4889 103.67 70.1661 103.186 69.7087 102.876C69.2513 102.567 68.6729 102.5 68.0137 102.648C67.3949 102.796 66.9645 103.105 66.7223 103.603C66.4667 104.087 66.4264 104.679 66.5878 105.378C66.7492 106.051 67.0452 106.549 67.4891 106.858C67.933 107.167 68.498 107.248 69.1706 107.087C69.7894 106.939 70.2199 106.616 70.4889 106.118C70.758 105.62 70.7983 105.015 70.6369 104.329Z" fill="#CA31EB"/>
<path d="M50.6203 108.593C49.4903 109.36 48.3738 109.643 47.2976 109.454C45.8448 109.199 44.7821 108.459 44.0825 107.235C43.383 106.011 43.1947 104.544 43.4907 102.849C43.8001 101.114 44.5803 99.7958 45.8448 98.8676C47.1093 97.9394 48.5217 97.63 50.0956 97.899C50.9835 98.0604 51.7502 98.3026 52.3825 98.6254L53.3107 93.406L56.1222 93.9037L53.2434 110.087L50.3647 109.966L50.6068 108.58L50.6203 108.593ZM50.9566 106.724V106.697V106.67V106.643V106.616V106.589V106.562V106.535V106.508V106.481V106.455V106.428V106.401V106.374V106.347V106.32V106.293V106.266V106.239V106.212V106.186V106.159V106.132V106.105V106.078V106.051V106.024V105.997V105.97V105.943V105.916V105.89V105.863V105.836V105.809V105.782V105.755V105.728V105.701V105.674V105.647V105.621V105.594V105.567V105.54V105.513V105.486V105.459V105.432V105.378V105.351V105.325V105.298V105.271V105.244V105.217V105.163V105.136V105.109V105.082V105.056V105.002V104.975V104.948V104.921V104.867V104.84V104.813V104.786V104.733V104.706V104.679V104.625V104.598V104.571V104.517V104.491V104.464V104.41V104.383V104.356V104.302V104.275V104.248V104.195V104.168V104.114V104.087V104.06V104.006V103.979V103.926V103.899V103.845V103.818V103.764V103.737V103.71V103.657V103.63V103.576V103.549V103.495V103.468V103.414V103.361V103.334V103.28V103.253V103.199V103.172V103.118V103.092V103.038L50.97 102.984V102.957V102.903V102.876V102.822V102.769V102.742V102.688V102.661V102.607L50.9835 102.553V102.527V102.473V102.419V102.392V102.338L50.9969 102.284V102.257V102.204V102.15V102.123V102.069L51.0104 102.015V101.962V101.935V101.881L51.0238 101.827V101.8V101.746V101.693L51.0373 101.639V101.612V101.558V101.504L51.0507 101.45V101.397V101.37V101.316L51.0642 101.262V101.208L51.0776 101.154V101.128V101.074V101.02L51.0911 100.966V100.912V100.885V100.832L51.1045 100.778V100.724L51.118 100.67L51.1584 100.482C50.6875 99.9706 50.0418 99.6478 49.1943 99.4864C48.2662 99.3249 47.4859 99.5267 46.8402 100.105C46.1945 100.684 45.7775 101.491 45.5892 102.54C45.4009 103.616 45.495 104.517 45.8717 105.23C46.2483 105.943 46.8671 106.374 47.7281 106.535C48.5486 106.683 49.3692 106.508 50.1494 106.038L50.9566 106.724Z" fill="#CA31EB"/>
<path d="M37.3834 95.1681L37.4641 95.2085C38.7555 94.6166 39.9393 94.5897 41.0155 95.1143C41.9168 95.5582 42.5221 96.1905 42.845 97.0245C43.1678 97.8586 43.1274 98.6657 42.7373 99.4728C41.6343 101.719 39.0784 101.935 35.0562 100.132L34.9351 100.374C34.5988 101.06 34.5181 101.625 34.6795 102.069C34.841 102.513 35.2849 102.917 35.9978 103.266C36.9664 103.737 38.2578 103.925 39.8451 103.831L39.3743 106.105C37.7332 106.266 36.1324 105.97 34.5988 105.217C33.0787 104.477 32.1505 103.603 31.8277 102.607C31.5048 101.612 31.6932 100.414 32.4061 99.0289L34.1683 95.4372C34.3567 95.0605 34.4239 94.7915 34.3701 94.6435C34.3163 94.4955 34.1011 94.3072 33.7244 94.092L34.8679 92.249C36.6704 92.8947 37.5045 93.8767 37.3699 95.1681H37.3834ZM36.8453 96.473L35.7153 98.7733C37.0336 99.2172 38.0291 99.4324 38.6748 99.419C39.3205 99.3921 39.7779 99.1096 40.0469 98.585C40.2352 98.1949 40.2621 97.8047 40.1007 97.4415C39.9393 97.0649 39.6433 96.7689 39.186 96.5537C38.4461 96.1905 37.6659 96.1636 36.8453 96.4864V96.473Z" fill="#CA31EB"/>
<path d="M33.3747 90.7021C33.6303 91.1729 33.7648 91.6303 33.7782 92.0877C33.7782 92.545 33.6572 92.9486 33.3612 93.2715C33.0249 93.6481 32.581 93.8768 32.016 93.9441C31.451 94.0113 30.8726 93.9306 30.2672 93.675C30.5228 94.3342 30.5901 95.0068 30.469 95.7063C30.3479 96.4058 30.0251 97.038 29.5274 97.603C28.7337 98.5043 27.7382 98.9617 26.5275 99.0021C25.3169 99.029 24.1465 98.5581 23.0165 97.5627C22.2363 96.8766 21.6041 96.0157 21.1198 94.953L18.685 93.1638L20.2454 91.2133L21.6041 92.8948C21.6041 92.3971 21.8462 91.8455 22.3708 91.2536C23.1242 90.3927 24.0927 89.9622 25.2765 89.9488C26.4603 89.9353 27.5499 90.3927 28.5723 91.2806C28.9355 91.6034 29.2718 91.9801 29.5946 92.4374C30.1865 92.6527 30.617 92.5989 30.886 92.2895C31.0878 92.0608 31.1147 91.7783 30.9533 91.4554C30.7919 91.1326 30.3883 90.6887 29.7291 90.1102H29.7157L29.7022 90.0833H29.6888L29.6753 90.0564H29.6619L29.6484 90.0295L29.6081 90.0026H29.5946L29.5812 89.9757H29.5677L29.5543 89.9488L29.5139 89.9219H29.5005L29.4601 89.8681H29.4466L29.4063 89.8143H29.3928L29.3525 89.7605L29.3121 89.7336H29.2987L29.2583 89.6797L29.218 89.6528L29.1776 89.6259L29.1372 89.599L29.0969 89.5721L29.0565 89.5452L29.0162 89.5183L28.8682 89.3973C26.3527 87.1911 25.7877 85.3213 27.1329 83.7743C27.9804 82.8057 29.1642 82.4291 30.6708 82.6308C32.1774 82.8326 33.6033 83.5321 34.962 84.7294C36.1189 85.7383 36.8857 86.7875 37.2758 87.8637C37.6659 88.9399 37.5448 89.8412 36.8991 90.5676C36.4956 91.025 35.9844 91.2806 35.3521 91.3344C34.7333 91.3882 34.0742 91.1998 33.3747 90.7559V90.7021ZM27.4692 95.7601C27.9131 95.2489 28.1283 94.7108 28.1014 94.1593C28.0745 93.5943 27.8055 93.0966 27.3078 92.6527C26.8369 92.2356 26.3258 92.0742 25.7877 92.1549C25.2496 92.2356 24.7384 92.545 24.2676 93.0831C23.8102 93.6078 23.5815 94.1324 23.595 94.6839C23.595 95.222 23.864 95.7332 24.3887 96.1906C24.8595 96.6076 25.3841 96.7825 25.9357 96.7017C26.5006 96.621 27.0118 96.3251 27.4826 95.787L27.4692 95.7601ZM32.5137 89.4242C33.4419 89.7874 34.128 89.7201 34.5584 89.2224C34.8948 88.8323 34.962 88.3211 34.7333 87.6888C34.5046 87.0566 34.0473 86.4243 33.3478 85.8055C32.5944 85.1464 31.8546 84.7294 31.1416 84.5545C30.4152 84.3796 29.8771 84.5141 29.5005 84.9312C29.1642 85.3078 29.1238 85.7248 29.3794 86.1687C29.6215 86.6261 30.1596 87.218 30.9802 87.931C31.5855 88.4691 32.0967 88.9533 32.5137 89.4107V89.4242Z" fill="#CA31EB"/>
<path d="M20.3261 85.1867L20.3934 85.1464C21.1332 84.5948 21.5637 83.9088 21.7117 83.1151C21.8597 82.3214 21.6579 81.5008 21.1198 80.6803C20.4472 79.6579 19.519 78.8642 18.3621 78.3261L20.1512 76.7253C21.2812 77.3307 22.2767 78.2858 23.1376 79.6041C24.1196 81.0973 24.4694 82.5905 24.1869 84.0836C23.9044 85.5768 23.0165 86.801 21.5233 87.783C20.0167 88.7784 18.4966 89.1282 16.9631 88.8322C15.443 88.5363 14.2189 87.6888 13.2907 86.2898C12.497 85.0791 12.2145 83.9088 12.4566 82.7788C12.6988 81.6623 13.3983 80.7206 14.5552 79.9538C15.1471 79.5637 15.712 79.2947 16.2501 79.1333L20.3396 85.2002L20.3261 85.1867ZM18.8867 86.0342L16.2367 82.0389L16.0752 82.1465C14.7166 83.0344 14.4206 84.0836 15.2009 85.2674C15.6044 85.8862 16.156 86.2494 16.8555 86.3705C17.555 86.4781 18.2276 86.3705 18.8867 86.0342Z" fill="#CA31EB"/>
<path d="M5.81131 64.8741L0.874387 65.735L0 62.9908L16.3174 60.1389L16.8151 62.9504L15.739 63.1387C16.8689 63.9593 17.5281 64.901 17.7164 65.9906C17.972 67.4434 17.6357 68.6944 16.721 69.7572C15.8062 70.8199 14.4879 71.4925 12.7795 71.8019C11.0442 72.0978 9.52409 71.8153 8.23269 70.9544C6.92783 70.08 6.14761 68.8559 5.87857 67.282C5.74405 66.4883 5.71714 65.6812 5.82476 64.8875L5.81131 64.8741ZM8.3403 64.4301C8.01745 65.0893 7.92329 65.8292 8.05781 66.6228C8.21923 67.551 8.67661 68.2102 9.44338 68.6137C10.1967 69.0173 11.1114 69.1384 12.1607 68.95C13.2234 68.7617 14.0305 68.3582 14.5821 67.7528C15.1336 67.134 15.3354 66.4076 15.1874 65.5736C15.0395 64.7126 14.609 64.0131 13.8826 63.4616H13.8557H13.8288H13.8019H13.775H13.748H13.7211H13.6942H13.6673H13.6404H13.6135H13.5866H13.5597H13.5328H13.5059H13.479H13.4521H13.4252H13.3983H13.3714H13.3445H13.3176H13.2907H13.2638H13.2369H13.21H13.1831H13.1562H13.1293H13.1023H13.0754H13.0485H13.0216H12.9947H12.9678H12.9409H12.914H12.8871H12.8602H12.8064H12.7795H12.7526H12.7257H12.6988H12.6719H12.645H12.6181H12.5912H12.5643H12.5374H12.5105H12.4566H12.4297H12.4028H12.3759H12.349H12.3221H12.2683H12.2414H12.2145H12.1876H12.1607H12.1069H12.08H12.0531H12.0262H11.9724H11.9455H11.9186H11.8648H11.8379H11.8109H11.784H11.7302H11.7033H11.6764H11.6226H11.5957H11.5688H11.515H11.4881H11.4343H11.4074H11.3805H11.3267H11.2998H11.246H11.2191H11.1921H11.1383H11.1114H11.0576H11.0307H10.9769H10.95H10.8962H10.8693H10.8155H10.7886H10.7348H10.7079H10.6541H10.6272H10.5734H10.5464H10.4926H10.4657H10.4119H10.385H10.3312H10.3043H10.2505L10.1967 63.475H10.1698H10.116H10.0891H10.0353H10.0084H9.95456H9.90075H9.87384H9.82004L9.76623 63.4885H9.73932H9.68551H9.63171H9.6048H9.55099L9.49718 63.5019H9.47028H9.41647H9.36266H9.33576H9.28195L9.22814 63.5154H9.20124H9.14743H9.09362L9.03981 63.5288H9.01291H8.9591H8.90529L8.85148 63.5423H8.82458H8.77077H8.71696L8.66315 63.5557H8.63625H8.58244H8.52863L8.47482 63.5692H8.42102H8.39411H8.3403L8.2865 63.5827H8.23269L8.17888 63.5961H8.15197H8.09817H8.04436L7.99055 63.6096H7.93674L7.88293 63.623L7.6677 63.6634L8.3403 64.4301Z" fill="#CA31EB"/>
<path d="M11.5688 55.4845H11.636C12.5642 55.5249 13.331 55.2827 13.9498 54.7581C14.5686 54.2335 14.9318 53.4801 15.0394 52.4981C15.1739 51.274 14.9587 50.0902 14.4072 48.9199L16.8017 48.8123C17.2859 49.9961 17.4474 51.3682 17.2859 52.9286C17.0976 54.7043 16.4115 56.0899 15.2412 57.0584C14.0709 58.027 12.6046 58.4171 10.8424 58.2287C9.03979 58.0404 7.65422 57.3409 6.65877 56.1437C5.66331 54.9464 5.25975 53.5205 5.44808 51.8524C5.6095 50.4131 6.13414 49.3234 7.02197 48.6105C7.92327 47.8975 9.05324 47.615 10.4388 47.763C11.1518 47.8437 11.7571 47.9917 12.2683 48.2069L11.5822 55.4845H11.5688ZM9.91418 55.2424L10.3985 50.4803L10.2101 50.4534C8.58242 50.2785 7.70803 50.8973 7.54661 52.3098C7.46589 53.0497 7.65422 53.6819 8.12505 54.2066C8.58242 54.7312 9.18776 55.0809 9.91418 55.2424Z" fill="#CA31EB"/>
<path d="M17.7164 38.4542C18.7118 38.8308 19.3844 39.5304 19.7207 40.5662C20.057 41.602 19.9763 42.7723 19.4786 44.0906C18.8867 45.6511 18.0527 46.8752 16.9765 47.7765L15.1201 46.4044C16.1963 45.5031 16.9765 44.4404 17.4204 43.2431C17.6222 42.7185 17.676 42.2611 17.5818 41.871C17.5011 41.4809 17.2724 41.2253 16.9092 41.0908C16.5326 40.9428 16.1828 41.0101 15.8465 41.2926C15.5237 41.5616 15.1336 42.0324 14.7031 42.6782C14.0305 43.7005 13.3175 44.4269 12.6046 44.8574C11.8782 45.2879 11.0576 45.3417 10.1294 44.9919C9.14738 44.6287 8.50168 43.9426 8.19228 42.9606C7.88288 41.9786 7.96359 40.8487 8.43442 39.5976C8.98595 38.1448 9.73927 36.9879 10.7078 36.1135L12.5642 37.4856C11.5688 38.3869 10.8692 39.3689 10.4657 40.4451C10.0756 41.4809 10.2235 42.1401 10.9231 42.3957C11.2863 42.5302 11.6226 42.4629 11.932 42.1939C12.2414 41.9248 12.618 41.454 13.0754 40.7949C13.7749 39.759 14.4879 39.0326 15.2143 38.6022C15.9407 38.1717 16.7747 38.1313 17.7029 38.4811L17.7164 38.4542Z" fill="#CA31EB"/>
<path d="M10.5733 27.8539C11.0307 28.1229 11.3132 28.4727 11.4073 28.9031C11.5149 29.3202 11.4073 29.7775 11.1248 30.2618C10.8423 30.7326 10.4926 31.0151 10.0621 31.1227C9.64511 31.2304 9.20119 31.1362 8.74381 30.8672C8.29989 30.5981 8.03085 30.2484 7.90978 29.8313C7.78872 29.4143 7.88288 28.957 8.16537 28.4861C8.46132 28.0019 8.81107 27.7059 9.24154 27.6117C9.67201 27.5176 10.1025 27.5983 10.5464 27.8673L10.5733 27.8539ZM23.1645 35.8444L21.6847 38.2927L12.1876 32.5621L13.3175 29.8986L23.1645 35.8444Z" fill="#CA31EB"/>
<path d="M25.3438 33.3558C24.8729 33.5979 24.4021 33.7325 23.9447 33.7325C23.4874 33.7325 23.0838 33.5845 22.7744 33.2885C22.4112 32.9522 22.196 32.4949 22.1422 31.9299C22.0884 31.3649 22.1825 30.7865 22.4516 30.1811C21.7924 30.4233 21.1064 30.4771 20.4203 30.3291C19.7342 30.1811 19.102 29.8583 18.5505 29.3471C17.6761 28.54 17.2321 27.531 17.2321 26.3204C17.2321 25.1097 17.7299 23.9528 18.7522 22.8497C19.4517 22.0964 20.3396 21.4776 21.4023 21.0068L23.2452 18.6123L25.1554 20.2131L23.447 21.5314C23.9447 21.5314 24.4963 21.8005 25.0747 22.3385C25.9222 23.1188 26.3258 24.0873 26.3123 25.2711C26.2854 26.4549 25.828 27.531 24.8998 28.54C24.577 28.8897 24.1734 29.226 23.7295 29.5354C23.5008 30.1139 23.5412 30.5443 23.8506 30.8268C24.0793 31.0286 24.3483 31.069 24.6712 30.9075C24.994 30.7596 25.4514 30.356 26.0433 29.7237H26.0567L26.0702 29.6834H26.0836L26.0971 29.643H26.1105L26.124 29.6027L26.1509 29.5623H26.1643L26.1778 29.522H26.1912L26.2047 29.4816L26.2316 29.4412H26.2451L26.272 29.3874H26.2854L26.3123 29.3336H26.3258L26.3527 29.2798L26.3796 29.2395H26.393L26.4199 29.1857L26.4468 29.1453L26.4737 29.1049L26.5006 29.0646L26.5275 29.0242L26.5545 28.9839L26.5814 28.9435L26.7159 28.7955C28.9758 26.3338 30.8726 25.8092 32.3792 27.1947C33.3343 28.0691 33.6841 29.2529 33.4419 30.7596C33.1998 32.2662 32.4734 33.6787 31.2492 35.0104C30.2134 36.1404 29.1507 36.8803 28.0745 37.2435C26.9984 37.6067 26.0971 37.4587 25.3841 36.7995C24.9268 36.3825 24.6846 35.8579 24.6577 35.2391C24.6174 34.6069 24.8326 33.9612 25.2765 33.2751L25.3438 33.3558ZM20.4203 27.3427C20.918 27.8001 21.4427 28.0288 22.0076 28.0153C22.5726 28.0153 23.0704 27.7463 23.5412 27.2486C23.9716 26.7912 24.1465 26.28 24.0793 25.7419C24.012 25.1904 23.7161 24.6792 23.1914 24.1949C22.6802 23.7241 22.1556 23.482 21.6175 23.482C21.0794 23.482 20.5683 23.7241 20.0974 24.2353C19.667 24.6927 19.4921 25.2173 19.5459 25.7688C19.6132 26.3338 19.8957 26.8584 20.4203 27.3293V27.3427ZM26.6217 32.5352C26.2316 33.45 26.2854 34.136 26.7697 34.5799C27.1463 34.9297 27.6575 34.997 28.3032 34.7952C28.9489 34.5799 29.5812 34.136 30.2134 33.45C30.886 32.7101 31.33 31.9837 31.5183 31.2707C31.7066 30.5578 31.5855 30.0062 31.182 29.6161C30.8188 29.2798 30.4018 29.226 29.9444 29.4682C29.487 29.7103 28.8817 30.2215 28.1418 31.0286C27.5903 31.6205 27.0925 32.1182 26.6217 32.5352Z" fill="#CA31EB"/>
<path d="M40.5716 20.5898L38.1233 22.0695L34.5854 16.2582C34.1684 15.5721 33.7379 15.1686 33.294 15.0475C32.85 14.9264 32.3523 15.0475 31.7873 15.3838C31.0071 15.8681 30.4825 16.5811 30.2134 17.5496L34.3432 24.3564L31.9084 25.8361L26.1375 16.3389L28.384 14.5229L29.2987 16.0295C29.6081 14.4422 30.3345 13.2987 31.5183 12.5858C32.4868 11.9939 33.415 11.8325 34.3029 12.0881C35.2042 12.3436 35.9575 12.9893 36.5763 14.0117L40.5581 20.5763L40.5716 20.5898Z" fill="#CA31EB"/>
<path d="M48.7908 10.8772C49.2078 11.1463 49.4768 11.5498 49.5844 12.0745C49.6921 12.5991 49.6113 13.0699 49.3423 13.5004C49.0733 13.9309 48.6697 14.1999 48.1316 14.3075C47.5801 14.4286 47.0824 14.3479 46.6519 14.0654C46.2214 13.7829 45.9524 13.3793 45.8448 12.8681C45.7371 12.3435 45.8179 11.8727 46.1004 11.4557C46.3828 11.0386 46.7999 10.7696 47.3514 10.6485C47.8895 10.5409 48.3603 10.6216 48.7908 10.8907V10.8772Z" fill="#CA31EB"/>
</svg>
