<svg width="114" height="118" viewBox="0 0 114 118" fill="none" xmlns="http://www.w3.org/2000/svg">
<path d="M31.7896 65.6044L32.4124 68.7724L20.4018 75.0782L19.7301 71.685L28.2231 67.7141L18.8161 66.9416L18.1723 63.6843L26.4735 59.2058L17.2261 59.0608L16.5433 55.6132L30.0419 56.801L30.6703 59.9962L22.3021 64.6046L31.7808 65.5892L31.7896 65.6044Z" fill="#8A6687"/>
<path d="M25.9441 48.8779L26.0204 48.9048C27.0453 49.2051 27.9782 49.1531 28.8224 48.7366C29.6666 48.3202 30.2905 47.5748 30.6908 46.5124C31.1891 45.1807 31.2939 43.7821 31.001 42.3091L33.7289 42.873C33.9359 44.3551 33.7241 45.9371 33.087 47.6429C32.3586 49.5942 31.2006 50.9419 29.6098 51.6981C28.0191 52.4544 26.2541 52.4698 24.3268 51.7478C22.3636 51.0161 20.9907 49.8321 20.2245 48.2065C19.4583 46.581 19.4136 44.8531 20.0903 43.023C20.68 41.4458 21.5834 40.3769 22.794 39.8401C24.0078 39.2914 25.3733 39.3038 26.8741 39.8666C27.6463 40.1506 28.2925 40.4973 28.7994 40.8838L25.9397 48.8703L25.9441 48.8779ZM24.1528 48.128L26.0732 42.9038L25.8638 42.822C24.0936 42.1613 22.9163 42.5977 22.3406 44.1465C22.0349 44.9514 22.0732 45.72 22.4434 46.449C22.8136 47.178 23.3779 47.7341 24.1604 48.1237L24.1528 48.128Z" fill="#8A6687"/>
<path d="M39.7981 28.6643C41.1746 30.1706 41.8484 31.8292 41.8118 33.6446C41.7753 35.4599 41.0689 36.9929 39.7046 38.2468C38.9401 38.9417 38.1389 39.4853 37.2652 39.8681L35.2477 42.3608L22.2848 28.2131L24.4271 25.6382L29.4943 31.1667C29.5918 29.5798 30.1046 28.3612 31.0438 27.4946C32.2963 26.3457 33.7391 25.8776 35.3495 26.1035C36.9599 26.3293 38.4499 27.172 39.8013 28.6523L39.7981 28.6643ZM37.4077 31.0378C36.5487 30.0943 35.6589 29.5538 34.7294 29.4012C33.7999 29.2485 32.9703 29.5146 32.2165 30.1931C31.5008 30.8496 31.0887 31.716 30.9758 32.7847L30.989 32.8075L31.0098 32.8259L31.023 32.8487L31.0437 32.8671L31.0569 32.89L31.0777 32.9084L31.0908 32.9312L31.1116 32.9496L31.1248 32.9724L31.1455 32.9908L31.1587 33.0136L31.1795 33.032L31.1926 33.0549L31.2134 33.0733L31.2266 33.0961L31.2474 33.1145L31.2605 33.1373L31.2813 33.1557L31.2945 33.1785L31.3152 33.197L31.3284 33.2198L31.3492 33.2382L31.3623 33.261L31.3831 33.2794L31.3963 33.3022L31.417 33.3206L31.4302 33.3434L31.451 33.3619L31.4642 33.3847L31.4849 33.4031L31.4981 33.4259L31.5189 33.4443L31.532 33.4671L31.5528 33.4855L31.566 33.5083L31.5867 33.5268L31.5999 33.5496L31.6207 33.568L31.6339 33.5908L31.6546 33.6092L31.6678 33.632L31.6886 33.6504L31.7017 33.6732L31.7225 33.6917L31.7357 33.7145L31.7564 33.7329L31.7696 33.7557L31.7904 33.7741L31.8167 33.8197L31.8451 33.8338L31.8583 33.8566L31.879 33.875L31.8922 33.8978L31.913 33.9162L31.9261 33.939L31.9677 33.9759L31.9808 33.9987L32.0016 34.0171L32.0148 34.0399L32.0356 34.0583L32.0619 34.1039L32.0903 34.118L32.1034 34.1408L32.1242 34.1592L32.1505 34.2048L32.1789 34.2188L32.1921 34.2416L32.2128 34.2601L32.2392 34.3057L32.2676 34.3197L32.2807 34.3425L32.3223 34.3793L32.3354 34.4022L32.3562 34.4206L32.3825 34.4662L32.4109 34.4802L32.4241 34.503L32.4656 34.5399L32.4788 34.5627L32.4996 34.5811L32.5259 34.6267L32.5543 34.6407L32.5674 34.6635L32.609 34.7004L32.6221 34.7232L32.6637 34.76L32.6769 34.7828L32.6976 34.8012L32.724 34.8469L32.7523 34.8609L32.7787 34.9065L32.807 34.9205L32.8334 34.9662L32.8618 34.9802L32.8881 35.0258L32.9165 35.0398L32.9296 35.0626L32.9712 35.0995L32.9843 35.1223L33.0259 35.1591L33.0391 35.1819L33.0806 35.2188L33.0938 35.2416L33.1353 35.2784L33.1616 35.324L33.19 35.338L33.2164 35.3837L33.2447 35.3977L33.2711 35.4433L33.2994 35.4573L33.3258 35.503L33.3541 35.517L33.3805 35.5626L33.4296 35.595L33.4428 35.6179L33.4843 35.6547L33.4975 35.6775L33.539 35.7143L33.5654 35.76L33.5938 35.774L33.6201 35.8196L33.6485 35.8336L33.6748 35.8792L33.7239 35.9117L33.7371 35.9345L33.7786 35.9713L33.805 36.0169L33.8334 36.031L33.8597 36.0766L33.9088 36.109L33.922 36.1318L33.9635 36.1687L33.9899 36.2143L34.0183 36.2283L34.0446 36.2739L34.0937 36.3064L34.1201 36.352L34.1484 36.366L34.1748 36.4117L34.2239 36.4441L34.2371 36.4669L34.2786 36.5037L34.305 36.5494L34.3541 36.5818L34.3673 36.6046L34.4088 36.6415L34.4352 36.6871L34.4843 36.7195L34.5106 36.7651L34.539 36.7792L34.5654 36.8248L34.6145 36.8572L34.6408 36.9028L34.69 36.9353L34.7031 36.9581L34.7447 36.9949L34.771 37.0405L34.8202 37.073L34.8465 37.1186L34.8749 37.1326L34.9012 37.1783L34.9504 37.2107L34.9767 37.2563L35.0258 37.2888L35.1812 37.4525C35.979 37.3771 36.7396 37.0089 37.4781 36.3392C38.2795 35.6028 38.6404 34.7356 38.5652 33.745C38.4901 32.7545 38.035 31.7907 37.1979 30.8852L37.4077 31.0378Z" fill="#8A6687"/>
<path d="M53.1269 27.1527C53.4925 28.3303 53.3277 29.4493 52.6311 30.4901C51.9269 31.5353 50.7967 32.2993 49.2451 32.7896C47.4074 33.364 45.6843 33.4871 44.0865 33.1425L44.0081 30.461C45.6059 30.8056 47.1247 30.7498 48.5491 30.3025C49.1743 30.1037 49.6337 29.8283 49.9272 29.4764C50.2163 29.1169 50.2952 28.7267 50.1593 28.2983C50.0223 27.8503 49.7108 27.574 49.2247 27.4695C48.7386 27.3649 48.0492 27.3473 47.1447 27.4134C45.7274 27.5221 44.564 27.4031 43.6423 27.0533C42.7283 26.6992 42.099 25.9779 41.7544 24.8894C41.3899 23.7314 41.5495 22.656 42.2333 21.6631C42.917 20.6703 43.9983 19.9447 45.4847 19.4818C47.2028 18.946 48.8028 18.8028 50.3012 19.0629L50.3719 21.7489C48.8376 21.4791 47.4376 21.5474 46.1676 21.9462C44.9323 22.3349 44.4494 22.9382 44.7035 23.7646C44.8393 24.193 45.1421 24.4541 45.6074 24.5402C46.0728 24.6263 46.7741 24.6471 47.6951 24.5919C49.1363 24.4896 50.3161 24.6194 51.2302 24.9736C52.1442 25.3277 52.7779 26.0566 53.1237 27.1647L53.1269 27.1527Z" fill="#8A6687"/>
<path d="M58.9864 31.0681L55.6707 31.0665L55.6929 18.2003L59.0075 17.726L58.9864 31.0681ZM59.4069 13.7651C59.4086 14.3825 59.2257 14.8733 58.869 15.2211C58.5123 15.569 58.0078 15.7487 57.3513 15.7527C56.7143 15.7555 56.2235 15.5726 55.8636 15.2127C55.5038 14.8528 55.3328 14.3636 55.3356 13.7538C55.3351 13.156 55.5148 12.6772 55.8703 12.3097C56.2258 11.9423 56.7227 11.767 57.3596 11.7641C58.0162 11.7601 58.519 11.9462 58.8756 12.3181C59.2323 12.69 59.4064 13.1673 59.4069 13.7651Z" fill="#8A6687"/>
<path d="M68.6441 33.1354C67.5935 33.1945 66.588 33.0858 65.6123 32.8179C64.1841 32.4159 63.222 31.7854 62.7172 30.9111C62.2124 30.0368 62.1866 28.886 62.6582 27.4379L64.4877 21.6173L62.5973 20.8537L63.2438 18.8484L65.3668 18.7681L66.193 16.0205L69.2773 16.8855L68.4093 19.789L71.9253 20.7697L71.1061 23.3714L67.4822 22.3618L65.7131 28.0765C65.3719 29.2061 65.7693 29.9295 66.8813 30.2403C67.4254 30.3925 68.1051 30.4461 68.9324 30.4043L68.6353 33.1202L68.6441 33.1354Z" fill="#8A6687"/>
<path d="M74.8615 30.245L74.8106 30.3149C74.219 31.2038 73.9987 32.1217 74.1488 33.0487C74.2988 33.9758 74.8273 34.7857 75.7341 35.4786C76.8639 36.3468 78.1684 36.8506 79.6641 37.0007L78.3281 39.4447C76.8548 39.2106 75.395 38.5431 73.956 37.4378C72.3029 36.1722 71.3554 34.6716 71.0972 32.9251C70.839 31.1786 71.3356 29.493 72.5903 27.8563C73.8667 26.1868 75.3901 25.2261 77.1758 24.9656C78.9571 24.6974 80.6251 25.1636 82.1712 26.3491C83.5107 27.3699 84.2618 28.548 84.4354 29.867C84.6089 31.1859 84.1955 32.4889 83.2179 33.7629C82.7145 34.4185 82.2029 34.9369 81.6786 35.3105L74.8767 30.2362L74.8615 30.245ZM76.1092 28.7542L80.5429 32.1143L80.6814 31.9329C81.83 30.4284 81.7471 29.1788 80.448 28.1752C79.7597 27.6501 79.0206 27.4585 78.2187 27.5971C77.4168 27.7357 76.7162 28.1199 76.1168 28.7498L76.1092 28.7542Z" fill="#8A6687"/>
<path d="M96.9334 58.941L102.75 58.7453L103.306 62.0432L84.1046 62.6884L83.9962 59.3754L85.2602 59.3349C84.0956 58.2131 83.4968 57.018 83.4519 55.7464C83.3932 54.047 83.9782 52.6549 85.1963 51.5868C86.4143 50.5186 88.0397 49.9452 90.057 49.8752C92.094 49.8041 93.7919 50.3747 95.1508 51.5871C96.4977 52.7963 97.2112 54.3306 97.275 56.1792C97.3074 57.1133 97.2016 58.0361 96.9454 58.9443L96.9334 58.941ZM93.9579 59.0371C94.4382 58.3239 94.6643 57.504 94.6318 56.5699C94.5943 55.4867 94.1703 54.6468 93.3641 54.0581C92.5579 53.4693 91.5342 53.1886 90.3017 53.2311C89.0497 53.2748 88.0549 53.6059 87.3248 54.22C86.5947 54.8341 86.2499 55.6414 86.2815 56.6267C86.3187 57.6392 86.7015 58.5129 87.4343 59.2556L87.4659 59.2576L87.4887 59.2444L87.5247 59.2541L87.5475 59.2409L87.5835 59.2505L87.6151 59.2526L87.6379 59.2394L87.6739 59.2491L87.6967 59.2359L87.7326 59.2455L87.7642 59.2476L87.787 59.2344L87.823 59.244L87.8458 59.2309L87.8818 59.2405L87.9046 59.2273L87.9406 59.237L87.9722 59.239L87.995 59.2258L88.0309 59.2355L88.0538 59.2223L88.0897 59.232L88.1213 59.234L88.1441 59.2208L88.1801 59.2305L88.2029 59.2173L88.2389 59.2269L88.2617 59.2138L88.2977 59.2234L88.3293 59.2254L88.3521 59.2123L88.388 59.2219L88.4108 59.2088L88.4468 59.2184L88.4784 59.2204L88.5012 59.2073L88.5372 59.2169L88.56 59.2037L88.6232 59.2078L88.646 59.1946L88.682 59.2043L88.7048 59.1911L88.7407 59.2007L88.7635 59.1876L88.7995 59.1972L88.8311 59.1993L88.8539 59.1861L88.8899 59.1957L88.9127 59.1826L88.9487 59.1922L89.0075 59.1887L89.039 59.1907L89.0619 59.1775L89.0978 59.1872L89.1206 59.174L89.1566 59.1837L89.2154 59.1801L89.247 59.1822L89.2698 59.169L89.3058 59.1786L89.3374 59.1807L89.3961 59.1771L89.4189 59.164L89.4549 59.1736L89.4777 59.1604L89.5409 59.1645L89.5637 59.1514L89.5997 59.161L89.6585 59.1575L89.6901 59.1595L89.7129 59.1463L89.7488 59.156L89.8076 59.1524L89.8304 59.1393L89.8664 59.1489L89.9252 59.1454L89.9568 59.1474L89.9796 59.1343L90.0428 59.1383L90.0656 59.1252L90.1287 59.1292L90.1603 59.1313L90.1831 59.1181L90.2463 59.1222L90.2691 59.109L90.3323 59.1131L90.3551 59.0999L90.3911 59.1096L90.4499 59.106L90.4727 59.0929L90.5358 59.0969L90.5586 59.0838L90.6218 59.0878L90.6534 59.0899L90.7122 59.0864L90.7438 59.0884L90.8026 59.0849L90.8254 59.0717L90.8885 59.0758L90.9113 59.0626L90.9745 59.0667L91.0061 59.0687L91.0649 59.0652L91.0965 59.0672L91.1553 59.0637L91.1781 59.0505L91.2412 59.0546L91.264 59.0414L91.3272 59.0455L91.3588 59.0475L91.4176 59.044L91.4764 59.0405L91.508 59.0425L91.5667 59.039L91.5895 59.0258L91.6527 59.0299L91.6755 59.0167L91.7387 59.0208L91.7975 59.0173L91.8203 59.0041L91.8835 59.0082L91.9423 59.0046L91.9651 58.9915L92.0282 58.9956L92.087 58.992L92.1098 58.9789L92.173 58.9829L92.2318 58.9794L92.2634 58.9814L92.3221 58.9779L92.3809 58.9744L92.4125 58.9764L92.4713 58.9729L92.5301 58.9694L92.5617 58.9714L92.6205 58.9679L92.6792 58.9643L92.738 58.9608L92.7696 58.9629L92.8284 58.9593L92.8872 58.9558L92.946 58.9523L92.9775 58.9543L93.0363 58.9508L93.0951 58.9473L93.1539 58.9437L93.1767 58.9306L93.2399 58.9346L93.2987 58.9311L93.3574 58.9276L93.4162 58.924L93.439 58.9109L93.5022 58.915L93.561 58.9114L93.6198 58.9079L93.6786 58.9044L93.7014 58.8912L93.7645 58.8953L93.8233 58.8917L93.8821 58.8882L93.9409 58.8847L93.9997 58.8812L94.2512 58.8779L93.9579 59.0371Z" fill="#8A6687"/>
<path d="M87.8587 68.9445L87.7855 68.9056C86.7831 68.5213 85.8499 68.5026 84.9738 68.8462C84.0977 69.1899 83.4235 69.8832 82.9348 70.9155C82.3319 72.2063 82.1203 73.5956 82.2881 75.08L79.6179 74.3003C79.5285 72.8111 79.8711 71.2449 80.6336 69.5984C81.5116 67.7129 82.7734 66.4572 84.4192 65.8314C86.065 65.2056 87.8186 65.3285 89.6877 66.1956C91.5896 67.0844 92.8584 68.3691 93.4942 70.0496C94.1299 71.7302 94.0407 73.4543 93.2188 75.2263C92.5081 76.7517 91.5216 77.747 90.2659 78.1881C89.0103 78.6292 87.6585 78.5177 86.2018 77.8382C85.4533 77.4898 84.8439 77.1016 84.3618 76.6704L87.8467 68.9413L87.8587 68.9445ZM89.5798 69.8362L87.2558 74.8881L87.462 74.9819C89.1816 75.7833 90.38 75.436 91.0767 73.939C91.4391 73.1621 91.4717 72.3932 91.1591 71.6411C90.8465 70.889 90.3266 70.287 89.5798 69.8362Z" fill="#8A6687"/>
<path d="M73.3358 83.9791C72.5248 83.0485 72.239 81.9565 72.4676 80.7196C72.6962 79.4827 73.4293 78.3296 74.6593 77.2647C76.1171 75.9973 77.6468 75.2054 79.2482 74.889L80.3893 77.3219C78.7846 77.6503 77.4155 78.2988 76.2864 79.2751C75.7928 79.702 75.4768 80.1378 75.3579 80.5815C75.239 81.0252 75.3213 81.4136 75.6092 81.7542C75.9135 82.1057 76.3148 82.2389 76.7924 82.1355C77.2699 82.0321 77.9232 81.7766 78.7162 81.3593C79.9742 80.6938 81.0854 80.3361 82.0663 80.2969C83.0472 80.2577 83.9092 80.6622 84.6535 81.5299C85.4481 82.4498 85.7316 83.5025 85.4995 84.6807C85.2673 85.8588 84.5623 86.9551 83.3887 87.9774C82.0317 89.1561 80.6185 89.9214 79.1414 90.2775L78.0003 87.8446C79.5122 87.4785 80.7725 86.8522 81.7824 85.9853C82.7619 85.136 82.9687 84.3881 82.4029 83.7417C82.1074 83.4054 81.7268 83.2906 81.2645 83.3852C80.8021 83.4799 80.15 83.755 79.3254 84.1702C78.0435 84.8293 76.9127 85.1882 75.9318 85.2274C74.9509 85.2666 74.0845 84.8545 73.3238 83.9759L73.3358 83.9791Z" fill="#8A6687"/>
<path d="M72.9453 98.7712C72.6989 98.2039 72.6639 97.6868 72.8524 97.2232C73.0365 96.752 73.428 96.3942 74.0333 96.1258C74.6158 95.8706 75.1449 95.8388 75.6117 96.0153C76.0829 96.1994 76.4395 96.5713 76.686 97.1386C76.9236 97.6907 76.9542 98.2002 76.7745 98.679C76.5948 99.1578 76.2153 99.5188 75.6328 99.774C75.0351 100.038 74.4984 100.074 74.0228 99.8825C73.5472 99.6908 73.1906 99.3189 72.9529 98.7668L72.9453 98.7712ZM66.3908 82.7481L69.4261 81.4214L74.5702 93.2107L71.7263 94.9742L66.3908 82.7481Z" fill="#8A6687"/>
<path d="M63.2753 83.3912C63.8672 83.5563 64.3628 83.8176 64.7542 84.1795C65.1456 84.5414 65.361 84.9847 65.3948 85.4822C65.4377 86.0657 65.2583 86.6153 64.8534 87.143C64.4485 87.6707 63.907 88.0847 63.2125 88.3742C63.9675 88.6986 64.5827 89.1847 65.0517 89.8567C65.5207 90.5286 65.7953 91.3027 65.8558 92.18C65.9545 93.5625 65.5352 94.7675 64.5783 95.7964C63.6214 96.8253 62.2716 97.4019 60.5409 97.5294C59.3468 97.6207 58.1123 97.4313 56.8428 96.9883L53.3882 97.5536L53.0345 94.6762L55.5346 94.9155C55.1092 94.5123 54.8613 93.8547 54.7984 92.9381C54.7032 91.6145 55.1293 90.4562 56.0733 89.4753C57.0249 88.4899 58.2824 87.9464 59.8563 87.8284C60.4202 87.7867 61.0083 87.8221 61.636 87.9261C62.2857 87.6117 62.5965 87.2195 62.5595 86.734C62.5339 86.3737 62.3271 86.1383 61.9258 86.0051C61.5365 85.8751 60.8308 85.8466 59.8206 85.923L59.7978 85.9362L59.7619 85.9265L59.739 85.9397L59.7031 85.93L59.6803 85.9432L59.6443 85.9336L59.5855 85.9371L59.5627 85.9503L59.5267 85.9406L59.5039 85.9538L59.4679 85.9442L59.4091 85.9477L59.3863 85.9609L59.3232 85.9568L59.3004 85.9699L59.2372 85.9659L59.2144 85.979L59.1512 85.975L59.0924 85.9785L59.0696 85.9917L59.0064 85.9876L58.9477 85.9911L58.8889 85.9946L58.8301 85.9982L58.7713 86.0017L58.7125 86.0052L58.6537 86.0088L58.4306 86.0261C54.562 86.3134 52.5408 85.2705 52.3669 82.8975C52.2535 81.4019 52.9 80.1163 54.2944 79.0376C55.6888 77.9588 57.4294 77.3391 59.5204 77.1861C61.2979 77.0519 62.7896 77.2652 63.9865 77.8108C65.1834 78.3565 65.8394 79.1942 65.9184 80.3143C65.9727 81.0229 65.7633 81.6608 65.2975 82.2236C64.8318 82.7865 64.1432 83.1739 63.2165 83.3947L63.2753 83.3912ZM62.6751 92.3945C62.616 91.6075 62.3477 91.0022 61.8656 90.571C61.3834 90.1398 60.7467 89.9499 59.9673 90.0045C59.2391 90.06 58.6817 90.3413 58.3117 90.859C57.9372 91.3692 57.7812 92.0472 57.8382 92.8658C57.8984 93.6724 58.1516 94.2865 58.6065 94.7232C59.0614 95.16 59.6862 95.3467 60.4928 95.2865C61.221 95.231 61.7816 94.9378 62.1788 94.4144C62.5761 93.8911 62.7397 93.2087 62.6751 92.3945ZM61.5371 83.0668C62.5901 82.5907 63.0882 81.9787 63.0303 81.2113C62.9863 80.6082 62.6086 80.1472 61.9004 79.816C61.1923 79.4849 60.2955 79.3539 59.207 79.4349C58.0477 79.5163 57.1049 79.7971 56.3806 80.2457C55.6531 80.7062 55.3126 81.2576 55.3678 81.9151C55.4107 82.4985 55.7237 82.8652 56.2961 83.0314C56.8685 83.1976 57.7986 83.2283 59.0634 83.1367C59.9952 83.065 60.8237 83.0428 61.5371 83.0668Z" fill="#8A6687"/>
<path d="M41.5913 79.9655L44.6491 81.2411L41.6099 88.5305C41.249 89.3978 41.1638 90.0754 41.3587 90.5711C41.5537 91.0667 41.9942 91.4611 42.7044 91.7607C43.6928 92.1733 44.7228 92.1666 45.8186 91.7468L49.3771 83.2149L52.4349 84.4905L47.478 96.3944L44.2446 95.5344L45.0354 93.6384C43.3446 94.4321 41.7651 94.523 40.2967 93.911C39.0825 93.4058 38.2973 92.6427 37.9259 91.6306C37.562 90.6141 37.6386 89.465 38.1795 88.1897L41.6033 79.9687L41.5913 79.9655Z" fill="#8A6687"/>
</svg>
