<svg width="153" height="147" viewBox="0 0 153 147" fill="none" xmlns="http://www.w3.org/2000/svg">
<path d="M99.05 19.8029L95.4108 19.0102L97.3025 10.3807C97.5186 9.37185 97.4826 8.6152 97.1944 8.07473C96.9061 7.55227 96.3656 7.19196 95.591 7.02982C94.5821 6.81363 93.5012 7.02982 92.3662 7.64235L92.168 8.5071L90.1142 17.8392L86.4751 17.0465L88.3667 8.41702C88.5829 7.39013 88.5649 6.61546 88.2766 6.11102C87.9884 5.58857 87.4659 5.24627 86.6732 5.08413C85.5202 4.83191 84.4573 5.01207 83.4664 5.60658L81.1965 15.8935L77.5573 15.1008L80.674 0.976562L84.4213 1.28283L83.9709 3.28256C85.6283 2.21964 87.2858 1.87734 88.9432 2.25567C90.8168 2.67003 91.9338 3.76899 92.2941 5.53452C94.1497 4.23739 96.0053 3.80502 97.879 4.21938C99.2301 4.52564 100.203 5.19222 100.797 6.23713C101.392 7.28204 101.518 8.57916 101.176 10.1105L99.032 19.8389L99.05 19.8029Z" fill="#7C737D"/>
<path d="M108.274 24.2709L108.166 24.1988C106.4 24.7753 104.869 24.6492 103.554 23.8205C102.455 23.1179 101.752 22.2171 101.446 21.1001C101.14 19.9831 101.302 18.9202 101.915 17.9474C103.644 15.191 106.995 15.263 111.949 18.1636L112.129 17.8753C112.652 17.0466 112.85 16.326 112.688 15.7134C112.544 15.1009 112.021 14.5244 111.157 13.9839C109.968 13.2273 108.328 12.8129 106.256 12.7228L107.175 9.84033C109.337 9.84033 111.355 10.4529 113.228 11.6419C115.102 12.8129 116.165 14.074 116.453 15.4072C116.741 16.7403 116.327 18.2717 115.192 19.9651L112.418 24.3609C112.129 24.8293 112.003 25.1536 112.039 25.3518C112.093 25.55 112.346 25.8202 112.796 26.1625L111.066 28.3784C108.815 27.2795 107.878 25.9103 108.238 24.2528L108.274 24.2709ZM109.139 22.6495L110.922 19.821C109.265 19.0463 108.022 18.632 107.175 18.5779C106.328 18.5239 105.698 18.8121 105.283 19.4787C104.977 19.9651 104.905 20.4515 105.067 20.956C105.211 21.4604 105.572 21.8928 106.13 22.2351C107.031 22.8116 108.04 22.9377 109.157 22.6495H109.139Z" fill="#7C737D"/>
<path d="M112.904 30.6481C112.634 30.0175 112.508 29.387 112.562 28.7925C112.598 28.1979 112.832 27.6935 113.246 27.3152C113.715 26.8648 114.327 26.6306 115.084 26.6306C115.841 26.6306 116.579 26.8107 117.318 27.2071C117.066 26.3243 117.066 25.4415 117.318 24.5588C117.57 23.676 118.056 22.9013 118.777 22.2167C119.912 21.1538 121.263 20.6854 122.849 20.7935C124.416 20.9016 125.875 21.6763 127.208 23.1175C128.127 24.1084 128.83 25.3154 129.334 26.7387L132.253 29.369L129.983 31.693L128.433 29.3329C128.379 29.9815 127.983 30.6661 127.226 31.3687C126.127 32.3776 124.83 32.828 123.299 32.6838C121.768 32.5397 120.417 31.8191 119.209 30.522C118.777 30.0535 118.381 29.5131 118.038 28.9005C117.3 28.5402 116.741 28.5582 116.345 28.9366C116.057 29.2068 115.985 29.5671 116.147 29.9995C116.309 30.4319 116.777 31.0624 117.552 31.9092H117.57L117.588 31.9632H117.606L117.624 32.0173H117.642L117.66 32.0713L117.696 32.1253H117.714L117.732 32.1794H117.75L117.768 32.2334L117.804 32.2875H117.822L117.858 32.3595H117.876L117.912 32.4316H117.93L117.966 32.5037L118.002 32.5577H118.02L118.056 32.6298L118.093 32.6838L118.129 32.7379L118.165 32.7919L118.201 32.846L118.237 32.9L118.273 32.9541L118.453 33.1342C121.407 36.323 121.912 38.8272 119.966 40.6467C118.741 41.7997 117.156 42.142 115.228 41.6736C113.3 41.2052 111.535 40.1243 109.931 38.3948C108.58 36.9355 107.715 35.4763 107.337 34.035C106.977 32.5938 107.247 31.4408 108.166 30.576C108.76 30.0355 109.445 29.7653 110.274 29.7833C111.084 29.7833 111.913 30.1256 112.76 30.7922L112.904 30.6481ZM113.859 32.3956C112.706 31.8011 111.805 31.8011 111.174 32.3956C110.688 32.846 110.544 33.5125 110.742 34.3593C110.958 35.206 111.463 36.0888 112.291 36.9896C113.174 37.9444 114.075 38.5749 114.994 38.8992C115.913 39.2235 116.633 39.1154 117.174 38.611C117.66 38.1606 117.768 37.6381 117.498 37.0256C117.228 36.4131 116.615 35.5663 115.642 34.5214C114.922 33.7468 114.327 33.0441 113.841 32.4136L113.859 32.3956ZM121.227 24.847C120.579 25.4415 120.236 26.1081 120.2 26.8468C120.164 27.5674 120.435 28.27 121.047 28.9005C121.606 29.4951 122.236 29.7833 122.957 29.7473C123.677 29.7112 124.362 29.387 125.047 28.7564C125.713 28.1439 126.073 27.4773 126.127 26.7747C126.182 26.0721 125.911 25.3875 125.299 24.7209C124.74 24.1264 124.092 23.8381 123.353 23.8562C122.614 23.8742 121.912 24.2165 121.227 24.847Z" fill="#7C737D"/>
<path d="M127.154 46.1779L127.1 46.0698C125.281 45.7095 124.002 44.8448 123.281 43.4576C122.668 42.3046 122.506 41.1696 122.795 40.0526C123.083 38.9356 123.749 38.0889 124.758 37.5484C127.623 36.0171 130.505 37.7286 133.37 42.7009L133.676 42.5388C134.541 42.0704 135.063 41.5479 135.225 40.9354C135.388 40.3229 135.225 39.5842 134.757 38.6654C134.09 37.4223 132.883 36.2513 131.118 35.1343L133.352 33.0806C135.207 34.1615 136.667 35.6748 137.73 37.6385C138.774 39.5842 139.081 41.2056 138.666 42.5208C138.252 43.8179 137.135 44.9349 135.315 45.8717L130.721 48.3218C130.235 48.574 129.965 48.8082 129.911 49.0064C129.857 49.2046 129.929 49.5649 130.163 50.0873L127.551 51.1683C126.146 49.1145 126.001 47.439 127.136 46.1779H127.154ZM128.704 45.2051L131.658 43.6377C130.595 42.1605 129.731 41.1696 129.028 40.7012C128.325 40.2328 127.623 40.1787 126.938 40.539C126.434 40.8093 126.127 41.2056 126.019 41.7101C125.893 42.2325 126.001 42.773 126.308 43.3495C126.812 44.3043 127.623 44.9168 128.722 45.2051H128.704Z" fill="#7C737D"/>
<path d="M130.92 63.2748L127.893 51.2944L130.361 50.6639L140.792 55.8704L138.991 48.7722L142.053 47.9976L145.026 59.7077L142.612 60.3203L132.145 55.0957L134.018 62.5001L130.938 63.2748H130.92Z" fill="#7C737D"/>
<path d="M131.082 68.8415L130.83 65.1303L145.242 64.1574L146.035 67.8326L131.1 68.8595L131.082 68.8415ZM150.485 67.9587C149.8 68.0128 149.242 67.8506 148.809 67.4723C148.377 67.094 148.143 66.5535 148.089 65.8149C148.035 65.0942 148.197 64.5358 148.575 64.1034C148.953 63.671 149.476 63.4368 150.16 63.4008C150.827 63.3467 151.385 63.5089 151.818 63.8872C152.25 64.2655 152.502 64.806 152.538 65.5086C152.592 66.2472 152.43 66.8237 152.034 67.2561C151.638 67.6885 151.133 67.9227 150.449 67.9587H150.485Z" fill="#7C737D"/>
<path d="M129.641 84.8757L130.145 81.1825L138.919 82.3896C139.964 82.5337 140.72 82.4256 141.207 82.0833C141.693 81.741 141.981 81.1285 142.107 80.2818C142.27 79.0927 141.963 77.9757 141.207 76.9128L130.938 75.4896L131.442 71.7964L145.783 73.7781V77.5254L143.495 77.2191C144.846 78.8225 145.386 80.516 145.152 82.2815C144.954 83.7408 144.341 84.8217 143.35 85.5063C142.36 86.1909 141.08 86.4251 139.549 86.2269L129.641 84.8577V84.8757Z" fill="#7C737D"/>
<path d="M133.748 92.4779L133.658 92.4419C132.523 92.0455 131.478 92.0455 130.505 92.4419C129.533 92.8562 128.794 93.6489 128.271 94.8199C127.623 96.2792 127.425 97.8466 127.659 99.504L124.632 98.6933C124.488 97.0179 124.83 95.2523 125.641 93.3967C126.578 91.2528 127.965 89.8116 129.785 89.073C131.622 88.3163 133.586 88.4244 135.712 89.3432C137.874 90.28 139.333 91.7032 140.09 93.5769C140.846 95.4505 140.792 97.3782 139.91 99.3959C139.153 101.125 138.072 102.26 136.685 102.801C135.298 103.341 133.766 103.251 132.109 102.513C131.262 102.134 130.559 101.72 130.019 101.252L133.73 92.4779H133.748ZM135.694 93.4327L133.208 99.1617L133.442 99.2698C135.388 100.117 136.721 99.7022 137.477 98.0087C137.874 97.126 137.874 96.2612 137.513 95.4145C137.153 94.5857 136.541 93.9192 135.694 93.4327Z" fill="#7C737D"/>
<path d="M122.867 114.817C122.218 114.853 121.624 114.637 121.119 114.169C120.597 113.7 120.327 113.142 120.272 112.493C120.236 111.827 120.453 111.232 120.921 110.71C121.407 110.169 121.984 109.863 122.651 109.827C123.317 109.791 123.912 110.007 124.434 110.476C124.957 110.944 125.227 111.503 125.245 112.169C125.281 112.836 125.047 113.43 124.542 113.989C124.074 114.511 123.497 114.799 122.849 114.835L122.867 114.817Z" fill="#7C737D"/>
<path d="M109.661 122.24L109.607 122.15C108.941 121.159 108.094 120.528 107.067 120.294C106.04 120.042 104.977 120.24 103.86 120.889C102.473 121.681 101.392 122.834 100.581 124.312L98.6357 121.88C99.5184 120.456 100.834 119.231 102.599 118.204C104.617 117.033 106.581 116.691 108.508 117.178C110.418 117.664 111.967 118.907 113.12 120.907C114.291 122.943 114.634 124.942 114.147 126.906C113.661 128.87 112.454 130.401 110.562 131.482C108.923 132.419 107.391 132.707 105.95 132.311C104.509 131.914 103.338 130.941 102.437 129.374C101.969 128.581 101.662 127.825 101.5 127.122L109.679 122.258L109.661 122.24ZM110.67 124.168L105.283 127.32L105.41 127.537C106.472 129.374 107.806 129.824 109.409 128.906C110.238 128.419 110.76 127.735 110.976 126.834C111.193 125.933 111.084 125.05 110.688 124.168H110.67Z" fill="#7C737D"/>
<path d="M90.4746 138.544L92.0599 144.868L88.5649 146.255L83.3224 125.339L86.9255 124.438L87.2678 125.807C88.2226 124.276 89.3936 123.321 90.7808 122.979C92.6364 122.51 94.2939 122.816 95.7532 123.915C97.2124 125.014 98.2213 126.636 98.7798 128.852C99.3383 131.068 99.1041 133.067 98.0952 134.833C97.0863 136.598 95.573 137.733 93.5552 138.238C92.5284 138.49 91.5015 138.598 90.4385 138.526L90.4746 138.544ZM89.6639 135.301C90.5646 135.662 91.5195 135.716 92.5284 135.463C93.7174 135.157 94.5281 134.509 94.9965 133.482C95.4469 132.455 95.519 131.266 95.1767 129.933C94.8344 128.563 94.2398 127.554 93.3931 126.906C92.5464 126.257 91.5915 126.059 90.5106 126.329C89.4116 126.6 88.5469 127.23 87.8983 128.221V128.257V128.293V128.329V128.365V128.401V128.437V128.473V128.509V128.545V128.581V128.617V128.653V128.689V128.726V128.762V128.798V128.834V128.87V128.906V128.942V128.978V129.014V129.05V129.086V129.122V129.158V129.194V129.23V129.266V129.302V129.338V129.374V129.41V129.446V129.482V129.518V129.554V129.59V129.644L87.9163 129.68V129.716V129.752V129.788V129.824V129.86V129.897V129.933V129.969V130.005V130.041V130.095L87.9344 130.131V130.167V130.203V130.239V130.275V130.329L87.9524 130.365V130.401V130.437V130.473L87.9704 130.527V130.563V130.599V130.635L87.9884 130.689V130.725V130.761V130.815L88.0064 130.851V130.887V130.923V130.977L88.0244 131.013V131.05L88.0425 131.104V131.14V131.176V131.23L88.0605 131.266V131.32L88.0785 131.356V131.392L88.0965 131.446V131.482L88.1145 131.536V131.572V131.608V131.662L88.1325 131.698V131.752L88.1506 131.788V131.842L88.1686 131.878V131.932L88.1866 131.968V132.022L88.2046 132.058V132.112L88.2226 132.148V132.203L88.2406 132.239V132.293L88.2586 132.329V132.383L88.2767 132.419V132.473L88.2947 132.509V132.563L88.3127 132.599V132.653L88.3487 132.707V132.743L88.3667 132.797V132.833L88.3848 132.887V132.923L88.4028 132.977V133.031L88.4208 133.067V133.121L88.4568 133.175V133.211L88.4748 133.265V133.32L88.4928 133.356V133.41L88.5289 133.464V133.5L88.5469 133.554V133.608L88.5649 133.644V133.698L88.6009 133.752V133.788L88.619 133.842V133.896L88.655 133.95V133.986L88.673 134.04V134.094L88.709 134.148V134.184L88.7271 134.238V134.292L88.7631 134.346V134.382L88.7811 134.436V134.491L88.8171 134.545V134.599L88.8351 134.635V134.689L88.8712 134.743V134.797L88.9072 134.851V134.887L88.9252 134.941V134.995L88.9613 135.049V135.103L88.9973 135.157L89.0693 135.427L89.6639 135.301Z" fill="#7C737D"/>
<path d="M76.6205 125.393L80.3318 125.249L80.8542 139.679L77.161 140.346L76.6205 125.375V125.393ZM76.8908 144.814C76.8728 144.129 77.0349 143.57 77.4312 143.156C77.8276 142.742 78.3681 142.526 79.1067 142.49C79.8273 142.471 80.3858 142.634 80.8002 143.03C81.2145 143.408 81.4307 143.949 81.4668 144.651C81.4848 145.318 81.3046 145.876 80.9263 146.291C80.548 146.723 79.9895 146.939 79.2688 146.975C78.5302 146.993 77.9537 146.813 77.5393 146.417C77.125 146.021 76.9088 145.48 76.8908 144.814Z" fill="#7C737D"/>
<path d="M64.9824 124.474C66.1354 124.24 67.2704 124.186 68.4054 124.312C70.0628 124.51 71.2339 125.05 71.9365 125.933C72.6391 126.816 72.8733 128.095 72.603 129.771L71.5581 136.526L73.7741 137.049L73.3957 139.391L71.0537 139.841L70.6033 143.03L67.0362 142.598L67.5046 139.229L63.4331 138.742L63.9015 135.716L68.0991 136.22L69.09 129.572C69.2701 128.257 68.7117 127.519 67.4145 127.374C66.784 127.302 66.0273 127.356 65.1085 127.537L64.9644 124.474H64.9824Z" fill="#7C737D"/>
<path d="M47.8135 126.131C48.6242 123.951 49.9574 122.438 51.795 121.609C53.6326 120.781 55.5602 120.745 57.596 121.501C59.6318 122.258 61.037 123.519 61.8297 125.302C62.6224 127.086 62.6044 129.086 61.7756 131.302C60.9469 133.5 59.6318 135.031 57.7942 135.86C55.9746 136.688 54.0289 136.724 51.9751 135.95C49.9574 135.193 48.5341 133.914 47.7414 132.13C46.9488 130.347 46.9668 128.329 47.8135 126.113V126.131ZM53.3984 124.546C52.4976 125.122 51.777 126.077 51.2905 127.41C50.7861 128.743 50.696 129.951 51.0203 131.013C51.3446 132.076 52.0472 132.815 53.1461 133.229C54.2631 133.644 55.29 133.572 56.2088 132.977C57.1276 132.383 57.8302 131.428 58.3346 130.095C58.8211 128.779 58.9111 127.59 58.5869 126.546C58.2626 125.501 57.542 124.762 56.425 124.33C55.326 123.915 54.3172 123.987 53.4164 124.564L53.3984 124.546Z" fill="#7C737D"/>
<path d="M40.6433 123.321L45.7597 115.935L48.8224 118.06L40.5892 129.933L37.2203 128.257L38.5715 126.312C36.878 127.086 35.4007 127.014 34.1036 126.131C33.2929 125.573 32.7164 124.888 32.3561 124.114L34.9323 121.844C35.2926 122.546 35.743 123.105 36.3195 123.501C37.4365 124.276 38.8777 124.222 40.6433 123.357V123.321Z" fill="#7C737D"/>
<path d="M23.1321 122.168C23.6185 121.663 24.141 121.411 24.6995 121.411C25.2579 121.411 25.8164 121.663 26.3389 122.168C26.8433 122.672 27.1136 123.195 27.1136 123.753C27.1136 124.312 26.8793 124.852 26.3929 125.338C25.9245 125.825 25.4021 126.077 24.8256 126.077C24.2491 126.077 23.7086 125.843 23.2042 125.356C22.6817 124.834 22.4115 124.294 22.4115 123.735C22.4115 123.177 22.6457 122.636 23.1141 122.15L23.1321 122.168ZM37.0041 108.566L39.6705 111.16L29.5817 121.501L26.5371 119.285L36.9861 108.566H37.0041Z" fill="#7C737D"/>
<path d="M28.9872 101.072L29.0592 101.18C30.9148 101.324 32.266 102.044 33.1668 103.324C33.9054 104.387 34.2117 105.503 34.0495 106.656C33.8874 107.809 33.3289 108.71 32.3921 109.377C29.7258 111.232 26.6631 109.863 23.2402 105.269L22.9519 105.467C22.1412 106.026 21.6908 106.62 21.6007 107.233C21.5107 107.846 21.7449 108.584 22.3394 109.431C23.1501 110.584 24.4832 111.611 26.3569 112.512L24.3751 114.8C22.3934 113.953 20.772 112.602 19.5109 110.782C18.2498 108.962 17.7454 107.395 17.9976 106.044C18.2498 104.693 19.2227 103.468 20.9342 102.333L25.2039 99.3602C25.6543 99.0539 25.8885 98.7837 25.9245 98.5855C25.9605 98.3873 25.8344 98.027 25.5462 97.5406L28.0143 96.1714C29.6537 98.045 29.978 99.6844 29.0052 101.09L28.9872 101.072ZM27.5639 102.225L24.8255 104.134C26.0506 105.485 27.0415 106.35 27.7801 106.747C28.5368 107.125 29.2214 107.107 29.8699 106.656C30.3383 106.332 30.5905 105.9 30.6626 105.377C30.7347 104.855 30.5545 104.314 30.1942 103.792C29.5817 102.909 28.7169 102.387 27.5819 102.225H27.5639Z" fill="#7C737D"/>
<path d="M25.7263 91.0728L27.2216 94.4777L7.94491 102.981L5.9812 99.7743L25.7083 91.0728H25.7263Z" fill="#7C737D"/>
<path d="M7.31435 73.6873L0.810704 74.2278L0 70.5706L21.4927 68.769L21.7989 72.4803L20.3937 72.6064C21.7629 73.7954 22.5015 75.1105 22.6276 76.5338C22.7898 78.4434 22.2133 80.0288 20.9162 81.2899C19.619 82.569 17.8175 83.2896 15.5655 83.4878C13.2775 83.686 11.3499 83.1275 9.76448 81.8484C8.1791 80.5693 7.29634 78.8938 7.13419 76.822C7.04412 75.7771 7.13419 74.7322 7.35038 73.7053L7.31435 73.6873ZM10.6472 73.3991C10.1428 74.2278 9.94464 75.1646 10.0347 76.2095C10.1428 77.4165 10.6472 78.3354 11.6021 78.9659C12.5569 79.5964 13.7099 79.8306 15.0791 79.7226C16.4843 79.5964 17.5833 79.1821 18.3579 78.4434C19.1326 77.7048 19.4749 76.786 19.3848 75.6871C19.2948 74.5521 18.8083 73.5972 17.9436 72.8045H17.9075H17.8715H17.8355H17.7995H17.7634H17.7274H17.6914H17.6553H17.6193H17.5833H17.5472H17.5112H17.4752H17.4391H17.4031H17.3671H17.331H17.295H17.259H17.223H17.1869H17.1509H17.1149H17.0788H17.0428H17.0068H16.9707H16.9347H16.8987H16.8626H16.8266H16.7906H16.7545H16.7185H16.6825H16.6465H16.6104H16.5744H16.5203H16.4843H16.4483H16.4123H16.3762H16.3402H16.3042H16.2681H16.2321H16.1961H16.16H16.124H16.0519H16.0159H15.9799H15.9438H15.9078H15.8718H15.7997H15.7637H15.7277H15.6916H15.6556H15.5835H15.5475H15.5115H15.4754H15.4034H15.3673H15.3313H15.2773H15.2412H15.2052H15.1692H15.0971H15.0611H15.025H14.953H14.917H14.8809H14.8089H14.7728H14.7008H14.6647H14.6287H14.5566H14.5206H14.4485H14.4125H14.3765H14.3044H14.2684H14.1963H14.1603H14.0882H14.0522H13.9982H13.9621H13.8901H13.854H13.8H13.764H13.6919H13.6559H13.5838H13.5478H13.4757H13.4397H13.3676H13.3316H13.2775H13.2415H13.1694H13.0974H13.0613H12.9893H12.9532H12.8812H12.8452H12.7911H12.719H12.683H12.629H12.5569H12.5209H12.4488H12.3948H12.3587H12.2867H12.2146H12.1786H12.1245H12.0525H12.0164H11.9444H11.8903H11.8543H11.7822H11.7102H11.6561H11.6201H11.548H11.476H11.4219H11.3859H11.3138H11.2418H11.1877H11.1517H11.0796H11.0076H10.9535H10.8814H10.8454H10.7734H10.7193H10.6472H10.5752H10.5392H10.4851H10.413H10.341H10.2869H10.2149H9.92662L10.6472 73.3991Z" fill="#7C737D"/>
<path d="M15.8177 62.1578H15.9078C17.0968 62.3199 18.1237 62.0857 18.9885 61.4732C19.8532 60.8607 20.3937 59.9239 20.6459 58.6628C20.9522 57.0954 20.8081 55.528 20.1955 53.9607L23.3122 54.0868C23.8167 55.6902 23.8707 57.4737 23.4924 59.4915C23.06 61.7795 22.0151 63.491 20.3937 64.6259C18.7723 65.7609 16.8266 66.1032 14.5566 65.6709C12.2506 65.2205 10.5031 64.1756 9.35011 62.5181C8.19711 60.8607 7.81878 58.951 8.23314 56.8072C8.59346 54.9515 9.38615 53.6004 10.6292 52.7716C11.8723 51.9429 13.3856 51.6907 15.1512 52.033C16.0519 52.2132 16.8266 52.4654 17.4752 52.8077L15.7997 62.1758L15.8177 62.1578ZM13.6919 61.6534L14.8449 55.51L14.5927 55.456C12.5029 55.0596 11.2958 55.7622 10.9355 57.5818C10.7553 58.5367 10.9355 59.3654 11.476 60.104C12.0164 60.8427 12.7551 61.3471 13.6919 61.6353V61.6534Z" fill="#7C737D"/>
<path d="M25.5822 40.6471C26.8433 41.2416 27.636 42.2144 27.9603 43.5836C28.2846 44.9528 28.0684 46.4661 27.2937 48.1235C26.3749 50.0873 25.1679 51.6006 23.6726 52.6635L21.3846 50.6998C22.8799 49.6369 23.9788 48.3397 24.6995 46.8264C25.0057 46.1598 25.1318 45.5653 25.0598 45.0609C24.9877 44.5564 24.7175 44.1961 24.2671 43.9799C23.7987 43.7638 23.3303 43.7998 22.8799 44.1241C22.4295 44.4484 21.889 45.0068 21.2585 45.7995C20.2676 47.0606 19.2948 47.9254 18.3039 48.4298C17.313 48.9162 16.2501 48.8982 15.0791 48.3577C13.836 47.7812 13.0794 46.8264 12.7731 45.5113C12.4668 44.1961 12.683 42.7549 13.4217 41.1695C14.2684 39.3499 15.3673 37.9087 16.7185 36.8638L19.0065 38.8275C17.6193 39.8904 16.6104 41.1155 15.9799 42.4666C15.3673 43.7818 15.4935 44.6465 16.3762 45.0609C16.8266 45.2771 17.277 45.223 17.7094 44.8987C18.1418 44.5745 18.6822 44.016 19.3308 43.2053C20.3397 41.9442 21.3305 41.0614 22.3214 40.575C23.3122 40.0886 24.3932 40.1246 25.5642 40.6651L25.5822 40.6471Z" fill="#7C737D"/>
<path d="M17.3671 26.1081C17.9256 26.5045 18.2678 26.9909 18.3579 27.5494C18.448 28.1079 18.2859 28.6844 17.8535 29.2789C17.4391 29.8554 16.9527 30.1977 16.3942 30.2878C15.8357 30.3778 15.2773 30.2337 14.7188 29.8374C14.1783 29.441 13.836 28.9726 13.7459 28.4141C13.6378 27.8557 13.8 27.2792 14.2143 26.7027C14.6467 26.1081 15.1331 25.7658 15.7096 25.6758C16.2681 25.5857 16.8266 25.7298 17.3851 26.1262L17.3671 26.1081ZM32.9506 37.6922L30.8067 40.7188L19.0245 32.3596L20.736 29.0087L32.9506 37.6742V37.6922Z" fill="#7C737D"/>
<path d="M36.0313 34.6657C35.4008 34.954 34.7882 35.0621 34.1757 35.0261C33.5812 34.99 33.0767 34.7558 32.6804 34.3415C32.23 33.8731 31.9958 33.2605 31.9778 32.5219C31.9598 31.7832 32.1399 31.0266 32.5363 30.2879C31.6535 30.5402 30.7707 30.5582 29.888 30.306C29.0052 30.0537 28.2125 29.5673 27.5459 28.8647C26.483 27.7297 25.9966 26.3786 26.0867 24.8112C26.1948 23.2438 26.9514 21.7846 28.3747 20.4334C29.3475 19.5146 30.5545 18.794 31.9778 18.2715L34.572 15.335L36.9141 17.5869L34.572 19.1543C35.2206 19.2083 35.9052 19.6047 36.6078 20.3433C37.6347 21.4242 38.0851 22.7394 37.959 24.2527C37.8329 25.784 37.1303 27.1532 35.8331 28.3603C35.3827 28.7926 34.8423 29.189 34.2117 29.5493C33.8694 30.2879 33.8874 30.8464 34.2478 31.2428C34.518 31.531 34.8783 31.5851 35.3107 31.4229C35.7431 31.2608 36.3736 30.7744 37.2023 29.9997H37.2203L37.2384 29.9637H37.2564L37.2744 29.9276H37.2924L37.3104 29.8916L37.3645 29.8556H37.3825L37.4005 29.8195H37.4185L37.4365 29.7835L37.4906 29.7475H37.5086L37.5626 29.6754H37.5806L37.6347 29.6034H37.6527L37.7068 29.5313L37.7608 29.4953H37.7788L37.8329 29.4232L37.8869 29.3872L37.941 29.3511L37.995 29.3151L38.0491 29.2791L38.1031 29.243L38.1571 29.207L38.3373 29.0269C41.49 26.0363 43.9942 25.5138 45.8318 27.4415C46.9848 28.6665 47.3451 30.2339 46.8947 32.1616C46.4443 34.0892 45.3814 35.8548 43.6699 37.4762C42.2287 38.8454 40.7694 39.7281 39.3462 40.1065C37.9049 40.4848 36.7519 40.2146 35.8872 39.2958C35.3467 38.7193 35.0585 38.0167 35.0765 37.206C35.0765 36.3952 35.4188 35.5485 36.0493 34.7198L36.0313 34.6657ZM30.1582 26.4146C30.7707 27.0631 31.4373 27.3874 32.1579 27.4235C32.8786 27.4595 33.5632 27.1712 34.2117 26.5587C34.8062 26.0002 35.0765 25.3517 35.0404 24.649C35.0044 23.9464 34.6621 23.2438 34.0316 22.5773C33.419 21.9287 32.7525 21.5684 32.0498 21.5143C31.3472 21.4603 30.6626 21.7485 30.0141 22.3611C29.4196 22.9195 29.1313 23.5681 29.1673 24.3068C29.2034 25.0454 29.5277 25.748 30.1762 26.4146H30.1582ZM37.7608 33.7109C37.1843 34.8639 37.1843 35.7647 37.7608 36.3952C38.2292 36.8817 38.8778 37.0258 39.7425 36.8096C40.6073 36.5934 41.472 36.071 42.3548 35.2242C43.2916 34.3235 43.9222 33.4227 44.2284 32.5039C44.5347 31.5851 44.4446 30.8644 43.9222 30.324C43.4718 29.8556 42.9493 29.7475 42.3188 30.0177C41.7062 30.2879 40.8775 30.9005 39.8326 31.8913C39.0759 32.612 38.3733 33.2245 37.7248 33.7109H37.7608Z" fill="#7C737D"/>
<path d="M56.9655 19.2987L53.6686 21.0282L49.543 13.1914C49.0566 12.2546 48.5341 11.6961 47.9576 11.5159C47.3991 11.3177 46.7326 11.4258 45.9759 11.8222C44.913 12.3807 44.1743 13.2814 43.76 14.5245L48.5882 23.7125L45.2913 25.442L38.5535 12.6329L41.6161 10.453L42.6791 12.4888C43.2015 10.453 44.2464 9.02975 45.8318 8.20104C47.1289 7.51644 48.354 7.37232 49.507 7.78667C50.642 8.20103 51.5788 9.0838 52.2994 10.471L56.9474 19.3167L56.9655 19.2987Z" fill="#7C737D"/>
<path d="M68.4594 7.24616C68.9819 7.62449 69.3062 8.16496 69.4143 8.84955C69.5224 9.53415 69.3782 10.1467 68.9999 10.6871C68.6216 11.2276 68.0631 11.5519 67.3605 11.66C66.6398 11.7681 66.0093 11.624 65.4688 11.2276C64.9284 10.8313 64.6041 10.2908 64.496 9.60621C64.3879 8.92161 64.532 8.30908 64.9284 7.78663C65.3247 7.26417 65.8832 6.93989 66.6218 6.8318C67.3244 6.7237 67.937 6.86783 68.4774 7.24616H68.4594Z" fill="#7C737D"/>
</svg>
