<svg width="115" height="111" viewBox="0 0 115 111" fill="none" xmlns="http://www.w3.org/2000/svg">
<path d="M61.5299 17.5097L58.6781 17.3214L59.7543 1.17883L62.633 0.977051L61.5299 17.4962V17.5097Z" fill="#4F16A3"/>
<path d="M75.6815 15.1153C75.1838 16.8371 74.2556 18.0747 72.9103 18.8146C71.5517 19.5545 70.072 19.7024 68.4846 19.2451C66.8838 18.7877 65.7269 17.8999 65.014 16.5815C64.301 15.2632 64.1934 13.7297 64.7046 11.9809C65.2023 10.2456 66.1305 8.99456 67.4757 8.2547C68.8209 7.51483 70.3006 7.36686 71.9149 7.83768C73.5157 8.29505 74.6726 9.18289 75.3855 10.5146C76.0985 11.8464 76.2061 13.3665 75.6949 15.1287L75.6815 15.1153ZM71.5113 16.6757C72.1705 16.1914 72.6548 15.4112 72.9642 14.3619C73.2736 13.3127 73.2601 12.3845 72.9642 11.5908C72.6682 10.7971 72.0629 10.2725 71.2019 10.0304C70.3141 9.77478 69.5473 9.89585 68.8747 10.407C68.2021 10.9182 67.7178 11.6984 67.4219 12.7477C67.1259 13.7835 67.1259 14.6983 67.4353 15.4919C67.7447 16.2721 68.3501 16.7968 69.2245 17.0524C70.0989 17.308 70.8522 17.1869 71.5248 16.6892L71.5113 16.6757Z" fill="#4F16A3"/>
<path d="M75.9371 22.1506C75.6143 21.7336 75.3991 21.3032 75.3183 20.8458C75.2376 20.3884 75.3183 19.9848 75.547 19.6082C75.8161 19.1912 76.2196 18.8952 76.7712 18.7338C77.3227 18.5724 77.9146 18.5724 78.5468 18.7338C78.1836 18.1285 78.0222 17.4693 78.0357 16.7563C78.0491 16.0568 78.2644 15.3842 78.6679 14.7385C79.3002 13.7296 80.2149 13.1108 81.4121 12.8956C82.5959 12.6804 83.8335 12.9628 85.098 13.77C85.9724 14.3215 86.7257 15.0883 87.3849 16.0434L90.0618 17.4289L88.8243 19.6082L87.2234 18.1554C87.3176 18.6531 87.1427 19.2315 86.7257 19.9041C86.1069 20.8727 85.2191 21.4511 84.0622 21.6395C82.9053 21.8278 81.7484 21.5587 80.605 20.8323C80.2015 20.5767 79.7979 20.2539 79.4212 19.8503C78.8024 19.7293 78.3854 19.8503 78.1702 20.2001C78.0088 20.4557 78.0222 20.7382 78.2374 21.0341C78.4392 21.3301 78.9101 21.7067 79.6499 22.1775H79.6768L79.7037 22.2044H79.7306L79.7575 22.2313H79.7844L79.8113 22.2582L79.8517 22.2852H79.8786L79.9055 22.3121H79.9324L79.9593 22.339L79.9997 22.3659H80.0266L80.0669 22.4062H80.0938L80.1342 22.4466H80.1611L80.2015 22.4869L80.2418 22.5138H80.2687L80.3091 22.5542L80.3494 22.5811L80.3898 22.608L80.4301 22.6349L80.4705 22.6618L80.5109 22.6887L80.5512 22.7156L80.7126 22.8232C83.5376 24.6124 84.3985 26.3746 83.3089 28.0965C82.6228 29.1861 81.5198 29.7511 79.9997 29.778C78.4796 29.8049 76.9595 29.3475 75.426 28.379C74.1346 27.5584 73.2064 26.6436 72.6548 25.6482C72.1033 24.6527 72.0898 23.738 72.601 22.9174C72.9239 22.3928 73.3947 22.0699 74.0135 21.9219C74.6188 21.774 75.3049 21.8547 76.0582 22.1775L75.9371 22.1506ZM76.9864 23.2672C76.0179 23.0519 75.3452 23.2268 74.9955 23.7783C74.713 24.2088 74.7399 24.7334 75.0628 25.3253C75.3856 25.9172 75.9371 26.4688 76.7308 26.9665C77.5783 27.5046 78.372 27.8005 79.1118 27.8543C79.8517 27.9081 80.3763 27.7064 80.6723 27.2221C80.9413 26.8051 80.9144 26.388 80.605 25.971C80.2956 25.5675 79.6634 25.0697 78.7352 24.4778C78.0491 24.0474 77.4707 23.6438 76.9864 23.2537V23.2672ZM80.9817 16.2183C80.6185 16.7967 80.4974 17.3482 80.605 17.8998C80.7126 18.4513 81.0624 18.9087 81.6274 19.2719C82.1655 19.6082 82.6901 19.6889 83.2147 19.5275C83.7394 19.366 84.1967 18.9759 84.5734 18.384C84.95 17.7922 85.0846 17.2406 84.9904 16.7025C84.8962 16.1644 84.5599 15.7205 83.968 15.3439C83.43 15.0076 82.9053 14.9269 82.3538 15.0883C81.8023 15.2497 81.3449 15.6398 80.9682 16.2317L80.9817 16.2183Z" fill="#4F16A3"/>
<path d="M95.8462 31.6209C94.501 32.8047 93.0616 33.3562 91.5146 33.2621C89.9676 33.1679 88.6493 32.4953 87.5462 31.2443C86.4432 29.9932 85.9454 28.6346 86.0396 27.1414C86.1338 25.6482 86.8736 24.303 88.2323 23.0923C89.5775 21.8951 91.0303 21.3435 92.5639 21.4242C94.0974 21.5184 95.4292 22.191 96.5457 23.442C97.6488 24.6796 98.1465 26.0518 98.0389 27.5584C97.9313 29.0516 97.1914 30.4102 95.8327 31.6209H95.8462ZM91.4877 30.6927C92.3083 30.6389 93.1289 30.2354 93.9494 29.5089C94.77 28.7825 95.2678 28.0023 95.4292 27.1548C95.5906 26.3208 95.3754 25.5675 94.77 24.8814C94.1647 24.1954 93.4383 23.886 92.6042 23.9532C91.7702 24.0205 90.9496 24.424 90.1291 25.1505C89.3219 25.8634 88.8376 26.6436 88.6762 27.4777C88.5148 28.3117 88.7435 29.065 89.3488 29.7511C89.9542 30.4237 90.6537 30.7331 91.4743 30.6793L91.4877 30.6927Z" fill="#4F16A3"/>
<path d="M102.29 41.2122C102.101 41.6696 101.752 42.0059 101.254 42.2077C100.756 42.4095 100.285 42.4095 99.8146 42.2211C99.3438 42.0328 99.0075 41.683 98.7923 41.1719C98.577 40.6472 98.5636 40.1495 98.7654 39.6787C98.9671 39.2079 99.3035 38.8716 99.8012 38.6698C100.299 38.468 100.77 38.468 101.241 38.6698C101.711 38.8716 102.048 39.2348 102.263 39.7594C102.465 40.2706 102.478 40.7548 102.29 41.2122Z" fill="#4F16A3"/>
<path d="M97.9716 54.1398L97.595 51.3014L113.63 49.1895L114.383 51.974L97.9582 54.1398H97.9716Z" fill="#4F16A3"/>
<path d="M99.2362 62.3993V62.3052C98.2004 61.3366 97.7161 60.247 97.7968 59.0632C97.8641 58.0678 98.2138 57.2606 98.8595 56.6418C99.5052 56.023 100.272 55.7405 101.16 55.8078C103.662 55.9692 104.846 58.2426 104.711 62.6549H104.98C105.734 62.7222 106.299 62.5742 106.648 62.2514C106.998 61.9285 107.2 61.3635 107.254 60.5833C107.321 59.5071 106.998 58.2426 106.299 56.8167L108.585 56.3728C109.366 57.8256 109.702 59.413 109.608 61.1214C109.5 62.8164 109.056 64.0001 108.263 64.6862C107.469 65.3723 106.285 65.6547 104.725 65.5202L100.743 65.2781C100.326 65.2512 100.057 65.2781 99.9357 65.3992C99.8146 65.5202 99.7205 65.7758 99.6666 66.2063L97.5278 65.8565C97.4336 63.9463 98.012 62.8029 99.2631 62.4262L99.2362 62.3993ZM100.649 62.3859L103.218 62.5473C103.124 61.1483 102.949 60.1528 102.68 59.5609C102.411 58.9691 101.98 58.6597 101.375 58.6193C100.945 58.5924 100.581 58.7269 100.299 59.0094C100.016 59.2919 99.855 59.6955 99.8281 60.1932C99.7743 61.0138 100.057 61.7402 100.662 62.3724L100.649 62.3859Z" fill="#4F16A3"/>
<path d="M94.1378 76.4703L95.0929 73.7799L101.51 76.0398C102.276 76.3089 102.855 76.3492 103.272 76.1609C103.689 75.9726 104.012 75.569 104.227 74.9502C104.536 74.0758 104.482 73.188 104.065 72.2732L96.5457 69.6232L97.5008 66.9327L107.98 70.6321L107.402 73.457L105.734 72.8651C106.5 74.2776 106.662 75.6362 106.204 76.9277C105.828 77.9904 105.209 78.7033 104.361 79.08C103.5 79.4432 102.518 79.4297 101.388 79.0262L94.1513 76.4703H94.1378Z" fill="#4F16A3"/>
<path d="M97.9044 90.6623L101.94 93.6352L100.555 96.1642L87.21 86.3576L88.905 84.0573L89.7794 84.703C89.591 83.3174 89.8197 82.1874 90.4789 81.3131C91.3533 80.1293 92.4832 79.497 93.8823 79.4298C95.2813 79.3625 96.6803 79.8333 98.0793 80.8691C99.4918 81.9184 100.339 83.1963 100.608 84.7433C100.877 86.2769 100.541 87.7028 99.5994 88.9808C99.1151 89.6265 98.5501 90.1914 97.9044 90.6757V90.6623ZM95.8328 89.1422C96.5323 88.9135 97.1242 88.483 97.6085 87.8373C98.16 87.084 98.3215 86.2903 98.0928 85.4563C97.8641 84.6223 97.3125 83.8959 96.4651 83.2636C95.5907 82.6179 94.7432 82.322 93.9226 82.3489C93.102 82.3758 92.4429 82.739 91.9317 83.425C91.4205 84.1245 91.2053 84.9317 91.3129 85.8195H91.3264L91.3398 85.8464H91.3533L91.3667 85.8733H91.3802L91.3936 85.9002H91.4071L91.4205 85.9271H91.434L91.4474 85.954H91.4609L91.4743 85.9809H91.4878L91.5012 86.0078H91.5147L91.5281 86.0347H91.5416L91.555 86.0616H91.5685L91.582 86.0885H91.5954L91.6089 86.1155H91.6223L91.6358 86.1424H91.6492L91.6627 86.1693H91.6761L91.6896 86.1962H91.703L91.7165 86.2231H91.7299L91.7434 86.25H91.7568L91.7703 86.2769H91.7837L91.7972 86.3038H91.8106L91.8375 86.3307L91.8779 86.3576H91.8913L91.9048 86.3845H91.9183L91.9317 86.4114H91.9452L91.9586 86.4383H91.9721L91.9855 86.4652H91.999L92.0124 86.4921H92.0259L92.0662 86.5325H92.0797L92.0931 86.5594H92.1066L92.12 86.5863H92.1335L92.1738 86.6266H92.1873L92.2008 86.6535H92.2142L92.2277 86.6804L92.268 86.7073H92.2815L92.2949 86.7343H92.3084L92.3487 86.7746H92.3622L92.3756 86.8015L92.416 86.8284H92.4294L92.4429 86.8553H92.4563L92.4967 86.8957H92.5101L92.5236 86.9226L92.564 86.9495H92.5774L92.5909 86.9764L92.6312 87.0033H92.6447L92.685 87.0436H92.6985L92.7119 87.0706L92.7523 87.0975H92.7657L92.8061 87.1378H92.8195L92.833 87.1647L92.8734 87.1916H92.8868L92.9272 87.232H92.9406L92.981 87.2723H92.9944L93.0348 87.3127H93.0482L93.0886 87.353H93.102L93.1424 87.3934H93.1558L93.1962 87.4338H93.2097L93.25 87.4741H93.2635L93.3038 87.5145H93.3173L93.3576 87.5548H93.3711L93.4114 87.5952H93.4249L93.4653 87.6355L93.5056 87.6624H93.5191L93.5594 87.7028H93.5729L93.6132 87.7432H93.6267L93.667 87.7835L93.7074 87.8104H93.7208L93.7612 87.8508L93.8016 87.8777H93.815L93.8554 87.918L93.8957 87.9449H93.9092L93.9495 87.9853L93.9899 88.0122H94.0033L94.0437 88.0526L94.084 88.0795H94.0975L94.1379 88.1198L94.1782 88.1467H94.1917L94.232 88.1871L94.2724 88.214L94.3127 88.2409H94.3262L94.3665 88.2812L94.4069 88.3082L94.4472 88.3351H94.4607L94.5011 88.3754L94.5414 88.4023L94.5818 88.4292H94.5952L94.6356 88.4696L94.6759 88.4965L94.7163 88.5234L94.7567 88.5503H94.7701L94.8105 88.5906L94.8508 88.6175L94.8912 88.6445L94.9315 88.6714H94.945L94.9853 88.7117L95.0257 88.7386L95.066 88.7655L95.1064 88.7924L95.1468 88.8193L95.3216 88.9538L95.8328 89.1422Z" fill="#4F16A3"/>
<path d="M83.2954 89.5995L85.4343 87.7028L92.7791 96.0027L90.9093 98.2088L83.2819 89.5995H83.2954ZM92.9271 101.007C92.5773 100.603 92.4159 100.186 92.4428 99.7558C92.4697 99.3254 92.6984 98.9218 93.1154 98.5451C93.5324 98.1819 93.9494 98.0071 94.3799 98.034C94.8104 98.0609 95.2005 98.2761 95.5637 98.6662C95.9 99.0563 96.0614 99.4599 96.048 99.9038C96.0345 100.348 95.8058 100.738 95.4023 101.101C94.9852 101.478 94.5548 101.653 94.1109 101.612C93.6669 101.585 93.2768 101.37 92.9405 100.98L92.9271 101.007Z" fill="#4F16A3"/>
<path d="M72.8969 96.1641L75.3856 94.7651L78.7217 100.698C79.1118 101.397 79.5288 101.814 79.9727 101.949C80.4032 102.083 80.9144 101.989 81.4928 101.666C82.2999 101.209 82.838 100.509 83.134 99.5406L79.2194 92.5993L81.708 91.2003L87.1561 100.886L84.8558 102.621L83.9949 101.074C83.6451 102.648 82.8649 103.765 81.6677 104.437C80.6857 104.989 79.744 105.123 78.8696 104.841C77.9818 104.558 77.2419 103.886 76.6635 102.85L72.8969 96.1641Z" fill="#4F16A3"/>
<path d="M69.9508 96.5812C70.4755 96.635 70.9328 96.7964 71.323 97.052C71.7131 97.3076 71.9418 97.6573 72.0494 98.0743C72.157 98.5586 72.0897 99.0563 71.8072 99.5541C71.5382 100.052 71.1212 100.482 70.5696 100.819C71.2557 100.993 71.8476 101.33 72.3319 101.841C72.8161 102.352 73.1524 102.971 73.3273 103.711C73.5964 104.868 73.3946 105.957 72.722 106.966C72.0494 107.975 70.9732 108.648 69.5069 108.984C68.498 109.213 67.4218 109.226 66.2784 109.011L63.4131 109.953L62.7271 107.558L64.8794 107.424C64.4624 107.141 64.1664 106.616 63.9916 105.836C63.736 104.72 63.9378 103.684 64.6238 102.715C65.2964 101.76 66.3053 101.115 67.6236 100.805C68.0945 100.697 68.6056 100.644 69.1572 100.644C69.6683 100.294 69.8836 99.9173 69.7894 99.5003C69.7222 99.2043 69.5069 99.0294 69.1572 98.9622C68.8074 98.9084 68.2021 98.9622 67.3546 99.1774H67.3277H67.3008H67.2739H67.247H67.2201H67.1932H67.1394L67.1124 99.1909H67.0855H67.0586H67.0317L66.9779 99.2043H66.951L66.8972 99.2178H66.8703L66.8165 99.2312H66.7896L66.7358 99.2447H66.6954L66.6685 99.2581H66.6147L66.5609 99.285H66.5071L66.4533 99.3119H66.4129L66.3591 99.3388H66.3053L66.117 99.3926C62.8616 100.146 61.0052 99.5272 60.5344 97.5362C60.2384 96.2852 60.6151 95.1014 61.6643 93.9983C62.7136 92.8953 64.1126 92.142 65.8749 91.7249C67.368 91.3752 68.6594 91.3483 69.7625 91.6577C70.8656 91.9671 71.5247 92.5859 71.74 93.5275C71.8745 94.1194 71.7938 94.6979 71.4709 95.2359C71.1481 95.774 70.61 96.2045 69.8567 96.5139L69.9508 96.5812ZM68.4308 96.5408C69.2648 96.0027 69.6145 95.4108 69.4531 94.7651C69.332 94.2674 68.9554 93.9176 68.3097 93.7293C67.664 93.541 66.8838 93.5544 65.969 93.7697C65.0005 93.9984 64.2337 94.3481 63.6687 94.8458C63.1037 95.3301 62.9019 95.8547 63.023 96.4063C63.1306 96.8906 63.4535 97.173 63.9647 97.2269C64.4758 97.2941 65.2695 97.2 66.3322 96.9444C67.1124 96.756 67.812 96.635 68.4308 96.5543V96.5408ZM70.6369 104.33C70.4889 103.67 70.1661 103.186 69.7087 102.877C69.2513 102.567 68.6729 102.5 68.0137 102.648C67.3949 102.796 66.9645 103.105 66.7223 103.603C66.4667 104.087 66.4264 104.679 66.5878 105.379C66.7492 106.051 67.0452 106.549 67.4891 106.859C67.933 107.168 68.498 107.249 69.1706 107.087C69.7894 106.939 70.2199 106.616 70.4889 106.119C70.758 105.621 70.7983 105.016 70.6369 104.33Z" fill="#4F16A3"/>
<path d="M50.6203 108.594C49.4903 109.361 48.3738 109.643 47.2976 109.455C45.8448 109.199 44.7821 108.459 44.0825 107.235C43.383 106.011 43.1947 104.545 43.4907 102.85C43.8001 101.115 44.5803 99.7962 45.8448 98.8681C47.1093 97.9399 48.5217 97.6305 50.0956 97.8995C50.9835 98.0609 51.7502 98.3031 52.3825 98.6259L53.3107 93.4065L56.1222 93.9042L53.2434 110.087L50.3647 109.966L50.6068 108.58L50.6203 108.594ZM50.9566 106.724V106.697V106.67V106.643V106.616V106.59V106.563V106.536V106.509V106.482V106.455V106.428V106.401V106.374V106.347V106.321V106.294V106.267V106.24V106.213V106.186V106.159V106.132V106.105V106.078V106.051V106.025V105.998V105.971V105.944V105.917V105.89V105.863V105.836V105.809V105.782V105.756V105.729V105.702V105.675V105.648V105.621V105.594V105.567V105.54V105.513V105.486V105.46V105.433V105.379V105.352V105.325V105.298V105.271V105.244V105.217V105.164V105.137V105.11V105.083V105.056V105.002V104.975V104.948V104.922V104.868V104.841V104.814V104.787V104.733V104.706V104.679V104.626V104.599V104.572V104.518V104.491V104.464V104.41V104.383V104.357V104.303V104.276V104.249V104.195V104.168V104.114V104.087V104.061V104.007V103.98V103.926V103.899V103.845V103.818V103.765V103.738V103.711V103.657V103.63V103.576V103.549V103.496V103.469V103.415V103.361V103.334V103.28V103.253V103.2V103.173V103.119V103.092V103.038L50.97 102.984V102.957V102.904V102.877V102.823V102.769V102.742V102.688V102.662V102.608L50.9835 102.554V102.527V102.473V102.419V102.392V102.339L50.9969 102.285V102.258V102.204V102.15V102.123V102.07L51.0104 102.016V101.962V101.935V101.881L51.0238 101.828V101.801V101.747V101.693L51.0373 101.639V101.612V101.558V101.505L51.0507 101.451V101.397V101.37V101.316L51.0642 101.263V101.209L51.0776 101.155V101.128V101.074V101.02L51.0911 100.967V100.913V100.886V100.832L51.1045 100.778V100.724L51.118 100.671L51.1584 100.482C50.6875 99.9711 50.0418 99.6483 49.1943 99.4868C48.2662 99.3254 47.4859 99.5272 46.8402 100.106C46.1945 100.684 45.7775 101.491 45.5892 102.54C45.4009 103.617 45.495 104.518 45.8717 105.231C46.2483 105.944 46.8671 106.374 47.7281 106.536C48.5486 106.684 49.3692 106.509 50.1494 106.038L50.9566 106.724Z" fill="#4F16A3"/>
<path d="M37.3834 95.1686L37.4641 95.209C38.7555 94.6171 39.9393 94.5902 41.0155 95.1148C41.9168 95.5587 42.5221 96.191 42.845 97.025C43.1678 97.859 43.1274 98.6662 42.7373 99.4733C41.6343 101.72 39.0784 101.935 35.0562 100.132L34.9351 100.375C34.5988 101.061 34.5181 101.626 34.6795 102.07C34.841 102.513 35.2849 102.917 35.9978 103.267C36.9664 103.738 38.2578 103.926 39.8451 103.832L39.3743 106.105C37.7332 106.267 36.1324 105.971 34.5988 105.217C33.0787 104.477 32.1505 103.603 31.8277 102.608C31.5048 101.612 31.6932 100.415 32.4061 99.0294L34.1683 95.4377C34.3567 95.061 34.4239 94.792 34.3701 94.644C34.3163 94.496 34.1011 94.3077 33.7244 94.0925L34.8679 92.2495C36.6704 92.8952 37.5045 93.8772 37.3699 95.1686H37.3834ZM36.8453 96.4735L35.7153 98.7738C37.0336 99.2177 38.0291 99.4329 38.6748 99.4195C39.3205 99.3926 39.7779 99.1101 40.0469 98.5855C40.2352 98.1954 40.2621 97.8052 40.1007 97.442C39.9393 97.0654 39.6433 96.7694 39.186 96.5542C38.4461 96.191 37.6659 96.1641 36.8453 96.4869V96.4735Z" fill="#4F16A3"/>
<path d="M33.3746 90.7026C33.6302 91.1734 33.7647 91.6308 33.7782 92.0882C33.7782 92.5455 33.6571 92.9491 33.3612 93.2719C33.0249 93.6486 32.581 93.8773 32.016 93.9446C31.451 94.0118 30.8725 93.9311 30.2672 93.6755C30.5228 94.3347 30.59 95.0073 30.469 95.7068C30.3479 96.4063 30.0251 97.0385 29.5273 97.6035C28.7337 98.5048 27.7382 98.9622 26.5275 99.0025C25.3168 99.0294 24.1465 98.5586 23.0165 97.5632C22.2363 96.8771 21.604 96.0162 21.1198 94.9535L18.6849 93.1643L20.2454 91.2138L21.604 92.8953C21.604 92.3976 21.8462 91.846 22.3708 91.2541C23.1241 90.3932 24.0927 89.9627 25.2765 89.9493C26.4603 89.9358 27.5499 90.3932 28.5722 91.281C28.9354 91.6039 29.2717 91.9806 29.5946 92.4379C30.1865 92.6532 30.6169 92.5993 30.886 92.2899C31.0878 92.0613 31.1147 91.7788 30.9533 91.4559C30.7918 91.1331 30.3883 90.6891 29.7291 90.1107H29.7157L29.7022 90.0838H29.6888L29.6753 90.0569H29.6618L29.6484 90.03L29.608 90.0031H29.5946L29.5811 89.9762H29.5677L29.5542 89.9493L29.5139 89.9224H29.5004L29.4601 89.8686H29.4466L29.4063 89.8148H29.3928L29.3525 89.7609L29.3121 89.734H29.2986L29.2583 89.6802L29.2179 89.6533L29.1776 89.6264L29.1372 89.5995L29.0969 89.5726L29.0565 89.5457L29.0161 89.5188L28.8682 89.3977C26.3526 87.1916 25.7876 85.3218 27.1329 83.7748C27.9803 82.8062 29.1641 82.4296 30.6708 82.6313C32.1774 82.8331 33.6033 83.5326 34.962 84.7299C36.1189 85.7388 36.8856 86.788 37.2757 87.8642C37.6659 88.9404 37.5448 89.8417 36.8991 90.5681C36.4955 91.0254 35.9843 91.281 35.3521 91.3349C34.7333 91.3887 34.0741 91.2003 33.3746 90.7564V90.7026ZM27.4692 95.7606C27.9131 95.2494 28.1283 94.7113 28.1014 94.1598C28.0745 93.5948 27.8055 93.0971 27.3077 92.6532C26.8369 92.2361 26.3257 92.0747 25.7876 92.1554C25.2496 92.2361 24.7384 92.5455 24.2676 93.0836C23.8102 93.6082 23.5815 94.1329 23.595 94.6844C23.595 95.2225 23.864 95.7337 24.3886 96.191C24.8594 96.6081 25.3841 96.7829 25.9356 96.7022C26.5006 96.6215 27.0118 96.3256 27.4826 95.7875L27.4692 95.7606ZM32.5137 89.4246C33.4419 89.7879 34.1279 89.7206 34.5584 89.2229C34.8947 88.8327 34.962 88.3216 34.7333 87.6893C34.5046 87.0571 34.0472 86.4248 33.3477 85.806C32.5944 85.1469 31.8545 84.7299 31.1416 84.555C30.4152 84.3801 29.8771 84.5146 29.5004 84.9316C29.1641 85.3083 29.1238 85.7253 29.3794 86.1692C29.6215 86.6266 30.1596 87.2185 30.9802 87.9315C31.5855 88.4695 32.0967 88.9538 32.5137 89.4112V89.4246Z" fill="#4F16A3"/>
<path d="M20.3261 85.1872L20.3933 85.1468C21.1332 84.5953 21.5637 83.9093 21.7116 83.1156C21.8596 82.3219 21.6578 81.5013 21.1198 80.6808C20.4472 79.6584 19.519 78.8647 18.3621 78.3266L20.1512 76.7258C21.2812 77.3312 22.2766 78.2863 23.1376 79.6046C24.1196 81.0978 24.4693 82.5909 24.1868 84.0841C23.9043 85.5773 23.0165 86.8015 21.5233 87.7835C20.0167 88.7789 18.4966 89.1287 16.9631 88.8327C15.443 88.5368 14.2188 87.6893 13.2906 86.2903C12.497 85.0796 12.2145 83.9093 12.4566 82.7793C12.6987 81.6628 13.3982 80.7211 14.5551 79.9543C15.147 79.5642 15.712 79.2952 16.2501 79.1338L20.3395 85.2007L20.3261 85.1872ZM18.8867 86.0347L16.2366 82.0394L16.0752 82.147C14.7166 83.0349 14.4206 84.0841 15.2008 85.2679C15.6044 85.8867 16.1559 86.2499 16.8554 86.371C17.5549 86.4786 18.2276 86.371 18.8867 86.0347Z" fill="#4F16A3"/>
<path d="M5.81131 64.8745L0.874387 65.7355L0 62.9912L16.3174 60.1394L16.8151 62.9509L15.739 63.1392C16.8689 63.9598 17.5281 64.9014 17.7164 65.9911C17.972 67.4439 17.6357 68.6949 16.721 69.7577C15.8062 70.8204 14.4879 71.493 12.7795 71.8024C11.0442 72.0983 9.52409 71.8158 8.23269 70.9549C6.92783 70.0805 6.14761 68.8564 5.87857 67.2825C5.74405 66.4888 5.71714 65.6817 5.82476 64.888L5.81131 64.8745ZM8.3403 64.4306C8.01745 65.0898 7.92329 65.8296 8.05781 66.6233C8.21923 67.5515 8.67661 68.2107 9.44338 68.6142C10.1967 69.0178 11.1114 69.1389 12.1607 68.9505C13.2234 68.7622 14.0305 68.3586 14.5821 67.7533C15.1336 67.1345 15.3354 66.4081 15.1874 65.574C15.0395 64.7131 14.609 64.0136 13.8826 63.4621H13.8557H13.8288H13.8019H13.775H13.748H13.7211H13.6942H13.6673H13.6404H13.6135H13.5866H13.5597H13.5328H13.5059H13.479H13.4521H13.4252H13.3983H13.3714H13.3445H13.3176H13.2907H13.2638H13.2369H13.21H13.1831H13.1562H13.1293H13.1023H13.0754H13.0485H13.0216H12.9947H12.9678H12.9409H12.914H12.8871H12.8602H12.8064H12.7795H12.7526H12.7257H12.6988H12.6719H12.645H12.6181H12.5912H12.5643H12.5374H12.5105H12.4566H12.4297H12.4028H12.3759H12.349H12.3221H12.2683H12.2414H12.2145H12.1876H12.1607H12.1069H12.08H12.0531H12.0262H11.9724H11.9455H11.9186H11.8648H11.8379H11.8109H11.784H11.7302H11.7033H11.6764H11.6226H11.5957H11.5688H11.515H11.4881H11.4343H11.4074H11.3805H11.3267H11.2998H11.246H11.2191H11.1921H11.1383H11.1114H11.0576H11.0307H10.9769H10.95H10.8962H10.8693H10.8155H10.7886H10.7348H10.7079H10.6541H10.6272H10.5734H10.5464H10.4926H10.4657H10.4119H10.385H10.3312H10.3043H10.2505L10.1967 63.4755H10.1698H10.116H10.0891H10.0353H10.0084H9.95456H9.90075H9.87384H9.82004L9.76623 63.489H9.73932H9.68551H9.63171H9.6048H9.55099L9.49718 63.5024H9.47028H9.41647H9.36266H9.33576H9.28195L9.22814 63.5159H9.20124H9.14743H9.09362L9.03981 63.5293H9.01291H8.9591H8.90529L8.85148 63.5428H8.82458H8.77077H8.71696L8.66315 63.5562H8.63625H8.58244H8.52863L8.47482 63.5697H8.42102H8.39411H8.3403L8.2865 63.5831H8.23269L8.17888 63.5966H8.15197H8.09817H8.04436L7.99055 63.61H7.93674L7.88293 63.6235L7.6677 63.6639L8.3403 64.4306Z" fill="#4F16A3"/>
<path d="M11.5688 55.485H11.636C12.5642 55.5254 13.331 55.2832 13.9498 54.7586C14.5686 54.234 14.9318 53.4806 15.0394 52.4986C15.1739 51.2745 14.9587 50.0907 14.4072 48.9204L16.8017 48.8128C17.2859 49.9965 17.4474 51.3687 17.2859 52.9291C17.0976 54.7048 16.4115 56.0903 15.2412 57.0589C14.0709 58.0274 12.6046 58.4176 10.8424 58.2292C9.03979 58.0409 7.65422 57.3414 6.65877 56.1441C5.66331 54.9469 5.25975 53.521 5.44808 51.8529C5.6095 50.4136 6.13414 49.3239 7.02197 48.611C7.92327 47.898 9.05324 47.6155 10.4388 47.7635C11.1518 47.8442 11.7571 47.9922 12.2683 48.2074L11.5822 55.485H11.5688ZM9.91418 55.2429L10.3985 50.4808L10.2101 50.4539C8.58242 50.279 7.70803 50.8978 7.54661 52.3103C7.46589 53.0502 7.65422 53.6824 8.12505 54.207C8.58242 54.7317 9.18776 55.0814 9.91418 55.2429Z" fill="#4F16A3"/>
<path d="M17.7164 38.4547C18.7118 38.8313 19.3844 39.5308 19.7207 40.5667C20.057 41.6025 19.9763 42.7728 19.4786 44.0911C18.8867 45.6516 18.0527 46.8757 16.9765 47.777L15.1201 46.4049C16.1963 45.5036 16.9765 44.4409 17.4204 43.2436C17.6222 42.719 17.676 42.2616 17.5818 41.8715C17.5011 41.4814 17.2724 41.2258 16.9092 41.0913C16.5326 40.9433 16.1828 41.0106 15.8465 41.2931C15.5237 41.5621 15.1336 42.0329 14.7031 42.6786C14.0305 43.701 13.3175 44.4274 12.6046 44.8579C11.8782 45.2883 11.0576 45.3422 10.1294 44.9924C9.14738 44.6292 8.50168 43.9431 8.19228 42.9611C7.88288 41.9791 7.96359 40.8492 8.43442 39.5981C8.98595 38.1453 9.73927 36.9884 10.7078 36.114L12.5642 37.4861C11.5688 38.3874 10.8692 39.3694 10.4657 40.4456C10.0756 41.4814 10.2235 42.1406 10.9231 42.3961C11.2863 42.5307 11.6226 42.4634 11.932 42.1944C12.2414 41.9253 12.618 41.4545 13.0754 40.7953C13.7749 39.7595 14.4879 39.0331 15.2143 38.6027C15.9407 38.1722 16.7747 38.1318 17.7029 38.4816L17.7164 38.4547Z" fill="#4F16A3"/>
<path d="M10.5733 27.8544C11.0307 28.1234 11.3132 28.4732 11.4073 28.9036C11.5149 29.3206 11.4073 29.778 11.1248 30.2623C10.8423 30.7331 10.4926 31.0156 10.0621 31.1232C9.64511 31.2308 9.20119 31.1367 8.74381 30.8676C8.29989 30.5986 8.03085 30.2488 7.90978 29.8318C7.78872 29.4148 7.88288 28.9574 8.16537 28.4866C8.46132 28.0023 8.81107 27.7064 9.24154 27.6122C9.67201 27.5181 10.1025 27.5988 10.5464 27.8678L10.5733 27.8544ZM23.1645 35.8449L21.6847 38.2932L12.1876 32.5626L13.3175 29.8991L23.1645 35.8449Z" fill="#4F16A3"/>
<path d="M25.3438 33.3563C24.873 33.5984 24.4021 33.733 23.9448 33.733C23.4874 33.733 23.0838 33.585 22.7744 33.289C22.4112 32.9527 22.196 32.4954 22.1422 31.9304C22.0884 31.3654 22.1826 30.7869 22.4516 30.1816C21.7924 30.4237 21.1064 30.4775 20.4203 30.3296C19.7343 30.1816 19.102 29.8587 18.5505 29.3476C17.6761 28.5404 17.2322 27.5315 17.2322 26.3208C17.2322 25.1102 17.7299 23.9533 18.7523 22.8502C19.4518 22.0969 20.3396 21.4781 21.4023 21.0073L23.2453 18.6128L25.1555 20.2136L23.447 21.5319C23.9448 21.5319 24.4963 21.8009 25.0748 22.339C25.9222 23.1192 26.3258 24.0878 26.3123 25.2716C26.2854 26.4554 25.8281 27.5315 24.8999 28.5404C24.577 28.8902 24.1735 29.2265 23.7295 29.5359C23.5009 30.1143 23.5412 30.5448 23.8506 30.8273C24.0793 31.0291 24.3483 31.0694 24.6712 30.908C24.994 30.76 25.4514 30.3565 26.0433 29.7242H26.0568L26.0702 29.6839H26.0837L26.0971 29.6435H26.1106L26.124 29.6032L26.1509 29.5628H26.1644L26.1778 29.5224H26.1913L26.2047 29.4821L26.2316 29.4417H26.2451L26.272 29.3879H26.2854L26.3123 29.3341H26.3258L26.3527 29.2803L26.3796 29.24H26.3931L26.42 29.1861L26.4469 29.1458L26.4738 29.1054L26.5007 29.0651L26.5276 29.0247L26.5545 28.9844L26.5814 28.944L26.7159 28.796C28.9759 26.3343 30.8726 25.8097 32.3792 27.1952C33.3343 28.0696 33.6841 29.2534 33.442 30.76C33.1998 32.2667 32.4734 33.6791 31.2493 35.0109C30.2135 36.1409 29.1507 36.8807 28.0746 37.244C26.9984 37.6072 26.0971 37.4592 25.3842 36.8C24.9268 36.383 24.6846 35.8584 24.6577 35.2396C24.6174 34.6073 24.8326 33.9616 25.2765 33.2756L25.3438 33.3563ZM20.4203 27.3432C20.9181 27.8006 21.4427 28.0293 22.0077 28.0158C22.5727 28.0158 23.0704 27.7468 23.5412 27.249C23.9717 26.7917 24.1466 26.2805 24.0793 25.7424C24.012 25.1909 23.7161 24.6797 23.1915 24.1954C22.6803 23.7246 22.1556 23.4825 21.6176 23.4825C21.0795 23.4825 20.5683 23.7246 20.0975 24.2358C19.667 24.6931 19.4921 25.2178 19.5459 25.7693C19.6132 26.3343 19.8957 26.8589 20.4203 27.3298V27.3432ZM26.6217 32.5357C26.2316 33.4505 26.2854 34.1365 26.7697 34.5804C27.1464 34.9302 27.6576 34.9975 28.3033 34.7957C28.949 34.5804 29.5812 34.1365 30.2135 33.4505C30.8861 32.7106 31.33 31.9842 31.5183 31.2712C31.7066 30.5583 31.5856 30.0067 31.182 29.6166C30.8188 29.2803 30.4018 29.2265 29.9444 29.4686C29.487 29.7108 28.8817 30.222 28.1418 31.0291C27.5903 31.621 27.0926 32.1187 26.6217 32.5357Z" fill="#4F16A3"/>
<path d="M40.5716 20.5903L38.1233 22.07L34.5854 16.2587C34.1684 15.5726 33.7379 15.1691 33.294 15.048C32.85 14.9269 32.3523 15.048 31.7873 15.3843C31.0071 15.8686 30.4825 16.5815 30.2134 17.5501L34.3432 24.3569L31.9084 25.8366L26.1375 16.3394L28.384 14.5234L29.2987 16.03C29.6081 14.4427 30.3345 13.2992 31.5183 12.5863C32.4868 11.9944 33.415 11.833 34.3029 12.0885C35.2042 12.3441 35.9575 12.9898 36.5763 14.0122L40.5581 20.5768L40.5716 20.5903Z" fill="#4F16A3"/>
<path d="M48.7908 10.8777C49.2078 11.1468 49.4768 11.5503 49.5844 12.0749C49.6921 12.5996 49.6113 13.0704 49.3423 13.5009C49.0733 13.9313 48.6697 14.2004 48.1316 14.308C47.5801 14.4291 47.0824 14.3484 46.6519 14.0659C46.2214 13.7834 45.9524 13.3798 45.8448 12.8686C45.7371 12.344 45.8179 11.8732 46.1004 11.4562C46.3828 11.0391 46.7999 10.7701 47.3514 10.649C47.8895 10.5414 48.3603 10.6221 48.7908 10.8912V10.8777Z" fill="#4F16A3"/>
</svg>
